<?xml version="1.0" encoding="utf-8"?>
<!-- Generator: Adobe Illustrator 24.0.0, SVG Export Plug-In . SVG Version: 6.00 Build 0)  -->
<svg version="1.1" id="Слой_1" xmlns="http://www.w3.org/2000/svg" xmlns:xlink="http://www.w3.org/1999/xlink" x="0px" y="0px"
	 viewBox="0 0 120 120" style="enable-background:new 0 0 120 120;" xml:space="preserve">
<style type="text/css">
	.st0{fill:#2B2B2B;}
</style>
<g>
	<g>
		<path class="st0" d="M119.84,100.2c0-16.25-10.27-30.87-25.56-36.38l-4.61-1.66L60.01,90.74l-29.7-28.42l-4.42,1.57
			C10.5,69.35,0.16,83.99,0.16,100.33V120h23.55v-15.42h7.03V120h58.83v-15.42h7.03V120h23.24L119.84,100.2z"/>
		<path class="st0" d="M60,70.2c-5.26,0-10.26-1.11-14.78-3.1l14.77,13.94l14.45-13.79C70,69.15,65.12,70.2,60,70.2L60,70.2z"/>
		<path class="st0" d="M60,17.47c7.94,0,15.59-3.11,21.28-8.59C75.84,3.4,68.31,0,60,0S44.16,3.4,38.72,8.88
			C44.41,14.36,52.06,17.47,60,17.47z"/>
		<path class="st0" d="M60,63.41c16.55,0,30.01-13.46,30.01-30.01v-3.39c0-5.7-1.6-11.03-4.37-15.57C78.7,20.86,69.52,24.5,60,24.5
			c-9.52,0-18.7-3.64-25.64-10.07c-2.77,4.54-4.37,9.87-4.37,15.57v3.39C29.99,49.95,43.45,63.41,60,63.41L60,63.41z"/>
	</g>
</g>
</svg>
