<?xml version="1.0" encoding="utf-8"?>
<!-- Generator: Adobe Illustrator 24.0.0, SVG Export Plug-In . SVG Version: 6.00 Build 0)  -->
<svg version="1.1" id="Слой_1" xmlns="http://www.w3.org/2000/svg" xmlns:xlink="http://www.w3.org/1999/xlink" x="0px" y="0px"
	 viewBox="0 0 120 120" style="enable-background:new 0 0 120 120;" xml:space="preserve">
<style type="text/css">
	.st0{fill:#2B2B2B;}
</style>
<g>
	<path class="st0" d="M60,21.09c-21.45,0-38.91,17.45-38.91,38.91S38.55,98.91,60,98.91S98.91,81.45,98.91,60S81.45,21.09,60,21.09z
		 M56.48,28.13h7.03v7.03h-7.03V28.13z M35.16,63.52h-7.03v-7.03h7.03V63.52z M63.52,91.88h-7.03v-7.03h7.03V91.88z M64.97,69.94
		L60,64.97l-4.97,4.97l-4.97-4.97L55.03,60L35.06,40.03l4.97-4.97L60,55.03l20.05-20.05l4.97,4.97L64.97,60l4.97,4.97L64.97,69.94z
		 M84.84,63.52v-7.03h7.03v7.03H84.84z"/>
	<path class="st0" d="M60,0C26.86,0,0,26.86,0,60s26.86,60,60,60s60-26.86,60-60S93.14,0,60,0z M60,105.94
		c-25.33,0-45.94-20.61-45.94-45.94S34.67,14.06,60,14.06S105.94,34.67,105.94,60S85.33,105.94,60,105.94z"/>
</g>
</svg>
