<?xml version="1.0" encoding="utf-8"?>
<!-- Generator: Adobe Illustrator 23.0.1, SVG Export Plug-In . SVG Version: 6.00 Build 0)  -->
<svg version="1.1" id="Слой_1" xmlns="http://www.w3.org/2000/svg" xmlns:xlink="http://www.w3.org/1999/xlink" x="0px" y="0px"
	 viewBox="0 0 120 120" style="enable-background:new 0 0 120 120;" xml:space="preserve">
<style type="text/css">
	.st0{fill:#333333;}
</style>
<rect x="-14.3" y="-50.4" style="fill:none;" width="0.3" height="7.6"/>
<g>
	<g>
		<g>
			<g>
				<path class="st0" d="M76.9,77.3v26.1h-5.4V81.7h-7l-0.4,9.2c-0.2,3.1-0.6,5.6-1.2,7.3c-0.6,1.8-1.5,3.1-2.7,3.9
					c-1.2,0.8-2.8,1.3-4.8,1.3H54v-4.3l0.9-0.1c1.4-0.2,2.3-1,2.9-2.3c0.6-1.4,0.9-3.8,1.1-7.4l0.4-12H76.9z"/>
				<path class="st0" d="M96.1,92.1H85.8v7h12.1v4.3H80.4V77.3h17.5v4.4H85.8v6.2h10.3V92.1z"/>
				<path class="st0" d="M120,81.7h-8v21.7h-5.4V81.7h-7.9v-4.4H120V81.7z"/>
			</g>
		</g>
	</g>
	<path class="st0" d="M19,23.6h-0.3L2.4,32.4L0,22.7l20.4-10.9h10.8v93.3H19V23.6z"/>
	<g>
		<path class="st0" d="M87.3,22.5V11.8H42.6l-6,44.8c3.4-0.4,7.6-1,12.9-1c10.6,0,17.8,2.8,22,7.4l-5.7,7.1l0.4,0.3l15.6-19.3
			l-0.4-0.3l-2.1,2.6c-1.2-0.9-2.4-1.8-3.6-2.5c-5.7-3.4-12.9-5-20.1-5c-3.4,0-5.5,0.3-7.6,0.6l3.6-24H87.3z"/>
		<path class="st0" d="M45.5,95.6c-4.8-1-8.7-2.7-11.2-4.2l-3.2,9.6c1.8,1.2,4.3,2.3,7.3,3.3l-2.9,3.6l0.4,0.3l15.6-19.3l-0.4-0.3
			L45.5,95.6z"/>
	</g>
</g>
</svg>
