<?xml version="1.0" encoding="utf-8"?>
<!-- Generator: Adobe Illustrator 24.0.0, SVG Export Plug-In . SVG Version: 6.00 Build 0)  -->
<svg version="1.1" id="Слой_1" xmlns="http://www.w3.org/2000/svg" xmlns:xlink="http://www.w3.org/1999/xlink" x="0px" y="0px"
	 viewBox="0 0 120 120" style="enable-background:new 0 0 120 120;" xml:space="preserve">
<style type="text/css">
	.st0{fill:#2B2B2B;}
</style>
<g>
	<path class="st0" d="M116.48,47.11h-7.76c-1.15-4.35-2.88-8.52-5.17-12.43l5.5-5.5c0.66-0.66,1.03-1.55,1.03-2.49
		s-0.37-1.83-1.03-2.49L95.8,10.94c-1.37-1.37-3.6-1.37-4.97,0l-5.5,5.5c-3.92-2.29-8.08-4.02-12.43-5.17V3.52
		c0-1.94-1.57-3.52-3.52-3.52H50.63c-1.94,0-3.52,1.57-3.52,3.52v7.76c-4.35,1.15-8.52,2.88-12.43,5.17l-5.5-5.5
		c-1.37-1.37-3.6-1.37-4.97,0L10.94,24.2c-0.66,0.66-1.03,1.55-1.03,2.49s0.37,1.83,1.03,2.49l5.5,5.5
		c-2.29,3.92-4.02,8.08-5.17,12.43H3.52C1.57,47.11,0,48.68,0,50.63v18.75c0,1.94,1.57,3.52,3.52,3.52h7.76
		c1.15,4.35,2.88,8.52,5.17,12.43l-5.5,5.5c-0.66,0.66-1.03,1.55-1.03,2.49c0,0.93,0.37,1.83,1.03,2.49l13.26,13.26
		c0.66,0.66,1.55,1.03,2.49,1.03s1.83-0.37,2.49-1.03l5.5-5.5c3.92,2.29,8.08,4.02,12.43,5.17v7.76c0,1.94,1.57,3.52,3.52,3.52
		h18.75c1.94,0,3.52-1.57,3.52-3.52v-7.76c4.35-1.15,8.52-2.88,12.43-5.17l5.5,5.5c0.66,0.66,1.55,1.03,2.49,1.03
		c0.93,0,1.83-0.37,2.49-1.03l13.26-13.26c0.66-0.66,1.03-1.55,1.03-2.49c0-0.93-0.37-1.83-1.03-2.49l-5.5-5.5
		c2.29-3.92,4.02-8.08,5.17-12.43h7.76c1.94,0,3.52-1.57,3.52-3.52V50.63C120,48.68,118.43,47.11,116.48,47.11L116.48,47.11z
		 M60,92.81c-18.09,0-32.81-14.72-32.81-32.81S41.91,27.19,60,27.19S92.81,41.91,92.81,60S78.09,92.81,60,92.81z"/>
	<path class="st0" d="M74.06,42.42H63.52v7.03c0,1.94-1.57,3.52-3.52,3.52s-3.52-1.57-3.52-3.52v-7.03H45.94
		c-1.94,0-3.52,1.57-3.52,3.52v28.13c0,1.94,1.57,3.52,3.52,3.52h28.13c1.94,0,3.52-1.57,3.52-3.52V45.94
		C77.58,44,76,42.42,74.06,42.42z"/>
</g>
</svg>
