<?xml version="1.0" encoding="utf-8"?>
<!-- Generator: Adobe Illustrator 17.0.0, SVG Export Plug-In . SVG Version: 6.00 Build 0)  -->
<!DOCTYPE svg PUBLIC "-//W3C//DTD SVG 1.1//EN" "http://www.w3.org/Graphics/SVG/1.1/DTD/svg11.dtd">
<svg version="1.1" id="Слой_1" xmlns="http://www.w3.org/2000/svg" xmlns:xlink="http://www.w3.org/1999/xlink" x="0px" y="0px"
	 width="22.003px" height="22.003px" viewBox="0 0 22.003 22.003" enable-background="new 0 0 22.003 22.003" xml:space="preserve">
<g>
	<g>
		<path opacity="0.4" fill="#CCCCCC" enable-background="new    " d="M5.28,4.748C5.395,4.56,5.62,4.477,5.62,4.477
			s1.623-0.521,1.857-0.585c0.234-0.064,0.138,0.101,0.138,0.101S6.866,5.375,6.742,5.531C6.618,5.687,6.444,5.737,6.444,5.737
			S6.212,5.805,5.912,5.892l0.323,0.326c0.097-0.009,0.098,0.047,0.087,0.088l0.3,0.303l0.201-0.383
			C6.943,5.995,7.18,5.928,7.18,5.928s1.788-0.536,2.034-0.605c0.245-0.069,0.143,0.114,0.143,0.114s-0.719,1.665-0.85,1.838
			C8.375,7.447,8.193,7.502,8.193,7.502S7.955,7.56,7.639,7.638L7.958,7.96c0.013-0.003,0.024-0.007,0.033-0.009
			c0.245-0.069,0.143,0.114,0.143,0.114s-0.008,0.018-0.022,0.05l0.374,0.378L8.77,7.87c0.132-0.255,0.358-0.298,0.358-0.298
			s2.114-0.611,2.359-0.679c0.211-0.059,0.143,0.114,0.143,0.114s-0.628,1.794-0.759,1.967s-0.314,0.227-0.314,0.227
			S10.03,9.335,9.462,9.48l0.357,0.361c0.367-0.093,0.645-0.164,0.645-0.164s0.219-0.061,0.288,0.037
			c0.059,0.083,1.486,2.151,1.486,2.151s0.236,0.316-0.031,0.382c-0.002,0-0.004,0.001-0.006,0.001l0.842,0.851l-0.431-0.588
			c0.41-0.305,0.575-0.828,0.575-0.828s0.471-1.255,0.488-1.307s0.061-0.113,0.061-0.113s0.373-0.367,0.514-0.497
			c0.173-0.158,0.34,0.052,0.34,0.052s1.15,1.699,1.298,1.908c0.148,0.209,0,0.375,0,0.375s-1.602,1.804-1.769,1.986
			c-0.018,0.019-0.035,0.034-0.052,0.047l0.377,0.381c0.369-0.419,1.682-1.913,1.682-1.913s0.164-0.17,0.294,0.005
			c0.1,0.134,1.263,1.833,1.263,1.833s0.123,0.189,0.003,0.325c-0.083,0.094-0.912,1.037-1.409,1.603l2.413,2.439
			c2.043-1.997,3.311-4.783,3.311-7.866C22.001,4.865,17.076-0.06,11-0.06c-3.041,0-5.794,1.234-7.785,3.229l1.873,1.893L5.28,4.748
			z M11.549,6.414c0,0-1.88,0.55-2.173,0.623C9.083,7.111,9.22,6.872,9.22,6.872l0.69-1.567c0.132-0.255,0.358-0.298,0.358-0.298
			s1.963-0.628,2.209-0.697c0.211-0.059,0.143,0.114,0.143,0.114s-0.625,1.59-0.756,1.762C11.732,6.359,11.549,6.414,11.549,6.414z
			 M13.783,9.692c-0.075,0.225-0.804,1.903-0.804,1.903s-0.085,0.12-0.2-0.045s-1.498-2.168-1.498-2.168s-0.075-0.14-0.01-0.31
			s0.803-2.009,0.803-2.009s0.08-0.155,0.174-0.021c0.068,0.096,1.51,2.235,1.51,2.235S13.858,9.468,13.783,9.692z M14.842,7.035
			c-0.075,0.225-0.684,1.723-0.684,1.723s-0.085,0.12-0.2-0.045S12.48,6.545,12.48,6.545s-0.075-0.14-0.01-0.31
			s0.711-1.829,0.711-1.829s0.08-0.155,0.174-0.021c0.068,0.096,1.462,2.235,1.462,2.235S14.917,6.81,14.842,7.035z M18.979,9.775
			c0.095,0.138,1.18,1.931,1.18,1.931s0.116,0.193-0.008,0.325c-0.124,0.132-1.72,1.99-1.72,1.99s-0.108,0.093-0.209-0.015
			c-0.101-0.108-1.334-1.993-1.334-1.993s-0.101-0.178,0.031-0.317c0.131-0.139,1.766-1.936,1.766-1.936S18.855,9.595,18.979,9.775z
			 M17.133,7.017c0.095,0.138,1.243,1.999,1.243,1.999s0.116,0.193-0.008,0.325c-0.124,0.131-1.699,1.969-1.699,1.969
			s-0.108,0.093-0.209-0.015c-0.101-0.108-1.439-2.019-1.439-2.019s-0.101-0.178,0.031-0.317c0.131-0.139,1.787-1.957,1.787-1.957
			S17.009,6.837,17.133,7.017z M14.362,2.06c0.068,0.096,1.344,2.173,1.344,2.173s0.1,0.19,0.025,0.415
			c-0.075,0.225-0.644,1.523-0.644,1.523s-0.085,0.12-0.2-0.045s-1.359-2.188-1.359-2.188s-0.075-0.14-0.01-0.31
			c0.065-0.17,0.67-1.547,0.67-1.547S14.268,1.927,14.362,2.06z M10.472,4.275l0.58-1.345c0.132-0.255,0.358-0.298,0.358-0.298
			s1.847-0.608,2.093-0.676c0.211-0.059,0.143,0.114,0.143,0.114s-0.521,1.348-0.652,1.521c-0.131,0.173-0.314,0.227-0.314,0.227
			s-1.757,0.55-2.051,0.623C10.336,4.514,10.472,4.275,10.472,4.275z M8.333,3.652c0,0,1.67-0.546,1.904-0.61
			c0.234-0.064,0.138,0.101,0.138,0.101S9.791,4.514,9.667,4.67C9.543,4.826,9.369,4.876,9.369,4.876S7.774,5.355,7.494,5.424
			S7.343,5.277,7.343,5.277l0.65-1.355C8.115,3.706,8.333,3.652,8.333,3.652z"/>
		<path opacity="0.6" fill="#CCCCCC" enable-background="new    " d="M11.001,21.942c2.993,0,5.706-1.196,7.69-3.135l-2.413-2.439
			c-0.218,0.248-0.372,0.423-0.372,0.423s-0.105,0.096-0.209-0.008c-0.104-0.105-1.361-1.851-1.361-1.851s-0.106-0.174,0.02-0.318
			c0.013-0.015,0.044-0.05,0.088-0.1l-0.377-0.381c-0.164,0.126-0.288-0.03-0.288-0.03l-0.737-1.006l-0.842-0.85
			c-0.258,0.063-2.286,0.496-2.286,0.496s-0.244,0.066-0.34-0.052c-0.084-0.104-1.612-2.146-1.612-2.146s-0.134-0.2,0.094-0.256
			c0.116-0.029,1.089-0.277,1.762-0.448L9.462,9.48C8.881,9.628,8.256,9.787,8.108,9.824C7.815,9.898,7.951,9.659,7.951,9.659
			l0.534-1.166L8.111,8.115C7.987,8.4,7.361,9.82,7.243,9.976c-0.131,0.173-0.314,0.227-0.314,0.227s-1.862,0.454-2.156,0.528
			c-0.293,0.074-0.157-0.165-0.157-0.165L5.45,8.8c0.121-0.231,0.358-0.298,0.358-0.298S7.61,8.054,7.958,7.96L7.639,7.638
			C7.094,7.771,6.316,7.963,6.131,8.009C5.837,8.083,5.974,7.844,5.974,7.844l0.647-1.235l-0.3-0.303
			c-0.006,0.022-0.016,0.04-0.016,0.04s-0.789,1.556-0.92,1.728C5.253,8.247,5.071,8.302,5.071,8.302s-1.626,0.441-1.92,0.515
			C2.857,8.891,2.994,8.652,2.994,8.652l0.871-1.533C3.998,6.885,4.223,6.82,4.223,6.82s1.694-0.518,1.939-0.587
			C6.191,6.224,6.214,6.22,6.234,6.218L5.912,5.892c-0.483,0.14-1.145,0.33-1.317,0.373c-0.28,0.069-0.151-0.147-0.151-0.147
			L5.09,5.06L3.216,3.168C1.229,5.158,0,7.906,0,10.94C0,17.016,4.925,21.942,11.001,21.942z M5.127,14.775
			c0,0-0.478-0.589-0.498-0.62c-0.02-0.03,0.035-0.058,0.035-0.058s0.577-0.119,0.635-0.132s0.127,0.061,0.127,0.061
			s0.825,1.042,0.979,1.232c0.154,0.19-0.126,0.099-0.126,0.099s-0.764-0.326-0.901-0.39C5.241,14.904,5.127,14.775,5.127,14.775z
			 M5.603,13.914c0,0,0.113-0.038,0.236-0.062s0.226,0.014,0.226,0.014s0.6,0.25,0.727,0.305s0.236,0.209,0.236,0.209
			s1.247,1.58,1.429,1.799s-0.058,0.117-0.058,0.117s-1.148-0.545-1.35-0.648s-0.322-0.271-0.322-0.271s-1.131-1.378-1.155-1.405
			C5.548,13.945,5.603,13.914,5.603,13.914z M8.187,17.713c-0.209-0.091-1.112-0.53-1.112-0.53s-0.115-0.045-0.21-0.166
			C6.77,16.896,5.631,15.43,5.631,15.43s-0.141-0.211,0.115-0.096l1.104,0.541c0,0,0.185,0.083,0.274,0.204
			c0.089,0.121,1.14,1.513,1.14,1.513S8.439,17.823,8.187,17.713z M10.238,18.705c-0.209-0.091-1.329-0.634-1.329-0.634
			s-0.115-0.045-0.21-0.165c-0.096-0.121-1.262-1.633-1.262-1.633s-0.141-0.211,0.115-0.095l1.331,0.672
			c0,0,0.185,0.083,0.274,0.204s1.159,1.532,1.159,1.532S10.49,18.816,10.238,18.705z M12.541,19.816
			c-0.209-0.091-1.551-0.737-1.551-0.737s-0.115-0.045-0.21-0.166s-1.269-1.598-1.269-1.598S9.37,17.104,9.626,17.22l1.331,0.567
			c0,0,0.185,0.083,0.274,0.204s1.388,1.705,1.388,1.705S12.793,19.927,12.541,19.816z M13.917,15.373
			c0.1,0.135,1.345,1.809,1.345,1.809s0.123,0.189,0.003,0.325c-0.119,0.136-1.891,2.111-1.891,2.111s-0.105,0.096-0.209-0.008
			c-0.104-0.105-1.456-1.804-1.456-1.804s-0.107-0.174,0.02-0.318c0.127-0.144,1.893-2.119,1.893-2.119S13.787,15.198,13.917,15.373
			z M9.61,14.856c0.127-0.144,1.946-2.082,1.946-2.082s0.164-0.17,0.294,0.005c0.1,0.135,1.443,1.914,1.443,1.914
			s0.123,0.189,0.003,0.325c-0.119,0.136-1.952,2.113-1.952,2.113s-0.105,0.096-0.209-0.008c-0.104-0.105-1.545-1.949-1.545-1.949
			S9.484,15,9.61,14.856z M9.125,15.26c0.089,0.121,1.515,1.904,1.515,1.904s0.176,0.232-0.076,0.121
			c-0.209-0.091-1.509-0.713-1.509-0.713s-0.115-0.045-0.21-0.166s-1.439-1.821-1.439-1.821s-0.141-0.211,0.115-0.095l1.331,0.567
			C8.851,15.057,9.036,15.139,9.125,15.26z M4.795,11.16c0.17-0.041,2.237-0.519,2.237-0.519s0.208-0.056,0.273,0.034
			c0.056,0.077,1.541,1.998,1.541,1.998s0.224,0.293-0.03,0.355c-0.22,0.053-2.157,0.475-2.157,0.475s-0.232,0.061-0.323-0.049
			c-0.08-0.096-1.63-2.056-1.63-2.056S4.578,11.213,4.795,11.16z M5.576,13.406c0,0,0.224,0.293-0.03,0.355
			c-0.22,0.053-2.006,0.452-2.006,0.452s-0.231,0.061-0.323-0.049c-0.08-0.096-1.62-2.043-1.62-2.043s-0.128-0.185,0.089-0.238
			c0.17-0.041,2.075-0.529,2.075-0.529s0.208-0.056,0.273,0.034C4.091,11.464,5.576,13.406,5.576,13.406z M2.539,9.61
			C2.67,9.384,2.897,9.311,2.897,9.311s1.636-0.425,1.882-0.495C5.024,8.747,4.922,8.93,4.922,8.93s-0.829,1.655-0.96,1.828
			s-0.314,0.227-0.314,0.227s-1.626,0.413-1.919,0.486c-0.293,0.074-0.157-0.165-0.157-0.165L2.539,9.61z"/>
	</g>
</g>
</svg>
