<?xml version="1.0" encoding="utf-8"?>
<!-- Generator: Adobe Illustrator 23.0.1, SVG Export Plug-In . SVG Version: 6.00 Build 0)  -->
<svg version="1.1" id="Слой_1" xmlns="http://www.w3.org/2000/svg" xmlns:xlink="http://www.w3.org/1999/xlink" x="0px" y="0px"
	 viewBox="0 0 171.1 60" style="enable-background:new 0 0 171.1 60;" xml:space="preserve">
<style type="text/css">
	.st0{fill:#E6E6E6;}
	.st1{fill:#CCCCCC;}
	.st2{fill:#FFA000;}
</style>
<g>
	<g>
		<polygon class="st0" points="127.6,52.5 127.6,59 45.6,59 45.6,52.5 44.6,52.5 44.6,60 128.6,60 128.6,52.5 		"/>
		<polygon class="st0" points="45.6,7.5 45.6,1 127.6,1 127.6,7.5 128.6,7.5 128.6,0 44.6,0 44.6,7.5 		"/>
	</g>
	<g>
		<path class="st1" d="M2.9,40.7h0.5V46H2.9v-4.3L0.5,46H0v-5.3h0.5v4.3L2.9,40.7z"/>
		<path class="st1" d="M9,45.6c0.3,0,0.6-0.1,0.9-0.3c0.2-0.2,0.4-0.5,0.4-0.9h0.5c0,0.3-0.1,0.6-0.3,0.9s-0.4,0.5-0.6,0.6
			S9.3,46.1,9,46.1c-0.6,0-1.1-0.2-1.4-0.7s-0.5-1.1-0.5-1.9v-0.2c0-0.5,0.1-1,0.2-1.4S7.7,41.2,8,41c0.3-0.2,0.6-0.3,1-0.3
			c0.5,0,0.9,0.2,1.2,0.5c0.3,0.3,0.5,0.8,0.5,1.4h-0.5c0-0.4-0.1-0.7-0.4-1S9.3,41.1,9,41.1c-0.4,0-0.8,0.2-1,0.6s-0.4,0.9-0.4,1.6
			v0.2c0,0.7,0.1,1.2,0.4,1.6S8.5,45.6,9,45.6z"/>
		<path class="st1" d="M15.5,43.6h-0.7V46h-0.5v-5.3h0.5v2.3h0.7l1.6-2.3h0.6L16,43.3l2,2.7h-0.7L15.5,43.6z"/>
		<path class="st1" d="M22.8,45.2l1.3-4.4h0.5l-1.9,6.2l-0.1,0.3c-0.2,0.6-0.6,1-1.1,1c-0.1,0-0.2,0-0.4-0.1l0-0.5l0.3,0
			c0.2,0,0.4-0.1,0.6-0.2c0.1-0.1,0.3-0.4,0.4-0.7l0.2-0.7l-1.7-5.2h0.5L22.8,45.2z"/>
		<path class="st1" d="M29.6,45.6c0.3,0,0.6-0.1,0.9-0.3c0.2-0.2,0.4-0.5,0.4-0.9h0.5c0,0.3-0.1,0.6-0.3,0.9s-0.4,0.5-0.6,0.6
			s-0.5,0.2-0.8,0.2c-0.6,0-1.1-0.2-1.4-0.7s-0.5-1.1-0.5-1.9v-0.2c0-0.5,0.1-1,0.2-1.4s0.4-0.7,0.7-0.9c0.3-0.2,0.6-0.3,1-0.3
			c0.5,0,0.9,0.2,1.2,0.5c0.3,0.3,0.5,0.8,0.5,1.4h-0.5c0-0.4-0.1-0.7-0.4-1s-0.5-0.4-0.9-0.4c-0.4,0-0.8,0.2-1,0.6
			s-0.4,0.9-0.4,1.6v0.2c0,0.7,0.1,1.2,0.4,1.6S29.1,45.6,29.6,45.6z"/>
		<path class="st1" d="M36.6,45.6c0.3,0,0.6-0.1,0.9-0.3c0.2-0.2,0.4-0.5,0.4-0.9h0.5c0,0.3-0.1,0.6-0.3,0.9s-0.4,0.5-0.6,0.6
			s-0.5,0.2-0.8,0.2c-0.6,0-1.1-0.2-1.4-0.7s-0.5-1.1-0.5-1.9v-0.2c0-0.5,0.1-1,0.2-1.4s0.4-0.7,0.7-0.9c0.3-0.2,0.6-0.3,1-0.3
			c0.5,0,0.9,0.2,1.2,0.5c0.3,0.3,0.5,0.8,0.5,1.4h-0.5c0-0.4-0.1-0.7-0.4-1s-0.5-0.4-0.9-0.4c-0.4,0-0.8,0.2-1,0.6
			s-0.4,0.9-0.4,1.6v0.2c0,0.7,0.1,1.2,0.4,1.6S36.1,45.6,36.6,45.6z"/>
		<path class="st1" d="M45.1,41.2h-1.6V46H43v-4.8h-1.6v-0.5h3.7V41.2z"/>
		<path class="st1" d="M48.6,46v-5.3h1.6c0.6,0,1,0.1,1.3,0.4s0.5,0.6,0.5,1.1c0,0.3-0.1,0.5-0.2,0.7c-0.1,0.2-0.3,0.4-0.6,0.5
			c0.3,0.1,0.5,0.2,0.7,0.4s0.3,0.5,0.3,0.8c0,0.5-0.1,0.8-0.4,1.1S51,46,50.5,46H48.6z M49.1,43.1h1.3c0.8,0,1.2-0.3,1.2-0.9
			c0-0.3-0.1-0.6-0.3-0.7s-0.5-0.2-0.9-0.2h-1.1V43.1z M49.1,43.6v1.9h1.4c0.4,0,0.7-0.1,0.9-0.3s0.3-0.4,0.3-0.7
			c0-0.3-0.1-0.5-0.3-0.7s-0.5-0.3-0.9-0.3H49.1z"/>
		<path class="st1" d="M55.6,43.3c0-0.5,0.1-1,0.2-1.4c0.2-0.4,0.4-0.7,0.7-0.9c0.3-0.2,0.6-0.3,1-0.3c0.6,0,1.1,0.2,1.4,0.7
			c0.4,0.5,0.6,1.1,0.6,2v0.1c0,0.5-0.1,1-0.3,1.4c-0.2,0.4-0.4,0.7-0.7,0.9c-0.3,0.2-0.6,0.3-1,0.3c-0.6,0-1.1-0.2-1.4-0.7
			c-0.4-0.5-0.6-1.1-0.6-2V43.3z M56.1,43.4c0,0.6,0.1,1.1,0.4,1.6s0.6,0.6,1.1,0.6c0.4,0,0.8-0.2,1.1-0.6s0.4-0.9,0.4-1.6v-0.1
			c0-0.4-0.1-0.8-0.2-1.1c-0.1-0.3-0.3-0.6-0.5-0.8c-0.2-0.2-0.5-0.3-0.8-0.3c-0.4,0-0.8,0.2-1.1,0.6c-0.3,0.4-0.4,0.9-0.4,1.6V43.4
			z"/>
		<path class="st1" d="M71.5,43.4c0,0.8-0.2,1.5-0.5,2s-0.7,0.7-1.2,0.7c-0.6,0-1.1-0.3-1.4-0.8V48h-0.5v-7.3h0.5l0,0.7
			c0.3-0.6,0.8-0.8,1.4-0.8c0.5,0,1,0.2,1.3,0.7C71.4,41.8,71.5,42.5,71.5,43.4L71.5,43.4z M71,43.3c0-0.7-0.1-1.2-0.4-1.6
			c-0.2-0.4-0.6-0.6-1-0.6c-0.3,0-0.6,0.1-0.8,0.3c-0.2,0.2-0.4,0.4-0.5,0.8v2.5c0.1,0.3,0.3,0.5,0.5,0.7s0.5,0.2,0.8,0.2
			c0.4,0,0.7-0.2,1-0.6S71,44.1,71,43.3z"/>
		<path class="st1" d="M78.1,46c0-0.2-0.1-0.4-0.1-0.7c-0.2,0.3-0.4,0.5-0.7,0.6s-0.6,0.2-0.9,0.2c-0.4,0-0.8-0.1-1-0.4
			C75.1,45.4,75,45,75,44.6c0-0.5,0.2-0.9,0.5-1.2s0.9-0.4,1.5-0.4H78v-0.6c0-0.4-0.1-0.7-0.3-0.9s-0.5-0.3-0.9-0.3
			c-0.3,0-0.6,0.1-0.9,0.3c-0.2,0.2-0.3,0.5-0.3,0.8l-0.5,0c0-0.4,0.2-0.8,0.5-1.1c0.3-0.3,0.7-0.5,1.2-0.5c0.5,0,0.9,0.1,1.2,0.4
			c0.3,0.3,0.4,0.7,0.4,1.2v2.5c0,0.5,0,0.9,0.1,1.1V46H78.1z M76.5,45.6c0.3,0,0.6-0.1,0.9-0.3s0.4-0.4,0.6-0.8v-1.2h-0.9
			c-0.5,0-0.9,0.1-1.2,0.3s-0.4,0.5-0.4,0.9c0,0.3,0.1,0.5,0.3,0.7C76,45.5,76.2,45.6,76.5,45.6z"/>
		<path class="st1" d="M84.2,41.1c0.6,0,1,0.2,1.4,0.7s0.5,1,0.5,1.7v0.1c0,0.5-0.1,0.9-0.2,1.3s-0.4,0.7-0.7,0.9s-0.6,0.3-1,0.3
			c-0.6,0-1.1-0.2-1.4-0.7c-0.4-0.5-0.5-1.1-0.5-1.9v-0.5c0-1.1,0.2-2,0.5-2.6s0.9-1,1.5-1.2c0.4-0.1,0.7-0.2,0.9-0.3
			c0.2-0.1,0.2-0.3,0.2-0.5h0.4c0,0.3,0,0.5-0.1,0.7c-0.1,0.2-0.2,0.3-0.4,0.4s-0.5,0.2-0.9,0.3c-0.5,0.1-0.8,0.3-1.1,0.7
			s-0.5,0.9-0.5,1.5c0.2-0.3,0.4-0.5,0.7-0.7C83.6,41.2,83.9,41.1,84.2,41.1z M82.6,43.5v0.1c0,0.6,0.1,1.1,0.4,1.5
			c0.3,0.4,0.6,0.6,1.1,0.6c0.4,0,0.8-0.2,1.1-0.6s0.4-0.9,0.4-1.5v-0.1c0-0.6-0.1-1-0.4-1.3s-0.6-0.5-1.1-0.5s-0.8,0.2-1.1,0.5
			S82.6,42.9,82.6,43.5z"/>
		<path class="st1" d="M89.4,43.3c0-0.5,0.1-1,0.2-1.4c0.2-0.4,0.4-0.7,0.7-0.9c0.3-0.2,0.6-0.3,1-0.3c0.6,0,1.1,0.2,1.4,0.7
			c0.4,0.5,0.6,1.1,0.6,2v0.1c0,0.5-0.1,1-0.3,1.4c-0.2,0.4-0.4,0.7-0.7,0.9c-0.3,0.2-0.6,0.3-1,0.3c-0.6,0-1.1-0.2-1.4-0.7
			c-0.4-0.5-0.6-1.1-0.6-2V43.3z M89.9,43.4c0,0.6,0.1,1.1,0.4,1.6s0.6,0.6,1.1,0.6c0.4,0,0.8-0.2,1.1-0.6s0.4-0.9,0.4-1.6v-0.1
			c0-0.4-0.1-0.8-0.2-1.1c-0.1-0.3-0.3-0.6-0.5-0.8c-0.2-0.2-0.5-0.3-0.8-0.3c-0.4,0-0.8,0.2-1.1,0.6c-0.3,0.4-0.4,0.9-0.4,1.6V43.4
			z"/>
		<path class="st1" d="M100.1,41.2h-1.6V46H98v-4.8h-1.6v-0.5h3.7V41.2z"/>
		<path class="st1" d="M104.1,42.6h1.3c0.3,0,0.6,0.1,0.9,0.2s0.4,0.3,0.6,0.6c0.1,0.3,0.2,0.5,0.2,0.9c0,0.5-0.1,0.9-0.4,1.2
			s-0.7,0.5-1.2,0.5h-1.8v-5.3h0.5V42.6z M104.1,43.1v2.4h1.3c0.4,0,0.6-0.1,0.8-0.3c0.2-0.2,0.3-0.5,0.3-0.9c0-0.4-0.1-0.6-0.3-0.9
			c-0.2-0.2-0.5-0.3-0.8-0.3H104.1z M108.5,46h-0.5v-5.3h0.5V46z"/>
		<path class="st1" d="M118.9,45.6c0.3,0,0.6-0.1,0.9-0.3c0.2-0.2,0.4-0.5,0.4-0.9h0.5c0,0.3-0.1,0.6-0.3,0.9s-0.4,0.5-0.6,0.6
			s-0.5,0.2-0.8,0.2c-0.6,0-1.1-0.2-1.4-0.7s-0.5-1.1-0.5-1.9v-0.2c0-0.5,0.1-1,0.2-1.4s0.4-0.7,0.7-0.9c0.3-0.2,0.6-0.3,1-0.3
			c0.5,0,0.9,0.2,1.2,0.5c0.3,0.3,0.5,0.8,0.5,1.4h-0.5c0-0.4-0.1-0.7-0.4-1s-0.5-0.4-0.9-0.4c-0.4,0-0.8,0.2-1,0.6
			s-0.4,0.9-0.4,1.6v0.2c0,0.7,0.1,1.2,0.4,1.6S118.4,45.6,118.9,45.6z"/>
		<path class="st1" d="M130.1,43.6h-0.7V46h-0.5v-5.3h0.5v2.3h0.7l1.6-2.3h0.6l-1.8,2.6l2,2.7h-0.7L130.1,43.6z"/>
		<path class="st1" d="M138.7,46c0-0.2-0.1-0.4-0.1-0.7c-0.2,0.3-0.4,0.5-0.7,0.6s-0.6,0.2-0.9,0.2c-0.4,0-0.8-0.1-1-0.4
			c-0.3-0.3-0.4-0.6-0.4-1.1c0-0.5,0.2-0.9,0.5-1.2s0.9-0.4,1.5-0.4h0.9v-0.6c0-0.4-0.1-0.7-0.3-0.9s-0.5-0.3-0.9-0.3
			c-0.3,0-0.6,0.1-0.9,0.3c-0.2,0.2-0.3,0.5-0.3,0.8l-0.5,0c0-0.4,0.2-0.8,0.5-1.1c0.3-0.3,0.7-0.5,1.2-0.5c0.5,0,0.9,0.1,1.2,0.4
			c0.3,0.3,0.4,0.7,0.4,1.2v2.5c0,0.5,0,0.9,0.1,1.1V46H138.7z M137.2,45.6c0.3,0,0.6-0.1,0.9-0.3s0.4-0.4,0.6-0.8v-1.2h-0.9
			c-0.5,0-0.9,0.1-1.2,0.3s-0.4,0.5-0.4,0.9c0,0.3,0.1,0.5,0.3,0.7C136.6,45.5,136.9,45.6,137.2,45.6z"/>
		<path class="st1" d="M145.5,45.2l1.8-4.5h0.6V46h-0.5v-4.3l-1.7,4.3h-0.4l-1.8-4.4V46h-0.5v-5.3h0.6L145.5,45.2z"/>
		<path class="st1" d="M155.3,46h-0.5v-2.4h-2.4V46h-0.5v-5.3h0.5v2.4h2.4v-2.4h0.5V46z"/>
		<path class="st1" d="M161,46.1c-0.4,0-0.7-0.1-1-0.3s-0.5-0.5-0.7-0.9S159,44,159,43.5v-0.2c0-0.5,0.1-1,0.2-1.4
			c0.2-0.4,0.4-0.7,0.7-1s0.6-0.3,1-0.3c0.5,0,1,0.2,1.3,0.7c0.3,0.4,0.5,1,0.5,1.8v0.3h-3.2v0.1c0,0.6,0.1,1.1,0.4,1.5
			s0.7,0.6,1.1,0.6c0.3,0,0.5-0.1,0.7-0.2s0.4-0.3,0.6-0.5l0.3,0.3C162.2,45.8,161.7,46.1,161,46.1z M160.9,41.1
			c-0.4,0-0.7,0.2-0.9,0.5s-0.4,0.8-0.5,1.3h2.7v-0.1c0-0.5-0.1-0.9-0.4-1.2S161.3,41.1,160.9,41.1z"/>
		<path class="st1" d="M168.7,45.2l1.8-4.5h0.6V46h-0.5v-4.3l-1.7,4.3h-0.4l-1.8-4.4V46h-0.5v-5.3h0.6L168.7,45.2z"/>
	</g>
	<g>
		<g>
			<path class="st2" d="M18.9,16.6h-6.9v15.1H9.5V14.1h9.5V16.6z"/>
			<path class="st2" d="M23.7,25.2v6.5h-2.6V14.1h5.7c1.7,0,3,0.5,4,1.5c1,1,1.5,2.4,1.5,4.1c0,1.7-0.5,3.1-1.4,4s-2.3,1.4-4,1.4
				H23.7z M23.7,22.7h3.1c0.9,0,1.6-0.3,2.1-0.8s0.7-1.3,0.7-2.2c0-1-0.2-1.7-0.7-2.3s-1.2-0.9-2-0.9h-3.2V22.7z"/>
			<path class="st2" d="M41,27.6h-5.8l-1.2,4.1h-2.7L37,14.1h2.3L45,31.7h-2.7L41,27.6z M36,25.2h4.3l-2.2-7.3L36,25.2z"/>
			<path class="st2" d="M58.5,31.7h-2.6v-7.8h-6.7v7.8h-2.6V14.1h2.6v7.3h6.7v-7.3h2.6V31.7z"/>
			<path class="st2" d="M70.7,14.1h2.6v17.6h-2.6V19.2l-6.5,12.5h-2.6V14.1h2.6v12.6L70.7,14.1z"/>
			<path class="st2" d="M86.9,16.6h-4.6v15.1h-2.6V16.6h-4.6v-2.5h11.8V16.6z"/>
			<path class="st0" d="M104.9,26.3c-0.2,1.9-0.7,3.3-1.7,4.3c-1,1-2.2,1.5-3.8,1.5c-1.1,0-2.1-0.3-2.9-1c-0.8-0.7-1.5-1.6-2-2.8
				c-0.5-1.2-0.7-2.6-0.7-4.1v-2.3c0-1.6,0.2-3,0.7-4.2c0.5-1.2,1.1-2.1,2-2.8c0.9-0.7,1.9-1,3-1c1.6,0,2.9,0.5,3.8,1.5
				c0.9,1,1.5,2.4,1.6,4.2h-1.3c-0.3-3-1.7-4.5-4.1-4.5c-1.4,0-2.4,0.6-3.2,1.8s-1.2,2.8-1.2,5V24c0,2,0.4,3.7,1.2,4.9
				s1.8,1.8,3.2,1.8c1.3,0,2.3-0.4,3-1.1c0.7-0.7,1.1-1.9,1.2-3.4H104.9z"/>
			<path class="st0" d="M117.8,15.4h-5.1v16.4h-1.3V15.4h-5.1v-1.3h11.5V15.4z"/>
			<path class="st0" d="M121.4,24.6v7.2h-1.3V14.1h5.1c1.5,0,2.8,0.5,3.7,1.4c0.9,0.9,1.3,2.2,1.3,3.9c0,1.7-0.4,2.9-1.3,3.8
				c-0.9,0.9-2.1,1.3-3.8,1.3H121.4z M121.4,23.3h3.8c1.2,0,2.2-0.3,2.8-1c0.6-0.7,1-1.6,1-2.9c0-1.2-0.3-2.2-1-2.9
				c-0.6-0.7-1.5-1.1-2.7-1.1h-3.9V23.3z"/>
			<path class="st0" d="M144.1,23.9c0,1.6-0.2,3-0.7,4.3c-0.5,1.2-1.2,2.2-2,2.8c-0.9,0.7-1.9,1-3,1c-1.7,0-3.1-0.7-4.2-2.2
				c-1.1-1.5-1.6-3.5-1.6-6V22c0-1.6,0.2-3,0.7-4.3s1.2-2.2,2-2.9c0.9-0.7,1.9-1,3-1c1.1,0,2.2,0.3,3,1c0.9,0.7,1.6,1.6,2,2.8
				s0.7,2.6,0.7,4.1V23.9z M142.8,22c0-2.1-0.4-3.8-1.2-5c-0.8-1.2-1.9-1.8-3.3-1.8c-1.4,0-2.5,0.6-3.3,1.8c-0.8,1.2-1.2,2.9-1.2,5
				v1.8c0,2.1,0.4,3.7,1.2,5c0.8,1.2,1.9,1.8,3.3,1.8c1.4,0,2.5-0.6,3.3-1.8c0.8-1.2,1.2-2.9,1.2-5V22z"/>
			<path class="st0" d="M157.1,14.1h1.3v17.6h-1.3V16.7l-8.5,15.1h-1.3V14.1h1.3v15.1L157.1,14.1z M155.9,9.8c0,0.9-0.3,1.7-0.8,2.2
				c-0.5,0.6-1.3,0.9-2.2,0.9c-0.9,0-1.6-0.3-2.1-0.9s-0.8-1.3-0.8-2.3h1c0,0.7,0.2,1.2,0.5,1.5c0.3,0.4,0.8,0.5,1.4,0.5
				c0.6,0,1.1-0.2,1.4-0.6c0.3-0.4,0.5-0.9,0.5-1.5H155.9z"/>
		</g>
	</g>
</g>
</svg>
