<?xml version="1.0" encoding="utf-8"?>
<!-- Generator: Adobe Illustrator 24.0.0, SVG Export Plug-In . SVG Version: 6.00 Build 0)  -->
<svg version="1.1" id="Слой_1" xmlns="http://www.w3.org/2000/svg" xmlns:xlink="http://www.w3.org/1999/xlink" x="0px" y="0px"
	 viewBox="0 0 60 60" style="enable-background:new 0 0 60 60;" xml:space="preserve">
<style type="text/css">
	.st0{fill:#2B2B2B;}
	.st1{fill:#FFFFFF;}
</style>
<g>
	<circle class="st0" cx="30" cy="30" r="30"/>
	<path class="st1" d="M18.63,33.54c0.2,0.2,0.51,0.2,0.71,0c0.2-0.2,0.2-0.51,0-0.71L16.51,30l2.83-2.83c0.2-0.2,0.2-0.51,0-0.71
		c-0.2-0.2-0.51-0.2-0.71,0l-3.18,3.18c-0.2,0.2-0.2,0.51,0,0.71L18.63,33.54z M44.2,29.5c-13.95,0-21.75,0-28.4,0v1
		c6.65,0,14.44,0,28.4,0V29.5z"/>
</g>
</svg>
