<?xml version="1.0" encoding="utf-8"?>
<!-- Generator: Adobe Illustrator 23.0.1, SVG Export Plug-In . SVG Version: 6.00 Build 0)  -->
<svg version="1.1" id="Слой_1" xmlns="http://www.w3.org/2000/svg" xmlns:xlink="http://www.w3.org/1999/xlink" x="0px" y="0px"
	 viewBox="0 0 45 45" style="enable-background:new 0 0 45 45;" xml:space="preserve">
<style type="text/css">
	.st0{fill:#FFA000;}
</style>
<g>
	<path class="st0" d="M22.5,0C10.1,0,0,10.1,0,22.5S10.1,45,22.5,45S45,34.9,45,22.5S34.9,0,22.5,0L22.5,0z M22.5,43.3
		C11,43.3,1.7,33.9,1.7,22.5C1.7,11,11.1,1.7,22.5,1.7C34,1.7,43.3,11,43.3,22.5S34,43.3,22.5,43.3L22.5,43.3z"/>
	<path class="st0" d="M33.1,13.3l-13.3,15l-8-6.4c-0.4-0.3-0.9-0.2-1.2,0.1c-0.3,0.4-0.2,0.9,0.1,1.2l8.7,6.9
		c0.2,0.1,0.4,0.2,0.5,0.2c0.2,0,0.5-0.1,0.7-0.3l13.8-15.6c0.3-0.4,0.3-0.9-0.1-1.2C34,12.9,33.4,12.9,33.1,13.3L33.1,13.3z"/>
</g>
</svg>
