<svg width="24" height="25" viewBox="0 0 24 25" fill="none" xmlns="http://www.w3.org/2000/svg">
<path d="M21.75 18.676C21.6513 18.602 21.5526 18.5872 21.4835 18.5872C21.3404 18.5872 21.2122 18.6513 21.1283 18.7648C20.9408 19.0164 20.7385 19.2631 20.5312 19.5C20.3684 19.6826 20.3881 19.9638 20.5707 20.1266C20.6743 20.2204 20.7878 20.2401 20.8668 20.2401C20.9951 20.2401 21.1135 20.1858 21.2023 20.0921C21.4293 19.8355 21.6464 19.5691 21.8487 19.2977C21.9178 19.2039 21.9474 19.0855 21.9326 18.9671C21.9079 18.8487 21.8487 18.7451 21.75 18.676Z" fill="#C4C4C4"/>
<path d="M23.6102 14.1415C23.5806 14.1365 23.5461 14.1316 23.5165 14.1316C23.3092 14.1316 23.1267 14.2796 23.0822 14.4819C23.0132 14.7928 22.9342 15.0987 22.8405 15.3997C22.7665 15.6316 22.8997 15.8832 23.1316 15.9572C23.176 15.9721 23.2204 15.977 23.2648 15.977C23.4622 15.977 23.6299 15.8487 23.6892 15.6661C23.7878 15.3405 23.8767 15.0099 23.9507 14.6744C24.0049 14.4326 23.852 14.1957 23.6102 14.1415Z" fill="#C4C4C4"/>
<path d="M17.8076 21.8191C17.7335 21.8191 17.6595 21.8388 17.5905 21.8734C17.3141 22.0263 17.028 22.1694 16.7418 22.3026C16.6332 22.352 16.5493 22.4408 16.5099 22.5494C16.4704 22.6579 16.4704 22.7813 16.5197 22.8898C16.5937 23.0477 16.7516 23.1513 16.9243 23.1513C16.9885 23.1513 17.0477 23.1365 17.1069 23.1119C17.4178 22.9737 17.7237 22.8158 18.0197 22.653C18.1233 22.5938 18.1974 22.5 18.2319 22.3865C18.2664 22.273 18.2516 22.1546 18.1924 22.051C18.1184 21.9079 17.9655 21.8191 17.8076 21.8191Z" fill="#C4C4C4"/>
<path d="M11.6447 4.19408V11.6793V11.9062L11.4868 12.0641L7.87006 15.6809C7.69737 15.8536 7.69737 16.1349 7.87006 16.3076C7.95394 16.3914 8.06743 16.4359 8.18585 16.4359C8.30427 16.4359 8.41776 16.3914 8.50164 16.3076L12.4095 12.3997C12.4934 12.3158 12.5378 12.2023 12.5378 12.0839V4.19408C12.5378 3.94737 12.3405 3.75 12.0937 3.75C11.8421 3.75 11.6447 3.94737 11.6447 4.19408Z" fill="#C4C4C4"/>
<path d="M23.5559 3.5773C23.3092 3.5773 23.1118 3.77467 23.1118 4.02138V6.89803L22.1842 5.37829C21.6414 4.5296 21 3.75987 20.2697 3.08882C19.5543 2.42763 18.75 1.8602 17.8816 1.40132C16.1497 0.483553 14.1464 0 12.0888 0C8.86184 0 5.82237 1.25822 3.54276 3.54276C1.25822 5.82237 0 8.86184 0 12.0888C0 15.3158 1.25822 18.3553 3.54276 20.6349C5.82237 22.9145 8.85197 24.1727 12.0789 24.1776C12.0888 24.1776 12.0938 24.1776 12.1036 24.1776H12.1184H12.1332C12.1431 24.1776 12.148 24.1776 12.1579 24.1776C12.4934 24.1776 12.8339 24.1628 13.1645 24.1332C13.4062 24.1135 13.5888 23.8964 13.5691 23.6546C13.5493 23.4276 13.3569 23.25 13.1299 23.25C13.1151 23.25 13.1053 23.25 13.0905 23.25C12.7796 23.2747 12.4688 23.2895 12.1579 23.2895C12.148 23.2895 12.1431 23.2895 12.1332 23.2895H12.1184H12.1036C12.0938 23.2895 12.0888 23.2895 12.0789 23.2895C5.90625 23.2845 0.888158 18.2615 0.888158 12.0888C0.888158 5.91118 5.91118 0.888158 12.0888 0.888158C16.0263 0.888158 19.722 2.99507 21.7303 6.38487L22.2138 7.20395L22.4507 7.57401H19.5493C19.3026 7.57401 19.1053 7.77632 19.1053 8.01809C19.1053 8.25987 19.3026 8.46217 19.5493 8.46217H23.5461C23.5954 8.46217 23.6398 8.4523 23.6842 8.4375C23.8668 8.38322 24 8.21053 24 8.01316V4.01645C24 3.77467 23.8026 3.5773 23.5559 3.5773Z" fill="#C4C4C4"/>
</svg>
