<?xml version="1.0" encoding="utf-8"?>
<!-- Generator: Adobe Illustrator 23.0.1, SVG Export Plug-In . SVG Version: 6.00 Build 0)  -->
<svg version="1.1" id="Слой_1" xmlns="http://www.w3.org/2000/svg" xmlns:xlink="http://www.w3.org/1999/xlink" x="0px" y="0px"
	 viewBox="0 0 22 22" style="enable-background:new 0 0 22 22;" xml:space="preserve">
<style type="text/css">
	.st0{opacity:0.4;fill:#999999;enable-background:new    ;}
	.st1{opacity:0.6;fill:#999999;enable-background:new    ;}
</style>
<g>
	<g>
		<path class="st0" d="M5.3,4.8c0.1-0.2,0.3-0.3,0.3-0.3S7.2,4,7.5,4c0.2-0.1,0.1,0.1,0.1,0.1S6.9,5.4,6.7,5.6
			C6.6,5.7,6.4,5.8,6.4,5.8S6.2,5.9,5.9,6l0.3,0.3c0.1,0,0.1,0,0.1,0.1l0.3,0.3l0.2-0.4C6.9,6.1,7.2,6,7.2,6s1.8-0.5,2-0.6
			c0.2-0.1,0.1,0.1,0.1,0.1S8.6,7.2,8.5,7.3C8.4,7.5,8.2,7.6,8.2,7.6S8,7.6,7.6,7.7L8,8c0,0,0,0,0,0c0.2-0.1,0.1,0.1,0.1,0.1
			s0,0,0,0.1l0.4,0.4l0.3-0.6c0.1-0.3,0.4-0.3,0.4-0.3S11.2,7,11.5,7c0.2-0.1,0.1,0.1,0.1,0.1S11,8.9,10.9,9
			c-0.1,0.2-0.3,0.2-0.3,0.2S10,9.4,9.5,9.5l0.4,0.4c0.4-0.1,0.6-0.2,0.6-0.2s0.2-0.1,0.3,0c0.1,0.1,1.5,2.2,1.5,2.2s0.2,0.3,0,0.4
			c0,0,0,0,0,0l0.8,0.9l-0.4-0.6c0.4-0.3,0.6-0.8,0.6-0.8s0.5-1.3,0.5-1.3s0.1-0.1,0.1-0.1s0.4-0.4,0.5-0.5c0.2-0.2,0.3,0.1,0.3,0.1
			s1.1,1.7,1.3,1.9c0.1,0.2,0,0.4,0,0.4s-1.6,1.8-1.8,2c0,0,0,0-0.1,0l0.4,0.4c0.4-0.4,1.7-1.9,1.7-1.9s0.2-0.2,0.3,0
			c0.1,0.1,1.3,1.8,1.3,1.8s0.1,0.2,0,0.3c-0.1,0.1-0.9,1-1.4,1.6l2.4,2.4c2-2,3.3-4.8,3.3-7.9c0-6.1-4.9-11-11-11
			C8,0,5.2,1.2,3.2,3.2l1.9,1.9L5.3,4.8z M11.5,6.5c0,0-1.9,0.6-2.2,0.6C9.1,7.2,9.2,6.9,9.2,6.9l0.7-1.6c0.1-0.3,0.4-0.3,0.4-0.3
			s2-0.6,2.2-0.7c0.2-0.1,0.1,0.1,0.1,0.1S12,6.1,11.9,6.2C11.7,6.4,11.5,6.5,11.5,6.5z M13.8,9.8C13.7,10,13,11.7,13,11.7
			s-0.1,0.1-0.2,0s-1.5-2.2-1.5-2.2s-0.1-0.1,0-0.3s0.8-2,0.8-2s0.1-0.2,0.2,0c0.1,0.1,1.5,2.2,1.5,2.2S13.9,9.5,13.8,9.8z
			 M14.8,7.1c-0.1,0.2-0.7,1.7-0.7,1.7s-0.1,0.1-0.2,0s-1.5-2.2-1.5-2.2s-0.1-0.1,0-0.3s0.7-1.8,0.7-1.8s0.1-0.2,0.2,0
			c0.1,0.1,1.5,2.2,1.5,2.2S14.9,6.9,14.8,7.1z M19,9.8c0.1,0.1,1.2,1.9,1.2,1.9s0.1,0.2,0,0.3c-0.1,0.1-1.7,2-1.7,2s-0.1,0.1-0.2,0
			c-0.1-0.1-1.3-2-1.3-2s-0.1-0.2,0-0.3c0.1-0.1,1.8-1.9,1.8-1.9S18.9,9.7,19,9.8z M17.1,7.1c0.1,0.1,1.2,2,1.2,2s0.1,0.2,0,0.3
			c-0.1,0.1-1.7,2-1.7,2s-0.1,0.1-0.2,0c-0.1-0.1-1.4-2-1.4-2s-0.1-0.2,0-0.3c0.1-0.1,1.8-2,1.8-2S17,6.9,17.1,7.1z M14.4,2.1
			c0.1,0.1,1.3,2.2,1.3,2.2s0.1,0.2,0,0.4c-0.1,0.2-0.6,1.5-0.6,1.5s-0.1,0.1-0.2,0S13.5,4,13.5,4s-0.1-0.1,0-0.3
			c0.1-0.2,0.7-1.5,0.7-1.5S14.3,2,14.4,2.1z M10.5,4.3L11.1,3c0.1-0.3,0.4-0.3,0.4-0.3s1.8-0.6,2.1-0.7c0.2-0.1,0.1,0.1,0.1,0.1
			S13.1,3.5,13,3.7c-0.1,0.2-0.3,0.2-0.3,0.2s-1.8,0.5-2.1,0.6C10.3,4.6,10.5,4.3,10.5,4.3z M8.3,3.7c0,0,1.7-0.5,1.9-0.6
			c0.2-0.1,0.1,0.1,0.1,0.1S9.8,4.6,9.7,4.7C9.5,4.9,9.4,4.9,9.4,4.9S7.8,5.4,7.5,5.5C7.2,5.6,7.3,5.3,7.3,5.3L8,4
			C8.1,3.8,8.3,3.7,8.3,3.7z"/>
		<path class="st1" d="M11,22c3,0,5.7-1.2,7.7-3.1l-2.4-2.4c-0.2,0.2-0.4,0.4-0.4,0.4s-0.1,0.1-0.2,0c-0.1-0.1-1.4-1.9-1.4-1.9
			s-0.1-0.2,0-0.3c0,0,0-0.1,0.1-0.1l-0.4-0.4c-0.2,0.1-0.3,0-0.3,0l-0.7-1l-0.8-0.9c-0.3,0.1-2.3,0.5-2.3,0.5s-0.2,0.1-0.3-0.1
			C9.5,12.6,8,10.6,8,10.6s-0.1-0.2,0.1-0.3c0.1,0,1.1-0.3,1.8-0.4L9.5,9.5C8.9,9.7,8.3,9.8,8.1,9.9C7.8,10,8,9.7,8,9.7l0.5-1.2
			L8.1,8.2C8,8.5,7.4,9.9,7.2,10c-0.1,0.2-0.3,0.2-0.3,0.2s-1.9,0.5-2.2,0.5c-0.3,0.1-0.2-0.2-0.2-0.2l0.8-1.8
			c0.1-0.2,0.4-0.3,0.4-0.3S7.6,8.1,8,8L7.6,7.7C7.1,7.8,6.3,8,6.1,8.1C5.8,8.1,6,7.9,6,7.9l0.6-1.2L6.3,6.4c0,0,0,0,0,0
			S5.5,8,5.4,8.1C5.3,8.3,5.1,8.4,5.1,8.4S3.4,8.8,3.2,8.9C2.9,9,3,8.7,3,8.7l0.9-1.5C4,6.9,4.2,6.9,4.2,6.9s1.7-0.5,1.9-0.6
			c0,0,0.1,0,0.1,0L5.9,6C5.4,6.1,4.8,6.3,4.6,6.3C4.3,6.4,4.4,6.2,4.4,6.2l0.6-1.1L3.2,3.2C1.2,5.2,0,8,0,11C0,17.1,4.9,22,11,22z
			 M5.1,14.8c0,0-0.5-0.6-0.5-0.6c0,0,0-0.1,0-0.1S5.2,14,5.3,14s0.1,0.1,0.1,0.1s0.8,1,1,1.2c0.2,0.2-0.1,0.1-0.1,0.1
			S5.5,15.1,5.4,15C5.2,15,5.1,14.8,5.1,14.8z M5.6,14c0,0,0.1,0,0.2-0.1s0.2,0,0.2,0s0.6,0.3,0.7,0.3S7,14.4,7,14.4
			s1.2,1.6,1.4,1.8s-0.1,0.1-0.1,0.1S7.3,15.8,7,15.7s-0.3-0.3-0.3-0.3S5.6,14.1,5.6,14C5.5,14,5.6,14,5.6,14z M8.2,17.8
			c-0.2-0.1-1.1-0.5-1.1-0.5s-0.1,0-0.2-0.2c-0.1-0.1-1.2-1.6-1.2-1.6s-0.1-0.2,0.1-0.1l1.1,0.5c0,0,0.2,0.1,0.3,0.2
			s1.1,1.5,1.1,1.5S8.4,17.9,8.2,17.8z M10.2,18.8c-0.2-0.1-1.3-0.6-1.3-0.6s-0.1,0-0.2-0.2c-0.1-0.1-1.3-1.6-1.3-1.6
			s-0.1-0.2,0.1-0.1l1.3,0.7c0,0,0.2,0.1,0.3,0.2s1.2,1.5,1.2,1.5S10.5,18.9,10.2,18.8z M12.5,19.9c-0.2-0.1-1.6-0.7-1.6-0.7
			s-0.1,0-0.2-0.2s-1.3-1.6-1.3-1.6s-0.1-0.2,0.1-0.1l1.3,0.6c0,0,0.2,0.1,0.3,0.2s1.4,1.7,1.4,1.7S12.8,20,12.5,19.9z M13.9,15.4
			c0.1,0.1,1.3,1.8,1.3,1.8s0.1,0.2,0,0.3c-0.1,0.1-1.9,2.1-1.9,2.1s-0.1,0.1-0.2,0c-0.1-0.1-1.5-1.8-1.5-1.8s-0.1-0.2,0-0.3
			c0.1-0.1,1.9-2.1,1.9-2.1S13.8,15.3,13.9,15.4z M9.6,14.9c0.1-0.1,1.9-2.1,1.9-2.1s0.2-0.2,0.3,0c0.1,0.1,1.4,1.9,1.4,1.9
			s0.1,0.2,0,0.3c-0.1,0.1-2,2.1-2,2.1s-0.1,0.1-0.2,0c-0.1-0.1-1.5-1.9-1.5-1.9S9.5,15.1,9.6,14.9z M9.1,15.3
			c0.1,0.1,1.5,1.9,1.5,1.9s0.2,0.2-0.1,0.1c-0.2-0.1-1.5-0.7-1.5-0.7s-0.1,0-0.2-0.2s-1.4-1.8-1.4-1.8s-0.1-0.2,0.1-0.1l1.3,0.6
			C8.9,15.1,9,15.2,9.1,15.3z M4.8,11.2C5,11.2,7,10.7,7,10.7s0.2-0.1,0.3,0c0.1,0.1,1.5,2,1.5,2s0.2,0.3,0,0.4
			c-0.2,0.1-2.2,0.5-2.2,0.5s-0.2,0.1-0.3,0c-0.1-0.1-1.6-2.1-1.6-2.1S4.6,11.3,4.8,11.2z M5.6,13.5c0,0,0.2,0.3,0,0.4
			c-0.2,0.1-2,0.5-2,0.5s-0.2,0.1-0.3,0c-0.1-0.1-1.6-2-1.6-2S1.5,12,1.7,11.9c0.2,0,2.1-0.5,2.1-0.5s0.2-0.1,0.3,0
			C4.1,11.5,5.6,13.5,5.6,13.5z M2.5,9.7c0.1-0.2,0.4-0.3,0.4-0.3s1.6-0.4,1.9-0.5C5,8.8,4.9,9,4.9,9s-0.8,1.7-1,1.8S3.6,11,3.6,11
			S2,11.5,1.7,11.5c-0.3,0.1-0.2-0.2-0.2-0.2L2.5,9.7z"/>
	</g>
</g>
</svg>
