<?xml version="1.0" encoding="utf-8"?>
<!-- Generator: Adobe Illustrator 23.0.1, SVG Export Plug-In . SVG Version: 6.00 Build 0)  -->
<svg version="1.1" id="Слой_1" xmlns="http://www.w3.org/2000/svg" xmlns:xlink="http://www.w3.org/1999/xlink" x="0px" y="0px"
	 viewBox="0 0 34 34" style="enable-background:new 0 0 34 34;" xml:space="preserve">
<style type="text/css">
	.st0{fill:#333333;}
</style>
<g>
	<g>
		<path class="st0" d="M17.3,34c-0.1,0-0.2,0-0.3,0c-2.7,0-5.1-0.1-7.5-0.2c-2.2-0.1-4.2-0.9-5.8-2.2c-1.5-1.3-2.6-3-3.1-5
			c-0.5-1.8-0.5-3.6-0.5-5.3C0,20,0,18.5,0,17c0-1.5,0-3,0-4.2c0-1.7,0-3.5,0.5-5.3c0.5-2.1,1.6-3.8,3.1-5c1.6-1.3,3.6-2.1,5.8-2.2
			C11.9,0.1,14.3,0,17,0c2.7,0,5.1,0.1,7.5,0.2c2.2,0.1,4.2,0.9,5.8,2.2c1.5,1.3,2.6,3,3.1,5c0.5,1.8,0.5,3.6,0.5,5.3
			c0,1.2,0,2.7,0,4.2c0,1.5,0,3,0,4.2c0,0.7-0.6,1.3-1.3,1.3c-0.7,0-1.3-0.6-1.3-1.3c0-1.2,0-2.7,0-4.2c0-1.5,0-2.9,0-4.2
			c0-1.6,0-3.2-0.4-4.7c-0.4-1.5-1.1-2.8-2.2-3.6c-1.2-1-2.6-1.5-4.3-1.6C22,2.7,19.6,2.7,17,2.7c-2.6,0-5,0.1-7.4,0.2
			C8,3,6.5,3.5,5.4,4.5C4.3,5.3,3.5,6.6,3.1,8.1c-0.4,1.5-0.4,3.1-0.4,4.7c0,1.2,0,2.7,0,4.2c0,1.5,0,2.9,0,4.2c0,1.6,0,3.2,0.4,4.7
			c0.4,1.5,1.1,2.8,2.2,3.6c1.2,1,2.6,1.5,4.3,1.6c2.3,0.1,4.7,0.2,7.4,0.2c2.6,0,5-0.1,7.4-0.2c1.7-0.1,3.1-0.6,4.3-1.6
			c0.8-0.6,1.4-1.5,1.8-2.4c0.3-0.7,1.1-1,1.7-0.7c0.7,0.3,1,1.1,0.7,1.7c-0.6,1.4-1.5,2.5-2.6,3.4c-1.6,1.3-3.6,2.1-5.8,2.2
			C22.2,33.9,19.9,34,17.3,34z M25.2,17c0-4.6-3.7-8.3-8.3-8.3c-4.6,0-8.3,3.7-8.3,8.3c0,4.6,3.7,8.3,8.3,8.3
			C21.5,25.3,25.2,21.6,25.2,17z M22.6,17c0,3.1-2.5,5.6-5.6,5.6c-3.1,0-5.6-2.5-5.6-5.6c0-3.1,2.5-5.6,5.6-5.6
			C20,11.4,22.6,13.9,22.6,17z M26.2,6c-1.1,0-2,0.9-2,2c0,1.1,0.9,2,2,2c1.1,0,2-0.9,2-2C28.2,6.9,27.3,6,26.2,6z"/>
	</g>
</g>
</svg>
