<svg width="140" height="149" viewBox="0 0 140 149" fill="none" xmlns="http://www.w3.org/2000/svg">
<path d="M70 5.65468L110.032 18.7167L134.738 52.9176V95.179L110.032 129.38L70 142.442L29.9682 129.38L5.26236 95.179V52.9176L29.9682 18.7167L70 5.65468ZM70 3.87726L28.9306 17.2782L3.54118 52.3637V95.7329L28.9306 130.818L70 144.219L111.069 130.818L136.459 95.7329V52.3637L111.069 17.2782L70 3.87726Z" fill="#333333"/>
<path d="M70 148.097L26.74 133.952L26.6247 133.803L0 96.9316V51.165L26.74 14.145L70 0L113.26 14.145L113.375 14.2938L140 51.165V96.9316L113.26 133.952L70 148.097ZM27.4565 132.96L70 146.865L112.544 132.96L138.831 96.5844V51.5453L112.544 15.1701L70 1.23179L27.4565 15.137L1.16941 51.5122V96.5183L27.4565 132.96Z" fill="#333333"/>
<path d="M107.751 88.7307H30.3635V90.2353H107.751V88.7307Z" fill="#333333"/>
<path d="M55.6376 33.8786C56.2471 33.8786 57.3835 33.8786 59.0224 33.9778C60.9234 34.0776 62.8129 34.3347 64.6718 34.7466C66.9311 35.2319 69.148 35.8981 71.3012 36.739C73.6179 37.635 75.7548 38.9428 77.6094 40.5997C79.5885 42.3808 81.1953 44.539 82.3365 46.9488C83.58 49.4951 84.2059 54.8522 84.2059 58.5724C84.2087 61.6277 83.6705 64.6593 82.6165 67.5256C81.5628 70.4343 79.8746 73.0697 77.6753 75.2388C75.2195 77.605 72.3038 79.4371 69.1106 80.6207C65.1537 82.06 60.9652 82.7496 56.7577 82.6544H30.7424V80.5215H31.8706C32.4416 80.5457 33.0033 80.3704 33.46 80.0255C33.8757 79.67 34.191 79.2109 34.3741 78.6945C34.5973 78.0959 34.7413 77.4705 34.8024 76.8344C34.8682 76.1482 34.9012 75.4455 34.9012 74.7345V41.8067C34.9012 41.104 34.9012 40.4013 34.8024 39.7151C34.7413 39.079 34.5973 38.4536 34.3741 37.855C34.191 37.3386 33.8757 36.8795 33.46 36.524C33.0044 36.1762 32.4426 35.9979 31.8706 36.0197H30.7424V33.8786H55.6376ZM50.9188 74.8007C50.9176 75.2342 50.9396 75.6675 50.9847 76.0986C51.0302 76.5614 51.1855 77.0064 51.4377 77.3965C51.7158 77.8149 52.0919 78.1583 52.5329 78.3968C53.1423 78.6935 53.8167 78.83 54.4929 78.7937C55.8164 78.759 57.1191 78.4553 58.3224 77.9008C59.8344 77.1894 61.1473 76.1129 62.1435 74.7676C63.4771 72.9715 64.4657 70.9418 65.0588 68.7822C65.9081 65.6987 66.2994 62.5063 66.22 59.3081C66.22 55.4474 65.8 50.0655 64.9518 47.5771C64.2811 45.3871 63.1302 43.3758 61.5835 41.691C60.2448 40.2927 58.5635 39.2721 56.7082 38.7313C54.8348 38.2002 52.8881 37.9768 50.9435 38.07L50.9188 74.8007Z" fill="#333333"/>
<path d="M87.8788 80.9844H88.7929C89.0337 80.9967 89.2742 80.9573 89.4986 80.8689C89.7229 80.7806 89.9259 80.6452 90.0941 80.4719C90.4465 80.0821 90.7032 79.615 90.8435 79.1078C91.0275 78.4857 91.1435 77.8454 91.1894 77.1981C91.2471 76.4954 91.2718 75.7844 91.2718 75.0569V56.0426C91.2718 55.3151 91.2718 54.6042 91.1894 53.8932C91.1427 53.2487 91.0268 52.6112 90.8435 51.9918C90.7032 51.4846 90.4465 51.0174 90.0941 50.6277C89.9259 50.4544 89.7229 50.319 89.4986 50.2306C89.2742 50.1422 89.0337 50.1029 88.7929 50.1151H87.7635V47.9326H107.742V50.1151H106.82C106.581 50.1041 106.342 50.144 106.119 50.2324C105.896 50.3207 105.694 50.4554 105.527 50.6277C105.173 51.016 104.916 51.4836 104.778 51.9918C104.594 52.6112 104.478 53.2487 104.432 53.8932C104.374 54.6042 104.349 55.3151 104.349 56.0426V75.0569C104.349 75.7844 104.349 76.4954 104.432 77.1981C104.478 77.8454 104.594 78.4857 104.778 79.1078C104.916 79.6159 105.173 80.0836 105.527 80.4719C105.694 80.6441 105.896 80.7789 106.119 80.8672C106.342 80.9555 106.581 80.9955 106.82 80.9844H107.742V83.1422H87.8788V80.9844Z" fill="#333333"/>
<path d="M108.129 35.9701C107.749 35.9712 107.383 36.1167 107.105 36.3774C106.827 36.6381 106.658 36.9946 106.631 37.3755C105.458 38.341 104.155 39.1343 102.76 39.7316V37.9707L100.553 39.2604C99.5105 38.3516 98.7788 37.1371 98.4612 35.7882C98.8451 35.6396 99.1651 35.3608 99.3657 35.0002C99.5663 34.6396 99.6349 34.2199 99.5596 33.8138C99.4843 33.4077 99.2699 33.0409 98.9534 32.7769C98.637 32.5129 98.2385 32.3684 97.827 32.3684C97.4156 32.3684 97.0171 32.5129 96.7007 32.7769C96.3842 33.0409 96.1698 33.4077 96.0945 33.8138C96.0192 34.2199 96.0878 34.6396 96.2884 35.0002C96.489 35.3608 96.809 35.6396 97.1929 35.7882C96.8753 37.1371 96.1436 38.3516 95.1012 39.2604L92.9023 37.9707V39.7316C91.5563 39.1686 90.2995 38.411 89.1718 37.483C89.1718 37.1838 89.0834 36.8913 88.9178 36.6425C88.7522 36.3937 88.5168 36.1998 88.2414 36.0853C87.966 35.9708 87.663 35.9408 87.3707 35.9992C87.0783 36.0576 86.8098 36.2016 86.599 36.4132C86.3883 36.6248 86.2447 36.8944 86.1866 37.1878C86.1284 37.4813 86.1583 37.7855 86.2724 38.0619C86.3864 38.3384 86.5796 38.5747 86.8274 38.7409C87.0752 38.9071 87.3666 38.9959 87.6647 38.9959C87.9186 38.9966 88.1683 38.931 88.3894 38.8057C88.8821 39.4359 89.2637 40.1461 89.5176 40.9056C90.0694 42.7326 90.5141 44.7167 90.5141 44.7167H105.14C105.14 44.7167 105.593 42.7326 106.136 40.9056C106.402 40.1259 106.8 39.3985 107.314 38.7561C107.511 38.8829 107.734 38.962 107.967 38.9871C108.199 39.0123 108.434 38.9828 108.653 38.9011C108.872 38.8193 109.07 38.6875 109.229 38.5161C109.389 38.3447 109.506 38.1383 109.573 37.9133C109.639 37.6884 109.653 37.451 109.612 37.2199C109.572 36.9888 109.478 36.7704 109.339 36.5819C109.2 36.3934 109.019 36.24 108.81 36.1338C108.602 36.0276 108.371 35.9716 108.138 35.9701H108.129Z" fill="#333333"/>
<path d="M35.5929 102.686V103.182L35.0329 103.314L35.2635 101.966H35.8235V103.281C35.2633 103.578 34.6373 103.729 34.0035 103.719C33.5913 103.732 33.1807 103.659 32.7983 103.504C32.4159 103.349 32.0701 103.115 31.7831 102.817C31.4962 102.52 31.2743 102.166 31.132 101.777C30.9896 101.388 30.9298 100.974 30.9565 100.561C30.9373 100.149 31.0023 99.7384 31.1473 99.3531C31.2924 98.9679 31.5145 98.6165 31.7999 98.3206C32.0854 98.0248 32.4282 97.7907 32.8071 97.6329C33.1861 97.475 33.5933 97.3968 34.0035 97.4028C34.6101 97.3926 35.2089 97.5407 35.7412 97.8327V99.1472H35.1812L34.9506 97.8079L35.5106 97.9319V98.4858C35.3248 98.2914 35.1026 98.1358 34.8567 98.0279C34.6107 97.9201 34.346 97.8622 34.0776 97.8575C32.8835 97.8575 31.9035 98.7917 31.9035 100.561C31.9035 102.33 32.7847 103.264 34.02 103.264C34.5954 103.261 35.1518 103.056 35.5929 102.686Z" fill="#333333"/>
<path d="M37.2235 98.0229L37.6435 97.5682L37.3553 99.2216H36.8447L36.9106 97.5682H41.8518L41.9176 99.2216H41.407L41.1188 97.5682L41.5388 98.0229H37.2235ZM39.4718 103.107L40.74 103.248V103.611H38.0141V103.248L39.2823 103.107H39.4718ZM38.9529 100.371C38.9529 99.4366 38.9529 98.5024 38.9529 97.5682H39.8506C39.8506 98.4859 39.8506 99.42 39.8506 100.371V100.817C39.8506 101.743 39.8506 102.686 39.8506 103.611H38.9282C38.9282 102.702 38.9282 101.76 38.9282 100.817L38.9529 100.371Z" fill="#333333"/>
<path d="M48.4318 100.561C48.4654 100.951 48.4203 101.344 48.299 101.716C48.1778 102.089 47.9829 102.433 47.7261 102.728C47.4692 103.022 47.1557 103.262 46.8043 103.433C46.453 103.603 46.0709 103.7 45.6812 103.719C44.2812 103.719 42.9223 102.619 42.9223 100.561C42.8898 100.17 42.936 99.7769 43.0583 99.4046C43.1805 99.0322 43.3762 98.6884 43.6336 98.3937C43.8911 98.0989 44.2052 97.8593 44.5569 97.689C44.9087 97.5188 45.2911 97.4215 45.6812 97.4028C47.0729 97.4028 48.4318 98.4941 48.4318 100.561ZM45.6812 103.264C46.9247 103.264 47.4518 101.925 47.4518 100.561C47.4518 99.1968 46.9247 97.8575 45.6812 97.8575C44.4376 97.8575 43.9023 99.1968 43.9023 100.561C43.9023 101.925 44.4706 103.264 45.6812 103.264Z" fill="#333333"/>
<path d="M49.4777 103.215L50.433 103.074H50.6141L51.4953 103.215V103.578H49.4777V103.215ZM49.4777 97.5352H50.6718V98.0229H50.5647L49.4777 97.8906V97.5352ZM50.3012 97.5352H50.6883L50.7706 100.255V103.562H50.3012V97.5352ZM50.3012 97.5352H51.1247L53.2906 102.9H52.9859L55.0447 97.5352H55.5306L53.1918 103.578H52.7388L50.3012 97.5352ZM54.4188 103.215L55.4977 103.074H55.6953L56.873 103.215V103.578H54.4024L54.4188 103.215ZM55.193 100.792V97.5352H56.0165C56.0165 98.4528 56.0165 99.387 56.0165 100.338V100.784C56.0165 101.71 56.0165 102.652 56.0165 103.578H55.1765C55.1765 102.669 55.1765 101.727 55.1765 100.792H55.193ZM55.5965 97.5352H56.8235V97.9072L55.6541 98.0394H55.5553L55.5965 97.5352Z" fill="#333333"/>
<path d="M57.787 103.215L58.6847 103.074H58.8659L59.8459 103.215V103.578H57.787V103.215ZM60.4553 97.4938H61.0235L63.0906 103.578H62.2094L60.4141 98.2047H60.6282L58.8 103.603H58.3717L60.4553 97.4938ZM59.4094 101.197H61.88L62.0282 101.619H59.2941L59.4094 101.197ZM61.1717 103.215L62.2917 103.082H62.4976L63.6176 103.215V103.578H61.147L61.1717 103.215Z" fill="#333333"/>
<path d="M64.2353 98.0229L64.6553 97.5682L64.3671 99.2216H63.8482L63.9224 97.5682H68.8635L68.9294 99.2216H68.3529L68.0729 97.5682L68.4929 98.0229H64.2353ZM66.4835 103.107L67.7435 103.248V103.611H65.0259V103.248L66.2859 103.107H66.4835ZM65.9647 100.371C65.9647 99.4366 65.9647 98.5024 65.9647 97.5682H66.8706C66.8706 98.4859 66.8706 99.42 66.8706 100.371V100.817C66.8706 101.743 66.8706 102.686 66.8706 103.611H65.8824C65.8824 102.702 65.8824 101.76 65.8824 100.817L65.9647 100.371Z" fill="#333333"/>
<path d="M75.4188 100.561C75.4537 100.951 75.4096 101.344 75.2893 101.716C75.169 102.088 74.9749 102.432 74.7187 102.727C74.4625 103.022 74.1495 103.262 73.7986 103.433C73.4476 103.603 73.0659 103.7 72.6765 103.719C71.2765 103.719 69.9176 102.619 69.9176 100.561C69.8851 100.17 69.9313 99.7769 70.0536 99.4046C70.1758 99.0322 70.3714 98.6884 70.6289 98.3937C70.8864 98.0989 71.2005 97.8593 71.5522 97.689C71.904 97.5188 72.2864 97.4215 72.6765 97.4028C74.06 97.4028 75.4188 98.4941 75.4188 100.561ZM72.6765 103.264C73.92 103.264 74.4388 101.925 74.4388 100.561C74.4388 99.1968 73.92 97.8575 72.6765 97.8575C71.4329 97.8575 70.8976 99.1968 70.8976 100.561C70.8976 101.925 71.4247 103.264 72.6765 103.264Z" fill="#333333"/>
<path d="M76.7941 102.694C76.9521 102.699 77.1071 102.738 77.2491 102.808C77.391 102.878 77.5166 102.977 77.6176 103.099H77.2306C77.5587 102.688 77.7896 102.207 77.9059 101.694C78.2021 100.335 78.3594 98.9503 78.3753 97.56H78.8447C78.8471 98.9996 78.6953 100.435 78.3918 101.842C78.0294 103.182 77.5682 103.744 76.9259 103.744C76.8333 103.752 76.74 103.739 76.6531 103.706C76.5661 103.674 76.4876 103.621 76.4235 103.554C76.3593 103.486 76.3112 103.405 76.2827 103.316C76.2542 103.228 76.246 103.133 76.2588 103.041C76.2992 102.933 76.373 102.841 76.4694 102.779C76.5658 102.716 76.6796 102.686 76.7941 102.694ZM77.5435 97.5352H78.6223V98.0229H78.4494L77.5435 97.8906V97.5352ZM78.6223 97.5352H80.7059V98.0229H78.6306L78.6223 97.5352ZM79.4459 103.215L80.6235 103.074H80.8129L81.9906 103.215V103.578H79.4459V103.215ZM80.2694 100.784V100.338C80.2694 99.387 80.2694 98.4528 80.2694 97.5352H81.167C81.167 98.4693 81.167 99.4035 81.167 100.338V100.784C81.167 101.727 81.167 102.669 81.167 103.578H80.2694C80.2776 102.652 80.2776 101.71 80.2776 100.784H80.2694ZM80.6894 97.5352H81.9659V97.9072L80.7882 98.0394H80.7059L80.6894 97.5352Z" fill="#333333"/>
<path d="M88.5788 100.561C88.6125 100.951 88.5674 101.344 88.4461 101.716C88.3249 102.089 88.13 102.433 87.8731 102.728C87.6163 103.022 87.3028 103.262 86.9514 103.433C86.6 103.603 86.218 103.7 85.8282 103.719C84.4282 103.719 83.0694 102.619 83.0694 100.561C83.0369 100.17 83.0831 99.7769 83.2053 99.4046C83.3275 99.0322 83.5232 98.6884 83.7807 98.3937C84.0382 98.0989 84.3522 97.8593 84.704 97.689C85.0558 97.5188 85.4381 97.4215 85.8282 97.4028C87.22 97.4028 88.5788 98.4941 88.5788 100.561ZM85.8282 103.264C87.0718 103.264 87.5988 101.925 87.5988 100.561C87.5988 99.1968 87.0718 97.8575 85.8282 97.8575C84.5847 97.8575 84.0494 99.1968 84.0494 100.561C84.0494 101.925 84.5765 103.264 85.8282 103.264Z" fill="#333333"/>
<path d="M89.6823 97.5352H90.9506V98.0229H90.8518L89.6823 97.8906V97.5352ZM89.6823 103.215L90.8518 103.074H91.0494L92.2271 103.215V103.578H89.6823V103.215ZM90.5059 100.792V100.338C90.5059 99.4035 90.5059 98.4693 90.5059 97.5352H91.4118C91.4118 98.4528 91.4118 99.387 91.4118 100.338V100.792C91.4118 101.71 91.4118 102.652 91.4118 103.578H90.5059C90.5223 102.669 90.5223 101.727 90.5223 100.792H90.5059ZM90.9341 97.5352H93.9729L94.0306 99.3291H93.52L93.1988 97.5352L93.66 97.9898H90.9341V97.5352Z" fill="#333333"/>
<path d="M95.2082 97.5352H97.7447V97.9072L96.567 98.0394H96.3529L95.1753 97.9072L95.2082 97.5352ZM95.2082 103.215L96.3859 103.074H96.567L97.7447 103.215V103.578H95.2082V103.215ZM96.0318 100.784V100.338C96.0318 99.4035 96.0318 98.4693 96.0318 97.5352H96.9376C96.9376 98.4528 96.9376 99.387 96.9376 100.338V103.578H96.0235C96.0565 102.669 96.0565 101.727 96.0565 100.784H96.0318ZM96.3529 102.727L100.364 97.7666V98.4032L96.3529 103.363V102.727ZM99.0212 97.5352H101.558V97.9072L100.38 98.0394H100.199L99.0212 97.9072V97.5352ZM99.0212 103.215L100.199 103.074H100.38L101.558 103.215V103.578H99.0212V103.215ZM99.8447 100.611V97.5352H100.668C100.668 98.4528 100.668 99.387 100.668 100.338V100.784C100.668 101.71 100.668 102.652 100.668 103.578H99.7706C99.8859 102.669 99.8859 101.727 99.8859 100.611H99.8447Z" fill="#333333"/>
<path d="M102.472 103.215L103.411 103.099L103.188 103.289L103.674 101.875C103.979 101.049 104.284 100.66 105.008 100.594V100.71C103.789 100.611 103.262 99.9243 103.262 99.1638C103.262 98.1634 104.086 97.5103 105.453 97.5103H106.664V97.932H105.576C104.621 97.932 104.152 98.3618 104.152 99.1059C104.141 99.2833 104.17 99.4609 104.234 99.6265C104.299 99.792 104.398 99.9416 104.525 100.065C104.653 100.188 104.806 100.282 104.973 100.341C105.14 100.399 105.318 100.421 105.494 100.404H106.664V100.817H105.708C104.992 100.817 104.778 100.958 104.522 101.71L104.061 103.016C104.046 103.115 104.012 103.209 103.96 103.294C103.908 103.38 103.84 103.454 103.76 103.512C103.679 103.57 103.588 103.612 103.491 103.635C103.395 103.658 103.294 103.661 103.196 103.645C102.952 103.654 102.707 103.623 102.472 103.554V103.215ZM105.395 103.215L106.573 103.074H106.762L107.94 103.215V103.578H105.412L105.395 103.215ZM106.219 100.693V100.503C106.219 99.3622 106.219 98.4776 106.219 97.5351H107.116C107.116 98.4693 107.116 99.4035 107.116 100.338V100.784C107.116 101.727 107.116 102.669 107.116 103.578H106.235C106.235 102.652 106.235 101.71 106.235 100.693H106.219ZM106.639 97.5351H107.915V97.9072L106.738 98.0394H106.639V97.5351Z" fill="#333333"/>
<path d="M30.5365 113.656H36.4082L36.3506 115.723H35.84L35.5847 113.656L35.9882 114.111H30.9482L31.4094 113.656L31.1047 115.723H30.5941L30.5365 113.656ZM32.8176 108.067H33.3694C33.2376 111.035 32.4718 112.854 31.5165 113.854L31.0141 113.681C32.0106 112.54 32.7106 110.853 32.8176 108.067ZM31.9941 108.067H33.0647V108.572H32.9412L31.9447 108.439L31.9941 108.067ZM33.0647 108.067H35.0659V108.53H33.04L33.0647 108.067ZM34.5882 111.316V110.87C34.5882 109.919 34.5882 108.985 34.5882 108.067H35.4941C35.4941 109.002 35.4941 109.936 35.4941 110.87V111.316C35.4941 112.259 35.4941 113.201 35.4941 114.111H34.5882C34.5882 113.185 34.5882 112.242 34.5882 111.316ZM35.0165 108.067H36.2847V108.439L35.1071 108.572H35.0165V108.067Z" fill="#333333"/>
<path d="M37.3471 113.226C37.5051 113.231 37.6604 113.27 37.8024 113.339C37.9444 113.409 38.0699 113.509 38.1706 113.631H37.7918C38.1139 113.217 38.3416 112.738 38.4588 112.226C38.7585 110.868 38.9185 109.483 38.9365 108.092H39.3976C39.4006 109.532 39.2487 110.968 38.9447 112.375C38.5824 113.714 38.1212 114.276 37.4788 114.276C37.3863 114.284 37.293 114.272 37.206 114.239C37.119 114.206 37.0405 114.154 36.9764 114.086C36.9123 114.019 36.8642 113.937 36.8357 113.849C36.8072 113.76 36.799 113.666 36.8118 113.573C36.8521 113.465 36.9259 113.374 37.0223 113.311C37.1187 113.248 37.2325 113.219 37.3471 113.226ZM38.0965 108.067H39.1835V108.572H39.0024L38.0965 108.439V108.067ZM39.1835 108.067H41.2588V108.53H39.1835V108.067ZM40.0071 113.747L41.1929 113.606H41.3741L42.5518 113.747V114.111H39.9824L40.0071 113.747ZM40.8306 111.316V110.87C40.8306 109.919 40.8306 108.985 40.8306 108.067H41.7365C41.7365 109.002 41.7365 109.936 41.7365 110.87V111.316C41.7365 112.259 41.7365 113.201 41.7365 114.111H40.8306C40.8306 113.185 40.8306 112.242 40.8306 111.316ZM41.2588 108.067H42.5271V108.439L41.3494 108.572H41.2588V108.067Z" fill="#333333"/>
<path d="M42.9223 113.73L43.8694 113.615L43.6388 113.805L44.1247 112.391C44.4294 111.523 44.7341 111.176 45.4588 111.11V111.25C44.24 111.151 43.7129 110.424 43.7129 109.704C43.7129 108.704 44.5364 108.051 45.9035 108.051H47.1141V108.472H46.027C45.0717 108.472 44.6023 108.902 44.6023 109.646C44.5934 109.824 44.6224 110 44.6874 110.165C44.7524 110.33 44.8519 110.479 44.9791 110.602C45.1063 110.725 45.2583 110.819 45.4249 110.878C45.5915 110.937 45.7687 110.96 45.9447 110.944H47.1141V111.358H46.1588C45.4506 111.358 45.2282 111.498 44.9729 112.251L44.52 113.557C44.504 113.656 44.4687 113.75 44.4161 113.836C44.3635 113.921 44.2947 113.995 44.2136 114.053C44.1325 114.111 44.0407 114.153 43.9434 114.176C43.8462 114.198 43.7455 114.202 43.647 114.185C43.4021 114.195 43.1573 114.164 42.9223 114.094V113.73ZM45.8541 113.73L47.0235 113.59H47.2129L48.3906 113.73V114.094H45.8541V113.73ZM46.6776 111.209V111.019C46.6776 109.878 46.6776 108.993 46.6776 108.051H47.5753C47.5753 108.985 47.5753 109.919 47.5753 110.853V111.3C47.5753 112.242 47.5753 113.185 47.5753 114.094H46.6776C46.6941 113.185 46.6941 112.242 46.6941 111.25L46.6776 111.209ZM47.0976 108.051H48.3741V108.423L47.1964 108.555H47.0976V108.051Z" fill="#333333"/>
<path d="M50.9847 108.439V108.067H52.2529V108.572H52.1541L50.9847 108.439ZM52.2529 113.606V114.111H50.9847V113.73L52.1541 113.59L52.2529 113.606ZM51.8247 110.87C51.8247 109.944 51.8247 109.002 51.8247 108.067H52.7059C52.7059 108.985 52.7059 109.919 52.7059 110.87V111.184C52.7059 112.242 52.7059 113.185 52.7059 114.111H51.8C51.8 113.201 51.8 112.259 51.8 111.316L51.8247 110.87ZM52.2529 110.779H53.1506C54.2294 110.779 54.707 110.432 54.707 109.605C54.707 108.778 54.2376 108.489 53.3235 108.489H52.2529V108.067H53.587C54.8388 108.067 55.547 108.687 55.547 109.547C55.547 110.25 55.0694 110.87 53.9 111.019V110.936C55.3082 111.052 55.8929 111.68 55.8929 112.457C55.8929 113.234 55.2259 114.111 53.4882 114.111H52.2941V113.73H53.2823C54.4353 113.73 54.9953 113.292 54.9953 112.499C54.9953 111.705 54.4518 111.242 53.2165 111.242H52.2941L52.2529 110.779Z" fill="#333333"/>
<path d="M61.3447 113.218V113.714L60.7765 113.846L61.007 112.499H61.567V113.813C61.0036 114.11 60.3751 114.261 59.7388 114.251C59.3269 114.265 58.9167 114.192 58.5347 114.036C58.1527 113.881 57.8073 113.647 57.521 113.349C57.2346 113.052 57.0136 112.697 56.8722 112.309C56.7308 111.92 56.6721 111.506 56.7 111.093C56.681 110.686 56.7448 110.279 56.8874 109.896C57.0301 109.514 57.2486 109.166 57.5297 108.871C57.8109 108.576 58.1488 108.342 58.5229 108.183C58.897 108.023 59.2995 107.942 59.7059 107.943C60.3124 107.933 60.9112 108.081 61.4435 108.373V109.688H60.9412L60.7106 108.349L61.2706 108.473V109.026C60.8938 108.636 60.379 108.41 59.8376 108.398C58.6353 108.398 57.6635 109.332 57.6635 111.101C57.6635 112.871 58.5365 113.805 59.7718 113.805C60.3482 113.799 60.9047 113.592 61.3447 113.218Z" fill="#333333"/>
<path d="M62.3082 108.439V108.067H63.5847V108.572H63.4859L62.3082 108.439ZM63.5847 113.606V114.111H62.3082V113.73L63.4859 113.59L63.5847 113.606ZM63.1565 110.87C63.1565 109.936 63.1565 109.002 63.1565 108.067H64.0624C64.0624 108.985 64.0624 109.919 64.0624 110.87V111.25C64.0624 112.284 64.0624 113.226 64.0624 114.152H63.1565C63.1565 113.243 63.1565 112.3 63.1565 111.358V110.87ZM66.0553 108.067L66.4753 108.522H63.5847V108.067H66.7882L66.8541 109.671H66.3353L66.0553 108.067ZM65.6106 111.242H63.5847V110.812H65.6106V111.242ZM67.0353 112.507L66.9694 114.111H63.5847V113.656H66.6565L66.2365 114.111L66.5165 112.507H67.0353ZM65.3224 110.911L65.4624 109.961H65.8741V112.077H65.4624L65.3224 111.085V110.911Z" fill="#333333"/>
<path d="M67.7353 108.067H70.2718V108.439L69.0941 108.572H68.9129L67.7353 108.439V108.067ZM67.7353 113.747L68.9129 113.606H69.0941L70.2718 113.747V114.111H67.7353V113.747ZM68.5588 111.316V110.87C68.5588 109.936 68.5588 109.002 68.5588 108.067H69.4647C69.4647 108.985 69.4647 109.919 69.4647 110.87V114.111H68.5918C68.5835 113.201 68.5835 112.259 68.5835 111.316H68.5588ZM68.88 113.259L72.8906 108.299V108.935L68.88 113.896V113.259ZM69.3577 106.298C69.3869 106.222 69.4392 106.157 69.5072 106.113C69.5752 106.068 69.6554 106.046 69.7365 106.05C69.9588 106.05 70.1647 106.216 70.1647 106.637C70.1693 106.882 70.1444 107.126 70.0906 107.365L69.9588 106.844C70.2086 107.092 70.546 107.232 70.8976 107.232C71.2493 107.232 71.5867 107.092 71.8365 106.844L71.7047 107.365C71.6509 107.126 71.626 106.882 71.6306 106.637C71.6306 106.216 71.8365 106.05 72.0588 106.05C72.1397 106.048 72.2193 106.07 72.2871 106.114C72.3548 106.159 72.4074 106.223 72.4377 106.298C72.3727 106.661 72.1829 106.989 71.9014 107.225C71.6199 107.461 71.2646 107.591 70.8976 107.591C70.5307 107.591 70.1754 107.461 69.8939 107.225C69.6124 106.989 69.4226 106.661 69.3577 106.298ZM71.5482 108.067H74.1177V108.439L72.94 108.572H72.7588L71.5812 108.439L71.5482 108.067ZM71.5482 113.747L72.7259 113.606H72.9071L74.1177 113.73V114.094H71.5812L71.5482 113.747ZM72.3718 111.143V108.067H73.2941C73.2941 108.985 73.2941 109.919 73.2941 110.87V111.316C73.2941 112.242 73.2941 113.185 73.2941 114.111H72.3882C72.4129 113.201 72.4129 112.259 72.4129 111.143H72.3718Z" fill="#333333"/>
<path d="M81.5294 113.218V113.714L80.9694 113.846L81.2 112.499H81.76V113.813C81.1966 114.11 80.5681 114.261 79.9318 114.251C79.5198 114.265 79.1096 114.192 78.7276 114.036C78.3456 113.881 78.0003 113.647 77.714 113.349C77.4276 113.052 77.2066 112.697 77.0652 112.309C76.9238 111.92 76.8651 111.506 76.8929 111.093C76.874 110.687 76.9373 110.281 77.0789 109.9C77.2206 109.519 77.4376 109.171 77.717 108.877C77.9964 108.583 78.3323 108.348 78.7045 108.188C79.0766 108.027 79.4773 107.944 79.8824 107.943C80.4889 107.933 81.0877 108.081 81.62 108.373V109.688H81.0682L80.8377 108.349L81.3976 108.473V109.026C81.0209 108.636 80.5061 108.41 79.9647 108.398C78.7624 108.398 77.7906 109.332 77.7906 111.101C77.7906 112.871 78.6635 113.805 79.8988 113.805C80.4951 113.813 81.0743 113.605 81.5294 113.218Z" fill="#333333"/>
<path d="M82.46 108.439V108.067H83.7365V108.572H83.6376L82.46 108.439ZM83.7365 113.606V114.111H82.46V113.73L83.6376 113.59L83.7365 113.606ZM83.3082 110.87C83.3082 109.936 83.3082 109.002 83.3082 108.067H84.2141C84.2141 108.985 84.2141 109.919 84.2141 110.87V111.25C84.2141 112.284 84.2141 113.226 84.2141 114.152H83.3082C83.3082 113.243 83.3082 112.3 83.3082 111.358V110.87ZM86.207 108.067L86.627 108.522H83.7365V108.067H86.94L87.0059 109.671H86.4706L86.207 108.067ZM85.7623 111.242H83.7365V110.812H85.7623V111.242ZM87.187 112.507L87.1212 114.111H83.7365V113.656H86.8082L86.3882 114.111L86.6682 112.507H87.187ZM85.4741 110.911L85.6141 109.961H86.0259V112.077H85.647L85.507 111.085L85.4741 110.911Z" fill="#333333"/>
<path d="M87.8376 113.73L88.7847 113.59H88.9412L89.8224 113.73V114.094H87.8047L87.8376 113.73ZM87.8376 108.051H89.0318V108.555H88.9412L87.8541 108.423L87.8376 108.051ZM88.6612 108.051H89.04L89.1223 110.771V114.078H88.6612V108.051ZM88.6612 108.051H89.4847L91.6588 113.416H91.4118L93.4623 108.051H93.8823L91.5518 114.094H91.0988L88.6612 108.051ZM92.7788 113.73L93.8659 113.59H94.0553L95.2329 113.73V114.094H92.7623L92.7788 113.73ZM93.5529 111.308V108.051H94.3765C94.3765 108.969 94.3765 109.903 94.3765 110.853V111.3C94.3765 112.226 94.3765 113.168 94.3765 114.094H93.4871C93.52 113.201 93.52 112.259 93.52 111.325L93.5529 111.308ZM93.9647 108.051H95.2329V108.423L94.0553 108.555H93.9647V108.051Z" fill="#333333"/>
<path d="M95.9988 108.067H98.6259V108.439L97.4482 108.572H97.1765L95.9988 108.439V108.067ZM95.9988 113.747L97.1765 113.606H97.2671V114.111H95.9988V113.747ZM96.8224 111.316V110.87C96.8224 109.936 96.8224 109.002 96.8224 108.067H97.7282C97.7282 108.985 97.7282 109.919 97.7282 110.853V111.316C97.7282 112.242 97.7282 113.185 97.7282 114.111H96.8224C96.8471 113.201 96.8471 112.259 96.8471 111.316H96.8224ZM97.2424 113.689H98.3212C99.5153 113.689 99.9682 113.193 99.9682 112.35C99.9682 111.507 99.5894 111.019 98.3871 111.019C97.9979 111.007 97.6086 111.038 97.2259 111.11V110.647C97.6797 110.593 98.136 110.563 98.5929 110.556C100.116 110.556 100.858 111.3 100.858 112.325C100.858 113.152 100.265 114.111 98.3871 114.111H97.1929L97.2424 113.689Z" fill="#333333"/>
<path d="M101.475 108.067H104.012V108.439L102.834 108.572H102.653L101.475 108.439V108.067ZM101.475 113.747L102.653 113.606H102.834L104.012 113.747V114.111H101.475V113.747ZM102.299 111.316V110.87C102.299 109.936 102.299 109.002 102.299 108.067H103.205C103.205 108.985 103.205 109.919 103.205 110.87V114.111H102.332C102.324 113.201 102.324 112.259 102.324 111.316H102.299ZM102.62 113.259L106.631 108.299V108.935L102.62 113.896V113.259ZM105.288 108.067H107.882V108.439L106.705 108.572H106.524L105.346 108.439L105.288 108.067ZM105.288 113.747L106.466 113.606H106.647L107.882 113.73V114.094H105.346L105.288 113.747ZM106.112 111.143V108.067H107.059C107.059 108.985 107.059 109.919 107.059 110.87V111.316C107.059 112.242 107.059 113.185 107.059 114.111H106.153C106.153 113.201 106.153 112.259 106.153 111.143H106.112Z" fill="#333333"/>
</svg>
