<svg width="17" height="20" viewBox="0 0 17 20" fill="none" xmlns="http://www.w3.org/2000/svg">
<path d="M5.04032 0C4.82458 0 4.64966 0.174961 4.64966 0.390664C4.64966 0.606406 4.82458 0.781328 5.04032 0.781328C7.24708 0.781328 9.04239 2.62324 9.04239 4.88738C9.04239 5.10313 9.21735 5.27805 9.43306 5.27805C9.6488 5.27805 9.82372 5.10309 9.82372 4.88738C9.82376 2.19246 7.6779 0 5.04032 0Z" fill="#C4C4C4"/>
<path d="M5.03904 1.85339C4.8233 1.85339 4.64838 2.02835 4.64838 2.24406C4.64838 2.4598 4.8233 2.63472 5.03904 2.63472C6.24744 2.63472 7.23052 3.64523 7.23052 4.8873C7.23052 5.10304 7.40549 5.27796 7.62119 5.27796C7.83693 5.27796 8.01185 5.103 8.01185 4.8873C8.01189 3.21441 6.67826 1.85339 5.03904 1.85339Z" fill="#C4C4C4"/>
<path d="M5.04661 3.56073C4.83083 3.56073 4.65594 3.73561 4.65594 3.95139C4.65594 4.16714 4.83091 4.34206 5.04661 4.34206C5.32891 4.34206 5.55852 4.58128 5.55852 4.87534C5.55852 5.09108 5.73344 5.266 5.94919 5.266C6.16493 5.266 6.33985 5.09104 6.33985 4.87534C6.33989 4.15046 5.7597 3.56073 5.04661 3.56073Z" fill="#C4C4C4"/>
<path d="M15.4705 3.21089C15.3979 3.13784 15.297 3.09644 15.1943 3.09644C15.0916 3.09644 14.9908 3.13784 14.9181 3.21089C14.8454 3.28319 14.8036 3.38401 14.8036 3.4871C14.8036 3.58983 14.8454 3.69065 14.9181 3.76331C14.9908 3.83593 15.0915 3.87776 15.1943 3.87776C15.297 3.87776 15.3979 3.83597 15.4705 3.76331C15.5431 3.69026 15.585 3.58987 15.585 3.4871C15.585 3.38397 15.5432 3.28354 15.4705 3.21089Z" fill="#C4C4C4"/>
<path d="M7.26063 13.1421C7.18797 13.0694 7.08758 13.0276 6.98441 13.0276C6.88168 13.0276 6.78086 13.0694 6.70824 13.1421C6.63559 13.2147 6.59375 13.3155 6.59375 13.4183C6.59375 13.5214 6.63555 13.6218 6.70824 13.6945C6.78125 13.7675 6.88168 13.8093 6.98441 13.8093C7.08715 13.8093 7.18797 13.7675 7.26063 13.6945C7.33367 13.6218 7.37508 13.5214 7.37508 13.4183C7.37508 13.3155 7.33367 13.2148 7.26063 13.1421Z" fill="#C4C4C4"/>
<path d="M15.8117 16.6746L12.8187 13.6816C12.4202 13.2832 11.7934 13.2249 11.3284 13.5429L9.41821 14.8491C9.26317 14.955 9.05435 14.9356 8.92149 14.8028L8.28981 14.1711C8.13731 14.0186 7.89001 14.0186 7.73728 14.1711C7.58474 14.3236 7.58474 14.5709 7.73728 14.7236L8.36896 15.3553C8.76739 15.7537 9.39411 15.8121 9.85919 15.494L11.7694 14.1879C11.9244 14.0819 12.1333 14.1013 12.2661 14.2341L15.2592 17.2272C15.4115 17.3794 15.4114 17.6273 15.2591 17.7797C13.3399 19.6989 10.217 19.6989 8.29782 17.7797L2.2204 11.7022C1.29063 10.7725 0.778682 9.53637 0.778682 8.22153C0.778682 6.90669 1.29067 5.67055 2.22044 4.74079C2.29423 4.667 2.39231 4.62641 2.49665 4.62641C2.60103 4.62641 2.69915 4.66704 2.7729 4.74083L5.76587 7.73383C5.89864 7.86661 5.9181 8.07555 5.81216 8.23055L4.50606 10.1408C4.18798 10.6058 4.24634 11.2325 4.64474 11.631L5.59427 12.5806C5.74685 12.7331 5.99415 12.7331 6.14681 12.5806C6.29935 12.428 6.29935 12.1806 6.14681 12.028L5.19728 11.0785C5.0645 10.9457 5.04505 10.7368 5.15102 10.5818L6.45716 8.67157C6.77517 8.20649 6.71681 7.57973 6.31841 7.18133L3.32544 4.18833C2.86849 3.73137 2.12493 3.73137 1.6679 4.18833C-0.555967 6.41223 -0.555967 10.0308 1.6679 12.2547L7.74532 18.3321C8.85728 19.444 10.3179 20 11.7784 20C13.2391 20 14.6997 19.444 15.8116 18.3321C16.2686 17.8751 16.2686 17.1316 15.8117 16.6746Z" fill="#C4C4C4"/>
<path d="M5.26256 9.6062L2.89436 7.238C2.74174 7.0855 2.49444 7.0855 2.34182 7.238C2.18928 7.39058 2.18928 7.63796 2.34182 7.79054L4.71006 10.1587C4.78635 10.235 4.88627 10.2732 4.98631 10.2732C5.08627 10.2732 5.18627 10.235 5.26256 10.1587C5.4151 10.0062 5.4151 9.75878 5.26256 9.6062Z" fill="#C4C4C4"/>
<path d="M14.3264 18.67L11.8347 16.1782C11.6821 16.0257 11.4347 16.0257 11.2821 16.1782C11.1296 16.3308 11.1296 16.5782 11.2821 16.7308L13.7739 19.2225C13.8502 19.2988 13.9501 19.337 14.0501 19.337C14.1501 19.337 14.2501 19.2988 14.3264 19.2225C14.479 19.0699 14.479 18.8226 14.3264 18.67Z" fill="#C4C4C4"/>
</svg>
