<svg width="24" height="24" viewBox="0 0 24 24" fill="none" xmlns="http://www.w3.org/2000/svg">
<path d="M6.04852 0C5.78962 0 5.57971 0.209958 5.57971 0.468807C5.57971 0.727703 5.78962 0.937613 6.04852 0.937613C8.69668 0.937613 10.8511 3.14796 10.8511 5.86498C10.8511 6.12388 11.0611 6.33379 11.3199 6.33379C11.5788 6.33379 11.7887 6.12383 11.7887 5.86498C11.7888 2.63101 9.21368 0 6.04852 0Z" fill="#C4C4C4"/>
<path d="M6.04696 2.22412C5.78807 2.22412 5.57816 2.43408 5.57816 2.69293C5.57816 2.95182 5.78807 3.16173 6.04696 3.16173C7.49707 3.16173 8.6768 4.37437 8.6768 5.86488C8.6768 6.12378 8.88676 6.33369 9.14561 6.33369C9.4045 6.33369 9.61441 6.12373 9.61441 5.86488C9.61446 3.85737 8.01407 2.22412 6.04696 2.22412Z" fill="#C4C4C4"/>
<path d="M6.05606 4.27298C5.79711 4.27298 5.58725 4.48284 5.58725 4.74179C5.58725 5.00068 5.79721 5.21059 6.05606 5.21059C6.39483 5.21059 6.67037 5.49766 6.67037 5.85054C6.67037 6.10944 6.88028 6.31935 7.13917 6.31935C7.39807 6.31935 7.60798 6.10939 7.60798 5.85054C7.60803 4.98067 6.91178 4.27298 6.05606 4.27298Z" fill="#C4C4C4"/>
<path d="M21.4919 3.71561H20.4527C20.1938 3.71561 19.9839 3.92552 19.9839 4.18441C19.9839 4.44331 20.1938 4.65322 20.4527 4.65322H21.4919C22.3579 4.65322 23.0624 5.35777 23.0624 6.22375V12.5876C23.0624 13.0862 22.8285 13.5309 22.4651 13.8188V12.5928C22.4651 11.6364 21.7826 10.8149 20.8424 10.6395L20.5394 10.583C20.6069 10.3758 20.6439 10.1551 20.6439 9.9256V8.84829C20.6439 7.67691 19.6909 6.72392 18.5196 6.72392C17.3482 6.72392 16.3952 7.67691 16.3952 8.84829V9.9256C16.3952 10.1551 16.4323 10.3758 16.4998 10.583L16.1968 10.6395C15.2565 10.8148 14.5741 11.6363 14.5741 12.5928V13.9519C14.1002 13.6812 13.7799 13.1712 13.7799 12.5876V6.22375C13.7799 5.35777 14.4845 4.65322 15.3505 4.65322H16.4678C16.7267 4.65322 16.9366 4.44331 16.9366 4.18441C16.9366 3.92552 16.7266 3.71561 16.4678 3.71561H15.3505C13.9675 3.71561 12.8423 4.84077 12.8423 6.22375V12.5876C12.8423 13.9706 13.9675 15.0957 15.3505 15.0957H17.7095V16.4437C17.7095 16.633 17.8235 16.8038 17.9983 16.8765C18.0565 16.9007 18.1176 16.9125 18.1783 16.9125C18.2998 16.9125 18.4192 16.8652 18.5088 16.7762L20.1999 15.0957H21.4919C22.8749 15.0957 24 13.9706 24 12.5876V6.22375C24 4.84077 22.8749 3.71561 21.4919 3.71561ZM17.3328 8.84829C17.3328 8.1939 17.8651 7.66153 18.5195 7.66153C19.1739 7.66153 19.7063 8.1939 19.7063 8.84829V9.9256C19.7063 10.58 19.1739 11.1124 18.5195 11.1124C17.8651 11.1124 17.3328 10.58 17.3328 9.9256V8.84829ZM21.5274 14.1571C21.5155 14.1574 21.5037 14.158 21.4918 14.158H20.0066V14.1581C19.8828 14.1581 19.764 14.2071 19.6761 14.2943L18.6472 15.3169V14.6269C18.6472 14.368 18.4372 14.1581 18.1783 14.1581H15.5117V12.5928C15.5117 12.0877 15.8721 11.6538 16.3687 11.5612L17.0296 11.438C17.4133 11.8161 17.9395 12.0499 18.5196 12.0499C19.0996 12.0499 19.6259 11.816 20.0096 11.4379L20.6706 11.5611C21.1671 11.6538 21.5275 12.0876 21.5275 12.5928V14.1571H21.5274Z" fill="#C4C4C4"/>
<path d="M18.565 3.85317C18.4778 3.76551 18.3569 3.71582 18.2336 3.71582C18.1103 3.71582 17.9893 3.76551 17.9021 3.85317C17.8149 3.93993 17.7648 4.06092 17.7648 4.18463C17.7648 4.30791 17.8149 4.4289 17.9021 4.51609C17.9893 4.60323 18.1102 4.65343 18.2336 4.65343C18.3569 4.65343 18.4778 4.60328 18.565 4.51609C18.6522 4.42843 18.7024 4.30796 18.7024 4.18463C18.7024 4.06087 18.6522 3.94036 18.565 3.85317Z" fill="#C4C4C4"/>
<path d="M8.71296 15.7708C8.62577 15.6836 8.5053 15.6335 8.3815 15.6335C8.25821 15.6335 8.13723 15.6836 8.05008 15.7708C7.96289 15.858 7.91269 15.979 7.91269 16.1023C7.91269 16.226 7.96285 16.3466 8.05008 16.4338C8.13769 16.5214 8.25821 16.5715 8.3815 16.5715C8.50478 16.5715 8.62577 16.5214 8.71296 16.4338C8.80061 16.3466 8.8503 16.226 8.8503 16.1023C8.8503 15.979 8.80061 15.8581 8.71296 15.7708Z" fill="#C4C4C4"/>
<path d="M18.9744 20.01L15.3827 16.4183C14.9046 15.9401 14.1524 15.8702 13.5944 16.2518L11.3021 17.8193C11.116 17.9464 10.8654 17.9231 10.706 17.7637L9.94799 17.0056C9.76498 16.8227 9.46821 16.8226 9.28492 17.0056C9.10187 17.1887 9.10187 17.4855 9.28492 17.6687L10.043 18.4268C10.5211 18.9049 11.2732 18.9749 11.8313 18.5932L14.1236 17.0258C14.3096 16.8987 14.5603 16.9219 14.7197 17.0813L18.3114 20.673C18.4941 20.8557 18.4941 21.1532 18.3113 21.3361C16.0082 23.6392 12.2607 23.6392 9.95759 21.3361L2.66454 14.0429C1.54879 12.9272 0.934438 11.4439 0.934438 9.86605C0.934438 8.2882 1.54884 6.80481 2.66458 5.68907C2.75313 5.60052 2.87084 5.55182 2.99604 5.55182C3.1213 5.55182 3.23905 5.60057 3.32755 5.68912L6.91919 9.2808C7.07852 9.44013 7.10186 9.69087 6.97474 9.87688L5.40739 12.1692C5.02568 12.7273 5.09571 13.4793 5.5738 13.9575L6.71326 15.097C6.89636 15.28 7.19313 15.28 7.37632 15.097C7.55937 14.9139 7.55937 14.6171 7.37632 14.4339L6.23686 13.2945C6.07753 13.1351 6.05418 12.8844 6.18136 12.6984L7.74875 10.4061C8.13037 9.848 8.06034 9.09588 7.58225 8.61779L3.99061 5.0261C3.44226 4.47775 2.54997 4.47775 2.00152 5.0261C-0.667174 7.69485 -0.667174 12.0372 2.00152 14.7059L9.29458 21.999C10.629 23.3333 12.3817 24.0005 14.1344 24.0005C15.8872 24.0005 17.64 23.3333 18.9743 21.999C19.5227 21.4506 19.5227 20.5584 18.9744 20.01Z" fill="#C4C4C4"/>
<path d="M6.3152 11.5277L3.47329 8.68578C3.29015 8.50277 2.99338 8.50277 2.81023 8.68578C2.62718 8.86887 2.62718 9.16574 2.81023 9.34884L5.65218 12.1907C5.74373 12.2822 5.86364 12.328 5.98369 12.328C6.10364 12.328 6.22365 12.2822 6.3152 12.1907C6.49825 12.0076 6.49825 11.7108 6.3152 11.5277Z" fill="#C4C4C4"/>
<path d="M17.192 22.4045L14.2018 19.4143C14.0187 19.2313 13.7219 19.2313 13.5388 19.4143C13.3557 19.5974 13.3557 19.8943 13.5388 20.0774L16.5289 23.0675C16.6205 23.159 16.7404 23.2048 16.8605 23.2048C16.9804 23.2048 17.1004 23.159 17.192 23.0675C17.3751 22.8844 17.3751 22.5876 17.192 22.4045Z" fill="#C4C4C4"/>
</svg>
