<?xml version="1.0" encoding="utf-8"?>
<!-- Generator: Adobe Illustrator 23.0.1, SVG Export Plug-In . SVG Version: 6.00 Build 0)  -->
<svg version="1.1" id="Capa_1" xmlns="http://www.w3.org/2000/svg" xmlns:xlink="http://www.w3.org/1999/xlink" x="0px" y="0px"
	 viewBox="0 0 24 24" style="enable-background:new 0 0 24 24;" xml:space="preserve">
<style type="text/css">
	.st0{fill:#C4C4C4;}
</style>
<g>
	<path class="st0" d="M17,5c-1.5-1.1-3.2-1.6-5-1.6c-4.7,0-8.6,3.9-8.6,8.6s3.9,8.6,8.6,8.6s8.6-3.9,8.6-8.6c0-2.1-0.8-4.2-2.2-5.8
		C18.2,6,18,6,17.8,6.2c-0.2,0.1-0.2,0.4,0,0.6c1.3,1.4,2,3.3,2,5.2c0,4.3-3.5,7.8-7.8,7.8S4.2,16.3,4.2,12S7.7,4.2,12,4.2
		c1.7,0,3.2,0.5,4.6,1.5c0.2,0.1,0.4,0.1,0.6-0.1S17.2,5.1,17,5L17,5z"/>
	<path class="st0" d="M20.5,3.5C18.2,1.2,15.2,0,12,0C8.8,0,5.8,1.2,3.5,3.5C1.3,5.7,0,8.7,0,11.9c0,2.4,0.7,4.7,2,6.7
		c0.1,0.2,0.4,0.2,0.6,0.1c0.2-0.1,0.2-0.4,0.1-0.5c-1.2-1.9-1.9-4-1.8-6.2C0.9,5.8,5.9,0.8,12,0.8c6.2,0,11.2,5,11.2,11.2
		c0,5-3.4,9.5-8.2,10.8c-0.1,0-1.3,0.4-3.1,0.5c-0.6,0-2.7-0.4-2.7-0.5c-2.1-0.6-4-1.7-5.5-3.4c-0.1-0.2-0.4-0.2-0.6,0
		c-0.2,0.1-0.2,0.4,0,0.6c1.5,1.7,3.5,2.9,5.7,3.6c0,0,1.7,0.5,3,0.5c1.2,0,3.5-0.5,3.5-0.5C20.4,22,24,17.3,24,12
		C24,8.8,22.8,5.8,20.5,3.5z"/>
	<path class="st0" d="M16,12.9c0.2,0,0.4-0.2,0.4-0.4v-0.6c0.1,0,0.1,0,0.2,0c0,0,0.1,0,0.1,0c0.2,0,0.4-0.1,0.6-0.3l0.4-0.5
		c0.3-0.4,0.2-0.9-0.1-1.2L12.8,6c-0.4-0.4-1.1-0.4-1.5,0L6.5,9.9c-0.4,0.3-0.4,0.9-0.1,1.2l0.4,0.5c0.2,0.3,0.6,0.4,0.9,0.3v3.2
		H7.5c-0.2,0-0.4,0.2-0.4,0.4s0.2,0.4,0.4,0.4h9c0.2,0,0.4-0.2,0.4-0.4s-0.2-0.4-0.4-0.4h-0.1v-0.9c0-0.2-0.2-0.4-0.4-0.4
		c-0.2,0-0.4,0.2-0.4,0.4v0.9h-1.8v-0.3c0-1-0.8-1.8-1.8-1.8s-1.8,0.8-1.8,1.8v0.3H8.4v-3.8L12,8.5l3.6,2.9v1.2
		C15.6,12.7,15.7,12.9,16,12.9L16,12.9z M11,14.8c0-0.5,0.4-1,1-1c0.5,0,1,0.4,1,1v0.3H11L11,14.8z M11.7,7.6l-4,3.2c0,0,0,0,0,0
		l-0.3,0.3c0,0,0,0-0.1,0c0,0,0,0-0.1,0l-0.4-0.5c0,0,0,0,0-0.1c0,0,0,0,0-0.1l4.8-3.9c0.1-0.1,0.2-0.1,0.3-0.1c0.1,0,0.2,0,0.3,0.1
		l4.8,3.9c0,0,0,0,0,0.1c0,0,0,0,0,0.1l-0.4,0.5c0,0,0,0-0.1,0c0,0,0,0-0.1,0c0,0,0,0,0,0l-4.3-3.5C12.1,7.5,11.9,7.5,11.7,7.6
		L11.7,7.6z"/>
	<path class="st0" d="M10.6,10.7c-0.2,0-0.4,0.2-0.4,0.4s0.2,0.4,0.4,0.4h2.7c0.2,0,0.4-0.2,0.4-0.4s-0.2-0.4-0.4-0.4H10.6z"/>
</g>
</svg>
