<svg width="48" height="48" viewBox="0 0 48 48" fill="none" xmlns="http://www.w3.org/2000/svg">
<circle cx="36" cy="12" r="12" fill="#E5E5E5"/>
<path d="M7.65509 5.70395C7.60066 5.38226 7.34873 5.13034 7.02704 5.07591C5.77784 4.8672 4.79907 3.88814 4.59074 2.63885C4.52012 2.22143 4.12445 1.94017 3.70703 2.0108C3.38534 2.06523 3.13341 2.31716 3.07899 2.63885C2.87066 3.88814 1.89189 4.86729 0.642691 5.07591C0.225271 5.14653 -0.0559801 5.5422 0.014644 5.95962C0.0690735 6.28131 0.321001 6.53324 0.642691 6.58767C1.89189 6.79638 2.87066 7.77544 3.07899 9.02473C3.14961 9.44215 3.54528 9.7234 3.9627 9.65277C4.28439 9.59834 4.53631 9.34642 4.59074 9.02473C4.79907 7.77544 5.77784 6.79638 7.02704 6.58767C7.44446 6.51714 7.72571 6.12147 7.65509 5.70395ZM3.83486 6.92651C3.53598 6.50113 3.16552 6.13067 2.74014 5.83179C3.16552 5.5329 3.53598 5.16244 3.83486 4.73706C4.13375 5.16244 4.50421 5.5329 4.92959 5.83179C4.50412 6.13076 4.13375 6.50113 3.83486 6.92651Z" fill="#54C6EB"/>
<path d="M30.4561 6.59765C28.9733 6.59755 27.506 6.89874 26.1431 7.48309C24.1351 8.33853 21.8649 8.33853 19.8569 7.48309C14.302 5.10151 7.86833 7.67397 5.48676 13.2288C4.9025 14.5917 4.60122 16.059 4.60132 17.5418C4.59979 22.0565 5.86863 26.4805 8.26266 30.3082L8.48191 30.6601L11.7921 45.2257C12.2275 47.144 14.1355 48.3461 16.0537 47.9108C17.4649 47.5905 18.542 46.4484 18.779 45.021L21.0789 31.2266C21.2568 30.1651 22.2616 29.449 23.323 29.627C24.1428 29.7645 24.7853 30.4068 24.9227 31.2266L27.2225 45.0202C27.5462 46.9609 29.3818 48.2717 31.3225 47.9481C32.7486 47.7103 33.8895 46.6341 34.2102 45.2242L37.5196 30.6585L37.7389 30.3067C40.1322 26.4793 41.4004 22.0558 41.3987 17.5418C41.3991 11.4979 36.4999 6.59813 30.4561 6.59765ZM36.4372 29.4963L36.1489 29.9563C36.1037 30.0292 36.0707 30.109 36.0508 30.1924L32.7138 44.8823C32.4653 45.9751 31.3779 46.6595 30.2851 46.4111C29.4821 46.2285 28.8691 45.5787 28.7335 44.7665L26.4337 30.9728C26.1171 29.0765 24.3231 27.7958 22.4267 28.1125C20.9603 28.3574 19.8112 29.5064 19.5664 30.9728L17.2665 44.7673C17.0834 45.8724 16.0389 46.62 14.9337 46.4368C14.1202 46.3019 13.4692 45.6881 13.287 44.8838L9.94921 30.1932C9.92937 30.1097 9.89631 30.03 9.85108 29.9571L9.56283 29.4971C7.32136 25.9124 6.13339 21.7696 6.13454 17.5418C6.14049 12.3471 10.35 8.13758 15.5447 8.13164C16.8194 8.1303 18.0809 8.38903 19.252 8.89212C21.6463 9.91363 24.3538 9.91363 26.748 8.89212C31.5254 6.84507 37.0578 9.05838 39.1048 13.8358C39.6067 15.0069 39.8654 16.2677 39.8655 17.5418C39.8664 21.7694 38.6785 25.9119 36.4372 29.4963Z" fill="#54C6EB"/>
<path d="M13.0341 11.9647L12.8807 11.2134C11.3475 11.5209 8.43439 13.1951 8.43439 17.331H9.96761C9.96761 13.4435 13.0571 12.7436 13.1874 12.7152L13.0341 11.9647Z" fill="#54C6EB"/>
<path d="M16.1005 11.1981H14.5673V12.7313H16.1005V11.1981Z" fill="#54C6EB"/>
<path d="M45.9855 37.9017C45.9311 37.58 45.6792 37.3281 45.3575 37.2737C44.1083 37.0649 43.1295 36.0859 42.9212 34.8366C42.8506 34.4192 42.4549 34.1379 42.0375 34.2086C41.7158 34.263 41.4639 34.5149 41.4094 34.8366C41.2011 36.0859 40.2223 37.0649 38.9731 37.2737C38.5557 37.3443 38.2745 37.74 38.3451 38.1574C38.3995 38.4791 38.6514 38.731 38.9731 38.7854C40.2223 38.9941 41.2011 39.9732 41.4094 41.2225C41.4801 41.6399 41.8757 41.9212 42.2931 41.8505C42.6148 41.7961 42.8668 41.5442 42.9212 41.2225C43.1295 39.9732 44.1083 38.9941 45.3575 38.7854C45.7749 38.7149 46.0562 38.3192 45.9855 37.9017ZM42.1653 39.1243C41.8664 38.6989 41.496 38.3284 41.0706 38.0295C41.496 37.7307 41.8664 37.3602 42.1653 36.9348C42.4642 37.3602 42.8347 37.7307 43.26 38.0295C42.8346 38.3285 42.4642 38.6989 42.1653 39.1243Z" fill="#54C6EB"/>
</svg>
