<svg width="49" height="48" viewBox="0 0 49 48" fill="none" xmlns="http://www.w3.org/2000/svg">
<ellipse cx="36.5654" cy="12" rx="11.8574" ry="12" fill="#E5E5E5"/>
<path d="M38.2762 22.2758C37.8352 22.2554 37.4798 22.5357 37.4496 22.9158C36.6009 33.6523 33.0097 46.6193 29.848 46.623C29.0965 46.3424 28.3643 42.6368 27.8803 40.1847C26.8558 34.9989 25.7961 29.6367 22.4636 29.6263C19.6723 29.6366 18.5852 34.4848 17.4333 39.6178C16.8676 42.1383 15.921 46.3568 15.1102 46.6192C12.6918 46.6192 8.40846 36.4547 7.44666 22.4127C7.42114 22.0322 7.05713 21.7412 6.627 21.7657C6.19958 21.7889 5.87471 22.1162 5.90103 22.4968C6.16623 26.3761 7.10251 32.6818 8.59392 38.0246C10.4671 44.737 12.599 48 15.1102 48C17.038 48 17.7895 45.0691 18.9518 39.8888C19.6967 36.5689 20.9427 31.013 22.4636 31.0071C24.4955 31.0133 25.6148 36.6766 26.3551 40.4239C27.2564 44.9863 27.8516 48 29.8231 48C35.7988 48 38.5769 28.2907 38.9939 23.013C39.0242 22.6328 38.7028 22.3028 38.2762 22.2758Z" fill="#54C6EB"/>
<path d="M29.8232 7.95526C28.4227 7.95526 27.0963 8.51556 25.8139 9.05715C24.6334 9.55596 23.5187 10.0265 22.4667 10.0265C21.4148 10.0265 20.3 9.55606 19.1196 9.05715C17.8371 8.51556 16.5106 7.95526 15.1102 7.95526C9.90598 7.95526 6.08999 12.7724 5.83125 19.6695C5.81696 20.0506 6.15181 20.3699 6.57934 20.3827C6.58751 20.383 6.59681 20.383 6.60566 20.383C7.02071 20.383 7.36498 20.0889 7.37847 19.7157C7.60455 13.7014 10.8565 9.33609 15.1102 9.33609C16.1621 9.33609 17.2768 9.80658 18.4573 10.3055C19.7397 10.8472 21.0662 11.4074 22.4666 11.4074C23.8671 11.4074 25.1935 10.8471 26.4759 10.3055C27.6564 9.80668 28.7711 9.33609 29.8231 9.33609C34.0449 9.33609 37.219 13.4855 37.5411 19.4267C37.5625 19.8075 37.9361 20.0909 38.3526 20.083C38.7789 20.0644 39.1088 19.7409 39.0882 19.3598C38.7237 12.645 34.9138 7.95526 29.8232 7.95526Z" fill="#54C6EB"/>
<path d="M31.3719 15.5728H13.5615C13.1476 15.5728 12.8127 15.8721 12.8127 16.2404V25.9064C12.8127 26.275 13.1481 26.574 13.5615 26.574H31.3719C31.7854 26.574 32.1207 26.2747 32.1207 25.9064V16.2404C32.1207 15.8718 31.7854 15.5728 31.3719 15.5728ZM30.6235 25.2388H14.3103V16.908H30.6235V25.2388Z" fill="#54C6EB"/>
<path d="M13.5615 19.0249H1.17156C0.757644 19.0249 0.422791 19.3242 0.422791 19.6925V22.4543C0.422791 22.8229 0.758098 23.1219 1.17156 23.1219H13.5615C13.9749 23.1219 14.3102 22.8226 14.3102 22.4543V19.6925C14.3102 19.3239 13.9749 19.0249 13.5615 19.0249ZM12.813 21.7866H1.92033V20.3599H12.8129V21.7866H12.813Z" fill="#54C6EB"/>
<path d="M43.7617 19.0249H31.3718C30.9579 19.0249 30.623 19.3242 30.623 19.6925V22.4543C30.623 22.8229 30.9584 23.1219 31.3718 23.1219H43.7617C44.1752 23.1219 44.5105 22.8226 44.5105 22.4543V19.6925C44.5105 19.3239 44.1752 19.0249 43.7617 19.0249ZM43.0133 21.7866H32.1207V20.3599H43.0133V21.7866Z" fill="#54C6EB"/>
<path d="M19.7563 17.6213H17.4332C17.0054 17.6213 16.6588 17.9306 16.6588 18.3117V23.8351C16.6588 24.2162 17.0054 24.5256 17.4332 24.5256H19.7563C20.1842 24.5256 20.5307 24.2163 20.5307 23.8351V18.3117C20.5307 17.9307 20.1842 17.6213 19.7563 17.6213ZM18.9819 23.1448H18.2075V19.0022H18.9819V23.1448Z" fill="#54C6EB"/>
<path d="M26.7256 17.6213H24.4025C23.9746 17.6213 23.6281 17.9306 23.6281 18.3117V23.8351C23.6281 24.2162 23.9746 24.5256 24.4025 24.5256H26.7256C27.1535 24.5256 27.5 24.2163 27.5 23.8351V18.3117C27.5 17.9307 27.1535 17.6213 26.7256 17.6213ZM25.9512 23.1448H25.1768V19.0022H25.9512V23.1448Z" fill="#54C6EB"/>
<path d="M31.3718 20.383H26.7256C26.2978 20.383 25.9512 20.6923 25.9512 21.0735C25.9512 21.4547 26.2978 21.7639 26.7256 21.7639H31.3718C31.7997 21.7639 32.1462 21.4547 32.1462 21.0735C32.1462 20.6923 31.7997 20.383 31.3718 20.383Z" fill="#54C6EB"/>
<path d="M24.4025 20.383H19.7563C19.3284 20.383 18.9819 20.6923 18.9819 21.0735C18.9819 21.4547 19.3284 21.7639 19.7563 21.7639H24.4025C24.8303 21.7639 25.1769 21.4547 25.1769 21.0735C25.1769 20.6923 24.8303 20.383 24.4025 20.383Z" fill="#54C6EB"/>
<path d="M16.6589 20.383H13.5614C13.1335 20.383 12.787 20.6923 12.787 21.0735C12.787 21.4547 13.1335 21.7639 13.5614 21.7639H16.6589C17.0868 21.7639 17.4333 21.4547 17.4333 21.0735C17.4333 20.6923 17.0868 20.383 16.6589 20.383Z" fill="#54C6EB"/>
</svg>
