<svg width="48" height="48" viewBox="0 0 48 48" fill="none" xmlns="http://www.w3.org/2000/svg">
<circle cx="36" cy="12" r="12" fill="#E5E5E5"/>
<path d="M18.1027 22.0798L15.609 23.0782C14.7569 23.4166 13.7919 23.0001 13.4535 22.1481C13.28 21.7112 13.2999 21.2212 13.5082 20.7998L14.0578 19.7005C14.3659 19.0844 14.245 18.3403 13.7578 17.8533L9.93135 14.0269L10.9658 12.9924C11.2781 12.68 11.2781 12.1736 10.9658 11.8612L8.33133 9.22688L8.56573 8.99248C8.87204 8.68637 8.87914 8.19206 8.58173 7.87726L1.38162 0.250744C1.07822 -0.0705614 0.571909 -0.0849616 0.250704 0.218443C0.0908014 0.369445 0.000100002 0.579548 0 0.799452V11.1996C0 11.4352 0.103902 11.6588 0.284004 11.8108L2.68404 13.8396C3.00165 14.1078 3.47175 14.088 3.76566 13.794L4.00006 13.5572L6.6345 16.1917C6.94691 16.504 7.45331 16.504 7.76572 16.1917L8.80013 15.1573L12.6266 18.9837L12.0802 20.0797C11.276 21.6892 11.9288 23.6458 13.5382 24.4499C14.3709 24.866 15.3417 24.9059 16.2058 24.5598L18.7011 23.5622L18.1027 22.0798ZM3.43445 11.8628L3.15445 12.1428L1.60002 10.8284V2.81228L6.8849 8.41237L6.6345 8.66277L3.43445 11.8628ZM7.20011 14.4949L5.13128 12.426L7.20011 10.3572L9.26894 12.4284L7.20011 14.4949Z" fill="#54C6EB"/>
<path d="M47.5064 23.2606C47.2074 23.1367 46.8632 23.2053 46.6344 23.4342L35.4342 34.6344C35.1219 34.9468 35.1219 35.4532 35.4342 35.7656L36.0686 36.4L32.9294 39.5393C31.6876 38.778 30.2561 38.3831 28.7997 38.4001C25.2708 38.4001 22.3996 40.5529 22.3996 43.2001C22.3996 45.8474 25.2708 48.0002 28.7997 48.0002C32.3285 48.0002 35.1998 45.8474 35.1998 43.2001C35.1839 42.2273 34.8116 41.2942 34.1534 40.5777L37.1998 37.5313L37.8342 38.1657C38.1466 38.478 38.653 38.478 38.9655 38.1657L47.7656 29.3655C47.9156 29.2155 48 29.0121 48 28.7999V23.9998C48.0001 23.6763 47.8053 23.3846 47.5064 23.2606ZM28.7997 46.4002C26.1981 46.4002 23.9996 44.9346 23.9996 43.2001C23.9996 41.4657 26.1981 40.0001 28.7997 40.0001C31.4013 40.0001 33.5998 41.4657 33.5998 43.2001C33.5998 44.9346 31.4013 46.4002 28.7997 46.4002ZM46.4 28.4687L38.3998 36.4688L37.131 35.2L46.4 25.9311V28.4687Z" fill="#54C6EB"/>
<path d="M27.584 27.0351C27.2536 25.0561 25.3814 23.7196 23.4024 24.0501C21.8721 24.3056 20.673 25.5047 20.4174 27.0351L18.0006 41.5361C17.8195 42.6208 16.7934 43.3533 15.7087 43.1723C14.8487 43.0287 14.1821 42.3424 14.0638 41.4785L11.9933 26.2918C11.9785 26.1782 11.9395 26.069 11.8789 25.9718L11.4341 25.2598C10.0793 23.0938 9.10267 20.7132 8.54607 18.2197L6.98364 18.5685C7.58065 21.2404 8.62797 23.7912 10.0805 26.1118L10.4341 26.6783L12.4821 41.6945C12.7496 43.6593 14.5593 45.0353 16.5241 44.7678C18.0835 44.5555 19.3229 43.3525 19.5814 41.8001L21.9983 27.2991C22.1588 26.3182 23.0069 25.5985 24.0007 25.5998C24.9958 25.597 25.8456 26.317 26.0063 27.2991L27.612 36.932L29.1896 36.668L27.584 27.0351Z" fill="#54C6EB"/>
<path d="M31.5089 3.19967C30.1423 3.19967 28.79 3.47727 27.5339 4.01548C25.2773 4.97709 22.7263 4.97709 20.4698 4.01548C16.5059 2.31665 11.9005 3.32407 9.008 6.52272L10.1952 7.59953C11.8059 5.81931 14.0938 4.80239 16.4945 4.79949C17.6445 4.79819 18.7827 5.03179 19.8394 5.4859C22.4984 6.62032 25.5052 6.62032 28.1643 5.4859C32.4757 3.63857 37.4683 5.6361 39.3157 9.94757C39.7686 11.0046 40.0021 12.1425 40.0021 13.2924C40.0035 17.526 38.8135 21.6745 36.5684 25.2638L36.1236 25.9758C36.063 26.073 36.024 26.1822 36.0092 26.2958L35.3548 31.0959L36.9396 31.3119L37.5716 26.6822L37.9252 26.1158C40.3301 22.2712 41.6042 17.8273 41.6021 13.2924C41.602 7.71823 37.0831 3.19957 31.5089 3.19967Z" fill="#54C6EB"/>
</svg>
