<svg width="49" height="48" viewBox="0 0 49 48" fill="none" xmlns="http://www.w3.org/2000/svg">
<ellipse cx="35.0134" cy="12.2233" rx="12.0046" ry="12.2233" fill="#E5E5E5"/>
<path d="M46.7279 42.9143L44.0058 45.6867L43.7515 44.3865C43.747 44.3636 43.732 44.3452 43.726 44.3231C43.711 44.2734 43.6915 44.2268 43.6667 44.1795C43.6427 44.1336 43.6172 44.0924 43.5849 44.0534C43.5692 44.0351 43.5639 44.0122 43.5467 43.9953L41.3483 41.757C42.0303 40.5789 41.8863 39.0365 40.8929 38.0258C40.8689 38.0021 40.8381 37.9914 40.8126 37.9716L27.9542 24.8781L30.2051 22.5863C30.2073 22.584 30.2096 22.584 30.2118 22.5817C31.1984 21.5779 31.3433 20.0469 30.6665 18.8758L37.5886 11.8275C38.636 12.6595 39.916 13.1155 41.2651 13.1155C42.8692 13.1155 44.3757 12.4799 45.5094 11.3248C47.8496 8.94282 47.8496 5.06576 45.5094 2.68222C44.3757 1.52788 42.8684 0.892273 41.2651 0.892273C39.6617 0.892273 38.1544 1.52788 37.0214 2.68222C34.8613 4.88241 34.7 8.35305 36.5277 10.748L29.6056 17.7963C28.4554 17.108 26.9533 17.2546 25.9659 18.2592C25.9637 18.2615 25.9637 18.2638 25.9614 18.2661L23.7106 20.558L12.4323 9.07422C12.43 9.07193 12.43 9.06964 12.4278 9.06735C11.4426 8.06351 9.93906 7.91531 8.78887 8.60363L7.12323 6.90841L7.65368 6.36753C8.2209 5.79075 8.53377 5.02297 8.53377 4.20707C8.53377 3.39193 8.2209 2.62416 7.65368 2.04661C6.48173 0.853311 4.579 0.854839 3.40931 2.04661L0.229589 5.28501C-0.0637733 5.58372 -0.0637733 6.06654 0.229589 6.36524C0.375895 6.51421 0.567969 6.58908 0.760042 6.58908C0.952116 6.58908 1.14344 6.51421 1.2905 6.36524L4.47096 3.12684C5.05469 2.53248 6.0083 2.53096 6.59353 3.12684C6.87713 3.41638 7.03394 3.79988 7.03394 4.20707C7.03394 4.61502 6.87713 4.99853 6.59353 5.2873L5.53262 6.3683C5.38631 6.51727 5.31278 6.71284 5.31278 6.90841C5.31278 7.10399 5.38631 7.29956 5.53262 7.44853L7.72946 9.68462C7.05345 10.8558 7.19676 12.386 8.18263 13.3906C8.18488 13.3929 8.18714 13.3929 8.18939 13.3952L11.8958 17.1691C11.8966 17.1699 11.8966 17.1706 11.8973 17.1714C11.8981 17.1721 11.8988 17.1721 11.8996 17.1729L13.4872 18.7894C13.4879 18.7902 13.4879 18.791 13.4887 18.7917C13.4894 18.7925 13.4902 18.7925 13.4909 18.7933L19.4677 24.8789L2.70479 41.9464C2.70254 41.9487 2.70179 41.9518 2.69953 41.9541C2.69728 41.9564 2.69428 41.9571 2.69203 41.9594C2.10681 42.5545 2.10681 43.5247 2.69203 44.1199L4.81384 46.2803C5.10646 46.5783 5.4906 46.7272 5.87475 46.7272C6.2589 46.7272 6.64304 46.5783 6.93566 46.2803C6.93866 46.2773 6.93941 46.2735 6.94241 46.2704C6.94391 46.2689 6.94616 46.2681 6.94766 46.2666L23.7098 29.1983L32.9466 38.6034C32.9474 38.6041 32.9474 38.6049 32.9481 38.6056C32.9489 38.6064 32.9496 38.6064 32.9504 38.6072L36.569 42.2917C36.5885 42.3177 36.5983 42.3498 36.6223 42.3735C37.1925 42.9541 37.9503 43.2734 38.7568 43.2734H38.7576C39.3061 43.2734 39.8275 43.1145 40.2874 42.8372L42.3252 44.9121L42.8099 47.3858C42.8151 47.4117 42.8294 47.4331 42.8377 47.4584C42.8497 47.4973 42.8624 47.534 42.8812 47.5707C42.9074 47.6249 42.9397 47.6723 42.9765 47.7173C42.9922 47.7357 42.9982 47.7593 43.0155 47.7762C43.0245 47.7853 43.0357 47.7884 43.0447 47.796C43.0935 47.8419 43.1498 47.8755 43.2083 47.9068C43.2323 47.9198 43.2541 47.9374 43.2788 47.9473C43.3629 47.9801 43.4521 48 43.5452 48H43.5459H43.5467C43.5939 48 43.6442 47.9954 43.6922 47.9847C43.7147 47.9801 43.7327 47.9649 43.7545 47.958C43.8033 47.9435 43.8483 47.9236 43.8941 47.8992C43.9406 47.8747 43.9811 47.848 44.0201 47.8144C44.0374 47.7991 44.0599 47.7937 44.0764 47.7762L47.7895 43.9938C48.0829 43.6951 48.0829 43.2123 47.7895 42.9136C47.4962 42.6149 47.0213 42.6156 46.7279 42.9143V42.9143ZM36.662 40.226L36.1316 39.6859L38.2526 37.5262L38.7831 38.0663L36.662 40.226ZM34.5395 38.0648L36.6613 35.9051L37.1917 36.4459L35.0707 38.6056L34.5395 38.0648ZM32.9481 36.4444L35.0692 34.2847L35.6004 34.8248L33.4786 36.9845L32.9481 36.4444ZM38.0823 3.76321C38.9324 2.89765 40.0631 2.42095 41.2651 2.42095C42.4685 2.42095 43.5984 2.89765 44.4485 3.76321C46.2034 5.55087 46.2034 8.45848 44.4485 10.2454C43.5977 11.1117 42.4678 11.5884 41.2651 11.5884C40.0623 11.5884 38.9332 11.1117 38.0823 10.2454C36.3274 8.45848 36.3274 5.55087 38.0823 3.76321ZM29.1509 19.3395C29.7346 19.9338 29.7354 20.901 29.1547 21.4969C29.1532 21.4984 29.1517 21.4984 29.1502 21.4999L23.1966 27.5619C23.1906 27.568 23.1824 27.5696 23.1771 27.5757C23.1719 27.5818 23.1696 27.5902 23.1636 27.5955L5.88751 45.1863C5.8845 45.1894 5.88375 45.1932 5.88075 45.1963C5.87925 45.1978 5.877 45.1986 5.8755 45.2001L3.75369 43.0396C3.75594 43.0373 3.75669 43.0343 3.75894 43.032C3.76119 43.0297 3.76419 43.0289 3.76644 43.0266L24.2305 22.1898C24.235 22.186 24.2403 22.1844 24.244 22.1806C24.2478 22.1768 24.2493 22.1707 24.253 22.1669L27.0291 19.3402C27.0306 19.3387 27.0306 19.3372 27.0321 19.3357C27.6181 18.7451 28.5657 18.7459 29.1509 19.3395V19.3395ZM13.4894 16.6305L15.6105 14.4708L16.1417 15.0117L14.0206 17.1714L13.4894 16.6305ZM11.8973 15.0094L14.0184 12.8497L14.5488 13.3898L12.4278 15.5495L11.8973 15.0094ZM10.3059 13.389L12.427 11.2293L12.9575 11.7695L10.8364 13.9292L10.3059 13.389ZM11.3639 10.1445C11.3654 10.1461 11.3654 10.1476 11.3669 10.1491L9.24579 12.3088C9.24429 12.3073 9.24279 12.3073 9.24129 12.3058C8.66057 11.7099 8.66207 10.7427 9.24579 10.1476C9.82876 9.55399 10.7779 9.55322 11.3639 10.1445V10.1445ZM15.0815 18.2516L17.2026 16.0919L22.6504 21.639L20.5294 23.7987L15.0815 18.2516ZM26.8933 25.9584L34.0083 33.2037L31.8872 35.3642L24.7715 28.1188L26.8933 25.9584ZM38.7568 41.7463C38.3727 41.7463 38.0141 41.5988 37.7334 41.336C37.7274 41.3284 37.7244 41.32 37.7177 41.3123L39.8493 39.1419C39.8568 39.1488 39.865 39.1511 39.8718 39.158C40.4187 39.7638 40.4082 40.7065 39.8313 41.294C39.5446 41.5851 39.1635 41.7463 38.7568 41.7463Z" fill="#54C6EB"/>
<path d="M41.2658 10.8237C42.2682 10.8237 43.2098 10.4264 43.918 9.70526C44.6256 8.98485 45.0157 8.02532 45.0157 7.00468C45.0157 5.98403 44.6256 5.02451 43.918 4.3041C43.2098 3.58216 42.2682 3.18567 41.2658 3.18567C40.2626 3.18567 39.321 3.58293 38.6128 4.3041C37.9045 5.02451 37.5143 5.98403 37.5143 7.00468C37.5143 8.02532 37.9045 8.98485 38.6128 9.70526C39.321 10.4264 40.2626 10.8237 41.2658 10.8237ZM39.6737 5.38433C40.0983 4.95117 40.664 4.71358 41.2658 4.71358C41.8668 4.71358 42.4325 4.95193 42.8571 5.38433C43.281 5.81673 43.5151 6.39199 43.5151 7.00468C43.5151 7.61737 43.281 8.19263 42.8571 8.62502C42.0071 9.49135 40.523 9.48982 39.6737 8.62502C39.249 8.19263 39.0149 7.61737 39.0149 7.00468C39.0149 6.39199 39.249 5.81673 39.6737 5.38433V5.38433Z" fill="#54C6EB"/>
</svg>
