<?xml version="1.0" encoding="utf-8"?>
<!-- Generator: Adobe Illustrator 23.0.1, SVG Export Plug-In . SVG Version: 6.00 Build 0)  -->
<svg version="1.1" id="Слой_1" xmlns="http://www.w3.org/2000/svg" xmlns:xlink="http://www.w3.org/1999/xlink" x="0px" y="0px"
	 viewBox="0 0 49 48" style="enable-background:new 0 0 49 48;" xml:space="preserve">
<style type="text/css">
	.st0{fill:#E5E5E5;}
	.st1{fill:#54C6EB;}
</style>
<ellipse class="st0" cx="36.6" cy="12" rx="11.9" ry="12"/>
<g>
	<path class="st1" d="M19.8,27.4c-0.8,0-1.4-0.6-1.4-1.4H17c0,1.6,1.3,2.8,2.8,2.8c1.6,0,2.8-1.3,2.8-2.8h-1.4
		C21.3,26.8,20.6,27.4,19.8,27.4z"/>
	<path class="st1" d="M36.3,18.2h-0.9v-1.4H36c0.9,0,1.6-0.7,1.6-1.6v-2.5c0-0.8-0.6-1.5-1.4-1.6C36,8,33.4,5.5,30.2,5.5h-16v1.4h16
		c2.4,0,4.4,1.9,4.5,4.3h-9.6c-2-2.9-5.9-3.7-8.8-1.8c-0.7,0.5-1.3,1.1-1.8,1.8H5c0.1-2.4,2.1-4.2,4.5-4.3h3.3V5.5H9.5
		c-3.2,0-5.8,2.5-5.9,5.7c-0.8,0.1-1.4,0.8-1.4,1.6v2.5c0,0.9,0.7,1.6,1.6,1.6h0.5v1.4H3.4c-1.9,0-3.4,1.5-3.4,3.4v1.8
		c0,1.9,1.5,3.4,3.4,3.4h0.9c0.1,2.3,1.6,4.4,3.8,5.2c-0.6,0.6-1,1.5-1,2.4v8c0,2.3,1.9,4.2,4.3,4.3v0.7c0,0.4,0.3,0.7,0.7,0.7h19.8
		c2.3,0,4.2-1.9,4.3-4.3V43h-1.4v0.7c0,1.6-1.3,2.8-2.8,2.8h0c-0.4-4.7-2.1-5.7-3.5-5.7c-0.9,0-2,0.4-2.8,2.3
		c-0.3,0.9-0.6,2-0.7,3.4h0c-1.6,0-2.8-1.3-2.8-2.8v-3.5c0-0.1,0-0.1,0-0.2l-1.2-4.4c-0.6-1.9,0.6-4,2.5-4.5c0.3-0.1,0.7-0.1,1-0.1
		h2c1.2,0,2.1,1,2.1,2.1h1.4c0-0.8-0.2-1.5-0.7-2.1h3.4c2,0,3.7,1.6,3.7,3.7c0,0.3,0,0.7-0.1,1L34.8,40c0,0.1,0,0.1,0,0.2v1.4h1.4
		v-1.3l1.2-4.3c0.7-2.5-0.6-5.2-3.1-6.1c0.7-0.9,1.1-2,1.1-3.2h0.9c1.9,0,3.4-1.5,3.4-3.4v-1.8C39.7,19.7,38.2,18.2,36.3,18.2z
		 M28.3,42.3c1.4,0,1.9,2.6,2.1,4.3h-4.1C26.4,44.9,26.9,42.3,28.3,42.3L28.3,42.3z M34,23.1c-0.8-0.2-1.4-1-1.4-1.9v-4.4H34V23.1z
		 M36,12.6c0.1,0,0.2,0.1,0.2,0.2v2.5c0,0.1-0.1,0.2-0.2,0.2h-9.8c0.1-1,0-1.9-0.3-2.8L36,12.6z M19.8,9.7c2.7,0,5,2.2,5,5
		s-2.2,5-5,5s-5-2.2-5-5C14.9,12,17.1,9.7,19.8,9.7z M3.5,15.2v-2.5c0-0.1,0.1-0.2,0.2-0.2h10.1c-0.3,0.9-0.4,1.9-0.3,2.8H3.7
		C3.6,15.4,3.5,15.3,3.5,15.2z M7.1,16.8v4.4c0,0.9-0.6,1.6-1.4,1.9v-6.3H7.1z M8.5,42.3v-0.7h2.8v3.5C9.8,45.2,8.5,43.9,8.5,42.3z
		 M12.8,46.6v-6.4c0,0,0-0.1,0-0.1L12,35.8l-1.4,0.2l0.7,4.1H8.5v-5.8c0-1.1,0.9-1.9,1.9-1.9H17v10.5c0,2.1-1.7,3.7-3.7,3.7H12.8z
		 M21.6,46.6h-4.8c1-1,1.6-2.3,1.6-3.7V32.4h1.2c-0.6,1.1-0.7,2.4-0.3,3.6l1.2,4.3v3.4C20.6,44.8,20.9,45.8,21.6,46.6z M38.3,23.4
		c0,1.1-0.9,1.9-1.9,1.9h-1.6c-0.4,0-0.7,0.3-0.7,0.7v0.4c0,1.2-0.5,2.3-1.3,3.2c-0.1,0-0.2,0-0.3,0h-8.3c-1.3,0-2.6,0.5-3.5,1.4
		H10.3c-2.5,0-4.6-2.1-4.6-4.6V26c0-0.4-0.3-0.7-0.7-0.7H3.4c-1.1,0-1.9-0.9-1.9-1.9v-1.8c0-1.1,0.9-1.9,1.9-1.9h0.9v4.3
		c0,0.4,0.3,0.7,0.7,0.7h0.2c1.9,0,3.4-1.5,3.4-3.4v-4.4h5.3c1.2,3.3,4.8,5.1,8.1,3.9c1.8-0.6,3.2-2.1,3.9-3.9h5.3v4.4
		c0,1.9,1.5,3.4,3.4,3.4h0.2c0.4,0,0.7-0.3,0.7-0.7v-4.3h0.9c1.1,0,1.9,0.9,1.9,1.9V23.4z"/>
	<path class="st1" d="M13.5,19.7c-2,0-3.5,1.6-3.5,3.5h1.4c0-1.2,1-2.1,2.1-2.1s2.1,1,2.1,2.1H17C17,21.2,15.4,19.7,13.5,19.7z"/>
	<path class="st1" d="M26.2,19.7c-2,0-3.5,1.6-3.5,3.5h1.4c0-1.2,1-2.1,2.1-2.1c1.2,0,2.1,1,2.1,2.1h1.4
		C29.8,21.2,28.2,19.7,26.2,19.7z"/>
	<path class="st1" d="M13.5,42.3h2.8v1.4h-2.8V42.3z"/>
	<path class="st1" d="M24.8,33.8h1.4V36h-1.4V33.8z"/>
	<path class="st1" d="M30.5,33.8h1.4V36h-1.4V33.8z"/>
	<path class="st1" d="M28.3,39.5c0.8,0,1.7-0.2,2.4-0.7l0.2-0.1l-0.8-1.2l-0.2,0.1c-1,0.6-2.2,0.6-3.1,0l-0.2-0.1l-0.8,1.2l0.2,0.1
		C26.7,39.2,27.5,39.5,28.3,39.5L28.3,39.5z"/>
	<path class="st1" d="M19.1,16.8h1.4v-1.4H22V14h-1.4v-1.4h-1.4V14h-1.4v1.4h1.4V16.8z"/>
</g>
</svg>
