<svg width="48" height="48" viewBox="0 0 48 48" fill="none" xmlns="http://www.w3.org/2000/svg">
<circle cx="36" cy="12" r="12" fill="#E5E5E5"/>
<g clip-path="url(#clip0)">
<path d="M30.96 3.64627e-06C29.9527 -0.000996354 28.9558 0.203704 28.0304 0.601604C25.4541 1.7 22.5412 1.7 19.9648 0.601604C16.1866 -1.0137 11.8143 0.739604 10.199 4.51781C9.80411 5.44141 9.60041 6.43551 9.60001 7.44001C9.60361 10.5399 10.3196 13.5976 11.6928 16.3768L12.8328 20.2296C12.9343 20.5684 13.2463 20.8004 13.6 20.8H16V24.8C16 25.2418 16.3582 25.6 16.8 25.6H19.2V27.4616L16.888 27.2048L16.712 28.7952L19.2 29.072V32.2616L16.888 32.0048L16.712 33.5952L19.2 33.872V37.0616L16.888 36.8048L16.712 38.3952L19.2 38.672V41.8616L16.888 41.6048L16.712 43.1952L19.2536 43.4776C19.2536 43.484 19.2536 43.4904 19.2536 43.4968L20.8536 47.4968C20.9755 47.8019 21.2715 48.0014 21.6 48H26.4C26.7274 48.0001 27.0218 47.8008 27.1432 47.4968L28.3432 44.488L31.1088 44.7952L31.2848 43.2048L28.8 42.928V39.7384L31.112 39.9952L31.288 38.4048L28.8 38.128V34.9384L31.112 35.1952L31.288 33.6048L28.8 33.328V30.1384L31.112 30.3952L31.288 28.8048L28.8 28.528V25.6H31.2C31.6418 25.6 32 25.2418 32 24.8V20.8H34.4C34.7544 20.8001 35.0666 20.567 35.1672 20.2272L36.3072 16.3744C37.68 13.5959 38.3961 10.5391 38.4 7.44001C38.3969 3.33231 35.0677 0.00310365 30.96 3.64627e-06ZM25.856 46.4H22.1416L21.0528 43.68L26.6968 44.3072L25.856 46.4ZM27.2 42.7504L20.8 42.0392V38.8496L27.2 39.5608V42.7504ZM27.2 37.9504L20.8 37.2392V34.0496L27.2 34.7608V37.9504ZM27.2 33.1504L20.8 32.4392V29.2496L27.2 29.9608V33.1504ZM27.2 28.3504L20.8 27.6392V25.6H27.2V28.3504ZM30.4 24H17.6V20.8H30.4V24ZM34.844 15.7224C34.8232 15.7643 34.8061 15.8079 34.7928 15.8528L33.8024 19.2H14.1976L13.2072 15.8528C13.1939 15.8079 13.1768 15.7643 13.156 15.7224C11.8731 13.1497 11.2036 10.3148 11.2 7.44001C11.2008 4.21471 13.816 1.6006 17.0414 1.6014C17.8305 1.6016 18.6113 1.7617 19.3368 2.072C22.3155 3.34241 25.6837 3.34241 28.6624 2.072C31.6276 0.803104 35.0601 2.1782 36.329 5.14341C36.6396 5.86921 36.7998 6.65051 36.8 7.44001C36.7964 10.3148 36.1269 13.1497 34.844 15.7224Z" fill="#54C6EB"/>
<path d="M15.6 3.3056C13.9132 4.1993 12.842 5.9356 12.8 7.844V8.8H14.4V7.84C14.4476 6.5056 15.2125 5.301 16.4 4.6904L15.6 3.3056Z" fill="#54C6EB"/>
</g>
<defs>
<clipPath id="clip0">
<rect width="48" height="48" fill="white"/>
</clipPath>
</defs>
</svg>
