<svg width="48" height="48" viewBox="0 0 48 48" fill="none" xmlns="http://www.w3.org/2000/svg">
<circle cx="35" cy="12" r="12" fill="#E5E5E5"/>
<path d="M18.1027 22.0798L15.609 23.0782C14.7569 23.4166 13.7919 23.0001 13.4535 22.1481C13.28 21.7112 13.2999 21.2212 13.5082 20.7998L14.0578 19.7005C14.3659 19.0844 14.245 18.3403 13.7578 17.8533L9.93135 14.0269L10.9658 12.9924C11.2781 12.68 11.2781 12.1736 10.9658 11.8612L8.33133 9.22688L8.56573 8.99248C8.87204 8.68637 8.87914 8.19206 8.58173 7.87726L1.38162 0.250744C1.07822 -0.0705614 0.571909 -0.0849616 0.250704 0.218443C0.0908014 0.369445 0.000100002 0.579548 0 0.799452V11.1996C0 11.4352 0.103902 11.6588 0.284004 11.8108L2.68404 13.8396C3.00165 14.1078 3.47175 14.088 3.76566 13.794L4.00006 13.5572L6.6345 16.1917C6.94691 16.504 7.45331 16.504 7.76572 16.1917L8.80013 15.1573L12.6266 18.9837L12.0802 20.0797C11.276 21.6892 11.9288 23.6458 13.5382 24.4499C14.3709 24.866 15.3417 24.9059 16.2058 24.5598L18.7011 23.5622L18.1027 22.0798ZM3.43445 11.8628L3.15445 12.1428L1.60002 10.8284V2.81228L6.8849 8.41237L6.6345 8.66277L3.43445 11.8628ZM7.20011 14.4949L5.13128 12.426L7.20011 10.3572L9.26894 12.4284L7.20011 14.4949Z" fill="#54C6EB"/>
<path d="M47.5064 23.2606C47.2074 23.1367 46.8632 23.2053 46.6344 23.4342L35.4342 34.6344C35.1219 34.9468 35.1219 35.4532 35.4342 35.7656L36.0686 36.4L32.9294 39.5392C31.6876 38.7779 30.2561 38.383 28.7997 38.4C25.2708 38.4 22.3996 40.5528 22.3996 43.2001C22.3996 45.8473 25.2708 48.0002 28.7997 48.0002C32.3285 48.0002 35.1998 45.8473 35.1998 43.2001C35.1839 42.2273 34.8116 41.2942 34.1534 40.5776L37.1998 37.5312L37.8342 38.1656C38.1466 38.4779 38.653 38.4779 38.9655 38.1656L47.7656 29.3655C47.9156 29.2155 48 29.0121 48 28.7999V23.9998C48.0001 23.6763 47.8053 23.3846 47.5064 23.2606ZM28.7997 46.4001C26.1981 46.4001 23.9996 44.9345 23.9996 43.2001C23.9996 41.4657 26.1981 40 28.7997 40C31.4013 40 33.5998 41.4657 33.5998 43.2001C33.5998 44.9345 31.4013 46.4001 28.7997 46.4001ZM46.4 28.4687L38.3998 36.4688L37.131 35.2L46.4 25.931V28.4687Z" fill="#54C6EB"/>
<path d="M27.584 27.0351C27.2536 25.0562 25.3814 23.7197 23.4024 24.0502C21.8721 24.3057 20.673 25.5048 20.4174 27.0351L18.0006 41.5361C17.8195 42.6209 16.7934 43.3534 15.7087 43.1724C14.8487 43.0288 14.1821 42.3425 14.0638 41.4785L11.9933 26.2919C11.9785 26.1783 11.9395 26.0691 11.8789 25.9719L11.4341 25.2599C10.0793 23.0939 9.10267 20.7132 8.54607 18.2198L6.98364 18.5686C7.58065 21.2404 8.62797 23.7913 10.0805 26.1119L10.4341 26.6783L12.4821 41.6945C12.7496 43.6594 14.5593 45.0354 16.5241 44.7679C18.0835 44.5556 19.3229 43.3526 19.5814 41.8001L21.9983 27.2991C22.1588 26.3183 23.0069 25.5986 24.0007 25.5999C24.9958 25.5971 25.8456 26.3171 26.0063 27.2991L27.612 36.9321L29.1896 36.6681L27.584 27.0351Z" fill="#54C6EB"/>
<path d="M31.5089 3.19973C30.1423 3.19973 28.79 3.47733 27.5339 4.01554C25.2773 4.97715 22.7263 4.97715 20.4698 4.01554C16.5059 2.31671 11.9005 3.32413 9.008 6.52278L10.1952 7.59959C11.8059 5.81937 14.0938 4.80245 16.4945 4.79955C17.6445 4.79825 18.7827 5.03186 19.8394 5.48596C22.4984 6.62038 25.5052 6.62038 28.1643 5.48596C32.4757 3.63863 37.4683 5.63616 39.3157 9.94763C39.7686 11.0046 40.0021 12.1426 40.0021 13.2925C40.0035 17.526 38.8135 21.6746 36.5684 25.2639L36.1236 25.9759C36.063 26.0731 36.024 26.1823 36.0092 26.2959L35.3548 31.0959L36.9396 31.3119L37.5716 26.6823L37.9252 26.1159C40.3301 22.2712 41.6042 17.8273 41.6021 13.2925C41.602 7.7183 37.0831 3.19963 31.5089 3.19973Z" fill="#54C6EB"/>
</svg>
