<svg width="48" height="48" viewBox="0 0 48 48" fill="none" xmlns="http://www.w3.org/2000/svg">
<circle cx="12" cy="12" r="12" fill="#E5E5E5"/>
<g clip-path="url(#clip0)">
<path d="M30.3885 3.27606C25.9782 3.27606 22.403 6.85128 22.403 11.2616C22.403 15.6719 25.9782 19.2471 30.3885 19.2471C34.7988 19.2471 38.374 15.6719 38.374 11.2616C38.3691 6.85338 34.7967 3.28095 30.3885 3.27606ZM30.3885 17.65C26.8603 17.65 24.0001 14.7898 24.0001 11.2616C24.0001 7.73338 26.8603 4.87317 30.3885 4.87317C33.9167 4.87317 36.7769 7.73338 36.7769 11.2616C36.7729 14.7882 33.9151 17.6461 30.3885 17.65Z" fill="#56CCF2"/>
<path d="M47.7227 24.2724L40.1484 16.6981C43.173 11.29 41.2407 4.45392 35.8326 1.4294C30.4244 -1.59521 23.5883 0.337084 20.5638 5.74518C17.5393 11.1533 19.4715 17.9894 24.8796 21.0139C28.6417 23.1179 33.2765 22.8806 36.8041 20.4034L44.1979 27.7972C44.5097 28.1089 45.0152 28.1089 45.327 27.7972L47.7227 25.4016C48.0344 25.0897 48.0344 24.5842 47.7227 24.2724ZM30.3885 20.8442C25.0985 20.8385 20.8116 16.5516 20.8059 11.2616C20.8059 5.96928 25.0962 1.67895 30.3885 1.67895C35.6808 1.67895 39.9711 5.96928 39.9711 11.2616C39.9711 16.5539 35.6808 20.8442 30.3885 20.8442ZM44.7625 26.1035L38.045 19.3861C38.4802 18.9748 38.8821 18.5297 39.2469 18.0549L46.029 24.837L44.7625 26.1035Z" fill="#56CCF2"/>
<path d="M35.9584 22.423C35.356 24.6497 34.4285 26.7755 33.2058 28.7315L32.9055 29.2106C32.8584 29.2865 32.8241 29.3696 32.8041 29.4566L29.3264 44.7521C29.069 45.8903 27.9376 46.6042 26.7993 46.3468C25.9615 46.1573 25.3219 45.4796 25.1811 44.6323L22.7855 30.2631C22.4557 28.2878 20.587 26.9537 18.6116 27.2836C17.084 27.5387 15.8871 28.7356 15.6321 30.2631L13.2364 44.6323C13.045 45.7835 11.9568 46.5616 10.8056 46.3702C9.95834 46.2294 9.28057 45.5898 9.09112 44.7521L5.61342 29.451C5.59346 29.364 5.55912 29.2809 5.51201 29.2051L5.21175 28.7259C2.87618 24.9922 1.63863 20.6765 1.64062 16.2725C1.64112 10.8584 6.03057 6.46987 11.4446 6.47037C12.7713 6.47047 14.0843 6.73998 15.3039 7.26243C16.1795 7.63785 17.1047 7.885 18.0509 7.9963L18.2369 6.41037C17.4439 6.31714 16.6685 6.10972 15.9347 5.79469C10.1484 3.31389 3.44665 5.99353 0.965848 11.7798C0.357251 13.1995 0.0434199 14.7279 0.0435197 16.2725C0.0418228 20.9756 1.36353 25.5842 3.85741 29.5716L4.08579 29.9373L7.53394 45.1098C7.98722 47.1081 9.97462 48.3605 11.9729 47.9073C13.4427 47.5739 14.5648 46.3843 14.8119 44.8974L17.2076 30.5283C17.393 29.4226 18.4396 28.6766 19.5453 28.862C20.3992 29.0052 21.0683 29.6743 21.2115 30.5283L23.6072 44.8974C23.9432 46.9187 25.8541 48.2849 27.8754 47.9489C29.3622 47.7017 30.5517 46.5797 30.8852 45.1098L34.3334 29.9373L34.5617 29.5716C35.866 27.4841 36.8561 25.2162 37.5004 22.8406L35.9584 22.423Z" fill="#56CCF2"/>
<path d="M8.8276 10.463L8.66789 9.68045C7.07078 10.0007 4.03629 11.7447 4.03629 16.0529H5.63339C5.63339 12.0042 8.85155 11.2744 8.98731 11.2448L8.8276 10.463Z" fill="#56CCF2"/>
<path d="M12.0218 9.66449H10.4247V11.2616H12.0218V9.66449Z" fill="#56CCF2"/>
<path d="M30.6213 6.70158L26.2294 11.0935L27.3587 12.2228L31.7506 7.83089L30.6213 6.70158Z" fill="#56CCF2"/>
<path d="M33.8163 9.10072L28.2267 14.6902L29.3561 15.8196L34.9456 10.23L33.8163 9.10072Z" fill="#56CCF2"/>
</g>
<defs>
<clipPath id="clip0">
<rect width="48" height="48" fill="white"/>
</clipPath>
</defs>
</svg>
