<svg width="48" height="48" viewBox="0 0 48 48" fill="none" xmlns="http://www.w3.org/2000/svg">
<circle cx="36" cy="12" r="12" fill="#E5E5E5"/>
<path d="M27.75 18.1875C27.0263 18.1875 26.4375 18.7763 26.4375 19.5C26.4375 20.2237 27.0263 20.8125 27.75 20.8125C28.4737 20.8125 29.0625 20.2237 29.0625 19.5C29.0625 18.7763 28.4737 18.1875 27.75 18.1875ZM27.5625 19.5C27.5625 19.3965 27.6465 19.3125 27.75 19.3125C27.8535 19.3125 27.9375 19.3965 27.9375 19.5C27.9375 19.7062 27.5625 19.7062 27.5625 19.5Z" fill="#5FCAEC"/>
<path d="M20.25 18.1875C19.5263 18.1875 18.9375 18.7763 18.9375 19.5C18.9375 20.2237 19.5263 20.8125 20.25 20.8125C20.9737 20.8125 21.5625 20.2237 21.5625 19.5C21.5625 18.7763 20.9737 18.1875 20.25 18.1875ZM20.0625 19.5C20.0625 19.3965 20.1465 19.3125 20.25 19.3125C20.3535 19.3125 20.4375 19.3965 20.4375 19.5C20.4375 19.7062 20.0625 19.7062 20.0625 19.5Z" fill="#5FCAEC"/>
<path d="M42.8078 31.9403L40.1625 32.8223C39.8933 32.9115 39.6075 32.9115 39.3375 32.8223L36.6923 31.9403C36.1373 31.7543 35.559 31.7543 35.0243 31.9103C33.7875 31.2473 32.4188 30.8767 31.0185 30.8347L28.5 29.0025V27.99C30.6045 26.7232 32.169 24.603 32.748 22.1055C34.347 24.0113 36.159 25.7257 38.1705 27.1882L40.8098 29.1075C40.941 29.2028 41.0955 29.25 41.25 29.25C41.4278 29.25 41.6063 29.1863 41.7473 29.0618C42.0105 28.8278 42.0758 28.4438 41.9055 28.1362C39.5145 23.8312 38.25 18.9533 38.25 14.028V8.25C38.25 4.52775 35.2223 1.5 31.5 1.5C29.7473 1.5 28.0733 2.1885 26.82 3.396C25.9215 3.14475 24.978 3 24 3C18.21 3 13.5 7.71 13.5 13.5V16.7633C12.6165 17.1862 12 18.0818 12 19.125C12 20.5725 13.1775 21.75 14.625 21.75H15.1335C15.444 23.6108 16.3208 25.3223 17.6955 26.6722C18.2438 27.2108 18.8528 27.6615 19.5 28.0373V29.0017L17.097 30.75H15.75C13.167 30.75 11.0183 32.628 10.5848 35.0887L9.99228 33.5093C10.734 33.141 11.25 32.3827 11.25 31.5V27C12.4905 27 13.5 25.9905 13.5 24.75C13.5 23.5095 12.4905 22.5 11.25 22.5V20.25C11.25 19.8353 10.9148 19.5 10.5 19.5H9.75003V13.4242C11.4593 13.0755 12.75 11.5612 12.75 9.75C12.75 7.68225 11.0678 6 9.00003 6C6.93228 6 5.25003 7.68225 5.25003 9.75C5.25003 11.5605 6.54078 13.0755 8.25003 13.4242V19.5H7.50003C7.08528 19.5 6.75003 19.8353 6.75003 20.25V22.5H4.82028C3.95553 22.5 3.13203 22.8735 2.56278 23.5238C1.99278 24.1747 1.73253 25.0395 1.84653 25.896L4.50678 45.849C4.55628 46.2217 4.87428 46.5 5.25003 46.5H36.75V46.4902C37.0275 46.4902 37.2923 46.3433 37.4213 46.0853L39.75 41.427L42.0788 46.0853C42.2078 46.3433 42.4703 46.5 42.75 46.5C42.7995 46.5 42.8505 46.4948 42.9008 46.4842C43.233 46.416 43.479 46.1325 43.4985 45.7935C43.5975 44.1203 44.0423 41.133 44.8163 40.2412C45.7238 39.1957 46.266 36.6217 46.4565 35.5658C46.4858 35.4015 46.5 35.2395 46.5 35.0723V34.6012C46.5 33.8632 46.2008 33.1403 45.678 32.6175C44.922 31.8615 43.8225 31.6013 42.8078 31.9403ZM6.75003 9.75C6.75003 8.5095 7.75953 7.5 9.00003 7.5C10.2405 7.5 11.25 8.5095 11.25 9.75C11.25 10.9905 10.2405 12 9.00003 12C7.75953 12 6.75003 10.9905 6.75003 9.75ZM33.0465 35.5732C33.2423 36.6232 33.792 39.1793 34.6763 40.2323C35.3588 41.046 35.7773 43.3275 35.94 45H33.75V41.25H32.25V45H24.75V36.7853L28.0838 39.0083C28.4295 39.237 28.8938 39.1448 29.124 38.8005C30.3585 36.948 31.092 33.744 31.3658 32.3587C32.1345 32.4225 32.889 32.5935 33.6038 32.8853C33.2235 33.3743 33 33.978 33 34.6012V35.0662C33 35.2388 33.015 35.4067 33.0465 35.5732ZM29.9273 31.8953C29.7263 32.937 29.1608 35.5545 28.254 37.3177L25.1108 35.2223L28.326 31.3635C28.4385 31.23 28.5 31.0598 28.5 30.8843V30.8573L29.9273 31.8953ZM16.5 20.25V18C20.7885 18 24.5895 15.6285 26.4923 11.9295C27.5168 14.1202 29.2913 15.9105 31.5 16.9657V19.9762C31.5 20.5868 31.4235 21.1785 31.2923 21.75H16.6493C16.551 21.2617 16.5 20.76 16.5 20.25ZM16.5285 16.5C16.6613 14.7615 17.253 13.1062 18.2348 11.7045C19.6665 9.9855 21.7673 9 24 9C24.702 9 25.3815 9.09675 26.0265 9.27825C25.9335 9.36525 25.8623 9.477 25.8233 9.60525C24.5648 13.7198 20.8313 16.4873 16.5285 16.5ZM27.2993 9.76575C29.4165 10.8082 30.975 12.8197 31.3898 15.219C29.3805 14.0122 27.8933 12.0503 27.2993 9.76575ZM33.375 18C33.9953 18 34.5 18.5047 34.5 19.125C34.5 19.7453 33.9953 20.25 33.375 20.25H32.9865C32.9895 20.1585 33 20.0685 33 19.9762V18H33.375ZM31.5 3C34.3943 3 36.75 5.35575 36.75 8.25V14.028C36.75 18.183 37.6058 22.3073 39.243 26.1128L39.0518 25.974C37.296 24.6968 35.6985 23.217 34.2705 21.582C35.2763 21.2145 36 20.2568 36 19.125C36 18.0818 35.3835 17.1862 34.5 16.7633V13.5C34.5 9.29475 32.0093 5.66925 28.431 3.9945C29.3175 3.3555 30.3893 3 31.5 3ZM24 4.5C28.9628 4.5 33 8.53725 33 13.5V16.5H32.9985C32.9985 16.497 32.9993 16.4948 32.9993 16.4918C32.9955 11.5343 28.9583 7.5 24 7.5C21.321 7.5 18.7995 8.68275 17.0453 10.794C15.8528 12.4913 15.165 14.451 15.0293 16.5H15V13.5C15 8.53725 19.0373 4.5 24 4.5ZM14.625 20.25C14.0048 20.25 13.5 19.7453 13.5 19.125C13.5 18.5047 14.0048 18 14.625 18H15V20.25H14.625ZM17.1255 23.25H30.7853C29.604 25.8547 27.0735 27.6953 24.1403 27.7485C22.1033 27.7763 20.193 27.0233 18.7455 25.6028C18.048 24.9173 17.505 24.1185 17.1255 23.25ZM23.9978 29.25C24.054 29.25 24.111 29.2493 24.1688 29.2485C25.1603 29.2305 26.1098 29.0363 27 28.7078V30.612L24 34.212L21 30.612V28.7295C21.9518 29.0655 22.959 29.25 23.9978 29.25ZM19.5 30.8565V30.8835C19.5 31.059 19.5615 31.2292 19.6733 31.3643L22.8885 35.223L19.7468 37.3177C18.8453 35.5508 18.2985 32.9123 18.1073 31.869L19.5 30.8565ZM8.25003 31.5V26.862C8.53053 26.7623 8.78328 26.6108 9.00003 26.415C9.21678 26.61 9.46953 26.7623 9.75003 26.862V31.5C9.75003 31.914 9.41403 32.25 9.00003 32.25C8.58603 32.25 8.25003 31.914 8.25003 31.5ZM12 24.75C12 25.164 11.664 25.5 11.25 25.5H10.5C10.086 25.5 9.75003 25.164 9.75003 24.75C9.75003 24.336 10.086 24 10.5 24H11.25C11.664 24 12 24.336 12 24.75ZM9.75003 21V22.638C9.46953 22.7377 9.21678 22.89 9.00003 23.085C8.78328 22.8892 8.53053 22.7377 8.25003 22.638V21H9.75003ZM3.69153 24.5122C3.97653 24.1867 4.38753 24 4.82028 24H7.50003C7.91403 24 8.25003 24.336 8.25003 24.75C8.25003 25.164 7.91403 25.5 7.50003 25.5H5.25003V27H6.75003V31.5C6.75003 31.764 6.80403 32.0145 6.88803 32.25H4.20678L3.33303 25.698C3.27603 25.269 3.40653 24.837 3.69153 24.5122ZM4.40703 33.75H8.48028L10.5 39.1365V40.5H9.00003V42H11.25C11.6648 42 12 41.6647 12 41.25V36C12 33.9323 13.6823 32.25 15.75 32.25H16.6523C16.9035 33.6015 17.6168 36.912 18.876 38.7998C19.02 39.0165 19.2585 39.1335 19.5008 39.1335C19.6433 39.1335 19.788 39.0922 19.9163 39.0075L23.25 36.7853V45H5.90703L4.40703 33.75ZM45 35.0723C45 35.148 44.9948 35.22 44.9805 35.2972C44.7008 36.8475 44.1915 38.6738 43.6838 39.2588C42.9563 40.0958 42.5348 41.739 42.294 43.1625L41.091 40.7572C40.8353 40.245 40.3215 39.9277 39.7493 39.9277C39.177 39.9277 38.6633 40.2458 38.4075 40.7565L37.209 43.1535C36.9728 41.7525 36.5535 40.1377 35.823 39.2677C35.322 38.67 34.8075 36.8438 34.5195 35.295C34.506 35.2192 34.5 35.1435 34.5 35.0662V34.6012C34.5 34.2577 34.6395 33.9217 34.8825 33.6787C35.2335 33.327 35.7465 33.2048 36.2175 33.363L38.8628 34.245C39.006 34.293 39.1523 34.329 39.3 34.353L41.5838 35.8747L42.4155 34.6267L41.4405 33.9772L43.2818 33.3638C43.7535 33.2055 44.2658 33.3277 44.6168 33.6795C44.8598 33.9225 44.9993 34.2585 44.9993 34.602V35.0723H45Z" fill="#5FCAEC"/>
</svg>
