<svg width="48" height="48" viewBox="0 0 48 48" fill="none" xmlns="http://www.w3.org/2000/svg">
<path d="M14.7506 42.8405H1.49963V31.3606C2.75064 31.0729 6.19013 30.5245 10.5334 31.8234C11.0857 31.9885 11.7112 32.2245 12.4451 32.5444C12.8261 32.7107 13.2678 32.5407 13.4347 32.1663C13.6019 31.7923 13.4306 31.3547 13.0519 31.1899C12.2505 30.8407 11.5883 30.5916 10.9687 30.4061C5.01108 28.6246 0.69038 30.0314 0.508117 30.092C0.204346 30.1942 0 30.4764 0 30.7933V43.5811C0 43.9899 0.335632 44.3217 0.750036 44.3217H14.751C15.1654 44.3217 15.5006 43.99 15.5006 43.5811C15.5006 43.1723 15.165 42.8405 14.7506 42.8405Z" fill="#54C6EB"/>
<ellipse cx="36" cy="11.8488" rx="12" ry="11.8488" fill="#E5E5E5"/>
<path d="M25.6975 42.8406H19.9649C19.5505 42.8406 19.2148 43.1723 19.2148 43.5812C19.2148 43.99 19.5505 44.3217 19.9649 44.3217H25.6975C26.1123 44.3217 26.4476 43.99 26.4476 43.5812C26.4476 43.1723 26.1119 42.8406 25.6975 42.8406Z" fill="#54C6EB"/>
<path d="M44.4919 30.0917C44.3093 30.0314 39.9903 28.624 34.0312 30.405C33.4908 30.5668 32.8991 30.7849 32.2215 31.0718C31.8404 31.2332 31.6646 31.6686 31.828 32.0445C31.9915 32.4204 32.4314 32.5933 32.8132 32.433C33.4386 32.1682 33.979 31.9687 34.4662 31.8228C38.8109 30.5246 42.2504 31.0738 43.4999 31.3607V42.8407H30.3949C29.9805 42.8407 29.6448 43.1724 29.6448 43.5812C29.6448 43.9901 29.9805 44.3218 30.3949 44.3218H44.2499C44.6643 44.3218 45 43.9904 45 43.5809V30.793C45 30.4756 44.796 30.1934 44.4919 30.0917Z" fill="#54C6EB"/>
<path d="M22.5 12.4781C22.0856 12.4781 21.7499 12.8099 21.7499 13.2187V16.181C21.7499 16.5897 22.0856 16.9215 22.5 16.9215C22.9144 16.9215 23.25 16.5901 23.25 16.181V13.2187C23.25 12.8099 22.9144 12.4781 22.5 12.4781Z" fill="#54C6EB"/>
<path d="M27.2148 19.9083C26.2882 19.9083 25.4369 20.3063 24.6138 20.6914C23.9043 21.0232 23.2342 21.3364 22.6342 21.3364C22.0338 21.3364 21.3637 21.0232 20.6546 20.6914C19.831 20.3063 18.9801 19.9083 18.0536 19.9083C14.5608 19.9083 12.025 23.6133 12.025 28.7176C12.025 31.5779 13.6866 48 18.0536 48C19.5112 48 19.9777 45.6984 20.6838 42.2145C21.012 40.5931 21.8842 36.2857 22.6311 36.2826C23.6938 36.2863 24.424 40.3793 24.8159 42.5781C25.3978 45.8432 25.7833 48 27.2144 48C31.5812 48 33.2429 31.5779 33.2433 28.7176C33.2434 23.6133 30.7076 19.9083 27.2148 19.9083ZM27.3115 46.5592C26.9136 46.0834 26.5131 43.8366 26.2443 42.3295C25.5889 38.6564 24.9112 34.8584 22.6312 34.8507C20.6948 34.8592 20.0305 38.1373 19.2615 41.9337C18.9248 43.5978 18.4207 46.0849 17.9667 46.561C15.9229 46.2341 13.4753 34.5345 13.4753 28.7175C13.4753 24.5115 15.4433 21.3401 18.0537 21.3401C18.6541 21.3401 19.3241 21.653 20.0333 21.9848C20.8568 22.3699 21.7076 22.7679 22.6343 22.7679C23.5601 22.7679 24.4115 22.3699 25.2345 21.9851C25.944 21.6534 26.6142 21.3398 27.2149 21.3398C29.8253 21.3398 31.7933 24.5116 31.7933 28.7171C31.7932 34.525 29.3534 46.1963 27.3115 46.5592Z" fill="#54C6EB"/>
<path d="M18.8838 22.1053C16.4025 22.1053 14.3839 24.0985 14.3839 26.5486C14.3839 26.9573 14.7195 27.2892 15.1339 27.2892C15.5486 27.2892 15.8839 26.9578 15.8839 26.5486C15.8839 24.9153 17.2294 23.5863 18.884 23.5863C19.2984 23.5863 19.634 23.2546 19.634 22.8458C19.634 22.4369 19.2983 22.1053 18.8838 22.1053Z" fill="#54C6EB"/>
<path d="M27 1.36993H18C17.5856 1.36993 17.2499 1.70166 17.2499 2.11052V8.78055C17.2499 11.6361 19.6053 13.9592 22.5 13.9592C25.3947 13.9592 27.75 11.6361 27.75 8.78055V2.11052C27.75 1.70166 27.4144 1.36993 27 1.36993ZM26.2499 8.78055C26.2499 10.8196 24.5677 12.4782 22.5 12.4782C20.4322 12.4782 18.75 10.8197 18.75 8.78055V2.85099H26.2501V8.78055H26.2499Z" fill="#54C6EB"/>
<path d="M22.5 6.55383H18.75C18.3356 6.55383 18 6.88556 18 7.29442C18 7.70327 18.3356 8.035 18.75 8.035H22.5C22.9144 8.035 23.25 7.70327 23.25 7.29442C23.25 6.88556 22.9144 6.55383 22.5 6.55383Z" fill="#54C6EB"/>
<path d="M22.5 15.4403C21.2591 15.4403 20.25 16.4367 20.25 17.662C20.25 18.8872 21.2591 19.8836 22.5 19.8836C23.7409 19.8836 24.75 18.8872 24.75 17.662C24.75 16.4367 23.7409 15.4403 22.5 15.4403ZM22.5 18.4024C22.086 18.4024 21.75 18.0703 21.75 17.6618C21.75 17.2534 22.0859 16.9213 22.5 16.9213C22.9141 16.9213 23.25 17.2534 23.25 17.6618C23.25 18.0704 22.914 18.4024 22.5 18.4024Z" fill="#54C6EB"/>
<path d="M47.25 3.59155H27C26.5856 3.59155 26.2499 3.92328 26.2499 4.33214V7.29437C26.2499 7.70312 26.5856 8.03495 27 8.03495H47.25C47.6644 8.03495 48 7.70355 48 7.29437V4.33214C48 3.92328 47.6644 3.59155 47.25 3.59155ZM46.4999 6.55378H27.75V5.07261H46.5V6.55378H46.4999Z" fill="#54C6EB"/>
</svg>
