<svg width="48" height="48" viewBox="0 0 48 48" fill="none" xmlns="http://www.w3.org/2000/svg">
<circle cx="36" cy="12" r="12" fill="#E5E5E5"/>
<g clip-path="url(#clip0)">
<path d="M9.90016 9.05755C9.61311 6.92135 9.47358 4.51122 9.47358 1.68976C9.47358 1.30871 9.16477 0.999908 8.78372 0.999908C8.40268 0.999908 8.09387 1.30871 8.09387 1.68976C8.09387 4.57328 8.23744 7.04344 8.53266 9.24142C8.57929 9.58776 8.87534 9.83947 9.21554 9.83947C9.2461 9.83938 9.27704 9.83736 9.30825 9.83323C9.68581 9.78246 9.95074 9.4352 9.90016 9.05755Z" fill="#54C6EB"/>
<path d="M30.9798 22.6542C31.2456 22.9198 31.6897 22.9198 31.9555 22.6542C33.5747 21.0348 35.4102 19.1993 36.7904 15.8637C38.2339 12.3756 38.9061 7.87181 38.9061 1.68976C38.9061 1.30871 38.5973 0.999909 38.2163 0.999909C37.8352 0.999909 37.5264 1.30871 37.5264 1.68976C37.5264 7.68473 36.8875 12.0208 35.5157 15.3361C34.3741 18.0948 32.8664 19.772 31.4666 21.1897L28.2797 18.0027C29.4885 16.7758 30.6127 15.4968 31.4703 13.3224C32.5272 10.6424 33.0196 6.94604 33.0196 1.68967C33.0196 1.30862 32.7108 0.999817 32.3297 0.999817C31.9487 0.999817 31.6399 1.30862 31.6399 1.68967C31.6399 12.6935 29.4051 14.9283 26.8174 17.5159C26.548 17.7853 26.5479 18.2221 26.8173 18.4915L27.6363 19.3105C25.9195 21.1062 24.5304 23.0015 23.5 24.9549C22.4697 23.0017 21.0796 21.1061 19.3631 19.3106L20.1822 18.4914C20.4517 18.2219 20.4517 17.7852 20.1822 17.5158C17.5947 14.9284 15.3599 12.6936 15.3599 1.68967C15.3599 1.30862 15.0511 0.999817 14.67 0.999817C14.289 0.999817 13.9802 1.30862 13.9802 1.68967C13.9802 6.94604 14.4725 10.6425 15.5295 13.3224C16.387 15.4968 17.5113 16.7756 18.72 18.0027L15.5331 21.1896C14.1332 19.7721 12.6256 18.0948 11.4842 15.3361C11.094 14.393 10.7587 13.35 10.4875 12.2363C10.3974 11.8662 10.0247 11.639 9.65399 11.7292C9.28387 11.8192 9.05686 12.1924 9.14691 12.5627C9.43469 13.7449 9.79215 14.8554 10.2094 15.8635C11.5895 19.1992 13.4249 21.0346 15.0442 22.6539C15.31 22.9197 15.754 22.9197 16.0198 22.6539L16.8262 21.8476C18.3664 23.4696 19.5891 25.1722 20.467 26.9175C20.2593 27.2318 20.0994 27.5802 19.997 27.9522C18.6058 28.3013 17.4654 28.82 16.6062 29.4962C15.352 30.483 14.716 31.7726 14.716 33.3296C14.716 37.9007 16.2387 40.2374 16.3036 40.3345C16.4315 40.5265 16.6468 40.6418 16.8775 40.6418H17.6133C17.9647 40.6418 18.2601 40.3775 18.2989 40.0281L18.9905 33.8054L22.3568 32.3625C22.7166 32.4821 23.1006 32.5479 23.4999 32.5479C23.8992 32.5479 24.2833 32.4822 24.6429 32.3626L28.0094 33.8054L28.7009 40.0281C28.7397 40.3775 29.035 40.6418 29.3865 40.6418H30.1224C30.353 40.6418 30.5684 40.5265 30.6963 40.3345C30.7611 40.2373 32.2838 37.9007 32.2838 33.3296C32.2838 31.7773 31.6515 30.4905 30.4044 29.5047C29.5439 28.8246 28.3998 28.3032 27.0028 27.9525C26.9005 27.5805 26.7406 27.2321 26.5329 26.9178C27.4122 25.1713 28.6353 23.4676 30.1733 21.8477L30.9798 22.6542ZM17.8021 20.872L18.3874 20.2867C19.9795 21.9556 21.2705 23.7096 22.2321 25.5104C21.9686 25.6089 21.7198 25.737 21.4893 25.8908C20.5651 24.1584 19.3281 22.4747 17.8021 20.872ZM18.0776 32.6956C17.8492 32.7934 17.6912 33.0066 17.6637 33.2534L17.0523 38.7567C16.6518 37.7925 16.0959 35.977 16.0959 33.3297C16.0959 31.4556 17.3759 30.1382 19.9012 29.407C20.0102 30.2085 20.3809 30.9279 20.9253 31.4752L18.0776 32.6956ZM23.5001 31.1682C22.2575 31.1682 21.2466 30.1575 21.2466 28.9148C21.2466 27.6722 22.2575 26.6614 23.5001 26.6614C24.7426 26.6614 25.7535 27.6723 25.7535 28.9148C25.7535 30.1574 24.7426 31.1682 23.5001 31.1682ZM27.0989 29.4069C29.6241 30.1385 30.9041 31.4559 30.9041 33.3296C30.9041 35.9779 30.3477 37.7939 29.9479 38.7571L29.3364 33.2534C29.309 33.0065 29.1509 32.7934 28.9225 32.6956L26.0749 31.4751C26.6192 30.9279 26.9899 30.2085 27.0989 29.4069ZM25.5114 25.8912C25.2807 25.7374 25.0317 25.609 24.768 25.5105C25.7296 23.7094 27.0197 21.9557 28.6122 20.2865L29.1977 20.8721C27.6739 22.4729 26.4367 24.1577 25.5114 25.8912Z" fill="#54C6EB"/>
<path d="M23.5001 29.6047C23.8811 29.6047 24.1899 29.2958 24.1899 28.9148C24.1899 28.5338 23.8811 28.225 23.5001 28.225C23.1191 28.225 22.8102 28.5338 22.8102 28.9148C22.8102 29.2958 23.1191 29.6047 23.5001 29.6047Z" fill="#54C6EB"/>
<path d="M27.3673 41.9194C27.7962 41.4326 28.4445 40.6968 28.4445 38.971C28.4445 37.3165 27.0505 36.0687 25.2019 36.0687C24.5981 36.0687 24.0062 36.2787 23.5049 36.6597C23.0021 36.2788 22.4069 36.0687 21.7982 36.0687C19.9496 36.0687 18.5556 37.3164 18.5556 38.971C18.5556 40.6968 19.2039 41.4325 19.6328 41.9194C19.902 42.2247 19.902 42.2247 19.8087 42.4297C19.0326 44.137 19.471 46.3691 20.0859 47.3238C20.4457 47.8827 20.8455 48 21.1176 48C21.909 48 22.1217 47.1696 22.3468 46.2905C22.6213 45.2183 22.916 44.256 23.5001 44.256C24.0842 44.256 24.379 45.2184 24.6535 46.2905C24.8786 47.1697 25.0913 48 25.8827 48C26.1548 48 26.5546 47.8828 26.9144 47.3238C27.5293 46.3691 27.9675 44.137 27.1916 42.4297C27.0981 42.2246 27.0981 42.2246 27.3673 41.9194ZM26.3321 41.0072C25.9694 41.4189 25.4727 41.9825 25.9354 43.0005C26.3864 43.9924 26.2442 45.243 26.0058 46.0097C26.0004 45.9887 25.9952 45.9682 25.99 45.9482C25.6959 44.7992 25.2034 42.8763 23.5002 42.8763C21.797 42.8763 21.3045 44.7992 21.0104 45.9482C21.0053 45.9682 21.0001 45.9887 20.9946 46.0097C20.7562 45.243 20.614 43.9924 21.065 43.0005C21.5276 41.9825 21.0309 41.4188 20.6683 41.0072C20.3249 40.6175 19.9355 40.1756 19.9355 38.971C19.9355 38.0887 20.7191 37.4484 21.7985 37.4484C22.2219 37.4484 22.6617 37.6735 22.9752 38.0506C23.2469 38.3773 23.7645 38.3773 24.036 38.0506C24.3543 37.668 24.7793 37.4484 25.2022 37.4484C26.2817 37.4484 27.0652 38.0888 27.0652 38.971C27.0648 40.1757 26.6755 40.6174 26.3321 41.0072Z" fill="#54C6EB"/>
</g>
<defs>
<clipPath id="clip0">
<rect width="47" height="47" fill="white" transform="translate(0 1)"/>
</clipPath>
</defs>
</svg>
