<svg width="49" height="48" viewBox="0 0 49 48" fill="none" xmlns="http://www.w3.org/2000/svg">
<ellipse cx="36.2498" cy="12" rx="11.7566" ry="12" fill="#E5E5E5"/>
<path d="M24.0301 40.1552C24.0396 40.1442 24.049 40.1333 24.058 40.1218L40.1428 20.0431C40.346 19.7918 40.347 19.4258 40.1583 19.1725L38.524 16.8883C38.2996 16.5745 37.8684 16.5058 37.561 16.7351C37.2536 16.9642 37.1864 17.4043 37.4109 17.718L38.2526 18.8945H30.24L34.2464 13.2949L35.2643 14.7176C35.4888 15.0313 35.9198 15.0999 36.2273 14.8707C36.5347 14.6416 36.6018 14.2015 36.3774 13.8878L34.8029 11.6873C34.6756 11.5088 34.4622 11.3974 34.2434 11.3988H12.7941C12.5836 11.3988 12.3593 11.5151 12.235 11.691L6.88208 19.1726C6.69353 19.4257 6.69454 19.792 6.89761 20.0432L15.0781 30.255C15.3881 30.5621 15.7114 30.5952 16.0479 30.3544C16.3426 30.1084 16.3862 29.6653 16.1453 29.3645L8.8849 20.3013H17.6307L22.0037 36.6775L18.5415 32.3557C18.3005 32.055 17.8665 32.0105 17.5717 32.2564C17.2771 32.5023 17.2335 32.9455 17.4744 33.2462L22.9827 40.1222C23.2454 40.455 23.7486 40.4715 24.0301 40.1552V40.1552ZM23.5202 37.0069L19.0593 20.3013H27.9811L23.5202 37.0069ZM19.5138 18.8945L23.5202 13.2949L27.5266 18.8945H19.5138ZM18.1572 18.4052L14.1508 12.8056H22.1636L18.1572 18.4052ZM38.1555 20.3013L25.0367 36.6775L29.4097 20.3013H38.1555ZM28.8832 18.4052L24.8769 12.8056H32.8895L28.8832 18.4052ZM8.78778 18.8945L12.7941 13.2949L16.8005 18.8945H8.78778Z" fill="#54C6EB"/>
<path d="M38.3024 9.68187C38.4788 9.68187 38.6553 9.61312 38.7899 9.47562L40.758 7.46501C41.3878 6.82161 40.4127 5.82723 39.783 6.47064L37.8149 8.48124C37.406 8.89899 37.724 9.68187 38.3024 9.68187Z" fill="#54C6EB"/>
<path d="M43.8472 19.1938C43.9063 19.1938 43.9664 19.186 44.0262 19.1696L46.5265 18.4852C47.3871 18.2495 47.0302 16.8911 46.1694 17.1263L43.6692 17.8107C42.8982 18.0218 43.0774 19.1938 43.8472 19.1938V19.1938Z" fill="#54C6EB"/>
<path d="M40.449 27.9642L39.2352 27.632C38.3745 27.3967 38.0175 28.7553 38.8781 28.9909L40.0919 29.3231C40.9225 29.5501 41.3003 28.1973 40.449 27.9642Z" fill="#54C6EB"/>
<path d="M46.4854 29.6165L42.9323 28.6439C42.0716 28.4087 41.7146 29.767 42.5752 30.0027L46.1283 30.9753C46.9589 31.2024 47.3367 29.8496 46.4854 29.6165Z" fill="#54C6EB"/>
<path d="M34.5027 34.3189C33.8729 33.6754 32.8979 34.6698 33.5277 35.3133L36.7248 38.5795C37.3546 39.2231 38.3296 38.2286 37.6998 37.5852L34.5027 34.3189Z" fill="#54C6EB"/>
<path d="M39.6877 39.6159C39.0579 38.9725 38.0828 39.9669 38.7126 40.6103L39.6708 41.5892C40.3006 42.2327 41.2756 41.2382 40.6458 40.5948L39.6877 39.6159Z" fill="#54C6EB"/>
<path d="M28.985 42.4272L28.7513 41.5359C28.5207 40.6573 27.1894 41.0211 27.4198 41.8997L27.6536 42.791C27.88 43.6543 29.2161 43.3087 28.985 42.4272Z" fill="#54C6EB"/>
<path d="M29.6846 45.0943C29.4542 44.2156 28.1228 44.5795 28.3531 45.4581L28.8841 47.4826C28.9751 47.8298 29.3905 48.0724 29.7281 47.9802C30.0957 47.8798 30.314 47.4941 30.2157 47.1188L29.6846 45.0943Z" fill="#54C6EB"/>
<path d="M27.7058 8.30064C28.0434 8.39302 28.4588 8.15019 28.5498 7.80307L28.8681 6.5896C29.0985 5.71106 27.767 5.34714 27.5367 6.22578L27.2184 7.43926C27.12 7.81451 27.3382 8.20028 27.7058 8.30064V8.30064Z" fill="#54C6EB"/>
<path d="M28.7004 4.50903C29.0379 4.60123 29.4532 4.35869 29.5444 4.01138L30.3687 0.868333C30.5991 -0.0103049 29.2676 -0.374028 29.0373 0.504516L28.2129 3.64756C28.1145 4.02291 28.3327 4.40858 28.7004 4.50903V4.50903Z" fill="#54C6EB"/>
<path d="M8.23689 9.47562C8.8667 10.1191 9.84174 9.12466 9.21193 8.48125L7.24385 6.47074C6.61404 5.82723 5.639 6.8217 6.26881 7.46511L8.23689 9.47562Z" fill="#54C6EB"/>
<path d="M0.500374 18.4851L3.00059 19.1695C3.83118 19.3966 4.20903 18.0438 3.35767 17.8107L0.857455 17.1263C-0.0031797 16.8909 -0.360262 18.2495 0.500374 18.4851V18.4851Z" fill="#54C6EB"/>
<path d="M7.7916 27.6319L6.57784 27.9641C5.7286 28.1967 6.11168 29.5481 6.93492 29.3229L8.14868 28.9907C9.00932 28.7551 8.65224 27.3968 7.7916 27.6319Z" fill="#54C6EB"/>
<path d="M4.09446 28.644L0.541471 29.6165C-0.307862 29.8491 0.0753164 31.2004 0.898553 30.9753L4.45164 30.0027C5.31218 29.7671 4.95537 28.409 4.09446 28.644V28.644Z" fill="#54C6EB"/>
<path d="M12.5241 34.3189L9.32698 37.5851C8.69717 38.2285 9.6722 39.223 10.302 38.5795L13.4991 35.3132C14.1289 34.6697 13.1538 33.6754 12.5241 34.3189Z" fill="#54C6EB"/>
<path d="M7.33906 39.6159L6.38093 40.5948C5.75112 41.2381 6.72616 42.2326 7.35597 41.5891L8.3141 40.6102C8.944 39.9668 7.96887 38.9725 7.33906 39.6159Z" fill="#54C6EB"/>
<path d="M19.1194 41.0383C18.7519 40.938 18.3739 41.1607 18.2754 41.536L18.0417 42.4273C17.8176 43.2818 19.1401 43.6794 19.3731 42.7911L19.6069 41.8998C19.7054 41.5245 19.4872 41.1388 19.1194 41.0383Z" fill="#54C6EB"/>
<path d="M18.1862 44.5966C17.8188 44.4963 17.4407 44.7189 17.3422 45.0943L16.8113 47.1188C16.5873 47.9733 17.9097 48.3709 18.1428 47.4826L18.6737 45.4581C18.7721 45.0828 18.5539 44.6972 18.1862 44.5966Z" fill="#54C6EB"/>
<path d="M18.6462 5.72821C18.2786 5.82866 18.0603 6.21433 18.1587 6.58959L18.477 7.80306C18.7034 8.66641 20.0396 8.32069 19.8084 7.43924L19.4901 6.22577C19.3916 5.85051 19.0136 5.62738 18.6462 5.72821V5.72821Z" fill="#54C6EB"/>
<path d="M17.4824 4.01136C17.7089 4.87461 19.0451 4.52899 18.8139 3.64754L17.9896 0.504496C17.7591 -0.374142 16.4277 -0.0103254 16.6581 0.868312L17.4824 4.01136Z" fill="#54C6EB"/>
</svg>
