<svg width="48" height="48" viewBox="0 0 48 48" fill="none" xmlns="http://www.w3.org/2000/svg">
<circle cx="35" cy="12" r="12" fill="#E5E5E5"/>
<g clip-path="url(#clip0)">
<path d="M22.4338 41.7879C22.9457 41.7997 23.4674 41.8065 24 41.8065V40.2581C23.4798 40.2581 22.9695 40.2513 22.4694 40.2396L22.4338 41.7879Z" fill="#54C6EB"/>
<path d="M5.11279 38.4526C7.5571 39.5054 12.8532 41.3313 20.8647 41.729L20.9418 40.1821C13.1738 39.7965 8.07423 38.0417 5.72595 37.0312L5.11279 38.4526Z" fill="#54C6EB"/>
<path d="M44.8855 26.9225C44.7947 25.7241 43.8017 24.7742 42.5806 24.7742H39.4839C38.887 24.7742 38.3475 25.007 37.9355 25.3779C37.5234 25.0063 36.984 24.7742 36.3871 24.7742H33.2903C32.6121 24.7742 32.0058 25.0713 31.5809 25.5366C31.0706 25.0675 30.3958 24.7742 29.6492 24.7742H26.0927C25.2649 24.7742 24.5232 25.1325 24 25.6954C23.4761 25.1325 22.7351 24.7742 21.9073 24.7742H18.3508C17.6042 24.7742 16.9294 25.0675 16.4183 25.5366C15.9942 25.0713 15.3879 24.7742 14.7097 24.7742H11.6129C11.016 24.7742 10.4766 25.007 10.0645 25.3779C9.65247 25.0063 9.11303 24.7742 8.51613 24.7742H5.41935C4.19834 24.7742 3.20527 25.7241 3.11454 26.9225L0.140247 36.5901C0.047253 36.891 0 37.2055 0 37.5211C0 38.983 1.01046 40.2565 2.41935 40.6002C3.42036 41.1483 10.7582 44.9032 24 44.9032C37.2418 44.9032 44.5796 41.1483 45.5806 40.5994C46.9895 40.2565 48 38.983 48 37.5211C48 37.2055 47.9527 36.8917 47.8598 36.5901L44.8855 26.9225ZM39.4839 26.3226H42.5806C43.0078 26.3226 43.3548 26.6696 43.3548 27.0968V30.1935C43.3548 31.4739 42.3126 32.5161 41.0323 32.5161C39.7519 32.5161 38.7097 31.4739 38.7097 30.1935V27.0968C38.7097 26.6696 39.0567 26.3226 39.4839 26.3226ZM32.5161 27.0968C32.5161 26.6696 32.8632 26.3226 33.2903 26.3226H36.3871C36.8143 26.3226 37.1613 26.6696 37.1613 27.0968V30.1935C37.1613 31.4739 36.1191 32.5161 34.8387 32.5161C33.5583 32.5161 32.5161 31.4739 32.5161 30.1935V27.0968ZM26.0927 26.3226H29.6492C30.3761 26.3226 30.9677 26.9142 30.9677 27.6411C30.9677 27.7371 30.9568 27.8339 30.936 27.9276L29.941 32.4031C29.7244 33.3818 28.8727 34.0645 27.871 34.0645C26.8692 34.0645 26.0175 33.3818 25.8009 32.4031L24.8059 27.9276C24.7852 27.8339 24.7742 27.7371 24.7742 27.6411C24.7742 26.9142 25.3658 26.3226 26.0927 26.3226ZM18.3508 26.3226H21.9073C22.6342 26.3226 23.2258 26.9142 23.2258 27.6411C23.2258 27.7371 23.2148 27.8339 23.1941 27.9276L22.1991 32.4031C21.9825 33.3818 21.1308 34.0645 20.129 34.0645C19.1273 34.0645 18.2756 33.3818 18.059 32.4031L17.064 27.9276C17.0432 27.8339 17.0323 27.7371 17.0323 27.6411C17.0323 26.9142 17.6239 26.3226 18.3508 26.3226ZM11.6129 26.3226H14.7097C15.1368 26.3226 15.4839 26.6696 15.4839 27.0968V30.1935C15.4839 31.4739 14.4417 32.5161 13.1613 32.5161C11.8809 32.5161 10.8387 31.4739 10.8387 30.1935V27.0968C10.8387 26.6696 11.1857 26.3226 11.6129 26.3226ZM4.64516 27.0968C4.64516 26.6696 4.99219 26.3226 5.41935 26.3226H8.51613C8.9433 26.3226 9.29032 26.6696 9.29032 27.0968V30.1935C9.29032 31.4739 8.24811 32.5161 6.96774 32.5161C5.68737 32.5161 4.64516 31.4739 4.64516 30.1935V27.0968ZM45.1493 39.11L45.0249 39.1346L44.9134 39.1988C44.842 39.2408 37.5707 43.3548 24 43.3548C10.4709 43.3548 3.15726 39.24 3.08506 39.1981L2.97354 39.1346L2.84992 39.11C2.09577 38.958 1.54839 38.2908 1.54839 37.5211C1.54839 37.3594 1.5722 37.1991 1.62021 37.0452L3.33304 31.4788C3.86568 32.9799 5.28629 34.0645 6.96774 34.0645C8.23828 34.0645 9.35837 33.4404 10.0645 32.4923C10.7707 33.4404 11.8908 34.0645 13.1613 34.0645C14.5441 34.0645 15.7504 33.3296 16.4354 32.2367L16.5469 32.7391C16.9223 34.4316 18.3958 35.6129 20.129 35.6129C21.8623 35.6129 23.3358 34.4316 23.7112 32.7391L24 31.4399L24.2888 32.7391C24.6642 34.4316 26.1377 35.6129 27.871 35.6129C29.6042 35.6129 31.0777 34.4316 31.4531 32.7391L31.5646 32.2367C32.2496 33.3296 33.4559 34.0645 34.8387 34.0645C36.1092 34.0645 37.2293 33.4404 37.9355 32.4923C38.6416 33.4404 39.7617 34.0645 41.0323 34.0645C42.7137 34.0645 44.1343 32.9799 44.667 31.4788L46.3798 37.0452C46.4278 37.1991 46.4516 37.3594 46.4516 37.5211C46.4516 38.2908 45.9042 38.958 45.1493 39.11Z" fill="#54C6EB"/>
<path d="M25.5669 6.21282C25.0551 6.19959 24.5326 6.19354 24 6.19354V7.74193C24.5194 7.74193 25.0297 7.74798 25.5299 7.76045L25.5669 6.21282Z" fill="#54C6EB"/>
<path d="M42.8872 9.54739C40.4429 8.4946 35.1468 6.66874 27.1353 6.27106L27.0582 7.81718C34.8278 8.20427 39.9265 9.95831 42.2741 10.9695L42.8872 9.54739Z" fill="#54C6EB"/>
<path d="M3.11454 21.0775C3.20527 22.2758 4.19834 23.2258 5.41935 23.2258H8.51613C9.11303 23.2258 9.65247 22.9929 10.0645 22.6221C10.4766 22.9937 11.016 23.2258 11.6129 23.2258H14.7097C15.3879 23.2258 15.9942 22.9287 16.4191 22.4633C16.9294 22.9325 17.6042 23.2258 18.3508 23.2258H21.9073C22.7351 23.2258 23.4768 22.8674 24 22.3046C24.5239 22.8674 25.2649 23.2258 26.0927 23.2258H29.6492C30.3958 23.2258 31.0706 22.9325 31.5817 22.4633C32.0058 22.9287 32.6121 23.2258 33.2903 23.2258H36.3871C36.984 23.2258 37.5234 22.9929 37.9355 22.6221C38.3475 22.9937 38.887 23.2258 39.4839 23.2258H42.5806C43.8017 23.2258 44.7947 22.2758 44.8855 21.0775L47.8598 11.4107C47.9527 11.1097 48 10.7952 48 10.4788C48 9.01701 46.9895 7.74269 45.5806 7.39982C44.5796 6.85169 37.2418 3.09677 24 3.09677C10.7582 3.09677 3.42036 6.85169 2.41935 7.40058C1.01046 7.74269 0 9.01701 0 10.4788C0 10.7952 0.047253 11.109 0.140247 11.4099L3.11454 21.0775ZM8.51613 21.6774H5.41935C4.99219 21.6774 4.64516 21.3296 4.64516 20.9032V17.8064C4.64516 16.5261 5.68737 15.4839 6.96774 15.4839C8.24811 15.4839 9.29032 16.5261 9.29032 17.8064V20.9032C9.29032 21.3296 8.9433 21.6774 8.51613 21.6774ZM15.4839 20.9032C15.4839 21.3296 15.1368 21.6774 14.7097 21.6774H11.6129C11.1857 21.6774 10.8387 21.3296 10.8387 20.9032V17.8064C10.8387 16.5261 11.8809 15.4839 13.1613 15.4839C14.4417 15.4839 15.4839 16.5261 15.4839 17.8064V20.9032ZM21.9073 21.6774H18.3508C17.6239 21.6774 17.0323 21.0858 17.0323 20.3589C17.0323 20.2621 17.0432 20.1661 17.064 20.0723L18.059 15.5961C18.2756 14.6182 19.1273 13.9355 20.129 13.9355C21.1308 13.9355 21.9825 14.6182 22.1991 15.5969L23.1948 20.0742C23.2148 20.1668 23.2258 20.2628 23.2258 20.3596C23.2258 21.0858 22.6342 21.6774 21.9073 21.6774ZM29.6492 21.6774H26.0927C25.3658 21.6774 24.7742 21.0858 24.7742 20.3589C24.7742 20.2621 24.7852 20.1661 24.8059 20.0723L25.8009 15.5961C26.0175 14.6182 26.8692 13.9355 27.871 13.9355C28.8727 13.9355 29.7244 14.6182 29.941 15.5969L30.9367 20.0742C30.9568 20.1668 30.9677 20.2628 30.9677 20.3596C30.9677 21.0858 30.3761 21.6774 29.6492 21.6774ZM36.3871 21.6774H33.2903C32.8632 21.6774 32.5161 21.3296 32.5161 20.9032V17.8064C32.5161 16.5261 33.5583 15.4839 34.8387 15.4839C36.1191 15.4839 37.1613 16.5261 37.1613 17.8064V20.9032C37.1613 21.3296 36.8143 21.6774 36.3871 21.6774ZM43.3548 20.9032C43.3548 21.3296 43.0078 21.6774 42.5806 21.6774H39.4839C39.0567 21.6774 38.7097 21.3296 38.7097 20.9032V17.8064C38.7097 16.5261 39.7519 15.4839 41.0323 15.4839C42.3126 15.4839 43.3548 16.5261 43.3548 17.8064V20.9032ZM2.85068 8.88999L2.97505 8.86542L3.08657 8.80116C3.15801 8.75995 10.4293 4.64516 24 4.64516C37.5291 4.64516 44.8427 8.75995 44.9149 8.80191L45.0265 8.86618L45.1501 8.89075C45.9042 9.0412 46.4516 9.70917 46.4516 10.4788C46.4516 10.6406 46.4278 10.8009 46.3798 10.9548L44.667 16.5212C44.1343 15.02 42.7137 13.9355 41.0323 13.9355C39.7617 13.9355 38.6416 14.5596 37.9355 15.5077C37.2293 14.5596 36.1092 13.9355 34.8387 13.9355C33.4559 13.9355 32.2496 14.6704 31.5646 15.7632L31.4531 15.2608C31.0777 13.5684 29.6042 12.3871 27.871 12.3871C26.1377 12.3871 24.6642 13.5684 24.2888 15.2608L24 16.5609L23.7112 15.2608C23.3358 13.5684 21.8623 12.3871 20.129 12.3871C18.3958 12.3871 16.9223 13.5684 16.5469 15.2608L16.4354 15.7632C15.7504 14.6704 14.5441 13.9355 13.1613 13.9355C11.8908 13.9355 10.7707 14.5596 10.0645 15.5077C9.35837 14.5596 8.23828 13.9355 6.96774 13.9355C5.28629 13.9355 3.86643 15.02 3.33304 16.5212L1.62021 10.954C1.5722 10.8009 1.54839 10.6406 1.54839 10.4788C1.54839 9.70917 2.09577 9.0412 2.85068 8.88999Z" fill="#54C6EB"/>
</g>
<defs>
<clipPath id="clip0">
<rect width="48" height="48" fill="white"/>
</clipPath>
</defs>
</svg>
