<svg width="49" height="48" viewBox="0 0 49 48" fill="none" xmlns="http://www.w3.org/2000/svg">
<ellipse cx="36.4055" cy="12" rx="11.8061" ry="12" fill="#E5E5E5"/>
<path d="M28.4438 10.7631C28.0089 10.7631 27.6559 11.1219 27.6559 11.5639C27.6559 12.0059 28.0089 12.3647 28.4438 12.3647C28.8787 12.3647 29.2316 12.0059 29.2316 11.5639C29.2316 11.1219 28.8788 10.7631 28.4438 10.7631Z" fill="#54C6EB"/>
<path d="M29.1651 7.64053C24.2242 6.03016 20.0951 7.83223 18.202 8.94268C16.309 7.83199 12.1805 6.02984 7.23848 7.64053C0.693749 9.77437 -2.37465 19.488 2.87291 27.3257C5.35909 31.0375 5.69109 33.9005 6.04255 36.9317C6.29985 39.1506 6.56591 41.4451 7.67723 44.1275C8.42458 45.9309 9.48099 47.9938 11.044 47.9936C11.0581 47.9936 11.0725 47.9934 11.0867 47.9931C12.3435 47.9629 13.3564 46.6959 14.3705 43.8848C14.8871 42.4518 15.218 40.7609 15.5381 39.1258C16.1143 36.1826 16.7101 33.1392 18.2076 33.1286C18.2102 33.1286 18.2128 33.1286 18.2155 33.1286C19.6966 33.1286 20.2911 36.173 20.8661 39.117C21.1863 40.7574 21.5175 42.4536 22.034 43.885C23.0494 46.7004 24.0622 47.9694 25.3178 47.9995C25.3321 47.9999 25.3462 48 25.3604 48C26.9203 48 27.9781 45.9338 28.7266 44.1274C29.7886 41.5641 30.0667 39.2753 30.3358 37.0618C30.7146 33.9454 31.0723 31.0019 33.5367 27.3172C38.8457 19.3783 35.6 9.73721 29.1651 7.64053ZM32.2335 26.4168C29.5551 30.4215 29.157 33.6974 28.7719 36.8655C28.5042 39.0674 28.2514 41.1472 27.2743 43.5057C26.1149 46.3036 25.4425 46.3984 25.3575 46.3984C25.3566 46.3984 25.3558 46.3984 25.355 46.3984C25.3247 46.3977 24.5998 46.3459 23.5134 43.3335C23.0391 42.0192 22.7202 40.3853 22.4116 38.8052C22.0653 37.0315 21.7382 35.356 21.199 34.0483C20.5091 32.375 19.5063 31.5268 18.2181 31.5268C18.211 31.5268 18.2036 31.5268 18.1965 31.5269C16.9029 31.5361 15.8964 32.3909 15.205 34.0676C14.6661 35.3746 14.339 37.0449 13.9929 38.8132C13.6845 40.3885 13.3657 42.0175 12.8912 43.3336C11.8068 46.3396 11.0802 46.3913 11.0498 46.392C10.9792 46.3933 10.299 46.3277 9.12969 43.506C8.10495 41.0324 7.8634 38.9496 7.60775 36.7443C7.24951 33.655 6.87907 30.4605 4.17584 26.4247C-0.554739 19.3593 2.29677 10.934 7.71993 9.16577C12.4359 7.62867 16.3281 9.62542 17.7825 10.5554C18.0388 10.7193 18.365 10.7194 18.6213 10.5554C20.0762 9.62574 23.9693 7.62916 28.6841 9.16585C34.2146 10.9677 36.8684 19.4861 32.2335 26.4168Z" fill="#54C6EB"/>
<path d="M32.4701 15.2902C32.2142 14.5352 31.8751 13.8404 31.4622 13.2252C31.2169 12.8597 30.7268 12.7656 30.3674 13.0149C30.0079 13.2641 29.9153 13.7622 30.1606 14.1276C30.4944 14.625 30.7702 15.1917 30.9804 15.8118C31.7655 18.128 31.5606 20.8306 30.4184 23.2266C30.2286 23.6246 30.3922 24.1035 30.7838 24.2964C31.1754 24.4893 31.6466 24.323 31.8363 23.925C33.1589 21.1509 33.39 18.0036 32.4701 15.2902Z" fill="#54C6EB"/>
<path d="M15.3389 17.9544L12.1673 16.8799L11.1101 13.6562C11.0029 13.3292 10.7018 13.1086 10.3627 13.1086C10.0236 13.1086 9.72255 13.3291 9.61524 13.6562L8.55804 16.8799L5.38644 17.9544C5.06477 18.0634 4.84772 18.3695 4.84772 18.7141C4.84772 19.0588 5.06469 19.3648 5.38644 19.4738L8.55804 20.5484L9.61524 23.7721C9.72247 24.099 10.0236 24.3197 10.3627 24.3197C10.7018 24.3197 11.0028 24.0991 11.1101 23.7721L12.1673 20.5484L15.3389 19.4738C15.6606 19.3648 15.8776 19.0588 15.8776 18.7141C15.8776 18.3695 15.6606 18.0635 15.3389 17.9544ZM11.2953 19.1556C11.0601 19.2353 10.8754 19.4229 10.797 19.6621L10.3627 20.9866L9.92833 19.6621C9.84994 19.423 9.66535 19.2353 9.43002 19.1556L8.12694 18.7141L9.43002 18.2727C9.66527 18.193 9.84994 18.0054 9.92833 17.7662L10.3627 16.4417L10.797 17.7662C10.8754 18.0053 11.06 18.193 11.2953 18.2727L12.5984 18.7141L11.2953 19.1556Z" fill="#54C6EB"/>
</svg>
