<svg width="48" height="48" viewBox="0 0 48 48" fill="none" xmlns="http://www.w3.org/2000/svg">
<ellipse cx="11.7779" cy="12" rx="11.7779" ry="12" fill="#E5E5E5"/>
<path d="M18.296 14.4513C18.6462 14.3453 18.8457 13.9703 18.7417 13.6134C18.6377 13.2566 18.2696 13.0534 17.9193 13.1593C16.7225 13.5215 15.658 14.1807 14.8409 15.0654C12.5661 17.5285 12.971 20.8432 13.0753 21.4826C13.1291 21.8124 13.4094 22.0461 13.727 22.0461C14.1298 22.0461 14.4467 21.6692 14.3803 21.2617C14.294 20.7321 13.9568 17.9895 15.8044 15.989C16.6345 15.0902 17.6175 14.6567 18.296 14.4513V14.4513ZM32.9888 11.0171C32.1387 11.8831 32.1286 13.335 32.9887 14.2029L34.7055 15.9522C35.22 16.4761 35.9049 16.7648 36.634 16.7648C37.3632 16.7648 38.0481 16.4761 38.5628 15.9519L43.4017 11.0216C44.2859 10.1282 44.2385 8.60759 43.3249 7.76097C42.4509 6.95092 41.0976 6.99747 40.2438 7.86727L36.634 11.5451L36.1158 11.0173C35.2676 10.1442 33.8396 10.1503 32.9888 11.0171V11.0171ZM36.634 13.0413C36.8935 13.0413 37.1375 12.9384 37.3208 12.7515L41.1792 8.82036C41.5266 8.46633 42.0898 8.43839 42.4345 8.75791C42.8037 9.09999 42.8223 9.70993 42.4663 10.0685L37.6273 14.9988C37.3626 15.2685 37.0099 15.4169 36.6339 15.4169C36.2581 15.4169 35.9053 15.2685 35.6408 14.9991L33.9242 13.25C33.5808 12.9036 33.5824 12.3183 33.9242 11.9702C34.2662 11.622 34.84 11.6201 35.1803 11.9702L35.9471 12.7515C36.1306 12.9384 36.3744 13.0413 36.6338 13.0413H36.634ZM38.8201 2.00105C38.4548 1.98002 38.1413 2.25966 38.1183 2.63112C38.0952 3.00258 38.372 3.32274 38.7366 3.34628C43.189 3.63319 46.6767 7.4214 46.6767 11.9703C46.6767 16.8261 42.7786 20.6118 38.1953 20.6118C33.5186 20.6118 29.7138 16.7353 29.7138 11.9703C29.7138 8.13423 32.2427 4.71711 35.8637 3.66077C36.2149 3.55834 36.4181 3.18526 36.3175 2.82745C36.217 2.46974 35.8507 2.26226 35.4996 2.36506C31.7663 3.4541 29.0392 6.71487 28.4931 10.5534C27.9315 10.9474 27.3375 11.392 26.7779 11.6777C25.8641 12.1441 25.0893 12.1863 24.1874 11.819C23.5154 11.5449 22.9593 11.1389 22.3704 10.709C21.4027 10.0028 20.4022 9.27243 18.8903 9.15948C17.0808 9.02532 15.0407 9.63562 13.2933 10.8343C10.9582 12.4361 9.44249 15.3535 9.13496 18.8384C8.9942 20.4284 9.10286 21.9378 9.45801 23.3245C9.70989 24.3094 10.1475 25.222 10.5706 26.1046C10.9579 26.9121 11.3236 27.675 11.556 28.4836C12.0183 30.0921 11.9598 31.6898 11.8977 33.381C11.8748 34.0044 11.8512 34.6491 11.8548 35.2995C11.8747 39.0146 11.8994 43.638 14.8072 46.3092C15.9667 47.3745 17.8144 48.4898 19.324 47.7666C20.4386 47.2327 20.6129 46.04 20.8542 44.3895C20.9792 43.5339 21.1349 42.4688 21.4476 41.2122C21.5195 40.9232 21.5917 40.6077 21.6682 40.2738C21.7732 39.8152 21.9323 39.1612 21.2822 39.0053C20.6453 38.8524 20.4896 39.4886 20.3799 39.9676C20.3048 40.2952 20.234 40.6046 20.1652 40.8811C19.8362 42.2034 19.675 43.3055 19.5457 44.1911C19.3299 45.6675 19.2153 46.3294 18.7613 46.5469C18.0262 46.8985 16.6319 46.1716 15.6931 45.3085C13.219 43.0357 13.1961 38.7422 13.1777 35.2921C13.1742 34.6707 13.1974 34.0407 13.2197 33.4315C13.2829 31.707 13.3484 29.9238 12.8256 28.105C12.5615 27.1864 12.1537 26.3358 11.7593 25.5132C11.3466 24.6523 10.9567 23.8392 10.738 22.9845C10.4216 21.7486 10.3255 20.3945 10.4526 18.9595C10.7243 15.8804 12.029 13.3265 14.0322 11.9525C15.5387 10.9192 17.2741 10.3912 18.794 10.5039C19.9344 10.5891 20.7063 11.1526 21.6001 11.8049C22.227 12.2625 22.8752 12.7355 23.6962 13.0705C24.951 13.5816 26.1186 13.5219 27.3707 12.8828C27.7262 12.7012 28.0659 12.4857 28.3955 12.2604C28.5467 17.6348 32.8846 21.9596 38.1954 21.9596C38.9216 21.9596 39.6293 21.878 40.3109 21.7247C40.1171 23.0399 39.7185 24.2762 39.1395 25.3439C37.5857 28.211 37.6179 30.8806 37.6521 33.707C37.6582 34.2212 37.6648 34.7528 37.6619 35.2955C37.6425 38.7443 37.6186 43.0364 35.1454 45.3086C34.2068 46.1716 32.8124 46.8986 32.0777 46.5469C31.6234 46.3293 31.5088 45.6674 31.293 44.1909C31.1636 43.3054 31.0025 42.2033 30.6736 40.8812C30.1176 38.6466 29.2125 34.3317 26.8434 33.0643C26.0524 32.6411 25.1923 32.6045 24.2872 32.955C23.0537 33.4324 22.1041 34.5641 21.384 36.4144C21.2494 36.7604 21.4154 37.1521 21.7551 37.2892C22.0947 37.4267 22.4791 37.2572 22.6138 36.9112C23.1893 35.4324 23.8904 34.5505 24.7572 34.2149C25.3003 34.0045 25.7816 34.0184 26.2286 34.2576C28.0199 35.2161 28.9167 39.3045 29.3913 41.2121C29.704 42.4687 29.8596 43.5337 29.9847 44.3893C30.226 46.0399 30.4003 47.2326 31.5151 47.7666C33.0442 48.4991 34.8815 47.3659 36.0315 46.3093C38.9382 43.639 38.964 39.0169 38.9848 35.2994C38.9878 34.7481 38.9812 34.2104 38.975 33.6904C38.9416 30.9325 38.9128 28.5506 40.2976 25.9954C41.0438 24.6196 41.5234 23.0046 41.6962 21.3007C45.3786 19.8616 48 16.2222 48 11.9702C47.9996 6.71182 43.9675 2.33289 38.8201 2.00105V2.00105ZM14.114 23.257C13.7498 23.2858 13.4775 23.6101 13.5058 23.9811C13.5355 24.3708 13.5965 24.7605 13.687 25.1394C13.7606 25.4476 14.0312 25.6542 14.3292 25.6542C14.7487 25.6542 15.0724 25.2397 14.9723 24.8208C14.8986 24.5119 14.849 24.1944 14.8247 23.8768C14.7963 23.5055 14.4774 23.2273 14.114 23.257V23.257Z" fill="#54C6EB"/>
</svg>
