<svg width="7" height="10" viewBox="0 0 7 10" fill="none" xmlns="http://www.w3.org/2000/svg">
<path d="M0.305664 1.24384C0.305664 1.49738 0.411501 1.75091 0.623174 1.94445L3.69455 4.75366L0.624232 7.56141C0.543796 7.63495 0.479236 7.71672 0.429493 7.80381C0.215703 8.17734 0.281322 8.64909 0.624232 8.96262C1.04652 9.3497 1.7334 9.3497 2.15675 8.96262L5.98803 5.4591C6.205 5.26169 6.30977 5.00042 6.30554 4.74108C6.30342 4.48948 6.19759 4.23836 5.98803 4.04676L2.15569 0.543237C1.73234 0.156161 1.04652 0.156161 0.623174 0.543237C0.411501 0.736775 0.305664 0.990309 0.305664 1.24384Z" fill="#393939"/>
</svg>
