<svg width="84" height="48" viewBox="0 0 84 48" fill="none" xmlns="http://www.w3.org/2000/svg">
<circle cx="2.5" cy="2.5" r="2.5" fill="#FDDB4E"/>
<circle cx="14.125" cy="2.5" r="2.5" fill="#FDDB4E"/>
<circle cx="24.75" cy="2.5" r="2.5" fill="#FDDB4E"/>
<circle cx="35.917" cy="2.5" r="2.5" fill="#FDDB4E"/>
<circle cx="48.084" cy="2.5" r="2.5" fill="#FDDB4E"/>
<circle cx="58.709" cy="2.5" r="2.5" fill="#FDDB4E"/>
<circle cx="70.417" cy="2.5" r="2.5" fill="#FDDB4E"/>
<circle cx="81.5" cy="2.5" r="2.5" fill="#FDDB4E"/>
<circle cx="2.5" cy="16.833" r="2.5" fill="#FDDB4E"/>
<circle cx="14.125" cy="16.833" r="2.5" fill="#FDDB4E"/>
<circle cx="24.75" cy="16.833" r="2.5" fill="#FDDB4E"/>
<circle cx="35.917" cy="16.833" r="2.5" fill="#FDDB4E"/>
<circle cx="48.084" cy="16.833" r="2.5" fill="#FDDB4E"/>
<circle cx="58.709" cy="16.833" r="2.5" fill="#FDDB4E"/>
<circle cx="70.417" cy="16.833" r="2.5" fill="#FDDB4E"/>
<circle cx="81.5" cy="16.833" r="2.5" fill="#FDDB4E"/>
<circle cx="2.5" cy="31.166" r="2.5" fill="#FDDB4E"/>
<circle cx="14.125" cy="31.166" r="2.5" fill="#FDDB4E"/>
<circle cx="24.75" cy="31.166" r="2.5" fill="#FDDB4E"/>
<circle cx="35.917" cy="31.166" r="2.5" fill="#FDDB4E"/>
<circle cx="48.084" cy="31.166" r="2.5" fill="#FDDB4E"/>
<circle cx="58.709" cy="31.166" r="2.5" fill="#FDDB4E"/>
<circle cx="70.417" cy="31.166" r="2.5" fill="#FDDB4E"/>
<circle cx="81.5" cy="31.166" r="2.5" fill="#FDDB4E"/>
<circle cx="2.5" cy="45.5" r="2.5" fill="#FDDB4E"/>
<circle cx="14.125" cy="45.5" r="2.5" fill="#FDDB4E"/>
<circle cx="24.75" cy="45.5" r="2.5" fill="#FDDB4E"/>
<circle cx="35.917" cy="45.5" r="2.5" fill="#FDDB4E"/>
<circle cx="48.084" cy="45.5" r="2.5" fill="#FDDB4E"/>
<circle cx="58.709" cy="45.5" r="2.5" fill="#FDDB4E"/>
<circle cx="70.417" cy="45.5" r="2.5" fill="#FDDB4E"/>
<circle cx="81.5" cy="45.5" r="2.5" fill="#FDDB4E"/>
</svg>
