<?xml version="1.0" encoding="utf-8"?>
<!-- Generator: Adobe Illustrator 24.0.0, SVG Export Plug-In . SVG Version: 6.00 Build 0)  -->
<svg version="1.1" id="Слой_1" xmlns="http://www.w3.org/2000/svg" xmlns:xlink="http://www.w3.org/1999/xlink" x="0px" y="0px"
	 viewBox="0 0 50 50" style="enable-background:new 0 0 50 50;" xml:space="preserve">
<style type="text/css">
	.st0{fill:#B6B6B6;}
</style>
<g>
	<path class="st0" d="M27.55,3.28c1.83-0.29,3.51-0.7,5.22-0.81c4.42-0.29,8.45,0.68,11.55,4.12c1.71,1.9,2.64,4.18,3.04,6.68
		c0.46,2.85,0.13,5.64-0.64,8.39c-0.12,0.43-0.07,0.78,0.12,1.18c1.32,2.69,2.3,5.5,2.8,8.46c0.55,3.27,0.53,6.52-0.63,9.66
		c-1.74,4.72-5.18,7.52-10.04,8.6c-3.73,0.83-7.41,0.4-11.01-0.74c-1.74-0.55-3.41-1.29-5.1-1.99c-0.43-0.18-0.79-0.21-1.24-0.09
		c-3.13,0.86-6.29,1.06-9.49,0.37c-4.82-1.05-8.42-4.78-9.37-9.62c-0.6-3.06-0.33-6.06,0.47-9.04c0.14-0.52,0.11-0.94-0.13-1.42
		c-1.29-2.61-2.24-5.34-2.73-8.21c-0.64-3.76-0.58-7.48,1.09-11C3.51,3.52,7,1.1,11.64,0.29c4.34-0.76,8.49,0.05,12.54,1.57
		C25.37,2.31,26.54,2.85,27.55,3.28z M40.51,30.88c0.17-0.24,0.31-0.43,0.44-0.63c1.48-2.22,2.68-4.58,3.61-7.08
		c0.2-0.54,0.18-0.97-0.11-1.47c-2.68-4.65-6.09-8.69-10.25-12.08c-1.93-1.57-3.96-3-6.14-4.2c-0.3-0.17-0.58-0.25-0.92-0.1
		c-1.63,0.73-3.32,1.32-4.88,2.18c-4.6,2.53-8.46,5.95-11.69,10.09c-0.1,0.13-0.18,0.28-0.27,0.42c1.11,1.41,1.42,2.9,0.47,4.46
		c-0.94,1.56-2.44,1.9-4.22,1.62c-0.4,1-0.77,1.97-1.17,2.92c-0.17,0.4-0.13,0.73,0.09,1.1c1.1,1.94,2.34,3.77,3.72,5.52
		c3.18,4.05,6.98,7.41,11.36,10.11c1.96,1.21,1.96,1.18,4.1,0.28c3.64-1.52,6.85-3.7,9.8-6.28c0.54-0.47,1.05-0.97,1.58-1.46
		c-0.78-1.57-0.8-3.05,0.35-4.38C37.46,30.61,38.88,30.37,40.51,30.88z M8.87,17.06c4.4-5.73,9.78-10.12,16.52-12.88
		c-0.18-0.11-0.26-0.17-0.36-0.21c-4.1-1.76-8.34-2.77-12.83-2.1C8.33,2.45,5.32,4.36,3.35,7.78c-1.33,2.31-1.75,4.87-1.69,7.49
		c0.08,3.35,0.92,6.54,2.26,9.6c0.06,0.15,0.15,0.28,0.27,0.48c0.34-0.77,0.65-1.46,0.96-2.15c-1.16-1.37-1.48-2.87-0.6-4.44
		C5.49,17.11,7.02,16.68,8.87,17.06z M45.99,24.69c-0.08,0-0.17,0.01-0.25,0.01c-0.97,2.58-2.37,4.92-3.86,7.2
		c1.02,1.48,1.19,3,0.18,4.43c-1.23,1.74-2.96,1.86-4.88,1.07c-3.57,3.65-7.74,6.43-12.46,8.34c0.03,0.1,0.03,0.12,0.04,0.13
		c0.05,0.04,0.1,0.09,0.16,0.11c4.12,1.8,8.38,2.78,12.89,2.13c3.49-0.5,6.31-2.16,8.33-5.08c1.71-2.46,2.2-5.27,2.19-8.19
		c-0.01-1.97-0.28-3.91-0.86-5.79C47.01,27.59,46.48,26.14,45.99,24.69z M4.62,29.93c-0.08,0.24-0.11,0.31-0.12,0.39
		c-0.44,2.15-0.55,4.31-0.14,6.48c0.73,3.96,2.82,6.84,6.64,8.29c2.41,0.92,4.93,0.99,7.46,0.62c0.5-0.07,0.99-0.18,1.49-0.27
		c0.01-0.05,0.01-0.09,0.02-0.14C13.61,41.5,8.57,36.36,4.62,29.93z M45.36,20.05c0.08-0.24,0.13-0.35,0.15-0.47
		c0.45-2.2,0.55-4.41,0.12-6.61c-0.49-2.54-1.61-4.73-3.66-6.38c-2.79-2.24-6.06-2.7-9.49-2.44c-0.81,0.06-1.61,0.23-2.42,0.34
		c-0.02,0.05-0.03,0.11-0.05,0.16C36.39,8.49,41.46,13.62,45.36,20.05z M37.14,34.25c0,1.12,0.87,2,1.97,1.99
		c1.05-0.01,1.95-0.91,1.96-1.97c0.01-1.1-0.87-1.97-2-1.96C37.96,32.31,37.14,33.13,37.14,34.25z M7.71,22.52
		c1.06-0.01,1.95-0.88,1.97-1.95c0.02-1.08-0.89-1.97-2-1.97c-1.08,0-1.97,0.88-1.97,1.93C5.71,21.63,6.61,22.52,7.71,22.52z"/>
	<path class="st0" d="M29.88,30.97c-0.01,0.1-0.03,0.2-0.03,0.31c-0.01,0.17,0,0.35,0,0.54c0.93,0.81,1.03,1.76,0.49,2.72
		c0.12,0.5,0.28,0.92,0.3,1.34c0.04,1.09-0.81,1.94-1.92,1.97c-1.13,0.02-2.26,0.01-3.4,0.01c-1.24,0-2.49-0.07-3.72,0.02
		c-1.61,0.11-2.85-1.53-1.95-3.07c0.02-0.04,0.03-0.08-0.01,0.02c-0.11-0.62-0.26-1.1-0.25-1.58c0.01-0.34,0.16-0.75,0.4-0.99
		c0.37-0.38,0.44-0.77,0.32-1.31c-2.88-1.84-4.59-4.46-4.77-7.96c-0.14-2.78,0.81-5.17,2.74-7.17c3.81-3.94,10.17-3.81,13.98,0.15
		C35.91,19.95,35.7,27.45,29.88,30.97z M28.2,29.95c2.4-1.16,4.04-2.98,4.6-5.6c0.56-2.62,0.02-5.01-1.76-7.07
		c-3.14-3.64-8.83-3.67-12-0.09c-1.62,1.83-2.27,3.95-1.98,6.34c0.36,2.98,2.03,5.07,4.68,6.39c0.03,0.5,0.05,0.95,0.08,1.43
		c0.78,0,1.5,0,2.26,0c0-1.92,0-3.78,0-5.61c-1.93-1.07-2.61-2.33-2.19-4.01c0.35-1.39,1.66-2.38,3.14-2.38
		c1.45,0,2.73,0.98,3.1,2.34c0.45,1.68-0.25,2.95-2.24,4.06c0,1.85,0,3.71,0,5.58c0.78,0,1.5,0,2.26,0
		C28.16,30.87,28.17,30.46,28.2,29.95z M24.99,24.11c0.92,0,1.58-0.64,1.58-1.54c0-0.87-0.71-1.6-1.56-1.6
		c-0.86,0-1.56,0.71-1.57,1.58C23.44,23.48,24.06,24.1,24.99,24.11z M20.96,33.31c0.11,0.55,0.45,0.55,0.78,0.55
		c1.48,0,2.96,0,4.43,0c0.76,0,1.52,0,2.28-0.01c0.29,0,0.57-0.11,0.52-0.43c-0.02-0.14-0.34-0.32-0.53-0.32
		c-2.3-0.02-4.61-0.02-6.91,0C21.34,33.1,21.15,33.24,20.96,33.31z M29.04,36c0-0.08,0.01-0.17,0.01-0.25
		c-0.21-0.09-0.43-0.26-0.64-0.26c-2.26-0.02-4.53-0.01-6.79-0.01c-0.3,0-0.56,0.07-0.62,0.54c0.19,0.07,0.4,0.21,0.6,0.21
		c2.26,0.02,4.53,0.02,6.79,0C28.6,36.23,28.82,36.08,29.04,36z"/>
</g>
</svg>
