<?xml version="1.0" encoding="utf-8"?>
<!-- Generator: Adobe Illustrator 24.0.0, SVG Export Plug-In . SVG Version: 6.00 Build 0)  -->
<svg version="1.1" id="Слой_1" xmlns="http://www.w3.org/2000/svg" xmlns:xlink="http://www.w3.org/1999/xlink" x="0px" y="0px"
	 viewBox="0 0 50.04 50" style="enable-background:new 0 0 50.04 50;" xml:space="preserve">
<style type="text/css">
	.st0{fill:#B6B6B6;}
</style>
<g>
	<path class="st0" d="M26.95,46.91c0.27,0.28,0.54,0.56,0.82,0.84c0.42,0.42,0.5,0.92,0.32,1.45c-0.17,0.49-0.58,0.68-1.08,0.71
		C26.6,49.93,26.19,50,25.77,50C18.28,50,10.78,50,3.29,50c-0.37,0-0.74-0.02-1.11-0.08c-1.29-0.2-1.92-0.82-2.13-2.11
		C0.01,47.57,0,47.33,0,47.09c0-7.26,0-14.51,0-21.77c0-0.28,0.03-0.57,0.08-0.84c0.15-1,1.01-1.24,1.84-0.96
		c0.14,0.05,0.27,0.13,0.51,0.24c0.02-0.3,0.06-0.55,0.06-0.79c0-3.08,0.01-6.16,0-9.25c0-0.9,0.39-1.55,1.08-2.05
		c0.52-0.38,1.14-0.42,1.75-0.43c1.55-0.01,3.1,0,4.65,0c5.53,0,11.06,0,16.59,0c0.28,0,0.56,0,0.93,0c0.14-3.35,1.53-6,4.15-8.05
		c-0.84-0.16-1.64-0.12-2.51-0.09c-0.04,0.51-0.07,0.96-0.11,1.53c-1.54,0.06-3.08,0.02-4.59,0.02c-0.21-0.54-0.24-3.9-0.06-4.64
		c1.52,0,3.06,0,4.66,0c0.03,0.51,0.05,0.98,0.08,1.52c0.24,0.03,0.47,0.1,0.69,0.1c4.9,0.01,9.79,0,14.69,0
		c0.21,0,0.43-0.03,0.7-0.06c0.04-0.53,0.07-1.02,0.1-1.56c1.57,0,3.11,0,4.7,0c0,1.52,0,3.01,0,4.62
		c-1.55,0.06-3.08,0.02-4.69,0.02c-0.04-0.54-0.07-1.01-0.11-1.53c-0.89,0-1.72,0-2.76,0c2.79,2.06,4.23,4.7,4.38,8.03
		c0.47,0.07,0.88,0.12,1.28,0.19c0.96,0.16,1.66,0.84,1.84,1.8c0.06,0.34,0.11,0.69,0.11,1.04c0.01,9.88,0.01,19.76,0,29.64
		c0,0.33-0.04,0.65-0.1,0.97c-0.22,1.17-1.11,1.92-2.3,1.94c-1.46,0.02-2.93,0.01-4.39,0.01c-5.16,0-10.31,0-15.47,0
		c-0.25,0-0.51,0-0.76,0C26.99,46.79,26.97,46.85,26.95,46.91z M15.06,35.44c-0.03,0.06-0.05,0.11-0.08,0.17
		c0.14,0.15,0.28,0.31,0.43,0.45c3.05,2.88,6.11,5.75,9.14,8.64c0.38,0.36,0.76,0.51,1.28,0.51c7.1-0.01,14.2-0.01,21.3-0.01
		c1.11,0,1.37-0.25,1.37-1.34c0-7.96,0-15.91,0-23.87c0-0.23-0.04-0.46-0.06-0.72c-0.23-0.03-0.4-0.07-0.56-0.07
		c-1.64,0-3.28,0-4.92,0c-0.39,0-0.78,0.07-0.95,0.44c-0.18,0.4-0.11,0.79,0.19,1.16c0.45,0.53,0.61,1.16,0.45,1.84
		c-0.06,0.25-0.18,0.49-0.26,0.71c0.03,0.09,0.04,0.16,0.07,0.22c0.71,1.29-0.12,3.02-1.92,2.97c-0.81-0.02-1.62,0-2.43,0
		c-1.53,0-3.06,0.01-4.59-0.01c-1.23-0.02-2.03-0.85-1.96-2.05c0.02-0.38,0.18-0.76,0.29-1.21c0,0.02,0-0.05-0.03-0.11
		c-0.44-0.9-0.39-1.72,0.31-2.48c0.11-0.12,0.18-0.3,0.21-0.46c0.1-0.69-0.27-1.01-1.16-1.01c-8.81,0-17.61,0-26.42,0
		c-0.23,0-0.46,0.05-0.76,0.08c0,0.3,0,0.54,0,0.77c0,1.44-0.01,2.89,0.01,4.33c0,0.34-0.03,0.77,0.15,1
		c0.39,0.52,0.92,0.94,1.38,1.4c0.06-0.03,0.11-0.06,0.17-0.09c0.06-1.9-0.03-3.81,0.05-5.7c7,0,13.86,0,20.74,0
		c0,4.83,0,9.6,0,14.44C22.65,35.44,18.86,35.44,15.06,35.44z M1.59,32.26c0.51,0.04,0.98,0.08,1.47,0.12c0,0.47,0,0.87,0,1.31
		c-0.51,0.06-0.97,0.1-1.47,0.16c0,0.56,0,1.04,0,1.59c0.52,0.04,0.98,0.07,1.47,0.1c0,0.51,0,0.95,0,1.43
		c-0.52,0.05-0.99,0.09-1.44,0.13c0,0.58,0,1.09,0,1.61c0.53,0.04,0.97,0.07,1.44,0.1c0,0.51,0,0.95,0,1.42
		c-0.52,0.04-0.99,0.08-1.47,0.12c0,0.56,0,1.05,0,1.59C2.1,42,2.57,42.04,3.04,42.08c0,0.48,0,0.9,0,1.33
		c-0.52,0.05-0.97,0.09-1.45,0.14c0,0.56,0,1.05,0,1.59c0.52,0.04,0.98,0.07,1.47,0.1c0,0.51,0,0.95,0,1.42
		c-0.52,0.05-0.99,0.09-1.43,0.13c-0.23,1.19,0.14,1.65,1.25,1.66c0.85,0.01,1.7,0,2.56,0c6.64,0,13.28,0,19.92,0
		c0.24,0,0.48-0.03,0.72-0.04c0.01-0.05,0.03-0.1,0.04-0.16c-0.57-0.53-1.15-1.06-1.72-1.6c-2.26-2.12-4.51-4.25-6.77-6.38
		c-3.07-2.89-6.13-5.78-9.2-8.67c-2-1.89-3.99-3.79-5.99-5.68c-0.24-0.23-0.52-0.42-0.85-0.68c0,1.32,0,2.5,0,3.75
		c0.52,0.04,0.98,0.07,1.47,0.11c0,0.51,0,0.95,0,1.43c-0.52,0.05-0.98,0.09-1.47,0.13C1.59,31.23,1.59,31.72,1.59,32.26z
		 M7.26,22.51c-0.04,0.22-0.08,0.35-0.08,0.48c0,1.64,0,3.28-0.01,4.92c0,0.37,0.19,0.61,0.43,0.84c1.71,1.59,3.42,3.18,5.12,4.79
		c0.29,0.28,0.6,0.39,1,0.39c3.52-0.01,7.04,0,10.55-0.01c0.23,0,0.46-0.04,0.67-0.06c0.18-0.87,0.13-10.84-0.05-11.33
		C19.04,22.51,13.18,22.51,7.26,22.51z M40.42,18.68c2.37-1.22,4.04-3.04,4.62-5.65c0.59-2.6,0.04-4.99-1.71-7.05
		C40.15,2.2,34.6,2.2,31.43,5.46c-1.76,1.81-2.56,3.94-2.35,6.42c0.27,3.19,2.01,5.41,4.79,6.81c0.03,0.5,0.06,0.93,0.09,1.4
		c0.82,0,1.59,0,2.4,0c0-1.95,0-3.84,0-5.69c-2.09-1.22-2.73-2.4-2.25-4.11c0.31-1.11,1.48-2.23,2.98-2.25
		c1.54-0.02,2.8,1.16,3.1,2.27c0.46,1.7-0.15,2.82-2.22,4.06c-0.18,0.72-0.14,5.23,0.07,5.75c0.75,0.02,1.52,0.07,2.32-0.03
		C40.38,19.59,40.4,19.18,40.42,18.68z M4.01,17.62c0.88,0.23,25.35,0.18,25.89-0.06c-1.23-1.37-1.93-2.99-2.31-4.79
		c-0.37,0-0.65,0-0.93,0c-7.05,0-14.11,0-21.16,0c-0.17,0-0.35-0.01-0.52,0.01c-0.66,0.05-0.95,0.33-0.97,0.99
		C4,14.37,4.01,14.98,4.01,15.59C4.01,16.26,4.01,16.94,4.01,17.62z M46.67,12.78c-0.4,1.79-1.12,3.39-2.28,4.79
		c0.04,0.04,0.08,0.08,0.11,0.12c1.31,0,2.61,0,3.98,0c0-1.41,0.03-2.76-0.01-4.1c-0.01-0.45-0.37-0.74-0.83-0.79
		C47.34,12.75,47.03,12.78,46.67,12.78z M38.8,11.21c-0.02-0.86-0.86-1.69-1.69-1.67c-0.88,0.02-1.64,0.84-1.61,1.72
		c0.03,0.91,0.81,1.66,1.7,1.62C38.05,12.85,38.82,12.04,38.8,11.21z M37.09,22.61c1.07,0,2.14,0.01,3.21,0
		c0.59,0,0.88-0.18,0.84-0.5c-0.06-0.5-0.48-0.42-0.82-0.43c-2.12-0.01-4.24-0.01-6.36,0c-0.36,0-0.8-0.08-0.89,0.43
		c-0.05,0.31,0.29,0.48,0.92,0.49C35.04,22.61,36.06,22.61,37.09,22.61z M37.08,25c1.05,0,2.09,0,3.14,0c0.7,0,0.93-0.12,0.93-0.45
		c-0.01-0.34-0.29-0.5-0.92-0.5c-2.07,0-4.14,0-6.21,0c-0.17,0-0.37-0.02-0.51,0.05c-0.17,0.09-0.29,0.28-0.43,0.43
		c0.16,0.15,0.3,0.34,0.48,0.44C33.7,25.05,33.9,25,34.07,25C35.08,25,36.08,25,37.08,25z M25.85,3.13c0.58,0,1.09,0,1.62,0
		c0-0.57,0-1.05,0-1.57c-0.58,0-1.09,0-1.62,0C25.85,2.12,25.85,2.61,25.85,3.13z M46.83,1.53c0,0.57,0,1.07,0,1.62
		c0.57,0,1.07,0,1.61,0c0-0.56,0-1.06,0-1.62C47.9,1.53,47.41,1.53,46.83,1.53z"/>
	<path class="st0" d="M46.71,30.56c-6.12,0-12.19,0-18.33,0c0-0.47,0-0.93,0-1.44c6.11,0,12.18,0,18.33,0
		C46.71,29.58,46.71,30.02,46.71,30.56z"/>
	<path class="st0" d="M28.36,36.97c0-0.5,0-0.94,0-1.43c6.14,0,12.22,0,18.35,0c0,0.48,0,0.92,0,1.43
		C40.61,36.97,34.53,36.97,28.36,36.97z"/>
	<path class="st0" d="M46.71,38.82c0.02,0.23,0.05,0.4,0.06,0.57c0.01,0.26,0,0.52,0,0.75c-0.54,0.19-17.63,0.23-18.41,0.05
		c0-0.43,0-0.87,0-1.37C34.48,38.82,40.56,38.82,46.71,38.82z"/>
	<path class="st0" d="M28.36,33.71c0-0.46,0-0.86,0-1.32c6.12,0,12.2,0,18.34,0c0,0.43,0,0.84,0,1.32
		C40.6,33.71,34.53,33.71,28.36,33.71z"/>
	<path class="st0" d="M15.66,44.2c-3.26,0-6.53,0-9.78,0c-0.18-0.53-0.22-8.53-0.04-9.31c0.21,0.16,0.41,0.28,0.57,0.44
		c1.81,1.71,3.61,3.43,5.42,5.14c1.1,1.03,2.2,2.06,3.31,3.08c0.19,0.18,0.39,0.34,0.59,0.51C15.71,44.1,15.69,44.15,15.66,44.2z
		 M7.23,42.65c0.73,0.22,4.12,0.2,4.69-0.04c-1.56-1.41-3.01-2.88-4.57-4.23c-0.04,0.03-0.08,0.06-0.12,0.09
		C7.23,39.86,7.23,41.25,7.23,42.65z"/>
	<path class="st0" d="M9.68,14.51c0.41,0.02,0.74,0.36,0.74,0.75c0,0.4-0.35,0.73-0.76,0.73c-0.42-0.01-0.75-0.34-0.73-0.75
		C8.95,14.82,9.28,14.49,9.68,14.51z"/>
	<path class="st0" d="M5.75,15.24c0.01-0.43,0.28-0.72,0.68-0.73c0.41-0.01,0.74,0.32,0.74,0.75c0,0.42-0.33,0.74-0.76,0.73
		C6.03,15.98,5.74,15.65,5.75,15.24z"/>
	<path class="st0" d="M13.61,15.3c-0.01,0.41-0.38,0.73-0.79,0.69c-0.38-0.03-0.65-0.37-0.63-0.78c0.03-0.4,0.34-0.71,0.72-0.7
		C13.31,14.52,13.62,14.87,13.61,15.3z"/>
</g>
</svg>
