<?xml version="1.0" encoding="utf-8"?>
<!-- Generator: Adobe Illustrator 24.0.0, SVG Export Plug-In . SVG Version: 6.00 Build 0)  -->
<svg version="1.1" id="Слой_1" xmlns="http://www.w3.org/2000/svg" xmlns:xlink="http://www.w3.org/1999/xlink" x="0px" y="0px"
	 viewBox="0 0 46.31 50" style="enable-background:new 0 0 46.31 50;" xml:space="preserve">
<style type="text/css">
	.st0{fill:#B6B6B6;}
</style>
<g>
	<path class="st0" d="M46.3,25.01c0,4.14-0.02,8.27,0.02,12.41c0.01,0.7-0.25,1.07-0.85,1.37c-1.82,0.89-3.63,1.83-5.44,2.75
		c-2.14,1.09-4.28,2.18-6.42,3.27c-0.17,0.09-0.35,0.19-0.54,0.24c-0.33,0.09-0.59-0.03-0.78-0.32c-0.19-0.3-0.09-0.54,0.1-0.77
		c0.04-0.05,0.09-0.09,0.15-0.13c0.32-0.2,0.16-0.33-0.07-0.45c-0.89-0.46-1.78-0.93-2.67-1.39c-0.89-0.46-0.89-0.45-1.78,0
		c-0.87,0.45-1.75,0.89-2.63,1.33c-0.16,0.08-0.31,0.16-0.46,0.26c-0.15,0.1-0.14,0.2,0.02,0.29c0.37,0.2,0.73,0.39,1.1,0.58
		c0.72,0.37,1.45,0.72,2.15,1.11c0.3,0.16,0.54,0.21,0.85,0.02c0.28-0.17,0.58-0.31,0.88-0.43c0.31-0.12,0.61-0.09,0.83,0.2
		c0.21,0.27,0.21,0.58-0.05,0.82c-0.16,0.15-0.35,0.25-0.55,0.35c-2.18,1.11-4.36,2.21-6.54,3.33c-0.29,0.15-0.53,0.2-0.85,0.04
		c-2.64-1.36-5.29-2.7-7.94-4.05c-4.65-2.37-9.3-4.74-13.97-7.09C0.22,38.44,0,38.03,0,37.33c0.02-8.25,0.02-16.5,0-24.75
		c0-0.66,0.22-1.02,0.81-1.32c5.66-2.85,11.3-5.72,16.95-8.59c1.65-0.84,3.31-1.68,4.96-2.54c0.33-0.17,0.59-0.16,0.92,0.01
		c7.3,3.71,14.6,7.42,21.91,11.12c0.57,0.29,0.76,0.66,0.76,1.28C46.29,16.69,46.3,20.85,46.3,25.01z M22.47,8.79
		c0-2.12,0-4.25,0-6.37c0-0.59-0.02-0.59-0.53-0.35c-0.18,0.08-0.35,0.17-0.53,0.26c-2.24,1.14-4.47,2.29-6.71,3.42
		c-4.25,2.16-8.49,4.32-12.74,6.45c-0.46,0.23-0.62,0.49-0.61,1c0.02,3.87,0.01,7.75,0.01,11.62c0,0.13-0.01,0.26,0,0.39
		c0.01,0.08,0.04,0.17,0.06,0.25c0.09-0.04,0.22-0.06,0.28-0.13c0.43-0.52,0.85-1.06,1.28-1.58c0.22-0.27,0.45-0.54,0.71-0.77
		c0.24-0.21,0.53-0.23,0.77-0.01c0.23,0.21,0.32,0.48,0.18,0.77c-0.1,0.21-0.25,0.41-0.4,0.6c-0.78,0.97-1.55,1.96-2.35,2.91
		c-0.39,0.46-0.56,0.93-0.55,1.54c0.03,2.39,0.01,4.77,0.01,7.16c0,0.85,0,0.85,0.75,0.47c5.14-2.61,10.28-5.22,15.42-7.84
		c1.5-0.76,2.99-1.54,4.5-2.29c0.34-0.17,0.46-0.39,0.46-0.77c-0.01-2.41,0-4.82-0.01-7.22c0-0.21-0.02-0.46-0.14-0.61
		c-0.37-0.46-0.75-0.92-1.2-1.3c-0.75-0.63-1.71-0.5-2.3,0.28c-0.58,0.74-1.14,1.5-1.7,2.25c-0.46,0.62-0.46,0.62,0.08,1.14
		c0.56,0.55,1.14,1.09,1.69,1.65c0.28,0.29,0.28,0.68,0.05,0.95c-0.22,0.25-0.63,0.27-0.95,0.05c-0.07-0.05-0.13-0.11-0.2-0.17
		c-1.1-1.04-2.19-2.07-3.29-3.11c-0.83-0.78-1.63-1.58-2.48-2.34c-0.67-0.6-1.4-0.54-2.04,0.1c-0.11,0.11-0.21,0.22-0.31,0.34
		c-0.73,0.93-1.46,1.85-2.2,2.78c-0.35,0.44-0.71,0.89-1.09,1.31c-0.18,0.2-0.43,0.37-0.7,0.21c-0.18-0.11-0.37-0.32-0.42-0.52
		c-0.04-0.18,0.05-0.43,0.17-0.6c0.24-0.36,0.53-0.69,0.8-1.04c0.83-1.05,1.64-2.11,2.48-3.14c0.78-0.95,1.76-1.4,3.01-1.09
		c0.55,0.14,0.99,0.44,1.4,0.81c0.63,0.58,1.27,1.15,1.88,1.74c0.77,0.74,0.61,0.59,1.18-0.11c0.63-0.78,1.2-1.62,1.88-2.35
		c1-1.08,2.64-1.17,3.82-0.29c0.09,0.07,0.17,0.14,0.26,0.2c0.07,0.05,0.15,0.08,0.22,0.12c0.03-0.1,0.09-0.19,0.1-0.29
		c0.02-0.15,0.01-0.31,0.01-0.46C22.47,12.82,22.47,10.8,22.47,8.79z M44.94,20.37c0-2.41-0.01-4.82,0.01-7.22
		c0-0.44-0.11-0.71-0.53-0.92c-2.77-1.39-5.53-2.81-8.29-4.22c-2.7-1.38-5.41-2.76-8.11-4.14C26.77,3.23,25.55,2.61,24.32,2
		c-0.38-0.19-0.45-0.14-0.48,0.28c0,0.07,0,0.13,0,0.2c0,4.77,0,9.54-0.01,14.32c0,0.35,0.1,0.63,0.34,0.89
		c0.63,0.7,1.25,1.41,1.87,2.11c0.39,0.45,0.4,0.45,0.77-0.01c0.8-0.99,1.59-1.98,2.4-2.95c0.22-0.27,0.48-0.52,0.76-0.72
		c1.15-0.83,3.13-0.83,4.44,0.66c1.91,2.17,3.86,4.29,5.8,6.44c0.06,0.06,0.12,0.13,0.17,0.2c0.18,0.23,0.19,0.49,0.06,0.74
		c-0.14,0.26-0.4,0.38-0.67,0.29c-0.21-0.07-0.42-0.21-0.58-0.38c-1.93-2.12-3.88-4.22-5.77-6.37c-0.92-1.04-2.38-1.02-3.18,0
		c-0.84,1.07-1.7,2.12-2.56,3.16c-0.25,0.3-0.2,0.51,0.06,0.78c0.44,0.45,0.86,0.93,1.26,1.42c0.3,0.37,0.25,0.72-0.07,0.98
		c-0.29,0.23-0.62,0.2-0.94-0.09c-0.06-0.06-0.12-0.12-0.18-0.19c-1.09-1.23-2.18-2.45-3.27-3.68c-0.13-0.15-0.26-0.3-0.41-0.43
		c-0.13-0.11-0.25-0.08-0.27,0.11c-0.02,0.13-0.01,0.26-0.01,0.39c0,1.75,0.02,3.5-0.01,5.25c-0.01,0.5,0.19,0.75,0.6,0.96
		c2.42,1.22,4.83,2.45,7.25,3.68c3.33,1.7,6.66,3.4,9.99,5.09c0.95,0.49,1.91,0.97,2.87,1.44c0.32,0.16,0.38,0.11,0.4-0.23
		c0.01-0.11,0-0.22,0-0.33c0-1.66-0.02-3.33,0.01-4.99c0.01-0.43-0.14-0.75-0.41-1.05c-0.67-0.72-1.33-1.46-1.99-2.19
		c-0.38-0.42-0.77-0.84-1.13-1.27c-0.28-0.33-0.26-0.75,0-1.01c0.26-0.25,0.61-0.24,0.95,0.04c0.15,0.12,0.27,0.28,0.4,0.43
		c0.52,0.59,1.04,1.18,1.57,1.76c0.14,0.15,0.32,0.27,0.49,0.4c0.04-0.2,0.11-0.4,0.11-0.61C44.94,25.14,44.94,22.75,44.94,20.37z
		 M23.2,37.02c0.11-0.04,0.21-0.07,0.31-0.12c1.24-0.64,2.48-1.28,3.71-1.93c0.43-0.23,0.43-0.31-0.01-0.54
		c-1.22-0.63-2.45-1.24-3.67-1.88c-0.27-0.14-0.49-0.1-0.74,0.03c-1.22,0.62-2.45,1.23-3.68,1.86c-0.11,0.06-0.21,0.15-0.32,0.22
		c0.1,0.1,0.19,0.23,0.31,0.29c1.22,0.64,2.44,1.27,3.66,1.9C22.91,36.92,23.05,36.96,23.2,37.02z M21.59,37.82
		c-0.13-0.09-0.21-0.16-0.31-0.21c-1.27-0.67-2.56-1.32-3.82-2c-0.25-0.14-0.45-0.08-0.67,0.04c-1.12,0.59-2.24,1.17-3.36,1.76
		c-0.13,0.07-0.23,0.18-0.35,0.27c0.11,0.1,0.21,0.22,0.34,0.28c0.91,0.47,1.83,0.92,2.74,1.4c1.27,0.67,1.26,0.68,2.55,0.02
		c0.85-0.44,1.71-0.87,2.56-1.31C21.37,38.01,21.46,37.92,21.59,37.82z M28.93,39.98c0.08-0.03,0.19-0.07,0.28-0.11
		c1.26-0.64,2.52-1.28,3.78-1.93c0.41-0.21,0.41-0.27,0.02-0.48c-1.17-0.62-2.35-1.24-3.54-1.84c-0.14-0.07-0.39-0.07-0.53,0
		c-1.3,0.65-2.6,1.33-3.89,2c-0.32,0.17-0.33,0.25,0,0.42c1.2,0.62,2.41,1.23,3.61,1.84C28.74,39.91,28.82,39.94,28.93,39.98z
		 M15.84,40.77c-0.14-0.09-0.21-0.16-0.3-0.21c-1.29-0.67-2.59-1.35-3.89-2.01c-0.15-0.07-0.4-0.07-0.55,0
		c-1.13,0.57-2.24,1.16-3.36,1.76c-0.3,0.16-0.29,0.26,0.02,0.42c1.03,0.53,2.06,1.05,3.09,1.56c1.28,0.64,0.81,0.66,2.13-0.01
		c0.84-0.42,1.67-0.85,2.5-1.28C15.6,40.96,15.69,40.88,15.84,40.77z M34.41,42.81c0.13-0.05,0.25-0.08,0.37-0.14
		c1.25-0.63,2.5-1.25,3.74-1.89c0.38-0.2,0.38-0.3,0-0.51c-1.06-0.57-2.13-1.11-3.19-1.68c-0.29-0.16-0.53-0.12-0.8,0.02
		c-1.22,0.64-2.44,1.26-3.66,1.9c-0.11,0.06-0.19,0.16-0.29,0.24c0.1,0.1,0.19,0.23,0.31,0.29c1.04,0.55,2.1,1.08,3.15,1.62
		C34.16,42.72,34.28,42.76,34.41,42.81z M27.29,40.76c-0.13-0.1-0.21-0.17-0.3-0.22c-1.18-0.6-2.37-1.21-3.56-1.8
		c-0.14-0.07-0.39-0.05-0.54,0.02c-1.18,0.57-2.34,1.16-3.5,1.76c-0.1,0.05-0.17,0.17-0.26,0.26c0.09,0.08,0.17,0.19,0.28,0.24
		c1.14,0.59,2.3,1.16,3.44,1.75c0.27,0.14,0.48,0.11,0.74-0.02c0.67-0.36,1.35-0.7,2.03-1.05c0.47-0.24,0.93-0.48,1.39-0.72
		C27.1,40.93,27.17,40.86,27.29,40.76z M17.47,41.57c-0.13,0.05-0.23,0.08-0.33,0.13c-1.07,0.55-2.14,1.09-3.2,1.65
		c-0.12,0.06-0.21,0.18-0.32,0.28c0.1,0.08,0.19,0.18,0.3,0.23c1.14,0.59,2.29,1.16,3.43,1.76c0.27,0.14,0.48,0.1,0.73-0.03
		c1.04-0.55,2.09-1.09,3.13-1.64c0.11-0.06,0.2-0.15,0.31-0.23c-0.1-0.08-0.18-0.19-0.29-0.24c-1.14-0.59-2.29-1.18-3.44-1.76
		C17.69,41.66,17.57,41.61,17.47,41.57z M32.64,32.09c-0.13-0.08-0.21-0.15-0.29-0.19c-1.28-0.66-2.57-1.32-3.86-1.96
		c-0.16-0.08-0.44-0.07-0.6,0.01c-0.94,0.46-1.87,0.94-2.8,1.43c-0.36,0.19-0.35,0.26,0.01,0.45c1.26,0.65,2.53,1.29,3.8,1.92
		c0.16,0.08,0.41,0.11,0.55,0.04c1-0.49,1.99-1,2.98-1.52C32.49,32.25,32.54,32.18,32.64,32.09z M17.16,33.88
		c0.11-0.04,0.21-0.07,0.31-0.11c1.28-0.65,2.57-1.29,3.85-1.95c0.31-0.16,0.3-0.25-0.02-0.42c-0.95-0.49-1.9-0.98-2.86-1.45
		c-0.15-0.07-0.39-0.09-0.54-0.02c-1.29,0.63-2.58,1.27-3.86,1.93c-0.33,0.17-0.33,0.29,0.02,0.47c0.93,0.49,1.86,0.96,2.79,1.44
		C16.94,33.81,17.05,33.84,17.16,33.88z M27,46.54c-0.14-0.11-0.23-0.2-0.34-0.26c-1.02-0.54-2.05-1.06-3.07-1.61
		c-0.29-0.16-0.52-0.14-0.8,0c-1.02,0.54-2.05,1.06-3.07,1.61c-0.12,0.06-0.2,0.2-0.3,0.3c0.1,0.08,0.19,0.18,0.3,0.23
		c1.07,0.55,2.14,1.08,3.2,1.63c0.24,0.12,0.41,0.06,0.61-0.04c0.68-0.35,1.36-0.69,2.04-1.04c0.39-0.2,0.78-0.39,1.16-0.6
		C26.81,46.72,26.88,46.64,27,46.54z M38.43,35.05c-0.1-0.08-0.18-0.17-0.27-0.21c-1.2-0.62-2.4-1.23-3.62-1.83
		c-0.15-0.07-0.39-0.06-0.54,0.02c-0.98,0.47-1.95,0.97-2.92,1.47c-0.31,0.16-0.31,0.25,0.02,0.42c1.19,0.63,2.39,1.25,3.6,1.86
		c0.14,0.07,0.39,0.06,0.54-0.01c1-0.49,1.98-1.01,2.96-1.53C38.27,35.18,38.33,35.12,38.43,35.05z M12.11,32.9
		c-0.07,0.03-0.14,0.04-0.19,0.07c-1.25,0.62-2.5,1.24-3.74,1.87c-0.29,0.15-0.27,0.25,0.06,0.43c0.94,0.5,1.9,0.99,2.84,1.49
		c0.21,0.11,0.4,0.12,0.62,0.01c1.18-0.62,2.36-1.22,3.54-1.84c0.34-0.18,0.33-0.28-0.03-0.47c-0.92-0.49-1.86-0.96-2.79-1.44
		C12.31,32.96,12.2,32.94,12.11,32.9z M9.75,37.69c-0.1-0.09-0.15-0.16-0.23-0.19c-0.98-0.51-1.97-1.04-2.96-1.52
		c-0.16-0.08-0.44-0.06-0.6,0.02c-1.12,0.54-2.22,1.11-3.33,1.68c-0.09,0.05-0.16,0.13-0.23,0.2c0.09,0.09,0.16,0.2,0.26,0.25
		c0.71,0.38,1.46,0.7,2.14,1.12c0.72,0.44,1.33,0.51,2.08,0.02c0.8-0.52,1.69-0.9,2.54-1.34C9.53,37.86,9.62,37.78,9.75,37.69z
		 M43.99,37.89c-0.15-0.11-0.25-0.22-0.37-0.28c-1.07-0.55-2.14-1.08-3.21-1.63c-0.23-0.12-0.44-0.15-0.68-0.02
		c-0.96,0.51-1.94,1-2.9,1.52c-0.31,0.17-0.31,0.25,0.02,0.42c1.12,0.58,2.25,1.16,3.38,1.72c0.13,0.07,0.35,0.08,0.48,0.01
		c1.01-0.5,2.02-1.03,3.02-1.56C43.82,38.04,43.88,37.98,43.99,37.89z M26.56,29.02c-0.1-0.08-0.18-0.16-0.27-0.21
		c-0.95-0.49-1.9-0.98-2.86-1.45c-0.13-0.07-0.35-0.07-0.49,0c-0.98,0.47-1.96,0.96-2.93,1.46c-0.27,0.14-0.27,0.25,0.01,0.39
		c0.97,0.51,1.94,1,2.92,1.48c0.13,0.06,0.35,0.07,0.48,0.01c0.98-0.49,1.94-1,2.91-1.5C26.41,29.16,26.46,29.1,26.56,29.02z"/>
	<path class="st0" d="M27.56,10.72c0-1.5,1.18-2.73,2.69-2.72c1.63,0.02,2.68,1.45,2.67,2.75c-0.01,1.53-1.39,2.67-2.68,2.67
		C28.89,13.42,27.46,12.26,27.56,10.72z M31.55,10.72c-0.01-0.78-0.53-1.28-1.32-1.27c-0.77,0.01-1.32,0.55-1.32,1.3
		c0,0.73,0.59,1.3,1.34,1.3C30.99,12.05,31.55,11.48,31.55,10.72z"/>
</g>
</svg>
