<svg width="14" height="20" viewBox="0 0 14 20" fill="none" xmlns="http://www.w3.org/2000/svg">
<path d="M6.07517 0.529297C6.09358 0.494141 6.1149 0.458984 6.13719 0.425781C6.31647 0.166016 6.61398 0 6.95025 0C7.19834 0 7.41735 0.0839844 7.59082 0.236328C7.65478 0.291016 7.71002 0.351562 7.75653 0.416016L13.2202 6.97461C13.572 7.39844 13.5177 8.0293 13.0972 8.38477C12.6776 8.73828 12.0515 8.68359 11.6997 8.26172L7.9426 3.74805V19C7.9426 19.5527 7.49876 20 6.95025 20C6.40175 20 5.95791 19.5527 5.95791 19V3.75391L2.20464 8.26172C1.85286 8.68359 1.22683 8.74023 0.806246 8.38477C0.386632 8.0293 0.332363 7.39844 0.684141 6.97656L6.07517 0.529297Z" fill="#C4C4C4"/>
</svg>
