<?xml version="1.0" encoding="utf-8"?>
<!-- Generator: Adobe Illustrator 24.0.0, SVG Export Plug-In . SVG Version: 6.00 Build 0)  -->
<svg version="1.1" id="Слой_1" xmlns="http://www.w3.org/2000/svg" xmlns:xlink="http://www.w3.org/1999/xlink" x="0px" y="0px"
	 viewBox="0 0 14 20" style="enable-background:new 0 0 14 20;" xml:space="preserve">
<style type="text/css">
	.st0{fill:#242424;}
</style>
<path class="st0" d="M6.08,0.53c0.02-0.04,0.04-0.07,0.06-0.1C6.32,0.17,6.61,0,6.95,0C7.2,0,7.42,0.08,7.59,0.24
	c0.06,0.05,0.12,0.12,0.17,0.18l5.46,6.56c0.35,0.42,0.3,1.05-0.12,1.41c-0.42,0.35-1.05,0.3-1.4-0.12L7.94,3.75V19
	c0,0.55-0.44,1-0.99,1c-0.55,0-0.99-0.45-0.99-1V3.75L2.2,8.26c-0.35,0.42-0.98,0.48-1.4,0.12C0.39,8.03,0.33,7.4,0.68,6.98
	L6.08,0.53z"/>
</svg>
