<?xml version="1.0" encoding="utf-8"?>
<!-- Generator: Adobe Illustrator 24.0.0, SVG Export Plug-In . SVG Version: 6.00 Build 0)  -->
<svg version="1.1" id="Слой_1" xmlns="http://www.w3.org/2000/svg" xmlns:xlink="http://www.w3.org/1999/xlink" x="0px" y="0px"
	 viewBox="0 0 161 62" style="enable-background:new 0 0 161 62;" xml:space="preserve">
<style type="text/css">
	.st0{fill:#262738;}
	.st1{opacity:0.4;fill:#262738;}
</style>
<path class="st0" d="M30.8,1.3c-4.6,0-7.3,3.3-7.3,7.7c0,4.3,2.4,7.7,7.1,7.7c4.8,0,7.3-3.6,7.3-7.7C37.9,4.3,35.2,1.3,30.8,1.3z
	 M30.7,3.9c2.8,0,3.9,2.2,3.9,5.1c0,2.7-1,5.1-3.9,5.1c-2.6,0-3.9-2.2-3.9-5.1C26.8,6,28,3.9,30.7,3.9z"/>
<path class="st0" d="M45.6,10.5c2.4,0,2.8,0.8,2.8,2.4v0.2c0,1.6,0,2.7,0.3,3.3h3c-0.2-0.7-0.2-1.8-0.2-2.8v-0.7
	c0-2.7-1.1-3.4-1.8-3.7c1.1-0.4,2.2-1.5,2.2-3.5c0-2.3-1.7-4.1-5-4.1h-6.5v14.9h3.1v-6H45.6z M43.5,4.1h2.8c1.6,0,2.3,0.7,2.3,1.9
	c0,1.3-0.7,1.9-2.4,1.9h-2.7V4.1z"/>
<path class="st0" d="M54.5,1.5v14.9h3.2V1.5H54.5z"/>
<path class="st0" d="M73.8,8.1h-6.4v2.6h3.3v0.1c0,1.3-0.5,3.3-3.3,3.3c-2.9,0-3.9-2.5-3.9-5.1c0-2.6,0.9-5.2,3.9-5.2
	c2.2,0,3,1.2,3.3,2.2h3.2c-0.4-2.6-2.6-4.7-6.4-4.7c-4.7,0-7.3,3.4-7.3,7.9c0,4.3,2.4,7.5,6.7,7.5c2,0,3.5-0.6,4.3-1.7
	c0,0.5,0.1,1,0.2,1.5h2.4V8.1z"/>
<path class="st0" d="M85.4,13l1.2,3.4H90L84.7,1.5h-4l-5,14.9h3.1l1.2-3.4H85.4z M80.6,10.3c0.8-2.7,1.6-5,2-6.5h0
	c0.4,1.3,1,3.4,2.1,6.5H80.6z"/>
<path class="st0" d="M104.1,16.4h3.1V1.5h-4.6c-1.2,3.8-2.9,9.1-3.2,11h0c-0.4-2.2-1.7-7.1-2.9-11h-4.8v14.9h2.9v-5.3
	c0-2.6-0.1-5.7-0.2-7.4h0.1c0.7,3,2.2,8.7,3.3,12.7h2.7c1.4-4.7,2.9-9.7,3.6-12.7h0.1c-0.1,1.7-0.1,4.6-0.1,7.1V16.4z"/>
<path class="st0" d="M110.7,1.5v14.9h3.2V1.5H110.7z"/>
<g>
	<g>
		<path class="st0" d="M121.6,16.4c1-3.6,3.2-11,3.6-13.1h0c0.3,1.5,2.5,9.6,3.4,13.1h1.7l4.5-15.1h-1.6c-0.9,3.4-3.3,11-3.8,13.4h0
			c-0.3-1.5-2.5-9.8-3.5-13.4h-1.6c-1,3.9-3.3,11.8-3.6,13.4h0c-0.3-1.8-2.3-9.2-3.4-13.4h-1.6l4.1,15.1H121.6z"/>
		<path class="st0" d="M146.3,7.8h-7.6V2.7h8V1.3h-9.5v15.1h9.6l0.2-1.4h-8.3V9.2h7.6V7.8z"/>
		<path class="st0" d="M149.5,16.4h5.6c2.7,0,4.9-1.4,4.9-4.4c0-2.3-1.7-3.4-2.8-3.7c1.2-0.4,2.2-1.5,2.2-3.3c0-2.1-1.5-3.8-4.5-3.8
			h-5.5V16.4z M151.1,7.7V2.6h4c2,0,3,1.1,3,2.5c0,1.6-0.9,2.6-3.3,2.6H151.1z M151.1,9.1h3.5c2.8,0,4,1.2,4,3c0,2.1-1.5,3-3.4,3h-4
			V9.1z"/>
		<path class="st0" d="M117.1,29.4c0.2,1.3,1.1,2.6,3.3,2.6c2.1,0,3.1-1.1,3.1-2.5c0-1.1-0.4-2.1-2.9-2.7c-1.6-0.4-2.2-0.8-2.2-1.7
			c0-0.9,0.7-1.5,1.9-1.5c1.4,0,1.9,0.7,2.1,1.6h0.9c-0.1-1.1-1-2.4-3-2.4c-1.9,0-2.9,1.1-2.9,2.4c0,1.3,0.8,1.9,2.8,2.4
			c1.9,0.5,2.3,1,2.3,2c0,0.9-0.6,1.7-2.1,1.7c-1.4,0-2.1-0.6-2.4-1.8H117.1z"/>
		<path class="st0" d="M126.9,31.8h0.9v-8.2h3v-0.8H124v0.8h3V31.8z"/>
		<path class="st0" d="M131.9,22.8v5.5c0,2.7,1.6,3.6,3.4,3.6c1.9,0,3.4-0.9,3.4-3.7v-5.4h-0.9v5.4c0,2.2-1,2.9-2.5,2.9
			c-1.2,0-2.5-0.6-2.5-2.9v-5.4H131.9z"/>
		<path class="st0" d="M140.9,31.8h3c2.5,0,4.2-1.9,4.2-4.6c0-2.7-1.7-4.4-4.2-4.4h-3.1V31.8z M141.8,23.6h2c2.3,0,3.3,1.8,3.3,3.6
			c0,2.1-1.1,3.7-3.3,3.7h-2V23.6z"/>
		<path class="st0" d="M149.8,22.8v9h0.9v-9H149.8z"/>
		<path class="st0" d="M156.5,22.7c-2.7,0-4.1,2.1-4.1,4.6c0,2.6,1.5,4.6,4,4.6c2.8,0,4.1-2.2,4.1-4.7
			C160.5,24.6,159,22.7,156.5,22.7z M156.4,23.5c2.1,0,3.1,1.8,3.1,3.8c0,2-0.9,3.9-3.1,3.9c-2,0-3.1-1.8-3.1-3.9
			C153.3,25.3,154.3,23.5,156.4,23.5z"/>
	</g>
</g>
<path class="st0" d="M0.6,31.4h30.2v30.5L0.6,31.4z"/>
<path class="st1" d="M30.8,31.4h30.1L30.8,61.9V31.4z"/>
<path class="st0" d="M0.5,0.9h15.1v15.4L0.5,0.9z"/>
<path class="st1" d="M0.6,0.9l30.2,30.5H0.6V0.9z"/>
<image style="overflow:visible;" width="319" height="120" xlink:href="68301572.jpg"  transform="matrix(1 0 0 1 18.2327 71.752)">
</image>
</svg>
