<svg width="161" height="62" viewBox="0 0 161 62" fill="none" xmlns="http://www.w3.org/2000/svg">
<path d="M30.8206 1.27148C26.2073 1.27148 23.5127 4.61109 23.5127 8.96994C23.5127 13.242 25.9487 16.6467 30.605 16.6467C35.4338 16.6467 37.9129 13.0685 37.9129 8.90488C37.9129 4.32918 35.1751 1.27148 30.8206 1.27148ZM30.6697 3.89546C33.4505 3.89546 34.5931 6.1291 34.5931 8.94825C34.5931 11.6156 33.5799 14.0227 30.7343 14.0227C28.1044 14.0227 26.8325 11.8108 26.8325 8.90488C26.8325 5.99898 27.9966 3.89546 30.6697 3.89546Z" fill="white"/>
<path d="M45.6443 10.4663C48.0371 10.4663 48.4683 11.2253 48.4683 12.8734V13.0902C48.4683 14.6733 48.5114 15.7793 48.7701 16.4298H51.8096C51.6156 15.7359 51.5941 14.5866 51.5941 13.589V12.8517C51.5941 10.1843 50.4946 9.40365 49.7617 9.12174C50.818 8.68802 51.9174 7.60373 51.9174 5.58696C51.9174 3.28826 50.1713 1.48834 46.9377 1.48834H40.4059V16.4298H43.5317V10.4663H45.6443ZM43.5317 4.06895H46.3126C47.8862 4.06895 48.6623 4.74121 48.6623 5.95561C48.6623 7.21339 47.994 7.88565 46.2263 7.88565H43.5317V4.06895Z" fill="white"/>
<path d="M54.461 1.48834V16.4298H57.673V1.48834H54.461Z" fill="white"/>
<path d="M73.8296 8.08082H67.4055V10.7265H70.6607V10.8566C70.6607 12.2011 70.1648 14.1095 67.4055 14.1095C64.4738 14.1095 63.4821 11.5939 63.4821 9.01331C63.4821 6.36764 64.3444 3.80872 67.384 3.80872C69.5612 3.80872 70.3589 5.00144 70.6607 5.99899H73.8727C73.5062 3.44006 71.2643 1.27148 67.4271 1.27148C62.7492 1.27148 60.1623 4.65447 60.1623 9.14342C60.1623 13.4155 62.5552 16.6901 66.8882 16.6901C68.9361 16.6901 70.402 16.0829 71.2211 14.9769C71.2643 15.4757 71.3289 15.9744 71.4583 16.4298H73.8296V8.08082Z" fill="white"/>
<path d="M85.3741 12.9818L86.5813 16.4298H89.9657L84.7058 1.48834H80.6746L75.6302 16.4298H78.7776L79.9417 12.9818H85.3741ZM80.6099 10.3361C81.4507 7.6471 82.2052 5.30504 82.5716 3.83041H82.5932C82.9597 5.17492 83.6279 7.1917 84.6842 10.3361H80.6099Z" fill="white"/>
<path d="M104.117 16.4298H107.222V1.48834H102.608C101.38 5.32673 99.7414 10.553 99.3749 12.5264H99.3534C98.9222 10.2928 97.6072 5.39178 96.4647 1.48834H91.679V16.4298H94.6108V11.0951C94.6108 8.51454 94.5461 5.43515 94.4168 3.70029H94.503C95.1713 6.67124 96.7018 12.3529 97.7797 16.4298H100.517C101.94 11.7674 103.428 6.77967 104.139 3.72198H104.225C104.161 5.41347 104.117 8.27599 104.117 10.8349V16.4298Z" fill="white"/>
<path d="M110.66 1.48834V16.4298H113.872V1.48834H110.66Z" fill="white"/>
<g opacity="0.6">
<path d="M121.643 16.4316C122.656 12.8101 124.812 5.41522 125.221 3.3117H125.243C125.544 4.85139 127.7 12.9185 128.67 16.4316H130.373L134.879 1.29492H133.327C132.4 4.69959 130.071 12.3113 129.576 14.6534H129.554C129.274 13.2004 127.032 4.85139 126.083 1.29492H124.488C123.475 5.24173 121.19 13.0486 120.845 14.7184H120.823C120.522 12.9619 118.538 5.54533 117.461 1.29492H115.844L119.961 16.4316H121.643Z" fill="white"/>
<path d="M146.274 7.80066H138.686V2.68281H146.662V1.29492H137.177V16.4316H146.791L147.007 15.0654H138.686V9.16686H146.274V7.80066Z" fill="white"/>
<path d="M149.547 16.4316H155.131C157.869 16.4316 160.067 15.0003 160.067 12.0511C160.067 9.73069 158.364 8.66809 157.308 8.36448C158.515 7.99583 159.55 6.82479 159.55 5.04656C159.55 2.89967 158.041 1.29492 155.023 1.29492H149.547V16.4316ZM151.056 7.71391V2.63944H155.023C156.985 2.63944 157.976 3.74541 157.976 5.15499C157.976 6.80311 157.049 7.71391 154.635 7.71391H151.056ZM151.056 9.05843H154.527C157.351 9.05843 158.494 10.2728 158.494 12.0728C158.494 14.1546 156.985 15.1088 155.045 15.1088H151.056V9.05843Z" fill="white"/>
<path d="M117.102 29.3759C117.281 30.6631 118.164 31.9373 120.403 31.9373C122.514 31.9373 123.525 30.7918 123.525 29.4145C123.525 28.3076 123.115 27.3036 120.595 26.6729C118.982 26.2739 118.432 25.9135 118.432 24.9867C118.432 24.0471 119.098 23.4936 120.288 23.4936C121.644 23.4936 122.22 24.1758 122.399 25.0639H123.333C123.218 23.9312 122.373 22.7084 120.326 22.7084C118.381 22.7084 117.473 23.8154 117.473 25.0639C117.473 26.3382 118.253 27.0075 120.236 27.4967C122.117 27.96 122.565 28.5393 122.565 29.5046C122.565 30.4185 121.977 31.1651 120.441 31.1651C119.059 31.1651 118.292 30.5215 118.036 29.3759H117.102Z" fill="white"/>
<path d="M126.937 31.8215H127.859V23.6609H130.814V22.8372H123.982V23.6609H126.937V31.8215Z" fill="white"/>
<path d="M131.948 22.8372V28.3204C131.948 30.9977 133.509 31.9373 135.313 31.9373C137.194 31.9373 138.729 31.075 138.729 28.2175V22.8372H137.808V28.269C137.808 30.5086 136.772 31.1393 135.339 31.1393C134.136 31.1393 132.882 30.5343 132.882 28.269V22.8372H131.948Z" fill="white"/>
<path d="M140.89 31.8215H143.922C146.469 31.8215 148.119 29.9294 148.119 27.2521C148.119 24.5619 146.43 22.8372 143.948 22.8372H140.89V31.8215ZM141.798 23.6481H143.833C146.174 23.6481 147.16 25.3986 147.16 27.2778C147.16 29.4145 146.072 31.0235 143.833 31.0235H141.798V23.6481Z" fill="white"/>
<path d="M149.781 22.8372V31.8215H150.689V22.8372H149.781Z" fill="white"/>
<path d="M156.482 22.7084C153.807 22.7084 152.349 24.7808 152.349 27.3293C152.349 29.9165 153.82 31.9502 156.379 31.9502C159.169 31.9502 160.499 29.7363 160.499 27.2778C160.499 24.6392 158.964 22.7084 156.482 22.7084ZM156.443 23.5193C158.516 23.5193 159.54 25.2699 159.54 27.2907C159.54 29.3244 158.631 31.1522 156.431 31.1522C154.383 31.1522 153.321 29.3116 153.321 27.2907C153.321 25.3214 154.268 23.5193 156.443 23.5193Z" fill="white"/>
</g>
<path d="M0.569336 31.4004H30.7493V61.9004L0.569336 31.4004Z" fill="white"/>
<path d="M30.75 31.4004H60.8604L30.75 61.9004V31.4004Z" fill="white" fill-opacity="0.3"/>
<path d="M0.5 0.900391H15.59V16.2903L0.5 0.900391Z" fill="white"/>
<path d="M0.569336 0.900391L30.7493 31.4004H0.569336V0.900391Z" fill="white" fill-opacity="0.3"/>
</svg>
