<svg width="30" height="31" viewBox="0 0 30 31" fill="none" xmlns="http://www.w3.org/2000/svg">
<path d="M12.6638 7.64502C12.1038 7.64502 11.6505 8.10239 11.6505 8.66649V12.7524H7.59729C7.27173 12.7524 6.98179 12.9075 6.79674 13.1479C6.66315 13.321 6.58398 13.5379 6.58398 13.7738C6.58398 14.3379 7.0372 14.7953 7.59729 14.7953H11.6505V18.8812C11.6505 19.4453 12.1038 19.9027 12.6638 19.9027C13.2239 19.9027 13.6772 19.4453 13.6772 18.8812V14.7953H17.7304C18.2905 14.7953 18.7437 14.3379 18.7437 13.7738C18.7437 13.2097 18.2905 12.7524 17.7304 12.7524H13.6772V8.66649C13.6772 8.10239 13.2239 7.64502 12.6638 7.64502Z" fill="white"/>
<path fill-rule="evenodd" clip-rule="evenodd" d="M22.1199 22.2016C24.2173 19.9232 25.4998 16.8718 25.4998 13.5184C25.4998 6.4666 19.8288 0.75 12.8334 0.75C5.83792 0.75 0.166992 6.4666 0.166992 13.5184C0.166992 20.5702 5.83792 26.2868 12.8334 26.2868C15.7721 26.2868 18.4772 25.2779 20.6262 23.585L27.4372 30.4508C27.8329 30.8497 28.4745 30.8497 28.8702 30.4508C29.2659 30.0519 29.2659 29.4051 28.8702 29.0062L22.1199 22.2016ZM23.4731 13.5184C23.4731 19.4419 18.7095 24.2438 12.8334 24.2438C6.95719 24.2438 2.19361 19.4419 2.19361 13.5184C2.19361 7.59489 6.95719 2.79294 12.8334 2.79294C18.7095 2.79294 23.4731 7.59489 23.4731 13.5184Z" fill="white"/>
</svg>
