<svg width="76" height="56" viewBox="0 0 76 56" fill="none" xmlns="http://www.w3.org/2000/svg">
<path fill-rule="evenodd" clip-rule="evenodd" d="M71.0069 22.5712L75.7799 27.3442C76.0728 27.6371 76.0728 28.112 75.7799 28.4049L71.0069 33.1778C70.714 33.4707 70.2391 33.4707 69.9462 33.1778C69.6533 32.8849 69.6533 32.4101 69.9462 32.1172L74.1889 27.8745L69.9462 23.6319C69.6533 23.339 69.6533 22.8641 69.9462 22.5712C70.2391 22.2783 70.714 22.2783 71.0069 22.5712Z" fill="white"/>
<path d="M52.2056 14.8125C47.5563 6.21508 38.4602 0.375 28 0.375C12.8122 0.375 0.5 12.6872 0.5 27.875C0.5 43.0628 12.8122 55.375 28 55.375C38.4602 55.375 47.5563 49.5349 52.2056 40.9375H50.4854C45.981 48.6744 37.5978 53.875 28 53.875C13.6406 53.875 2 42.2344 2 27.875C2 13.5156 13.6406 1.875 28 1.875C37.5978 1.875 45.981 7.07556 50.4854 14.8125H52.2056Z" fill="white"/>
<rect x="28.5" y="27.375" width="39.9844" height="1" fill="white"/>
</svg>
