<svg width="15" height="12" viewBox="0 0 15 12" fill="none" xmlns="http://www.w3.org/2000/svg">
<path d="M14.8434 1.42062C14.2942 1.66154 13.709 1.82123 13.0988 1.89877C13.7265 1.524 14.2056 0.935077 14.4308 0.225231C13.8456 0.574154 13.1994 0.820615 12.5108 0.958154C11.9551 0.366462 11.1631 0 10.2991 0C8.62283 0 7.2733 1.36062 7.2733 3.02862C7.2733 3.26862 7.2936 3.49938 7.34345 3.71908C4.82622 3.59631 2.59883 2.38985 1.10253 0.552C0.841296 1.00523 0.688065 1.524 0.688065 2.08246C0.688065 3.13108 1.22806 4.06062 2.03299 4.59877C1.54653 4.58954 1.0693 4.44831 0.664988 4.22585C0.664988 4.23508 0.664988 4.24708 0.664988 4.25908C0.664988 5.73046 1.71453 6.95262 3.09083 7.23415C2.84437 7.30154 2.57576 7.33385 2.29699 7.33385C2.10314 7.33385 1.90745 7.32277 1.72376 7.28215C2.11606 8.48123 3.2293 9.36277 4.55299 9.39138C3.52283 10.1972 2.21483 10.6828 0.798834 10.6828C0.550526 10.6828 0.312373 10.6717 0.0742188 10.6412C1.41545 11.5062 3.00499 12 4.71914 12C10.2908 12 13.337 7.38462 13.337 3.384C13.337 3.25015 13.3324 3.12092 13.3259 2.99262C13.9268 2.56615 14.4318 2.03354 14.8434 1.42062Z" fill="black"/>
</svg>
