<svg width="61" height="60" viewBox="0 0 61 60" fill="none" xmlns="http://www.w3.org/2000/svg">
<path d="M41.0378 29.8863C39.5822 29.8863 38.4449 31.069 38.4449 32.4792V38.5292C38.4449 39.9848 39.6276 41.1221 41.0378 41.1221C42.4935 41.1221 43.6308 39.9394 43.6308 38.5292V32.4792C43.6308 31.0235 42.448 29.8863 41.0378 29.8863Z" fill="#43B3DD"/>
<path d="M30.439 41.1221C31.871 41.1221 33.0319 39.9612 33.0319 38.5292C33.0319 37.0972 31.871 35.9363 30.439 35.9363C29.007 35.9363 27.8461 37.0972 27.8461 38.5292C27.8461 39.9612 29.007 41.1221 30.439 41.1221Z" fill="#43B3DD"/>
<path d="M36.6255 19.8332L38.5815 18.8779L36.6255 17.8772L30.9394 15.0569L30.439 14.7839L29.9386 15.0569L24.2525 17.8772L22.2964 18.8779L24.2525 19.8332L29.9386 22.699L30.439 22.9265L30.9394 22.699L36.6255 19.8332Z" fill="#43B3DD"/>
<path d="M30.439 0C14.1085 0 0.871155 13.2373 0.871155 29.5678C0.871155 45.8984 14.1085 59.1357 30.439 59.1357C46.7696 59.1357 60.0069 45.8984 60.0069 29.5678C60.0069 13.2373 46.7696 0 30.439 0ZM13.3806 12.8279C13.3806 12.6005 13.5626 12.4185 13.79 12.4185H17.2472V13.2828H15.2912H14.2449V14.3745V16.3305H13.3806V12.8279ZM17.2472 46.4897H13.79C13.5626 46.4897 13.3806 46.3078 13.3806 46.0803V42.6232H14.2449V44.5792V45.6709H15.3367H17.2927V46.4897H17.2472ZM19.8401 41.9863C18.3389 41.9863 17.0197 40.9856 16.5649 39.6209H17.4746C17.884 40.5307 18.7938 41.1221 19.8401 41.1221C21.2957 41.1221 22.4329 39.9393 22.4329 38.5292C22.4329 37.0735 21.2502 35.9363 19.8401 35.9363C19.6126 35.9363 19.4307 35.7543 19.4307 35.5269C19.4307 35.2995 19.6126 35.1175 19.8401 35.1175C21.2957 35.1175 22.4329 33.9348 22.4329 32.5246C22.4329 31.1145 21.2502 29.9318 19.8401 29.9318C18.7938 29.9318 17.884 30.5686 17.4746 31.4329H16.5649C17.0197 30.0682 18.3389 29.0675 19.8401 29.0675C20.7044 29.0675 21.5232 29.3859 22.16 29.9318C23.5702 31.2055 23.7066 33.3889 22.4329 34.7991L21.7961 35.5269L22.4329 36.2547C22.9788 36.8916 23.2972 37.7104 23.2972 38.5747C23.2972 40.4397 21.7506 41.9863 19.8401 41.9863ZM31.5762 29.2039C32.577 29.5678 33.3503 30.3866 33.7142 31.3419H32.8044C32.395 30.4321 31.4853 29.8408 30.439 29.8408C28.9834 29.8408 27.8461 31.0235 27.8461 32.4337V34.2077V35.7543L29.3018 35.254C29.6657 35.1175 30.0751 35.072 30.4845 35.072C32.395 35.072 33.9416 36.6186 33.9416 38.5292C33.9416 40.4397 32.395 41.9863 30.4845 41.9863C28.574 41.9863 27.0273 40.4397 27.0273 38.4837V32.4791C27.0273 31.0235 27.9371 29.7043 29.3473 29.2494L30.0751 28.9765V28.2032V24.3366V23.6543L29.4837 23.3359L23.3427 20.3336L21.7506 19.5603V21.3343V25.3374H20.8863V18.8779C20.8863 18.696 20.9773 18.5595 21.1138 18.514L30.1661 13.9651C30.2116 13.9196 30.3025 13.9196 30.348 13.9196C30.3935 13.9196 30.4845 13.9196 30.53 13.9651L39.5823 18.514C39.7188 18.605 39.8097 18.7415 39.8097 18.9234V25.3829H38.9454V21.3798V19.5603L37.3533 20.3336L31.3033 23.3359L30.7119 23.6543V24.3366V28.2032V28.9765L31.5762 29.2039ZM41.0379 41.9863C39.1274 41.9863 37.5808 40.4397 37.5808 38.5292V32.4791C37.5808 30.5686 39.1274 29.022 41.0379 29.022C42.9485 29.022 44.4951 30.5686 44.4951 32.4791V38.5292C44.4951 40.4397 42.9485 41.9863 41.0379 41.9863ZM47.4974 46.0803C47.4974 46.3078 47.3154 46.4897 47.088 46.4897H43.6308V45.6255H45.5868H46.6786V44.5792V42.6232H47.5429V46.0803H47.4974ZM47.4974 16.2396H46.6331V14.2835V13.1918H45.5413H43.5853V12.3275H47.0425C47.2699 12.3275 47.4519 12.5095 47.4519 12.7369V16.2396H47.4974Z" fill="#43B3DD"/>
</svg>
