<?xml version="1.0" encoding="utf-8"?>
<!-- Generator: Adobe Illustrator 23.0.1, SVG Export Plug-In . SVG Version: 6.00 Build 0)  -->
<svg version="1.1" id="Слой_1" xmlns="http://www.w3.org/2000/svg" xmlns:xlink="http://www.w3.org/1999/xlink" x="0px" y="0px"
	 viewBox="0 0 15 8.5" style="enable-background:new 0 0 15 8.5;" xml:space="preserve">
<style type="text/css">
	.st0{fill:#FEFEFE;}
</style>
<g>
	<path class="st0" d="M0,7.6C0,7.2,0.1,7,0.3,6.8c2.2-2.2,4.3-4.3,6.5-6.5c0.4-0.4,0.9-0.4,1.3-0.1c0.1,0,0.1,0.1,0.1,0.1
		c2.2,2.2,4.3,4.3,6.5,6.5c0.3,0.3,0.4,0.7,0.3,1c-0.1,0.4-0.4,0.6-0.8,0.7c-0.3,0-0.6,0-0.9-0.3c-0.9-0.9-1.7-1.7-2.6-2.6
		c-1-1-2.1-2.1-3.1-3.1c-0.1-0.1-0.1-0.1-0.1,0C5.5,4.4,3.6,6.3,1.8,8.2c-0.3,0.3-0.6,0.4-1,0.3C0.3,8.4,0,8,0,7.6z"/>
</g>
</svg>
