<svg width="84" height="84" viewBox="0 0 84 84" fill="none" xmlns="http://www.w3.org/2000/svg">
<g clip-path="url(#clip0)">
<path d="M74.0339 29.8985C73.2465 29.8985 72.6101 30.5349 72.6101 31.3222V76.8815H2.84746V7.11882H72.6101V8.54255C72.6101 9.32987 73.2465 9.96628 74.0339 9.96628C74.8212 9.96628 75.4576 9.32987 75.4576 8.54255V4.27136H0V79.729H75.4576V31.3222C75.4576 30.5349 74.8212 29.8985 74.0339 29.8985Z" fill="white"/>
<path d="M83.5828 10.3834C83.0261 9.82676 82.1263 9.82676 81.5696 10.3834L38.4406 53.5124L19.8325 34.9043C19.2758 34.3476 18.376 34.3476 17.8194 34.9043C17.2627 35.461 17.2627 36.3608 17.8194 36.9175L37.4341 56.5322C37.7117 56.8098 38.0762 56.9493 38.4406 56.9493C38.8051 56.9493 39.1696 56.8098 39.4472 56.5322L83.5828 12.3966C84.1394 11.8399 84.1394 10.9401 83.5828 10.3834Z" fill="white"/>
</g>
<defs>
<clipPath id="clip0">
<rect width="84" height="84" fill="white" transform="translate(0 0.000183105)"/>
</clipPath>
</defs>
</svg>
