<?xml version="1.0" encoding="utf-8"?>
<!-- Generator: Adobe Illustrator 23.0.1, SVG Export Plug-In . SVG Version: 6.00 Build 0)  -->
<svg version="1.1" id="Слой_1" xmlns="http://www.w3.org/2000/svg" xmlns:xlink="http://www.w3.org/1999/xlink" x="0px" y="0px"
	 viewBox="0 0 16 16" style="enable-background:new 0 0 16 16;" xml:space="preserve">
<style type="text/css">
	.st0{fill:#019DD8;}
</style>
<g>
	<g>
		<path class="st0" d="M14.2,5.7h-0.4V3.9c0,0,0,0,0,0c0-0.1,0-0.1-0.1-0.2l-3.1-3.5c0,0,0,0,0,0c0,0,0,0-0.1-0.1c0,0,0,0,0,0
			c0,0,0,0-0.1,0c0,0,0,0,0,0c0,0,0,0-0.1,0H2.8C2.5,0,2.2,0.3,2.2,0.6v5.1H1.8c-0.5,0-0.9,0.4-0.9,0.9v4.7c0,0.5,0.4,0.9,0.9,0.9
			h0.4v3.2c0,0.3,0.3,0.6,0.6,0.6h10.4c0.3,0,0.6-0.3,0.6-0.6v-3.2h0.4c0.5,0,0.9-0.4,0.9-0.9V6.6C15.1,6.1,14.7,5.7,14.2,5.7z
			 M2.8,0.6h7.3v3.2c0,0.2,0.1,0.3,0.3,0.3h2.8v1.6H2.8V0.6z M10.4,8.7c0,1.4-0.9,2.3-2.1,2.3c-1.3,0-2-1-2-2.2
			c0-1.3,0.8-2.3,2.1-2.3C9.6,6.5,10.4,7.5,10.4,8.7z M1.9,10.9V6.6c0.4-0.1,0.8-0.1,1.3-0.1C4,6.5,4.6,6.7,5,7
			c0.5,0.3,0.7,0.9,0.7,1.6c0,0.8-0.3,1.4-0.7,1.8C4.5,10.8,3.8,11,3,11C2.5,11,2.1,10.9,1.9,10.9z M13.2,15.2H2.8v-3h10.4V15.2z
			 M13.2,10.2c0.3,0,0.6-0.1,0.8-0.1l0.1,0.8C14,10.9,13.6,11,13.1,11c-1.5,0-2.3-0.9-2.3-2.2c0-1.5,1.1-2.3,2.4-2.3
			c0.5,0,0.9,0.1,1.1,0.2L14,7.5c-0.2-0.1-0.5-0.2-0.8-0.2c-0.8,0-1.4,0.5-1.4,1.4C11.8,9.6,12.3,10.2,13.2,10.2z"/>
		<path class="st0" d="M4.7,8.7c0-0.9-0.5-1.4-1.4-1.4c-0.2,0-0.4,0-0.4,0v2.8c0.1,0,0.2,0,0.3,0C4.1,10.2,4.7,9.7,4.7,8.7z"/>
		<path class="st0" d="M7.2,8.8c0,0.9,0.4,1.5,1.1,1.5c0.7,0,1-0.6,1-1.5c0-0.8-0.4-1.5-1.1-1.5C7.6,7.3,7.2,7.9,7.2,8.8z"/>
	</g>
</g>
</svg>
