<?xml version="1.0" encoding="utf-8"?>
<!-- Generator: Adobe Illustrator 23.0.1, SVG Export Plug-In . SVG Version: 6.00 Build 0)  -->
<svg version="1.1" id="Capa_1" xmlns="http://www.w3.org/2000/svg" xmlns:xlink="http://www.w3.org/1999/xlink" x="0px" y="0px"
	 viewBox="0 0 293 293" style="enable-background:new 0 0 293 293;" xml:space="preserve">
<style type="text/css">
	.st0{opacity:0.2;fill:#F26060;}
	.st1{fill:#F26060;}
</style>
<circle class="st0" cx="146.5" cy="146.5" r="145"/>
<path class="st1" d="M159.5,146.5l49.3-49.3c3.6-3.6,3.6-9.5,0-13l0,0c-3.6-3.6-9.5-3.6-13,0l-49.3,49.3L97.2,84.2
	c-3.6-3.6-9.5-3.6-13,0c-3.6,3.6-3.6,9.5,0,13l49.3,49.3l-49.3,49.3c-3.6,3.6-3.6,9.5,0,13l0,0c3.6,3.6,9.5,3.6,13,0l49.3-49.3
	l49.3,49.3c3.6,3.6,9.5,3.6,13,0s3.6-9.5,0-13L159.5,146.5z"/>
</svg>
