<?xml version="1.0" encoding="utf-8"?>
<!-- Generator: Adobe Illustrator 23.0.1, SVG Export Plug-In . SVG Version: 6.00 Build 0)  -->
<svg version="1.1" id="Слой_1" xmlns="http://www.w3.org/2000/svg" xmlns:xlink="http://www.w3.org/1999/xlink" x="0px" y="0px"
	 viewBox="0 0 16 16" style="enable-background:new 0 0 16 16;" xml:space="preserve">
<style type="text/css">
	.st0{fill:#FF6666;}
	.st1{fill:#FFFFFF;}
</style>
<g>
	<g>
		<path class="st0" d="M14.2,5.7h-0.4V3.9l0,0c0-0.1,0-0.1-0.1-0.2l-3.1-3.5l0,0c0,0,0,0-0.1-0.1l0,0c0,0,0,0-0.1,0l0,0
			c0,0,0,0-0.1,0H2.8C2.5,0,2.2,0.3,2.2,0.6v5.1H1.8c-0.5,0-0.9,0.4-0.9,0.9v4.7c0,0.5,0.4,0.9,0.9,0.9h0.4v3.2
			c0,0.3,0.3,0.6,0.6,0.6h10.4c0.3,0,0.6-0.3,0.6-0.6v-3.2h0.4c0.5,0,0.9-0.4,0.9-0.9V6.6C15.1,6.1,14.7,5.7,14.2,5.7z M2.8,0.6h7.3
			v3.2c0,0.2,0.1,0.3,0.3,0.3h2.8v1.6H2.8V0.6z M13.2,15.2H2.8v-3h10.4V15.2z"/>
	</g>
</g>
<g>
	<path class="st1" d="M5.4,9.7V8.9h1.9v1.7c-0.2,0.2-0.4,0.3-0.8,0.5c-0.3,0.1-0.7,0.2-1,0.2c-0.4,0-0.8-0.1-1.2-0.3
		s-0.6-0.5-0.8-0.8S3.2,9.5,3.2,9.1c0-0.4,0.1-0.8,0.3-1.2C3.7,7.5,4,7.3,4.3,7.1c0.3-0.1,0.6-0.2,1-0.2c0.5,0,0.9,0.1,1.2,0.3
		s0.5,0.5,0.6,0.9L6.3,8.3C6.3,8.1,6.2,7.9,6,7.8S5.6,7.6,5.4,7.6C5,7.6,4.7,7.7,4.5,8C4.2,8.2,4.1,8.6,4.1,9c0,0.5,0.1,0.9,0.3,1.1
		c0.2,0.3,0.5,0.4,0.9,0.4c0.2,0,0.4,0,0.5-0.1c0.2-0.1,0.3-0.2,0.5-0.3V9.7H5.4z"/>
	<path class="st1" d="M8,11.2V6.9h0.9v4.3H8z"/>
	<path class="st1" d="M9.7,11.2V6.9h2.9v0.7h-2.1v1h1.8v0.7h-1.8v1.8H9.7z"/>
</g>
</svg>
