<?xml version="1.0" encoding="utf-8"?>
<!-- Generator: Adobe Illustrator 23.0.1, SVG Export Plug-In . SVG Version: 6.00 Build 0)  -->
<svg version="1.1" id="Слой_1" xmlns="http://www.w3.org/2000/svg" xmlns:xlink="http://www.w3.org/1999/xlink" x="0px" y="0px"
	 viewBox="0 0 20 20" style="enable-background:new 0 0 20 20;" xml:space="preserve">
<style type="text/css">
	.st0{fill:#C4C4C4;}
</style>
<path class="st0" d="M13.9,11.9c0.8-1.2,1.3-2.7,1.3-4.3c0-4.2-3.4-7.6-7.6-7.6C3.4,0,0,3.4,0,7.6c0,4.2,3.4,7.6,7.6,7.6
	c1.6,0,3.1-0.5,4.3-1.3L18,20l2-2L13.9,11.9z M7.6,13.1c-3,0-5.5-2.5-5.5-5.5c0-3,2.4-5.5,5.5-5.5c3,0,5.5,2.5,5.5,5.5
	S10.6,13.1,7.6,13.1z"/>
</svg>
