<svg width="28" height="16" viewBox="0 0 28 16" fill="none" xmlns="http://www.w3.org/2000/svg">
<path d="M4.00003 2.00002C4.00003 0.895439 3.1046 0 2.00002 0V0C0.895438 0 0 0.895439 0 2.00002V8.00007C0 12.4184 3.58175 16.0001 8.00007 16.0001C12.4184 16.0001 16.0001 12.4184 16.0001 8.00007V8.00007C16.0001 7.07959 15.2539 6.33339 14.3335 6.33339H14.0125C13.1997 6.33339 12.4688 6.82822 12.167 7.58285L12.1477 7.63097C12.0502 7.8748 12.0064 8.13572 11.9807 8.39706C11.7814 10.4199 10.0753 12.0001 8.00007 12.0001C5.79091 12.0001 4.00003 10.2092 4.00003 8.00007V2.00002Z" fill="white"/>
<path d="M24 16H28V7.99993C28 3.58161 24.4182 -0.000139713 19.9999 -0.000139713C15.5816 -0.000139713 11.9999 3.58161 11.9999 7.99993V14C11.9999 15.1046 12.8953 16 13.9999 16V16C15.1045 16 15.9999 15.1046 15.9999 14L15.9999 7.99993C15.9999 5.79077 17.7908 3.9999 19.9999 3.9999C22.2091 3.9999 24 5.79077 24 7.99993V16Z" fill="#525F71"/>
<path d="M20 16C20 13.7909 21.7909 12 24 12H28.0001V16H20V16Z" fill="#23C2C4"/>
<rect x="18" y="5.99805" width="4.00003" height="4.00003" rx="2.00002" fill="#23A9CC"/>
<path d="M24 12C24 9.79087 25.7909 8 28 8V8V16.0001H24V12Z" fill="#23C2C4"/>
<rect width="4.00003" height="4.00003" rx="2.00002" fill="#23A9CC"/>
</svg>
