<?xml version="1.0" encoding="utf-8"?>
<!-- Generator: Adobe Illustrator 23.0.1, SVG Export Plug-In . SVG Version: 6.00 Build 0)  -->
<svg version="1.1" id="Слой_1" xmlns="http://www.w3.org/2000/svg" xmlns:xlink="http://www.w3.org/1999/xlink" x="0px" y="0px"
	 viewBox="0 0 16 16" style="enable-background:new 0 0 16 16;" xml:space="preserve">
<style type="text/css">
	.st0{fill:#00692E;}
	.st1{fill:#FFFFFF;}
</style>
<g>
	<g>
		<path class="st0" d="M2.2,5.7H1.8c-0.5,0-0.9,0.4-0.9,0.9v4.7c0,0.5,0.4,0.9,0.9,0.9h0.4v3.2c0,0.3,0.3,0.6,0.6,0.6h10.4
			c0.3,0,0.6-0.3,0.6-0.6v-3.2h0.4c0.5,0,0.9-0.4,0.9-0.9V6.6c0-0.5-0.4-0.9-0.9-0.9h-0.4V3.9c0,0,0,0,0,0c0-0.1,0-0.1-0.1-0.2
			l-3.1-3.5c0,0,0,0,0,0c0,0,0,0-0.1-0.1c0,0,0,0,0,0c0,0,0,0-0.1,0c0,0,0,0,0,0c0,0,0,0-0.1,0H2.8C2.5,0,2.2,0.3,2.2,0.6 M2.8,0.6
			h7.3v3.2c0,0.2,0.1,0.3,0.3,0.3h2.8v1.6H2.8 M13.2,15.2H2.8v-3h10.4V15.2z"/>
	</g>
</g>
<g>
	<path class="st1" d="M2.8,11.5v-5h1v5H2.8z"/>
	<path class="st1" d="M4.8,11.5v-5h3.7v0.8H5.8v1.1h2.5v0.8H5.8v1.4h2.8v0.8H4.8z"/>
	<path class="st1" d="M9.2,9.9l1-0.1c0.1,0.3,0.2,0.6,0.4,0.7s0.4,0.2,0.7,0.2c0.3,0,0.6-0.1,0.7-0.2c0.2-0.1,0.2-0.3,0.2-0.5
		c0-0.1,0-0.2-0.1-0.3c-0.1-0.1-0.2-0.2-0.4-0.2c-0.1,0-0.4-0.1-0.8-0.2C10.5,9.2,10.1,9,9.9,8.8c-0.3-0.3-0.5-0.6-0.5-1
		c0-0.3,0.1-0.5,0.2-0.7c0.1-0.2,0.4-0.4,0.6-0.5c0.3-0.1,0.6-0.2,1-0.2c0.6,0,1.1,0.1,1.4,0.4c0.3,0.3,0.5,0.6,0.5,1.1l-1,0
		c0-0.3-0.1-0.4-0.3-0.6c-0.1-0.1-0.4-0.2-0.6-0.2c-0.3,0-0.5,0.1-0.7,0.2c-0.1,0.1-0.2,0.2-0.2,0.3c0,0.1,0.1,0.2,0.2,0.3
		c0.1,0.1,0.4,0.2,0.9,0.3c0.5,0.1,0.9,0.2,1.1,0.4C12.8,8.9,13,9,13.1,9.2c0.1,0.2,0.2,0.5,0.2,0.8c0,0.3-0.1,0.6-0.2,0.8
		c-0.2,0.3-0.4,0.4-0.7,0.6c-0.3,0.1-0.7,0.2-1.1,0.2c-0.6,0-1.1-0.1-1.5-0.4S9.3,10.4,9.2,9.9z"/>
</g>
</svg>
