<?xml version="1.0" encoding="utf-8"?>
<!-- Generator: Adobe Illustrator 23.0.1, SVG Export Plug-In . SVG Version: 6.00 Build 0)  -->
<svg version="1.1" id="Слой_1" xmlns="http://www.w3.org/2000/svg" xmlns:xlink="http://www.w3.org/1999/xlink" x="0px" y="0px"
	 viewBox="0 0 16 16" style="enable-background:new 0 0 16 16;" xml:space="preserve">
<style type="text/css">
	.st0{fill:#FFCC00;}
	.st1{fill:#FFFFFF;}
</style>
<g>
	<g>
		<path class="st0" d="M14.2,5.7h-0.4V3.9l0,0c0-0.1,0-0.1-0.1-0.2l-3.1-3.5l0,0c0,0,0,0-0.1-0.1l0,0c0,0,0,0-0.1,0l0,0
			c0,0,0,0-0.1,0H2.8C2.5,0,2.2,0.3,2.2,0.6v5.1H1.8c-0.5,0-0.9,0.4-0.9,0.9v4.7c0,0.5,0.4,0.9,0.9,0.9h0.4v3.2
			c0,0.3,0.3,0.6,0.6,0.6h10.4c0.3,0,0.6-0.3,0.6-0.6v-3.2h0.4c0.5,0,0.9-0.4,0.9-0.9V6.6C15.1,6.1,14.7,5.7,14.2,5.7z M2.8,0.6h7.3
			v3.2c0,0.2,0.1,0.3,0.3,0.3h2.8v1.6H2.8V0.6z M13.2,15.2H2.8v-3h10.4V15.2z"/>
	</g>
</g>
<g>
	<path class="st1" d="M4.1,6.7H5v2.7c0,0.4,0,0.6-0.1,0.8c-0.1,0.3-0.2,0.5-0.5,0.6c-0.2,0.2-0.5,0.2-0.9,0.2c-0.4,0-0.8-0.1-1-0.4
		c-0.2-0.2-0.3-0.6-0.3-1l0.8-0.1c0,0.2,0,0.4,0.1,0.5c0.1,0.2,0.2,0.2,0.4,0.2c0.2,0,0.3-0.1,0.4-0.2C4.1,10,4.1,9.8,4.1,9.5V6.7z"
		/>
	<path class="st1" d="M5.9,11V6.7h1.4c0.5,0,0.9,0,1,0.1C8.6,6.8,8.8,7,9,7.2C9.1,7.4,9.2,7.7,9.2,8c0,0.3,0,0.5-0.1,0.7
		S8.9,9,8.7,9.1C8.6,9.2,8.4,9.3,8.3,9.3c-0.2,0-0.5,0.1-0.9,0.1H6.8V11H5.9z M6.8,7.4v1.2h0.5c0.3,0,0.6,0,0.7-0.1s0.2-0.1,0.3-0.2
		S8.3,8.2,8.3,8c0-0.2,0-0.3-0.1-0.4S8,7.5,7.8,7.5c-0.1,0-0.3,0-0.6,0H6.8z"/>
	<path class="st1" d="M11.9,9.4V8.7h1.9v1.7c-0.2,0.2-0.4,0.3-0.8,0.5c-0.3,0.1-0.7,0.2-1,0.2c-0.4,0-0.8-0.1-1.2-0.3
		S10.2,10.3,10,10S9.8,9.2,9.8,8.8c0-0.4,0.1-0.8,0.3-1.2s0.5-0.6,0.8-0.8c0.3-0.1,0.6-0.2,1-0.2c0.5,0,0.9,0.1,1.3,0.3
		c0.3,0.2,0.5,0.5,0.6,0.9L12.9,8c-0.1-0.2-0.2-0.4-0.3-0.5c-0.2-0.1-0.4-0.2-0.6-0.2c-0.4,0-0.7,0.1-0.9,0.4s-0.3,0.6-0.3,1.1
		c0,0.5,0.1,0.9,0.3,1.1c0.2,0.3,0.5,0.4,0.9,0.4c0.2,0,0.4,0,0.5-0.1c0.2-0.1,0.3-0.2,0.5-0.3V9.4H11.9z"/>
</g>
</svg>
