<svg width="181" height="60" viewBox="0 0 181 60" fill="none" xmlns="http://www.w3.org/2000/svg">
<path d="M103.1 29.6534C103.751 28.8578 104.076 27.8452 104.076 26.7242C104.076 23.795 101.979 21.8422 98.9047 21.8422H92.4678V25.0969H98.9409C100.749 25.0969 100.749 26.3264 100.749 26.7242C100.749 28.0622 99.7726 28.3515 98.9409 28.3515H92.4678V38.9833H99.3387C102.666 38.9833 104.908 36.8497 104.908 33.6674C104.908 32.0039 104.257 30.5574 103.1 29.6534ZM99.3748 35.6925H95.7947V31.6061H99.3748C100.785 31.6061 101.581 32.3656 101.581 33.6312C101.581 34.9331 100.785 35.6925 99.3748 35.6925Z" fill="white"/>
<path d="M140.6 29.6895C141.324 28.8216 141.757 27.7367 141.757 26.5434C141.757 24.229 139.986 21.6976 136.116 21.6976H130.8V27.0858H134.055V24.9884H136.08C137.129 24.9884 138.431 25.2777 138.431 26.5795C138.431 27.6644 137.599 28.3153 136.152 28.3153H132.97V31.57H136.152C137.526 31.57 139.19 31.8954 139.19 33.4866C139.19 34.8608 138.033 35.7287 136.152 35.7287C134.633 35.7287 133.404 35.2586 132.861 34.463L132.283 33.6312L129.426 35.3309L130.041 36.2711C131.198 38.0069 133.476 39.0556 136.116 39.0556C139.805 39.0556 142.481 36.7412 142.481 33.5951C142.517 31.9678 141.866 30.6297 140.6 29.6895Z" fill="white"/>
<path d="M174.159 21.8422H167.831V25.0969H174.304C175.931 25.0969 176.908 26.0009 176.908 27.4836C176.908 29.0024 175.967 29.8703 174.304 29.8703H167.831V38.9472H171.085V33.125H174.123C177.739 33.125 180.198 30.8467 180.198 27.4836C180.235 24.1566 177.739 21.8422 174.159 21.8422Z" fill="white"/>
<path d="M109.645 38.9472H113.153L115.033 34.1014H111.526L109.645 38.9472Z" fill="white"/>
<path d="M117.42 21.8422L117.384 21.7337L117.348 21.8422H116.191L112.827 30.7021H116.299L117.384 27.8091L118.505 30.7021H116.299L115.033 34.1014H119.807L121.651 38.9472H125.159L118.65 21.8422H117.42Z" fill="white"/>
<path d="M146.567 38.9472H150.075L151.919 34.1014H148.411L146.567 38.9472Z" fill="white"/>
<path d="M154.342 21.8422L154.27 21.7337L154.234 21.8422H153.076L149.713 30.7021H153.185L154.306 27.8091L155.391 30.7021H153.185L151.919 34.1014H156.693L158.537 38.9472H162.045L155.535 21.8422H154.342Z" fill="white"/>
<path d="M77.0264 34.1014H73.7717V38.9472H77.0264V34.1014Z" fill="white"/>
<path d="M81.2936 30.3404L87.5135 21.8422H83.4633L78.3644 28.7493H77.0625V21.8422H73.7717V30.7021H77.2072V32.0039H78.4367L84.0419 38.9472H88.2006L81.2936 30.3404Z" fill="white"/>
<path d="M13.4917 52.7644L15.3618 53.8553L33.1949 43.5473C33.0167 42.6568 32.7051 41.6104 32.7051 41.6104L13.4917 52.7644Z" fill="white"/>
<path d="M25.6475 30.2783L25.4471 30.0557C24.6457 29.2319 23.8664 28.4082 23.8219 28.3636L0.111328 42.167L0.178118 45.039L2.76068 46.4193L27.2727 32.0371L28.898 33.9072C28.898 33.9072 26.8497 31.5251 26.3154 30.9685C26.0928 30.7458 25.8701 30.5009 25.6475 30.2783Z" fill="white"/>
<path d="M24.1781 58.9313L26.0482 60L27.5844 59.1095C28.2968 58.0408 29.0538 56.7273 29.833 55.5918L24.1781 58.9313Z" fill="white"/>
<path d="M19.9926 22.6642C19.7922 22.2189 19.5473 21.6846 19.4137 21.2616V21.2393C19.3915 21.1948 19.3915 21.1503 19.3692 21.1057C19.1688 20.4378 18.9017 19.2133 18.9017 19.2133L0.0667904 30.0556L0 35.1317L20.3933 23.5102C20.3933 23.5102 20.3265 23.3766 20.2152 23.154C20.1707 23.0204 20.0816 22.8423 19.9926 22.6642Z" fill="white"/>
<path d="M21.974 4.83114C22.1076 4.63077 22.2412 4.43039 22.3748 4.25229C23.3989 2.84969 24.8237 1.26898 25.9814 0.0444946L0.0667725 15.0055L0.111299 21.1948L19.3247 10.1298C19.3247 10.1298 19.3469 10.0853 19.3692 10.0185C20.0371 8.01481 20.9944 6.27826 21.974 4.83114Z" fill="white"/>
<path d="M52.0297 27.4731L31.9036 39.1169C31.9036 39.1169 31.9481 39.2504 32.0371 39.4508C32.0817 39.5844 32.1485 39.7402 32.2153 39.9184C32.282 40.0742 32.3266 40.23 32.3711 40.3636C32.3934 40.4081 32.3934 40.4304 32.3934 40.4749C32.4156 40.5195 32.4156 40.564 32.4379 40.6308C32.5269 40.987 32.705 41.5881 32.705 41.5881C32.705 41.5881 33.0167 42.6345 33.1948 43.525L52.0297 32.6382V27.4731Z" fill="white"/>
<path d="M52.0742 14.9833L25.6475 30.2783C25.8701 30.5232 26.0927 30.7458 26.2931 30.9684C26.8497 31.5473 28.8757 33.9072 28.8757 33.9072L52.0519 19.948V14.9833H52.0742Z" fill="white"/>
<path d="M52.0743 38.0482L32.5937 49.6475C32.5937 49.6475 32.3043 50.8275 31.7255 52.1188C31.7255 52.1188 31.7255 52.141 31.7032 52.141C31.4138 52.8089 31.1021 53.4323 30.7904 54.0111C30.7904 54.0111 30.7904 54.0334 30.7681 54.0334C30.7014 54.1447 30.6568 54.2338 30.59 54.3451C30.3229 54.8126 30.0557 55.2356 29.8331 55.5918C29.0539 56.705 28.2969 58.0408 27.5845 59.1095L52.0297 44.9944L52.0743 38.0482Z" fill="white"/>
<path d="M41.0315 8.66052L39.0723 7.52509L18.8794 19.1911C18.8794 19.1911 19.1466 20.4379 19.3469 21.0835L41.0315 8.66052Z" fill="white"/>
<path d="M27.8738 1.04638L26.0482 0L26.0037 0.0222635C24.846 1.22449 23.4211 2.82746 22.397 4.23006L27.8738 1.04638Z" fill="white"/>
</svg>
