<svg width="150" height="190" viewBox="0 0 150 190" fill="none" xmlns="http://www.w3.org/2000/svg">
<path d="M88.3604 88.9621C88.3604 88.9621 88.4801 89.3213 88.5998 89.6805C88.7196 90.0398 88.8393 90.399 88.959 90.7582C89.0788 91.1174 89.1985 91.4766 89.3183 91.8358C89.3183 91.9556 89.3183 91.9556 89.438 92.0753C89.438 92.195 89.5577 92.3148 89.5577 92.4345C89.7972 93.2727 90.1564 94.5898 90.1564 94.5898C90.1564 94.5898 90.8749 96.9846 91.2341 99.0201L134.1 74.2343V62.5L88.3604 88.9621Z" fill="url(#paint0_linear)"/>
<path d="M74.1201 68.8544C74.5991 69.3334 75.1978 69.9321 75.557 70.411C76.7544 71.7282 81.4241 77.1164 81.4241 77.1164L134.109 45.3858V34.1304L74.1201 68.8544Z" fill="url(#paint1_linear)"/>
<path d="M89.9152 112.913C89.9152 112.913 89.3165 115.547 87.9994 118.54V118.66C87.4007 120.217 86.6822 121.534 85.8441 122.971C85.7243 123.21 85.6046 123.45 85.4849 123.689C84.8862 124.767 84.2875 125.725 83.6888 126.443C81.8927 128.958 80.2164 132.071 78.54 134.466L134.099 102.376L134.218 86.5703L89.9152 112.913Z" fill="url(#paint2_linear)"/>
<path d="M58.79 43.702C58.79 43.702 59.3887 46.456 59.8677 48.0126L109.2 19.6346L104.77 17.1201L58.79 43.702Z" fill="url(#paint3_linear)"/>
<path d="M74.9523 0.119738C72.318 2.87372 69.0851 6.46586 66.8101 9.6988L79.2628 2.39476L75.072 0L74.9523 0.119738Z" fill="url(#paint4_linear)"/>
<path d="M46.4497 119.974L50.7603 122.489L91.3515 99.0202C90.8725 96.9846 90.1541 94.5898 90.1541 94.5898L46.4497 119.974Z" fill="#43B3DD"/>
<path d="M16.0396 95.9114L16.1593 102.377L22.0265 105.491L77.8244 72.802L81.5363 77.1126C81.4166 76.9928 76.8665 71.7243 75.6692 70.4072C75.1902 69.9283 74.7112 69.4493 74.2323 68.8506L73.7533 68.3717C71.9573 66.4558 70.1612 64.6598 70.0415 64.54L16.0396 95.9114Z" fill="#43B3DD"/>
<path d="M70.77 133.983L74.9609 136.378L78.4333 134.342C79.9899 131.948 81.7859 128.954 83.582 126.32L70.77 133.983Z" fill="#43B3DD"/>
<path d="M15.9195 68.3659L15.7998 79.8607L62.2582 53.3986C62.2582 53.3986 62.1385 53.0394 61.899 52.5604C61.7793 52.2012 61.5398 51.842 61.3003 51.4828C60.8214 50.5249 60.2227 49.2078 59.9832 48.2499C59.9832 48.2499 59.9832 48.2499 59.9832 48.1301C59.9832 48.0104 59.8634 47.8907 59.8634 47.8907C59.3845 46.3341 58.7858 43.5801 58.7858 43.5801L15.9195 68.3659Z" fill="#43B3DD"/>
<path d="M15.9497 34.1254L16.0694 48.1347L59.7739 22.9897C59.7739 22.9897 59.7739 22.87 59.8937 22.7502C61.4503 18.3199 63.6056 14.2488 65.8806 11.0159C66.1201 10.537 66.4793 10.058 66.7188 9.57905C68.9938 6.46586 72.3465 2.75398 74.861 0L15.9497 34.1254Z" fill="#43B3DD"/>
<path d="M41.3308 176.213C42.2483 175.092 42.707 173.665 42.707 172.085C42.707 167.956 39.7508 165.204 35.4185 165.204H26.3462V169.791H35.4695C38.0179 169.791 38.0179 171.524 38.0179 172.085C38.0179 173.971 36.6418 174.378 35.4695 174.378H26.3462V189.363H36.0301C40.7192 189.363 43.8793 186.356 43.8793 181.871C43.8793 179.526 42.9618 177.487 41.3308 176.213ZM36.0811 184.725H31.0353V178.966H36.0811C38.0689 178.966 39.1902 180.036 39.1902 181.82C39.1902 183.655 38.0689 184.725 36.0811 184.725Z" fill="#43B3DD"/>
<path d="M94.1886 176.264C95.208 175.041 95.8196 173.512 95.8196 171.83C95.8196 168.568 93.3222 165 87.8686 165H80.3763V172.594H84.9634V169.638H87.8176C89.2957 169.638 91.1305 170.046 91.1305 171.881C91.1305 173.41 89.9583 174.327 87.9195 174.327H83.4343V178.914H87.9195C89.8563 178.914 92.2009 179.373 92.2009 181.616C92.2009 183.552 90.5699 184.776 87.9195 184.776C85.7789 184.776 84.046 184.113 83.2814 182.992L82.4659 181.82L78.4395 184.215L79.3059 185.54C80.9369 187.987 84.1479 189.465 87.8686 189.465C93.0673 189.465 96.839 186.203 96.839 181.769C96.89 179.475 95.9725 177.589 94.1886 176.264Z" fill="#43B3DD"/>
<path d="M141.488 165.204H132.568V169.791H141.692C143.985 169.791 145.361 171.065 145.361 173.155C145.361 175.296 144.036 176.519 141.692 176.519H132.568V189.312H137.156V181.106H141.437C146.534 181.106 149.999 177.895 149.999 173.155C150.05 168.466 146.534 165.204 141.488 165.204Z" fill="#43B3DD"/>
<path d="M50.5669 189.312H55.5108L58.1612 182.482H53.2172L50.5669 189.312Z" fill="#43B3DD"/>
<path d="M61.514 165.204L61.463 165.051L61.412 165.204H59.7811L55.041 177.691H59.934L61.463 173.613L63.043 177.691H59.934L58.1501 182.482H64.8779L67.4773 189.312H72.4212L63.2469 165.204H61.514Z" fill="#43B3DD"/>
<path d="M102.595 189.312H107.539L110.139 182.482H105.195L102.595 189.312Z" fill="#43B3DD"/>
<path d="M113.564 165.204L113.463 165.051L113.412 165.204H111.781L107.041 177.691H111.933L113.513 173.613L115.043 177.691H111.933L110.15 182.482H116.877L119.477 189.312H124.421L115.246 165.204H113.564Z" fill="#43B3DD"/>
<path d="M4.58714 182.482H0V189.312H4.58714V182.482Z" fill="#43B3DD"/>
<path d="M10.6014 177.182L19.3679 165.204H13.6595L6.47296 174.939H4.63811V165.204H0V177.691H4.84198V179.526H6.57489L14.475 189.312H20.3363L10.6014 177.182Z" fill="#43B3DD"/>
<defs>
<linearGradient id="paint0_linear" x1="111.23" y1="62.5" x2="111.23" y2="99.0201" gradientUnits="userSpaceOnUse">
<stop offset="0.197917" stop-color="#43B3DD"/>
<stop offset="0.979167" stop-color="#004F9F"/>
</linearGradient>
<linearGradient id="paint1_linear" x1="104.115" y1="34.1304" x2="104.115" y2="77.1164" gradientUnits="userSpaceOnUse">
<stop offset="0.197917" stop-color="#43B3DD"/>
<stop offset="0.979167" stop-color="#004F9F"/>
</linearGradient>
<linearGradient id="paint2_linear" x1="106.379" y1="86.5703" x2="106.379" y2="134.466" gradientUnits="userSpaceOnUse">
<stop offset="0.197917" stop-color="#43B3DD"/>
<stop offset="0.979167" stop-color="#004F9F"/>
</linearGradient>
<linearGradient id="paint3_linear" x1="83.9949" y1="17.1201" x2="83.9949" y2="48.0126" gradientUnits="userSpaceOnUse">
<stop offset="0.197917" stop-color="#43B3DD"/>
<stop offset="0.979167" stop-color="#004F9F"/>
</linearGradient>
<linearGradient id="paint4_linear" x1="73.0364" y1="0" x2="73.0364" y2="9.6988" gradientUnits="userSpaceOnUse">
<stop offset="0.197917" stop-color="#43B3DD"/>
<stop offset="0.979167" stop-color="#004F9F"/>
</linearGradient>
</defs>
</svg>
