<?xml version="1.0" encoding="utf-8"?>
<!-- Generator: Adobe Illustrator 23.0.1, SVG Export Plug-In . SVG Version: 6.00 Build 0)  -->
<svg version="1.1" id="Слой_1" xmlns="http://www.w3.org/2000/svg" xmlns:xlink="http://www.w3.org/1999/xlink" x="0px" y="0px"
	 viewBox="0 0 181 60" style="enable-background:new 0 0 181 60;" xml:space="preserve">
<style type="text/css">
	.st0{fill:#009DD3;}
	.st1{fill:none;}
	.st2{fill:url(#SVGID_1_);}
	.st3{fill:url(#SVGID_2_);}
	.st4{fill:url(#SVGID_3_);}
	.st5{fill:url(#SVGID_4_);}
	.st6{fill:url(#SVGID_5_);}
</style>
<g>
	<g>
		<path class="st0" d="M103.9,29.2c0.6-0.8,1-1.8,1-2.9c0-2.9-2.1-4.9-5.2-4.9l-6.4,0l0,3.3l6.5,0c1.8,0,1.8,1.2,1.8,1.6
			c0,1.3-1,1.6-1.8,1.6l-6.5,0l0,10.6l6.9,0c3.3,0,5.6-2.1,5.6-5.3C105.7,31.6,105,30.2,103.9,29.2z M100.1,35.3l-3.6,0l0-4.1l3.6,0
			c1.4,0,2.2,0.7,2.2,2C102.4,34.5,101.6,35.3,100.1,35.3z"/>
		<path class="st0" d="M141.4,29.3c0.7-0.9,1.2-2,1.2-3.2c0-2.3-1.8-4.8-5.6-4.8l-5.3,0l0,5.4l3.3,0l0-2.1l2,0
			c1.1,0,2.3,0.3,2.3,1.6c0,1.1-0.8,1.7-2.3,1.7l-3.2,0l0,3.3l3.2,0c1.4,0,3,0.3,3,1.9c0,1.4-1.2,2.2-3,2.2c-1.5,0-2.7-0.5-3.3-1.3
			l-0.6-0.8l-2.8,1.7l0.6,0.9c1.1,1.7,3.4,2.8,6.1,2.8c3.7,0,6.4-2.3,6.4-5.5C143.3,31.6,142.6,30.2,141.4,29.3z"/>
		<path class="st0" d="M174.9,21.4l-6.3,0l0,3.3l6.5,0c1.6,0,2.6,0.9,2.6,2.4c0,1.5-0.9,2.4-2.6,2.4l-6.5,0l0,9.1l3.3,0l0-5.8l3,0
			c3.6,0,6.1-2.3,6.1-5.6C181,23.8,178.5,21.4,174.9,21.4z"/>
		<polygon class="st0" points="110.4,38.5 113.9,38.5 115.8,33.7 112.3,33.7 		"/>
		<polygon class="st0" points="118.2,21.4 118.2,21.3 118.1,21.4 117,21.4 113.6,30.3 117.1,30.3 118.2,27.4 119.3,30.3 117.1,30.3 
			115.8,33.7 120.6,33.7 122.4,38.5 125.9,38.5 119.4,21.4 		"/>
		<polygon class="st0" points="147.3,38.5 150.8,38.5 152.7,33.7 149.2,33.7 		"/>
		<polygon class="st0" points="155.1,21.4 155.1,21.3 155,21.4 153.8,21.4 150.5,30.3 154,30.3 155.1,27.4 156.2,30.3 154,30.3 
			152.7,33.7 157.5,33.7 159.3,38.5 162.8,38.5 156.3,21.4 		"/>
		<rect x="74.6" y="33.7" class="st0" width="3.3" height="4.9"/>
		<polygon class="st0" points="82.1,29.9 88.3,21.4 84.2,21.4 79.2,28.3 77.8,28.3 77.8,21.4 74.6,21.4 74.6,30.3 78,30.3 78,31.6 
			79.2,31.6 84.8,38.5 89,38.5 		"/>
	</g>
</g>
<g>
	<path class="st1" d="M25.6,30.3c-0.1-0.1-0.1-0.1-0.2-0.2L25.6,30.3L25.6,30.3z"/>
	<path class="st1" d="M19.4,21.2c0,0,0-0.1,0-0.1l0,0C19.4,21.1,19.4,21.2,19.4,21.2z"/>
	<path class="st0" d="M13.5,52.8l1.9,1.1l17.8-10.3c-0.2-0.9-0.5-1.9-0.5-1.9L13.5,52.8z"/>
	<path class="st0" d="M25.6,30.3L25.6,30.3l-0.2-0.2c-0.8-0.8-1.6-1.6-1.6-1.7L0.1,42.2L0.2,45l2.6,1.4L27.3,32l1.6,1.9
		c0,0-2-2.4-2.6-2.9C26.1,30.7,25.9,30.5,25.6,30.3z"/>
	<path class="st0" d="M24.2,58.9l1.9,1.1l1.5-0.9c0.7-1.1,1.5-2.4,2.3-3.5L24.2,58.9z"/>
	<path class="st0" d="M20,22.7c-0.2-0.4-0.5-1-0.6-1.4c0,0,0,0,0,0c0,0,0-0.1,0-0.1l0,0c-0.2-0.7-0.5-1.9-0.5-1.9L0.1,30.1L0,35.1
		l20.4-11.6c0,0-0.1-0.1-0.2-0.3C20.2,23,20.1,22.8,20,22.7z"/>
	<path class="st0" d="M22,4.8c0.1-0.2,0.3-0.4,0.4-0.6c1-1.4,2.5-3,3.6-4.2L0.1,15l0,6.2l19.2-11.1c0,0,0,0,0-0.1
		C20,8,21,6.3,22,4.8z"/>
	<linearGradient id="SVGID_1_" gradientUnits="userSpaceOnUse" x1="58.5409" y1="26.0582" x2="31.4077" y2="42.1572">
		<stop  offset="2.127166e-04" style="stop-color:#009EE2"/>
		<stop  offset="1" style="stop-color:#004F9E"/>
	</linearGradient>
	<path class="st2" d="M52,27.5L31.9,39.1c0,0,0.1,0.1,0.1,0.3c0.1,0.1,0.1,0.3,0.2,0.5c0.1,0.2,0.1,0.3,0.2,0.5c0,0,0,0,0,0
		c0,0,0,0.1,0,0.1c0,0,0,0.1,0,0.2c0.1,0.3,0.3,1,0.3,1s0.3,1,0.5,1.9L52,32.6L52,27.5z"/>
	<linearGradient id="SVGID_2_" gradientUnits="userSpaceOnUse" x1="53.0424" y1="16.7912" x2="25.9093" y2="32.8902">
		<stop  offset="2.127166e-04" style="stop-color:#009EE2"/>
		<stop  offset="1" style="stop-color:#004F9E"/>
	</linearGradient>
	<path class="st3" d="M52.1,15L25.6,30.3c0.2,0.2,0.5,0.5,0.7,0.7c0.5,0.6,2.6,2.9,2.6,2.9l23.2-14L52.1,15z"/>
	<linearGradient id="SVGID_3_" gradientUnits="userSpaceOnUse" x1="63.6406" y1="34.6532" x2="36.5074" y2="50.7522">
		<stop  offset="2.127166e-04" style="stop-color:#009EE2"/>
		<stop  offset="1" style="stop-color:#004F9E"/>
	</linearGradient>
	<path class="st4" d="M52.1,38L32.6,49.6c0,0-0.3,1.2-0.9,2.5c0,0,0,0,0,0c0,0,0,0,0,0c0,0,0,0,0,0c-0.3,0.7-0.6,1.3-0.9,1.9
		c0,0,0,0,0,0c-0.1,0.1-0.1,0.2-0.2,0.3c-0.3,0.5-0.5,0.9-0.8,1.2c-0.8,1.1-1.5,2.5-2.3,3.5L52,45L52.1,38z"/>
	<linearGradient id="SVGID_4_" gradientUnits="userSpaceOnUse" x1="45.7727" y1="4.5388" x2="18.6395" y2="20.6378">
		<stop  offset="2.127166e-04" style="stop-color:#009EE2"/>
		<stop  offset="1" style="stop-color:#004F9E"/>
	</linearGradient>
	<path class="st5" d="M41,8.6l-2-1.1L18.9,19.2c0,0,0.3,1.2,0.5,1.9L41,8.6z"/>
	<linearGradient id="SVGID_5_" gradientUnits="userSpaceOnUse" x1="39.1127" y1="-6.6859" x2="11.9795" y2="9.4131">
		<stop  offset="2.127166e-04" style="stop-color:#009EE2"/>
		<stop  offset="1" style="stop-color:#004F9E"/>
	</linearGradient>
	<path class="st6" d="M27.9,1L26.1,0L26,0c-1.2,1.2-2.6,2.8-3.6,4.2L27.9,1z"/>
</g>
</svg>
