<svg width="119" height="119" viewBox="0 0 119 119" fill="none" xmlns="http://www.w3.org/2000/svg">
<circle cx="60" cy="60" r="34" fill="#43B3DD" fill-opacity="0.25"/>
<circle cx="60" cy="60" r="10" fill="#43B3DD" fill-opacity="0.45"/>
<circle cx="59.5" cy="59.5" r="59.5" fill="#43B3DD" fill-opacity="0.25"/>
<g filter="url(#filter0_d)">
<path d="M59.7368 60L74.8684 42.2368H44.6053L59.7368 60Z" fill="#43B3DD"/>
<path d="M79.4737 29.7368C79.4737 40.6372 70.6372 49.4737 59.7368 49.4737C48.8365 49.4737 40 40.6372 40 29.7368C40 18.8365 48.8365 10 59.7368 10C70.6372 10 79.4737 18.8365 79.4737 29.7368Z" fill="#43B3DD"/>
</g>
<path d="M53.3906 40.6083L54.3485 41.167L63.3688 35.9518C63.2623 35.4995 63.1027 34.9673 63.1027 34.9673L53.3906 40.6083Z" fill="white"/>
<path d="M46.6323 35.2609L46.6589 36.6978L47.9627 37.3896L60.3622 30.1255L61.1871 31.0834C61.1605 31.0568 60.1494 29.8861 59.8833 29.5934C59.7769 29.4869 59.6704 29.3805 59.564 29.2475L59.4576 29.141C59.0584 28.7153 58.6593 28.3162 58.6327 28.2896L46.6323 35.2609Z" fill="white"/>
<path d="M58.7921 43.722L59.7234 44.2541L60.495 43.8018C60.841 43.2696 61.2401 42.6044 61.6392 42.019L58.7921 43.722Z" fill="white"/>
<path d="M46.6056 29.1405L46.579 31.6949L56.903 25.8145C56.903 25.8145 56.8764 25.7346 56.8232 25.6282C56.7966 25.5484 56.7434 25.4685 56.6902 25.3887C56.5837 25.1759 56.4507 24.8832 56.3975 24.6703C56.3975 24.6703 56.3975 24.6703 56.3975 24.6437C56.3975 24.6171 56.3709 24.5905 56.3709 24.5905C56.2644 24.2446 56.1314 23.6326 56.1314 23.6326L46.6056 29.1405Z" fill="white"/>
<path d="M46.6057 21.5306L46.6323 24.6438L56.3444 19.0561C56.3444 19.0561 56.3444 19.0295 56.371 19.0029C56.7169 18.0183 57.1958 17.1137 57.7014 16.3952C57.7546 16.2888 57.8344 16.1824 57.8877 16.0759C58.3932 15.3841 59.1383 14.5593 59.697 13.9473L46.6057 21.5306Z" fill="white"/>
<path d="M62.7036 33.7166C62.7036 33.7166 62.7302 33.7965 62.7568 33.8763C62.7834 33.9561 62.81 34.0359 62.8367 34.1158C62.8633 34.1956 62.8899 34.2754 62.9165 34.3552C62.9165 34.3818 62.9165 34.3818 62.9431 34.4084C62.9431 34.4351 62.9697 34.4617 62.9697 34.4883C63.0229 34.6745 63.1027 34.9672 63.1027 34.9672C63.1027 34.9672 63.2624 35.4994 63.3422 35.9517L72.868 30.4438V27.8362L62.7036 33.7166Z" fill="white"/>
<path d="M59.5372 29.2472C59.6437 29.3536 59.7767 29.4867 59.8565 29.5931C60.1226 29.8858 61.1603 31.0832 61.1603 31.0832L72.868 24.0319V21.5308L59.5372 29.2472Z" fill="white"/>
<path d="M63.0496 39.0389C63.0496 39.0389 62.9166 39.6243 62.6239 40.2895V40.3161C62.4909 40.662 62.3312 40.9547 62.145 41.274C62.1184 41.3272 62.0917 41.3804 62.0651 41.4336C61.9321 41.6731 61.7991 41.886 61.666 42.0456C61.2669 42.6044 60.8944 43.2962 60.5219 43.8284L72.8681 36.6974L72.8947 33.1851L63.0496 39.0389Z" fill="white"/>
<path d="M56.1313 23.6597C56.1313 23.6597 56.2644 24.2717 56.3708 24.6176L67.3335 18.3115L66.349 17.7527L56.1313 23.6597Z" fill="white"/>
<path d="M59.7236 13.9741C59.1382 14.5861 58.4197 15.3844 57.9142 16.1028L60.6815 14.4797L59.7502 13.9475L59.7236 13.9741Z" fill="white"/>
<defs>
<filter id="filter0_d" x="36" y="10" width="47.4737" height="58" filterUnits="userSpaceOnUse" color-interpolation-filters="sRGB">
<feFlood flood-opacity="0" result="BackgroundImageFix"/>
<feColorMatrix in="SourceAlpha" type="matrix" values="0 0 0 0 0 0 0 0 0 0 0 0 0 0 0 0 0 0 127 0"/>
<feOffset dy="4"/>
<feGaussianBlur stdDeviation="2"/>
<feColorMatrix type="matrix" values="0 0 0 0 0 0 0 0 0 0 0 0 0 0 0 0 0 0 0.25 0"/>
<feBlend mode="normal" in2="BackgroundImageFix" result="effect1_dropShadow"/>
<feBlend mode="normal" in="SourceGraphic" in2="effect1_dropShadow" result="shape"/>
</filter>
</defs>
</svg>
