<svg width="35" height="19" viewBox="0 0 35 19" fill="none" xmlns="http://www.w3.org/2000/svg">
<path d="M1.09372 2.93751H33.9062C34.51 2.93751 34.9999 2.44747 34.9999 1.84378C34.9999 1.24001 34.5099 0.750061 33.9062 0.750061H1.09372C0.489947 0.750061 0 1.2401 0 1.84378C0 2.44747 0.490038 2.93751 1.09372 2.93751Z" fill="white"/>
<path d="M33.9062 8.40631H1.09372C0.489947 8.40631 0 8.89634 0 9.50002C0 10.1037 0.490038 10.5937 1.09372 10.5937H33.9062C34.51 10.5937 34.9999 10.1037 34.9999 9.50002C34.9999 8.89634 34.51 8.40631 33.9062 8.40631Z" fill="white"/>
<path d="M33.9062 16.0625H12.0312C11.4274 16.0625 10.9375 16.5525 10.9375 17.1562C10.9375 17.76 11.4275 18.2499 12.0312 18.2499H33.9062C34.51 18.2499 34.9999 17.7599 34.9999 17.1562C35 16.5524 34.51 16.0625 33.9062 16.0625Z" fill="white"/>
</svg>
