<svg width="16" height="15" viewBox="0 0 16 15" fill="none" xmlns="http://www.w3.org/2000/svg">
<path fill-rule="evenodd" clip-rule="evenodd" d="M15.811 9.08997C16.0968 7.87484 16.0592 6.60611 15.702 5.41003C15.3427 4.18394 14.6679 3.07352 13.745 2.18994C13.0255 1.48407 12.1716 0.929906 11.234 0.560059C10.3093 0.193113 9.32384 0.00309336 8.32898 0H8.00702V1.5H8.32898C9.94736 1.49411 11.5046 2.11812 12.671 3.23999C13.7261 4.24933 14.3644 5.61751 14.4601 7.07446C14.5559 8.53142 14.1019 9.9713 13.188 11.11L11 9V14H16L14.269 12.16C15.0202 11.2742 15.5489 10.2215 15.811 9.08997ZM4.32001 11.76C3.25548 10.7585 2.60991 9.39088 2.51324 7.9325C2.41658 6.47411 2.87598 5.03327 3.79901 3.90002L6 5.91003V1H0.5L2.70502 2.83997C1.95246 3.72593 1.4215 4.77831 1.15601 5.91003C0.868191 7.12832 0.90579 8.40081 1.26501 9.59998C1.62881 10.8233 2.30663 11.9301 3.23102 12.8101C3.9555 13.5159 4.81358 14.07 5.755 14.4399C6.68999 14.8075 7.68535 14.9975 8.69 15H9.01398V13.52H8.69C7.05938 13.5266 5.49092 12.8949 4.32001 11.76Z" fill="white"/>
</svg>
