<svg width="16" height="16" viewBox="0 0 16 16" fill="none" xmlns="http://www.w3.org/2000/svg">
<path d="M4.42115 6.7279C4.26569 6.73018 4.16606 6.74568 4.10721 6.76087V8.82066C4.16592 8.83572 4.26145 8.83743 4.34775 8.83914C4.98336 8.85608 5.40541 8.50172 5.40541 7.73371C5.40998 7.06579 5.02579 6.71869 4.42115 6.7279Z" fill="#F26060"/>
<path d="M9.75971 14.6186C9.78066 14.6197 9.80187 14.6216 9.82337 14.6216H14.6674C15.2339 14.6216 15.6949 14.1605 15.6949 13.594V2.36477C15.6949 1.79833 15.2339 1.33725 14.6674 1.33725H9.82337C9.802 1.33725 9.78066 1.33934 9.75971 1.34032V0L0.305054 1.26176V14.7056L9.75971 16V14.6186ZM14.6674 14.0347H9.82337C9.8017 14.0347 9.78066 14.0312 9.75971 14.0281V9.62226C10.769 9.44783 12.1707 9.3158 13.383 9.60063L13.5265 9.87885C14.1052 10.973 14.7233 10.9659 14.9621 10.912C15.0169 10.8997 15.0464 10.8859 15.0464 10.8859L15.0785 10.8688C15.0894 10.862 15.0979 10.8532 15.1077 10.8457V13.5943C15.1077 13.837 14.9102 14.0347 14.6674 14.0347ZM10.1706 9.10005C10.9291 8.1749 11.5421 7.31121 11.9369 6.72628L11.9383 6.72951L11.9426 6.72291C12.2525 7.37628 12.7634 8.3869 13.1152 9.0767L13.1141 9.0764L13.1261 9.0995C12.1258 8.92863 11.0517 8.99099 10.1683 9.11312L10.1812 9.09806L10.1706 9.10005ZM11.955 4.78309C11.9853 4.72949 12.0298 4.7153 12.1095 4.7188C12.1109 4.71894 12.2692 4.72932 12.3282 4.83773C12.3641 4.90229 12.416 5.10706 12.1367 5.60642H12.1364C12.1364 5.60642 12.1003 5.66649 12.0324 5.77492C11.8758 5.2252 11.8862 4.90419 11.955 4.78309ZM13.975 9.78082C14.262 9.89121 14.5197 10.0272 14.7454 10.1881C14.8102 10.2801 14.8701 10.4126 14.8592 10.4751C14.8586 10.4781 14.8581 10.4811 14.8563 10.4841C14.7637 10.5011 14.3953 10.5126 13.975 9.78082ZM9.82337 1.92451H14.6674C14.9102 1.92451 15.1077 2.12213 15.1077 2.36488V9.93849C15.094 9.91883 15.0821 9.90266 15.0751 9.8939L15.0564 9.86979L15.0321 9.85174C14.6562 9.57736 14.2032 9.36593 13.6843 9.22302C13.3143 8.50055 12.5481 6.99471 12.226 6.28953C12.4125 6.00226 12.5127 5.83481 12.5173 5.82714C12.8079 5.30914 12.8714 4.90476 12.7107 4.6195C12.5651 4.36132 12.2749 4.28377 12.1267 4.27884C11.887 4.26794 11.6826 4.37045 11.5716 4.56568C11.4025 4.86377 11.4375 5.38593 11.6766 6.11664C11.6872 6.1504 11.7042 6.19368 11.7268 6.24816C11.3437 6.82748 10.6488 7.82951 9.7596 8.90577V1.93098C9.78066 1.92788 9.80157 1.92451 9.82337 1.92451ZM2.72677 7.90913C2.50321 8.13089 2.1746 8.22766 1.79528 8.22421C1.71186 8.22336 1.63645 8.2182 1.5782 8.20874V9.28786L0.957284 9.27065V6.3244C1.14909 6.28447 1.42051 6.25131 1.8079 6.2419C2.20374 6.23223 2.49044 6.3072 2.68376 6.4669C2.87018 6.61855 2.99596 6.8735 2.99596 7.17602C2.99596 7.47885 2.90028 7.73559 2.72677 7.90913ZM5.64182 9.01706C5.30647 9.29068 4.80238 9.40996 4.19745 9.39305C3.84108 9.38286 3.59108 9.35291 3.42257 9.3251V6.26743C3.67135 6.22005 3.99853 6.18892 4.34775 6.18041C4.93697 6.16601 5.32511 6.26629 5.63272 6.49405C5.96672 6.73816 6.17866 7.13555 6.17866 7.71036C6.17866 8.33343 5.95247 8.75931 5.64182 9.01706ZM6.66663 6.14866L8.75543 6.09878V6.72688L7.4268 6.74615V7.50432L8.66711 7.50124V8.1233L7.4268 8.11471V9.4493L6.66641 9.42834V6.14869H6.66663V6.14866Z" fill="#F26060"/>
<path d="M1.84152 6.75833C1.71186 6.76034 1.62427 6.77502 1.57831 6.78929V7.68028C1.63213 7.69381 1.69895 7.69835 1.79126 7.69835C2.13243 7.69863 2.34479 7.5125 2.34479 7.1997C2.34481 6.91827 2.16198 6.75316 1.84152 6.75833Z" fill="#F26060"/>
</svg>
