<svg id="Слой_1" data-name="Слой 1" xmlns="http://www.w3.org/2000/svg" viewBox="0 0 49.95 18.84"><defs><style>.cls-1{fill:#019dd8;}.cls-2{fill:#fff;}.cls-3{font-size:6px;font-family:Arial-BoldMT, Arial;font-weight:700;}</style></defs><title>png-file</title><path class="cls-1" d="M14.2,5.7h-.4V3.9h0c0-.1,0-.1-.1-.2L10.6.2h0L10.5.1H2.8a.5.5,0,0,0-.6.5V5.7H1.8a.9.9,0,0,0-.9.9v4.7a.9.9,0,0,0,.9.9h.4v3.2a.65.65,0,0,0,.6.6H13.2a.65.65,0,0,0,.6-.6V12.2h.4a.9.9,0,0,0,.9-.9V6.6A.9.9,0,0,0,14.2,5.7ZM2.8.6h7.3V3.8a.27.27,0,0,0,.3.3h2.8V5.7H2.8ZM13.2,15.2H2.8v-3H13.2Z" transform="translate(-0.9 -0.08)"/><path class="cls-2" d="M2,11.09V6.79H3.38a5.17,5.17,0,0,1,1,.07A1.12,1.12,0,0,1,5,7.28a1.35,1.35,0,0,1,.25.84,1.34,1.34,0,0,1-.15.66,1.15,1.15,0,0,1-.36.42,1.31,1.31,0,0,1-.45.21,5.12,5.12,0,0,1-.9.06H2.85v1.62Zm.86-3.57V8.74h.48A2,2,0,0,0,4,8.67a.48.48,0,0,0,.27-.21.54.54,0,0,0,.1-.33.52.52,0,0,0-.14-.39.61.61,0,0,0-.34-.19,4.25,4.25,0,0,0-.63,0Z" transform="translate(-0.9 -0.08)"/><path class="cls-2" d="M6,11.09V6.79h.84L8.6,9.66V6.79h.8v4.3H8.53L6.8,8.29v2.8Z" transform="translate(-0.9 -0.08)"/><path class="cls-2" d="M12.32,9.51V8.79h1.87V10.5a2.42,2.42,0,0,1-.79.46,3,3,0,0,1-1.05.2,2.3,2.3,0,0,1-1.17-.28,1.81,1.81,0,0,1-.76-.81,2.57,2.57,0,0,1-.25-1.14,2.47,2.47,0,0,1,.28-1.2,2,2,0,0,1,.83-.8,2.2,2.2,0,0,1,1-.21,2,2,0,0,1,1.25.34,1.48,1.48,0,0,1,.58.92l-.86.16a.92.92,0,0,0-.34-.5,1.07,1.07,0,0,0-.63-.18,1.16,1.16,0,0,0-.9.36,1.54,1.54,0,0,0-.34,1.07A1.73,1.73,0,0,0,11.4,10a1.16,1.16,0,0,0,.89.38,1.32,1.32,0,0,0,.55-.11,1.63,1.63,0,0,0,.47-.26V9.51Z" transform="translate(-0.9 -0.08)"/><text class="cls-3" transform="translate(30.49 11.4)">PNG</text></svg>