<?xml version="1.0" encoding="utf-8"?>
<!-- Generator: Adobe Illustrator 23.0.1, SVG Export Plug-In . SVG Version: 6.00 Build 0)  -->
<svg version="1.1" id="Слой_1" xmlns="http://www.w3.org/2000/svg" xmlns:xlink="http://www.w3.org/1999/xlink" x="0px" y="0px"
	 viewBox="0 0 16 16" style="enable-background:new 0 0 16 16;" xml:space="preserve">
<style type="text/css">
	.st0{fill:#A5508D;}
	.st1{fill:#FFFFFF;}
</style>
<g>
	<g>
		<g>
			<path class="st0" d="M14.2,5.7h-0.4V3.9l0,0c0-0.1,0-0.1-0.1-0.2l-3.1-3.5l0,0c0,0,0,0-0.1-0.1l0,0c0,0,0,0-0.1,0l0,0
				c0,0,0,0-0.1,0H2.8C2.5,0,2.2,0.3,2.2,0.6v5.1H1.8c-0.5,0-0.9,0.4-0.9,0.9v4.7c0,0.5,0.4,0.9,0.9,0.9h0.4v3.2
				c0,0.3,0.3,0.6,0.6,0.6h10.4c0.3,0,0.6-0.3,0.6-0.6v-3.2h0.4c0.5,0,0.9-0.4,0.9-0.9V6.6C15.1,6.1,14.7,5.7,14.2,5.7z M2.8,0.6
				h7.3v3.2c0,0.2,0.1,0.3,0.3,0.3h2.8v1.6H2.8V0.6z M13.2,15.2H2.8v-3h10.4V15.2z"/>
		</g>
	</g>
</g>
<g>
	<path class="st1" d="M3.4,7C3.6,7,4,6.9,4.4,6.9c0.6,0,0.9,0.1,1.2,0.3C5.8,7.5,5.9,7.7,5.9,8c0,0.5-0.3,0.9-0.8,1v0
		c0.3,0.1,0.5,0.4,0.6,0.8c0.1,0.6,0.2,1,0.3,1.1H5.5c-0.1-0.1-0.2-0.5-0.3-1C5.1,9.5,4.9,9.3,4.4,9.3H3.9V11H3.4V7z M3.9,8.9h0.5
		c0.6,0,0.9-0.3,0.9-0.8c0-0.5-0.4-0.7-0.9-0.8c-0.3,0-0.4,0-0.5,0V8.9z"/>
	<path class="st1" d="M7.3,9.7L6.9,11H6.3l1.4-4h0.6l1.4,4H9.2L8.7,9.7H7.3z M8.6,9.3L8.2,8.2C8.1,7.9,8.1,7.7,8,7.4h0
		C7.9,7.7,7.9,7.9,7.8,8.2L7.4,9.3H8.6z"/>
	<path class="st1" d="M10.3,7c0.3-0.1,0.6-0.1,1-0.1c0.6,0,0.9,0.1,1.2,0.3c0.2,0.2,0.3,0.5,0.3,0.8c0,0.5-0.3,0.9-0.8,1v0
		c0.3,0.1,0.5,0.4,0.6,0.8c0.1,0.6,0.2,1,0.3,1.1h-0.5c-0.1-0.1-0.2-0.5-0.3-1c-0.1-0.6-0.3-0.8-0.8-0.8h-0.5V11h-0.5V7z M10.8,8.9
		h0.5c0.6,0,0.9-0.3,0.9-0.8c0-0.5-0.4-0.7-0.9-0.8c-0.3,0-0.4,0-0.5,0V8.9z"/>
</g>
</svg>
