<?xml version="1.0" encoding="utf-8"?>
<!-- Generator: Adobe Illustrator 24.0.0, SVG Export Plug-In . SVG Version: 6.00 Build 0)  -->
<svg version="1.1" id="Слой_1" xmlns="http://www.w3.org/2000/svg" xmlns:xlink="http://www.w3.org/1999/xlink" x="0px" y="0px"
	 viewBox="0 0 25 25" style="enable-background:new 0 0 25 25;" xml:space="preserve">
<style type="text/css">
	.st0{fill:#FFFFFF;}
</style>
<path class="st0" d="M12.5,0C5.6,0,0,5.6,0,12.5C0,19.4,5.6,25,12.5,25C19.4,25,25,19.4,25,12.5C25,5.6,19.4,0,12.5,0z M19.7,18
	l-2.2,0c0,0-0.5,0.1-1.1-0.3c-0.8-0.6-1.6-2-2.2-1.8c-0.6,0.2-0.6,1.5-0.6,1.5s0,0.3-0.1,0.4C13.3,17.9,13,18,13,18h-1
	c0,0-2.2,0.1-4.1-1.9C5.9,14,4,9.7,4,9.7s-0.1-0.3,0-0.4c0.1-0.2,0.5-0.2,0.5-0.2l2.3,0c0,0,0.2,0,0.4,0.2c0.1,0.1,0.2,0.3,0.2,0.3
	s0.4,1,0.9,1.8c1,1.7,1.4,2.1,1.8,1.9c0.5-0.3,0.3-2.4,0.3-2.4s0-0.8-0.2-1.1C10,9.4,9.6,9.4,9.5,9.3C9.3,9.3,9.6,9,9.8,8.9
	c0.4-0.2,1.2-0.2,2-0.2c0.7,0,0.9,0,1.2,0.1c0.8,0.2,0.5,0.9,0.5,2.8c0,0.6-0.1,1.4,0.3,1.7c0.2,0.1,0.6,0,1.7-1.8
	c0.5-0.9,0.9-1.9,0.9-1.9s0.1-0.2,0.2-0.3c0.1-0.1,0.3-0.1,0.3-0.1l2.5,0c0,0,0.7-0.1,0.9,0.2c0.1,0.4-0.3,1.2-1.3,2.5
	c-1.7,2.2-1.8,2-0.5,3.3c1.3,1.2,1.6,1.8,1.6,1.9C20.8,17.9,19.7,18,19.7,18z"/>
</svg>
