<svg width="25" height="25" viewBox="0 0 25 25" fill="none" xmlns="http://www.w3.org/2000/svg">
<path d="M6.56677 13.4226H7.55782V18.7866H8.49542V13.4226H9.50488V12.5441H6.56677V13.4226Z" fill="white"/>
<path d="M14.4946 14.0783C14.1846 14.0783 13.8953 14.2476 13.6235 14.5826V12.5438H12.7808V18.7865H13.6235V18.3358C13.9056 18.6839 14.1946 18.8507 14.4946 18.8507C14.8299 18.8507 15.0554 18.6742 15.168 18.3279C15.2245 18.1307 15.2534 17.821 15.2534 17.3906V15.5384C15.2534 15.098 15.2245 14.7906 15.168 14.6036C15.0557 14.2548 14.8296 14.0783 14.4946 14.0783ZM14.4102 17.4566C14.4102 17.877 14.2869 18.0842 14.0434 18.0842C13.9051 18.0842 13.7641 18.0179 13.6232 17.8768V15.042C13.7641 14.9026 13.9051 14.8366 14.0434 14.8366C14.2866 14.8366 14.4102 15.0519 14.4102 15.4714V17.4566Z" fill="white"/>
<path d="M11.2083 17.6897C11.0213 17.9539 10.8446 18.0841 10.6753 18.0841C10.5627 18.0841 10.4985 18.0179 10.4781 17.8869C10.4704 17.8598 10.4704 17.757 10.4704 17.5596V14.135H9.62744V17.8125C9.62744 18.1412 9.65583 18.3631 9.70187 18.5043C9.78652 18.7401 9.97373 18.8506 10.2448 18.8506C10.5551 18.8506 10.8732 18.6634 11.2083 18.2793V18.7867H12.0517V14.135H11.2083V17.6897Z" fill="white"/>
<path d="M11.9317 9.83791C12.2061 9.83791 12.3378 9.62026 12.3378 9.18548V7.20824C12.3378 6.7732 12.2061 6.55658 11.9317 6.55658C11.657 6.55658 11.525 6.77346 11.525 7.20824V9.18548C11.525 9.62052 11.657 9.83791 11.9317 9.83791Z" fill="white"/>
<path d="M12.5 0C5.59642 0 0 5.59642 0 12.5C0 19.4036 5.59642 25 12.5 25C19.4036 25 25 19.4036 25 12.5C25 5.59642 19.4036 0 12.5 0ZM13.8903 5.84655H14.7396V9.30742C14.7396 9.50716 14.7396 9.61074 14.7499 9.63862C14.7685 9.77059 14.8355 9.83811 14.9496 9.83811C15.1199 9.83811 15.2987 9.70614 15.4877 9.43939V5.84655H16.3394V10.5471H15.4877V10.0345C15.1486 10.4233 14.8253 10.6118 14.5146 10.6118C14.2404 10.6118 14.0512 10.5005 13.9657 10.2627C13.9187 10.1202 13.8903 9.8954 13.8903 9.56368V5.84655ZM10.6734 7.37928C10.6734 6.87673 10.7588 6.50946 10.9399 6.27187C11.1754 5.95038 11.5072 5.78977 11.9317 5.78977C12.3583 5.78977 12.6898 5.95038 12.9253 6.27187C13.1038 6.50921 13.1893 6.87673 13.1893 7.37928V9.02532C13.1893 9.52506 13.1038 9.89565 12.9253 10.1307C12.6898 10.4514 12.3583 10.6118 11.9317 10.6118C11.5072 10.6118 11.1754 10.4514 10.9399 10.1307C10.7588 9.89565 10.6734 9.52481 10.6734 9.02532V7.37928ZM8.39565 4.23939L9.06624 6.71637L9.71049 4.23939H10.6657L9.52941 7.99258V10.5473H8.58517V7.99258C8.49949 7.5399 8.31049 6.87673 8.00742 5.99693C7.80844 5.41151 7.60102 4.8243 7.40205 4.23939H8.39565ZM19.2292 19.1972C19.0583 19.9386 18.4519 20.4859 17.7217 20.5675C15.9921 20.7606 14.2425 20.7616 12.4992 20.7606C10.7568 20.7616 9.00614 20.7606 7.27698 20.5675C6.5468 20.4859 5.94015 19.9389 5.76982 19.1972C5.5266 18.1412 5.5266 16.988 5.5266 15.9005C5.5266 14.813 5.52967 13.6601 5.77263 12.6038C5.94322 11.8621 6.54936 11.3148 7.27954 11.2335C9.00895 11.0404 10.7593 11.0394 12.5023 11.0404C14.2448 11.0394 15.9951 11.0404 17.7246 11.2335C18.4547 11.3151 19.0614 11.8621 19.2325 12.6038C19.4749 13.6601 19.4734 14.813 19.4734 15.9005C19.4734 16.988 19.4724 18.1412 19.2292 19.1972Z" fill="white"/>
<path d="M17.179 14.0784C16.7478 14.0784 16.413 14.2367 16.1695 14.5551C15.9908 14.7904 15.9092 15.1541 15.9092 15.651V17.2804C15.9092 17.7748 16.0005 18.141 16.18 18.374C16.4232 18.6917 16.7591 18.8505 17.2 18.8505C17.6401 18.8505 17.9857 18.684 18.2189 18.3461C18.3212 18.1968 18.3877 18.0277 18.4158 17.841C18.4238 17.7566 18.4337 17.5697 18.4337 17.2978V17.1753H17.5741C17.5741 17.5129 17.5631 17.7004 17.5557 17.7461C17.5076 17.9715 17.3864 18.084 17.179 18.084C16.8895 18.084 16.7478 17.8692 16.7478 17.439V16.6139H18.4337V15.6505C18.4337 15.1536 18.3496 14.7899 18.1729 14.5546C17.9373 14.2369 17.602 14.0784 17.179 14.0784ZM17.5913 15.9126H16.7483V15.4822C16.7483 15.052 16.8897 14.8369 17.1713 14.8369C17.4501 14.8369 17.5913 15.0523 17.5913 15.4822V15.9126Z" fill="white"/>
</svg>
