<?xml version="1.0" encoding="utf-8"?>
<!-- Generator: Adobe Illustrator 23.0.1, SVG Export Plug-In . SVG Version: 6.00 Build 0)  -->
<svg version="1.1" id="Слой_1" xmlns="http://www.w3.org/2000/svg" xmlns:xlink="http://www.w3.org/1999/xlink" x="0px" y="0px"
	 viewBox="0 0 16 16" style="enable-background:new 0 0 16 16;" xml:space="preserve">
<style type="text/css">
	.st0{fill:#A5508D;}
	.st1{fill:#FFFFFF;}
</style>
<g>
	<g>
		<g>
			<path class="st0" d="M14.2,5.7h-0.4V3.9l0,0c0-0.1,0-0.1-0.1-0.2l-3.1-3.5l0,0c0,0,0,0-0.1-0.1l0,0c0,0,0,0-0.1,0l0,0
				c0,0,0,0-0.1,0H2.8C2.5,0,2.2,0.3,2.2,0.6v5.1H1.8c-0.5,0-0.9,0.4-0.9,0.9v4.7c0,0.5,0.4,0.9,0.9,0.9h0.4v3.2
				c0,0.3,0.3,0.6,0.6,0.6h10.4c0.3,0,0.6-0.3,0.6-0.6v-3.2h0.4c0.5,0,0.9-0.4,0.9-0.9V6.6C15.1,6.1,14.7,5.7,14.2,5.7z M2.8,0.6
				h7.3v3.2c0,0.2,0.1,0.3,0.3,0.3h2.8v1.6H2.8V0.6z M13.2,15.2H2.8v-3h10.4V15.2z"/>
		</g>
	</g>
</g>
<g>
	<path class="st1" d="M4.2,10.7l2.2-3.3v0H4.4V6.9h2.7v0.3l-2.2,3.3v0h2.3V11h-3V10.7z"/>
	<path class="st1" d="M8.3,6.9v4H7.8v-4H8.3z"/>
	<path class="st1" d="M9.2,7c0.3,0,0.6-0.1,1-0.1c0.5,0,0.9,0.1,1.1,0.3c0.2,0.2,0.4,0.5,0.4,0.8c0,0.4-0.1,0.7-0.3,0.9
		c-0.3,0.3-0.7,0.4-1.2,0.4c-0.2,0-0.3,0-0.4,0V11H9.2V7z M9.8,8.9c0.1,0,0.3,0,0.4,0c0.6,0,1-0.3,1-0.9c0-0.5-0.4-0.8-1-0.8
		c-0.2,0-0.4,0-0.5,0V8.9z"/>
</g>
</svg>
