<?xml version="1.0" encoding="utf-8"?>
<!-- Generator: Adobe Illustrator 24.0.0, SVG Export Plug-In . SVG Version: 6.00 Build 0)  -->
<svg version="1.1" id="Слой_1" xmlns="http://www.w3.org/2000/svg" xmlns:xlink="http://www.w3.org/1999/xlink" x="0px" y="0px"
	 viewBox="0 0 49 51" style="enable-background:new 0 0 49 51;" xml:space="preserve">
<style type="text/css">
	.st0{fill:#60CAF2;}
</style>
<path class="st0" d="M38.4,26.9h-1.6h-0.1v-0.1c0-5.2-2.6-9.9-6.7-12.3h-0.1v-0.2V9.9c0-0.4-0.3-0.8-0.7-0.8h-2.5h-0.2V8.9V0.8
	c0-0.4-0.3-0.8-0.7-0.8h-3.5c-0.4,0-0.7,0.3-0.7,0.8v8V9h-0.2h-2.5c-0.4,0-0.7,0.3-0.7,0.8v4.4v0.1h-0.1c-4.2,2.4-6.7,7.1-6.7,12.3
	v0.1h-0.1H9.7c-0.2,0-0.4,0.1-0.5,0.2C9.1,27,9,27.2,9,27.4v4.4c0,0.4,0.3,0.8,0.7,0.8h5.5h0.2v0.1v1.4c0,5.4,4,9.8,8.9,9.8
	s8.9-4.4,8.9-9.8v-1.4v0.2h-0.3h5.5c0.4,0,0.7-0.3,0.7-0.8v-4.4C39.1,27.2,38.8,26.9,38.4,26.9z M22.9,8.9V1.8V1.6h0.2h1.7h0.1v0.1
	v7V9h-0.1h-1.7h-0.2V8.9z M19.5,13.4v-2.5v-0.2h0.1h8.5h0.2v0.1v2.5v0.2l-0.2-0.1c-1.4-0.5-2.8-0.8-4.2-0.8s-2.9,0.2-4.2,0.8
	l-0.2,0.1V13.4z M31.3,33v1.4c0,4.5-3.3,8.1-7.4,8.1s-7.4-3.6-7.4-8.1V33v-0.1h0.1h14.5h0.1L31.3,33L31.3,33z M37.6,28.6V31v0.1
	h-0.2H10.3h-0.1V31v-2.4v-0.2h0.2h18c0.4,0,0.7-0.3,0.7-0.8s-0.3-0.8-0.7-0.8H12.8h-0.2v-0.2c0-6.8,5-12.3,11.2-12.3
	S35,19.8,35,26.6v1c0,0.4,0.3,0.8,0.7,0.8h1.6h0.2L37.6,28.6L37.6,28.6z"/>
<path class="st0" d="M32.4,27.3c0,0,0-0.1-0.1-0.1l-0.1-0.1L32.1,27c0,0-0.1,0-0.1-0.1h-0.1h-0.1h-0.1h-0.1c0,0-0.1,0-0.1,0.1
	l-0.1,0.1l-0.1,0.1c0,0,0,0.1-0.1,0.1v0.1v0.1v0.1v0.1c0,0,0,0.1,0.1,0.1l0.1,0.1l0.1,0.1l0.1,0.1h0.1h0.1h0.1H32c0,0,0.1,0,0.1-0.1
	l0.1-0.1l0.1-0.1l0.1-0.1v-0.1v-0.1v-0.1C32.4,27.4,32.4,27.4,32.4,27.3z"/>
<path class="st0" d="M23.9,45.9c-0.4,0-0.7,0.3-0.7,0.8v2.6c0,0.4,0.3,0.8,0.7,0.8s0.7-0.3,0.7-0.8v-2.5
	C24.6,46.3,24.3,45.9,23.9,45.9z"/>
<path class="st0" d="M12.2,35.1H9.9c-0.4,0-0.7,0.3-0.7,0.8c0,0.4,0.3,0.8,0.7,0.8h2.3c0.4,0,0.7-0.3,0.7-0.8
	C12.9,35.4,12.6,35.1,12.2,35.1z"/>
<path class="st0" d="M37.9,35.1h-2.3c-0.4,0-0.7,0.3-0.7,0.8c0,0.4,0.3,0.8,0.7,0.8h2.3c0.4,0,0.7-0.3,0.7-0.8
	C38.7,35.4,38.3,35.1,37.9,35.1z"/>
<path class="st0" d="M32.1,42.6c-0.1-0.1-0.3-0.2-0.5-0.2c-0.2,0-0.4,0.1-0.5,0.2c-0.3,0.3-0.3,0.9,0,1.2l1.6,1.8
	c0.1,0.1,0.3,0.2,0.5,0.2s0.4-0.1,0.5-0.2c0.3-0.3,0.3-0.9,0-1.2L32.1,42.6z"/>
<path class="st0" d="M16.2,42.4c-0.2,0-0.4,0.1-0.5,0.2l-1.6,1.8c-0.3,0.3-0.3,0.9,0,1.2c0.1,0.1,0.3,0.2,0.5,0.2
	c0.2,0,0.4-0.1,0.5-0.2l1.6-1.8c0.3-0.3,0.3-0.9,0-1.2C16.6,42.5,16.4,42.4,16.2,42.4z"/>
</svg>
