<svg width="49" height="55" viewBox="0 0 49 55" fill="none" xmlns="http://www.w3.org/2000/svg">
<path d="M13.6223 54.8327C13.0652 54.8327 12.6195 54.4663 12.5081 53.9779L10.3911 47.6277C10.1683 47.0171 10.3911 46.2844 10.9482 46.0401L10.0568 43.2314C10.0568 43.2314 10.0568 43.2314 9.94542 43.2314C9.834 43.2314 9.72257 43.2314 9.61115 43.2314C9.05405 43.2314 8.49696 42.9871 8.1627 42.3765L7.1599 40.9111C7.04848 40.789 7.04849 40.5448 7.04849 40.3005C7.04849 40.0563 7.15991 39.9342 7.27133 39.812C7.38275 39.6899 7.49416 39.6899 7.71701 39.6899C7.93985 39.6899 8.16269 39.812 8.27411 39.9342L9.27691 41.3996C9.27691 41.5217 9.38832 41.5217 9.49974 41.5217L8.94264 39.6899C8.83122 39.3236 8.94263 38.8351 9.38832 38.713C9.49974 38.713 9.49973 38.713 9.61115 38.713C9.94542 38.713 10.1683 38.9572 10.2797 39.2014L10.8368 40.9111C10.9482 40.789 11.0596 40.789 11.0596 40.6669L10.9482 38.8351C10.9482 38.4687 11.171 38.1024 11.6167 38.1024C12.0624 38.1024 12.2853 38.4687 12.2853 38.8351L12.3967 40.6669C12.3967 41.3996 12.0624 42.1323 11.3939 42.4987L12.2853 45.3074C12.3967 45.3074 12.3967 45.3074 12.3967 45.3074C12.5081 45.3074 12.5081 45.3074 12.6195 45.3074C13.1766 45.3074 13.6223 45.6738 13.7337 46.1622L14.5137 48.3604H17.0764C17.4106 48.3604 17.7449 47.994 17.7449 47.6277V47.5056C16.6307 47.1392 15.7393 46.0401 15.7393 44.6968V43.4756C15.7393 42.1323 16.0736 40.9111 16.8535 39.812C16.8535 39.5678 16.8535 39.4457 16.8535 39.3236C16.4078 39.5678 16.0736 39.6899 15.6279 39.6899H15.5165C15.2936 39.6899 14.9593 39.5678 14.6251 39.0793C14.2908 38.4687 14.068 37.4918 14.068 36.2706C13.0652 37.0033 11.1711 38.4687 9.72258 38.4687C9.16548 38.4687 8.83121 38.3466 8.49695 37.9803C8.27411 37.736 8.16269 37.3697 8.05127 37.0033C8.05127 36.5148 8.27411 35.9042 8.60837 35.1715C7.38275 35.4157 6.49137 35.66 5.71143 35.66C5.15433 35.66 4.82007 35.5379 4.48581 35.4157C4.15155 35.1715 3.9287 34.9273 3.81728 34.5609C3.59444 33.8282 3.9287 32.9734 4.70865 32.1185C3.48302 31.8743 2.48023 31.5079 1.81171 30.8973C1.2546 30.4089 1.14319 29.9204 1.14319 29.554C1.14319 29.0655 1.36603 28.5771 1.92313 28.0886C1.25461 27.7222 0.808922 27.3559 0.47466 26.9895C0.140398 26.501 -0.0824363 25.8904 0.0289844 25.1577C0.140405 24.425 0.586091 23.9365 1.47746 23.5702C1.58888 23.5702 1.58887 23.5702 1.70029 23.5702C2.03456 23.5702 2.25739 23.6923 2.36881 24.0587C2.48023 24.3029 2.48023 24.425 2.36881 24.6693C2.25739 24.7914 2.14598 25.0356 2.03456 25.0356C1.58888 25.2799 1.47746 25.402 1.47746 25.5241C1.47746 25.7683 1.47745 26.0126 1.58887 26.1347C1.81171 26.3789 2.48024 26.9895 4.48581 27.1116C4.82007 27.1116 5.04291 27.478 5.15433 27.7222C5.15433 28.0886 4.93148 28.455 4.59722 28.5771C2.92591 29.0655 2.59166 29.4319 2.48024 29.554C2.59166 29.9204 3.70587 30.6531 5.60002 30.6531C6.0457 30.6531 6.60281 30.6531 7.04849 30.531C7.38275 30.531 7.71701 30.7752 7.71701 31.0195C7.82843 31.3858 7.717 31.7522 7.38274 31.8743C5.82285 32.7291 5.04292 33.584 5.04292 34.0724C5.15434 34.1946 5.37718 34.1946 5.60002 34.1946C6.60281 34.1946 8.60837 33.7061 10.5025 32.8512C10.6139 32.8512 10.7254 32.7291 10.8368 32.7291C11.0596 32.7291 11.2825 32.8512 11.3939 33.0955C11.6167 33.3397 11.5053 33.8282 11.2825 34.0724C10.1683 35.4157 9.49974 36.5148 9.38832 37.0033C9.49974 37.1254 9.61116 37.1254 9.72258 37.1254C10.1683 37.1254 10.7254 36.8812 11.3939 36.5148C12.3967 35.9042 13.6223 34.9273 14.4022 33.9503C14.5137 33.8282 14.7365 33.7061 14.8479 33.7061C14.9594 33.7061 15.0708 33.7061 15.1822 33.8282C15.405 33.9503 15.6279 34.3167 15.5165 34.683C15.1822 36.6369 15.405 38.1024 15.6279 38.4687C15.8507 38.4687 16.185 38.3466 16.7421 37.4918V31.9964C16.6307 31.9964 16.5192 31.9964 16.4078 31.9964C14.9594 31.9964 13.3995 31.3858 12.1738 30.2867C11.0596 29.3098 9.83401 27.478 9.83401 24.0587C9.83401 23.9365 9.834 23.8144 9.72258 23.8144C9.72258 23.8144 9.61116 23.6923 9.49974 23.6923C8.83122 23.6923 8.38554 23.9365 8.1627 24.1808C8.05128 24.425 7.82844 24.5471 7.60559 24.5471C7.15991 24.5471 6.60281 24.5471 6.15712 24.5471C5.82286 24.5471 5.48859 24.5471 5.15433 24.5471C4.70864 24.5471 4.48581 24.1808 4.48581 23.8144C4.48581 23.4481 4.82006 23.0817 5.15433 23.0817C5.48859 23.0817 5.82286 23.0817 6.15712 23.0817C6.60281 23.0817 6.93707 23.0817 7.27133 23.0817C7.82843 22.5932 8.49695 22.349 9.38832 22.2269C9.834 22.2269 10.2797 22.4711 10.6139 22.7153C10.9482 23.0817 11.1711 23.5702 11.1711 24.0587C11.1711 26.3789 11.8396 28.0886 13.0652 29.1877C13.9566 30.0425 15.1822 30.531 16.4078 30.531C16.5192 30.531 16.6307 30.531 16.7421 30.531V27.6001C16.7421 26.6232 17.4106 25.7683 18.302 25.7683C17.9677 24.5471 17.6334 23.4481 17.1878 22.5932C16.9649 22.2269 16.6307 21.8605 16.185 21.8605H12.9538C12.7309 21.8605 12.5081 21.8605 12.2853 21.9826L11.6167 22.2269C11.5053 22.2269 11.3939 22.349 11.1711 22.349C10.8368 22.349 10.614 22.2269 10.3911 21.9826C10.0568 21.6163 9.94543 21.2499 10.0568 20.7614L10.2797 19.7845C10.5025 18.5633 11.2825 17.5863 12.3967 17.22L13.288 16.8536C13.3995 16.8536 13.5109 16.7315 13.6223 16.6094L13.7337 16.3651C14.068 15.7546 14.7365 15.3882 15.405 15.3882H18.302C19.3048 15.3882 20.8646 15.3882 21.6446 14.7776C21.8674 14.6555 21.9789 14.6555 22.2017 14.6555C22.3131 14.6555 22.536 14.6555 22.6474 14.7776C22.9817 14.8997 23.2045 15.2661 23.3159 15.6324C23.7616 17.7085 23.0931 18.8075 22.4245 19.296C22.9816 20.5172 23.7616 22.2269 24.3187 24.1808C24.8758 22.5932 25.5443 21.0057 26.3243 19.4181C25.6557 18.8075 24.9872 17.7085 25.4329 15.6324C25.5443 15.2661 25.7672 14.8997 26.1014 14.7776C26.2128 14.6555 26.4357 14.6555 26.5471 14.6555C26.77 14.6555 26.9928 14.7776 27.1042 14.7776C27.8842 15.2661 29.3326 15.3882 30.4468 15.3882H33.3438C34.0123 15.3882 34.5694 15.7546 35.0151 16.3651L35.1265 16.6094C35.2379 16.7315 35.3493 16.8536 35.4608 16.8536L36.3521 17.22C37.3549 17.5863 38.2463 18.5633 38.4691 19.7845L38.692 20.7614C38.8034 21.2499 38.692 21.7384 38.3577 21.9826C38.1349 22.2269 37.912 22.349 37.5778 22.349C37.4663 22.349 37.2435 22.349 37.1321 22.2269L36.4635 21.9826C36.2407 21.8605 36.0179 21.8605 35.795 21.8605H32.0067C31.561 21.8605 31.2268 22.1048 31.0039 22.5932C30.6697 23.4481 30.224 24.5471 29.8897 25.6462C30.7811 25.7683 31.4496 26.6232 31.4496 27.6001V30.0425C31.561 30.1646 31.6725 30.1646 31.7839 30.1646C33.0095 30.1646 34.2351 29.6761 35.1265 28.8213C36.3521 27.7222 37.0206 26.0126 37.0206 23.6923C37.0206 23.2038 37.2435 22.7153 37.5778 22.349C37.912 21.9826 38.3577 21.8605 38.692 21.8605C39.6947 21.8605 40.3633 22.2269 40.9204 22.7153C40.9204 22.7153 41.7003 22.7153 42.0346 22.7153C43.1488 22.7153 44.1516 22.8375 45.0429 22.9596C47.0485 23.3259 48.1627 23.9365 48.2741 25.0356C48.3856 25.6462 48.2741 26.3789 47.8285 26.8674C47.4942 27.3559 47.0485 27.6001 46.4914 27.8444C46.9371 28.3328 47.2714 28.8213 47.2714 29.4319C47.2714 29.7983 47.1599 30.2867 46.6028 30.7752C45.9343 31.3858 44.9315 31.7522 43.7059 31.8743C44.4858 32.8512 44.8201 33.584 44.5973 34.4388C44.4858 34.8052 44.263 35.1715 43.9287 35.2936C43.5945 35.4157 43.2602 35.5379 42.7031 35.5379C41.9232 35.5379 40.9204 35.2936 39.8062 35.0494C40.1404 35.9042 40.3633 36.5148 40.3633 37.0033C40.3633 37.3697 40.2519 37.736 39.9176 37.9803C39.5833 38.3466 39.1376 38.4687 38.692 38.4687C37.2435 38.4687 35.3493 37.1254 34.458 36.2706C34.3465 37.6139 34.2351 38.5908 33.7895 39.2014C33.4552 39.5678 33.1209 39.6899 32.8981 39.812H32.7867C32.4524 39.812 32.0067 39.6899 31.6725 39.4457C31.561 39.6899 31.561 39.812 31.561 39.9342C32.2296 41.0332 32.6753 42.2544 32.6753 43.5977V44.941C32.6753 46.2844 31.8953 47.3834 30.6697 47.7498V47.8719C30.6697 48.2383 31.0039 48.6046 31.3382 48.6046H32.7867C33.0095 46.7728 34.2351 45.3074 35.795 44.941V43.5977H35.4608C35.1265 43.5977 34.7922 43.2314 34.7922 42.865C34.7922 42.4987 35.1265 42.1323 35.4608 42.1323H35.795V41.5217C35.795 41.1554 36.1293 40.789 36.4635 40.789C36.7978 40.789 37.1321 41.1554 37.1321 41.5217V42.1323H37.4663C37.8006 42.1323 38.1349 42.4987 38.1349 42.865C38.1349 43.2314 37.8006 43.5977 37.4663 43.5977H37.1321V44.941C38.8034 45.3074 40.029 46.895 40.1404 48.7267C40.1404 48.971 40.1404 49.0931 40.029 49.2152C39.9176 49.3373 39.6947 49.4595 39.5833 49.4595C39.1376 49.4595 38.9148 49.2152 38.9148 48.7267C38.8034 47.3834 37.8006 46.4065 36.575 46.4065C35.2379 46.4065 34.2351 47.5056 34.2351 48.971C34.2351 50.4364 35.2379 51.5355 36.575 51.5355C36.9092 51.5355 37.3549 51.4134 37.6892 51.2912C37.8006 51.2912 37.912 51.1691 38.0234 51.1691C38.2463 51.1691 38.4691 51.2912 38.5805 51.5355C38.8034 51.9018 38.5805 52.3903 38.2463 52.5124C37.6892 52.7567 37.1321 53.0009 36.575 53.0009C34.9037 53.0009 33.5666 51.9018 33.0095 50.1922H31.3382C30.224 50.1922 29.3326 49.2152 29.3326 47.994V47.8719C28.2184 47.5055 27.3271 46.4065 27.3271 45.0632V43.4756C27.3271 43.3535 27.327 43.3535 27.2156 43.2314L25.99 42.3765C25.8786 42.3765 25.7672 42.3765 25.7672 42.4987L25.2101 43.1093L25.0986 43.2314C25.2101 43.842 25.5443 44.2083 26.1014 44.8189C27.1042 45.7959 28.4413 47.1392 27.1042 50.0701C26.9928 50.3143 26.77 50.4364 26.5471 50.4364C26.4357 50.4364 26.3243 50.4364 26.2128 50.3143C25.8786 50.0701 25.7672 49.7037 25.99 49.3373C26.8814 47.5056 26.2128 46.895 25.3215 45.918L25.2101 45.7959L25.0986 49.9479C25.0986 50.3143 24.7644 50.6807 24.4301 50.6807C24.0958 50.6807 23.7616 50.3143 23.7616 49.9479V45.6738L23.6502 45.7959C22.6474 46.7728 21.9789 47.5056 22.8702 49.2152C23.0931 49.5816 22.8702 50.0701 22.536 50.1922C22.4245 50.1922 22.3131 50.3143 22.2017 50.3143C21.9789 50.3143 21.756 50.1922 21.6446 49.9479C20.3075 47.1392 21.6446 45.7959 22.6474 44.6968C23.2045 44.0862 23.5388 43.7199 23.7616 43.2314C23.6502 43.1093 23.6502 43.1093 23.5387 42.9871L22.9816 42.3765C22.9816 42.3765 22.8702 42.2544 22.7588 42.2544L21.5332 43.1093C21.4218 43.1093 21.4218 43.2314 21.4218 43.3535V44.6968C21.4218 46.0401 20.6418 47.1392 19.4162 47.5056V47.6277C19.4162 48.8489 18.5248 49.8258 17.4106 49.8258H15.405L16.185 52.3903C16.2964 52.7567 16.2964 53.123 16.185 53.3673C16.0736 53.6115 15.8507 53.9779 15.5165 54.1L14.4022 54.5885C13.9566 54.8327 13.7337 54.8327 13.6223 54.8327ZM11.7282 47.2613L13.6223 53.2452L14.4022 53.0009L12.3967 46.895L11.7282 47.2613ZM28.107 42.3765C28.3298 42.7429 28.4413 42.9871 28.4413 43.4756V44.8189C28.4413 45.6738 28.9984 46.2844 29.7783 46.2844C30.5583 46.2844 31.1154 45.6738 31.1154 44.8189V43.4756C31.1154 42.7429 31.0039 42.1323 30.6697 41.3996C30.0012 42.0102 29.3326 42.2544 28.5527 42.2544L28.107 42.3765ZM17.4106 41.3996C17.0763 42.0102 16.9649 42.7429 16.9649 43.4756V44.8189C16.9649 45.6738 17.522 46.2844 18.302 46.2844C19.0819 46.2844 19.639 45.6738 19.639 44.8189V43.4756C19.639 43.1093 19.7504 42.7429 19.9733 42.3765L19.5276 42.2544C18.7477 42.3765 18.0791 42.0102 17.4106 41.3996ZM18.4134 26.8674C18.1906 26.8674 18.0791 26.9895 18.0791 27.2338V39.3236C18.0791 40.1784 18.7477 40.9111 19.5276 40.9111H22.2017C22.6474 40.9111 23.0931 41.1553 23.4273 41.3996L23.9844 42.0102L24.6529 41.3996C24.9872 41.0332 25.4329 40.9111 25.8786 40.9111H28.5527C29.3326 40.9111 30.0011 40.1784 30.0011 39.3236V27.2338C30.0011 26.9895 29.8897 26.8674 29.6669 26.8674H18.4134ZM31.4496 37.2475C32.0067 38.1024 32.4524 38.2245 32.5638 38.2245C32.7867 37.8581 33.0095 36.3927 32.6753 34.4388C32.6753 34.0724 32.7867 33.8282 33.0095 33.584C33.1209 33.584 33.2323 33.4618 33.3438 33.4618C33.5666 33.4618 33.678 33.584 33.7895 33.7061C34.6808 34.683 35.795 35.66 36.7978 36.2706C37.4663 36.6369 38.0234 36.8812 38.4691 36.8812C38.5805 36.8812 38.692 36.8812 38.8034 36.8812C38.8034 36.3927 38.1349 35.1715 37.0206 33.9503C36.7978 33.7061 36.7978 33.3397 36.9092 32.9734C37.0206 32.7291 37.2435 32.607 37.4663 32.607C37.5777 32.607 37.6892 32.607 37.8006 32.7291C39.6947 33.584 41.5889 34.0724 42.7031 34.0724C42.926 34.0724 43.0374 34.0724 43.1488 33.9503C43.1488 33.4618 42.3688 32.607 40.8089 31.6301C40.4747 31.5079 40.3633 31.1416 40.4747 30.7752C40.5861 30.4089 40.8089 30.2867 41.1432 30.2867C41.7003 30.4089 42.2574 30.4089 42.7031 30.4089C44.5973 30.4089 45.6 29.7983 45.8229 29.4319C45.7115 29.1877 45.3772 28.8213 43.7059 28.3328C43.3716 28.2107 43.1488 27.8444 43.1488 27.478C43.1488 27.1116 43.4831 26.8674 43.8173 26.8674C45.9343 26.7453 46.6028 26.1347 46.7142 25.8904C46.8257 25.6462 46.9371 25.5241 46.8257 25.2799C46.8257 25.0356 46.2686 24.6693 44.7087 24.425C43.9287 24.3029 42.9259 24.1808 41.9232 24.1808C41.4775 24.1808 41.0318 24.1808 40.5861 24.1808C40.3633 24.1808 40.1404 24.0587 40.029 23.8144C39.8062 23.5702 39.3605 23.3259 38.692 23.3259C38.5805 23.3259 38.4691 23.4481 38.4691 23.4481C38.3577 23.5702 38.3577 23.5702 38.3577 23.6923C38.3577 27.1116 37.0207 28.9434 36.0179 29.9204C34.9037 31.0195 33.3438 31.6301 31.7839 31.6301C31.6725 31.6301 31.4496 31.6301 31.4496 31.6301V37.2475ZM26.3243 16.1209C26.2128 16.9757 26.4357 17.5863 26.8814 17.9527C27.4385 18.3191 27.5499 19.0518 27.2156 19.6624C26.5471 21.0057 25.6557 22.9596 25.0986 25.2799L28.3298 25.402C28.7755 23.9365 29.2212 22.5932 29.7783 21.4942C30.224 20.5172 31.1154 20.0287 32.0067 20.0287H32.5638C32.7867 19.0518 33.1209 18.0748 33.4552 17.22L33.3438 16.9757C33.2323 16.7315 33.0095 16.7315 32.7867 16.7315H29.8897C28.8869 16.6094 27.4385 16.6094 26.3243 16.1209ZM15.2936 16.6094C15.0708 16.6094 14.8479 16.7315 14.7365 16.8536L14.6251 16.9757C15.0708 17.9527 15.2936 18.9297 15.5165 19.7845H16.0736C16.9649 19.7845 17.8563 20.3951 18.302 21.2499C18.7477 22.2269 19.3048 23.6923 19.639 25.0356H22.8702C22.4245 22.7153 21.5332 20.6393 20.8647 19.296C20.5304 18.6854 20.7532 17.9527 21.1989 17.5863C21.6446 17.22 21.8674 16.6094 21.756 15.7546C20.6418 16.243 19.1933 16.243 18.0791 16.243H15.2936V16.6094ZM34.5694 18.0748C34.3466 18.6854 34.1237 19.296 34.0123 19.9066L35.2379 20.0287C35.5722 20.0287 36.0179 20.1508 36.3521 20.273L36.575 20.3951V19.9066C36.4636 19.1739 36.0179 18.6854 35.3493 18.4412L34.5694 18.0748ZM12.7309 18.3191C12.1738 18.5633 11.6167 19.0518 11.5053 19.7845L11.3939 20.273H11.7282C12.0624 20.1508 12.5081 20.0287 12.8424 20.0287H14.068C13.9566 19.4181 13.8451 18.6854 13.5109 18.0748L12.7309 18.3191ZM24.0958 34.5609C23.5387 34.5609 22.9817 34.3167 22.6474 33.8282C22.536 33.7061 22.4245 33.4618 22.536 33.3397C22.536 33.0955 22.6474 32.9734 22.7588 32.8512C22.8702 32.7291 23.0931 32.607 23.2045 32.607C23.4273 32.607 23.5388 32.7291 23.7616 32.8512C23.873 32.9734 23.9844 33.0955 24.2073 33.0955C24.4301 33.0955 24.5415 32.9734 24.6529 32.8512C24.7644 32.7291 24.9872 32.607 25.2101 32.607C25.3215 32.607 25.5443 32.7291 25.6557 32.8512C25.7672 32.9734 25.8786 33.2176 25.8786 33.3397C25.8786 33.584 25.8786 33.7061 25.7672 33.8282C25.0986 34.3167 24.6529 34.5609 24.0958 34.5609ZM27.5499 34.0724C27.2156 34.0724 26.8814 33.7061 26.8814 33.3397V32.7291C26.8814 32.3628 27.2156 31.9964 27.5499 31.9964C27.8842 31.9964 28.2184 32.3628 28.2184 32.7291V33.3397C28.2184 33.7061 27.8842 34.0724 27.5499 34.0724ZM20.5304 34.0724C20.1961 34.0724 19.8619 33.7061 19.8619 33.3397V32.7291C19.8619 32.3628 20.1961 31.9964 20.5304 31.9964C20.8646 31.9964 21.1989 32.3628 21.1989 32.7291V33.3397C21.1989 33.7061 20.9761 34.0724 20.5304 34.0724ZM31.1154 19.0518C30.7811 19.0518 30.4468 18.6854 30.4468 18.3191V17.8306C30.4468 17.4642 30.7811 17.0979 31.1154 17.0979C31.4496 17.0979 31.7839 17.4642 31.7839 17.8306V18.4412C31.7839 18.6854 31.4496 19.0518 31.1154 19.0518ZM17.0764 19.0518C16.7421 19.0518 16.4078 18.6854 16.4078 18.3191V17.8306C16.4078 17.4642 16.7421 17.0979 17.0764 17.0979C17.4106 17.0979 17.7449 17.4642 17.7449 17.8306V18.4412C17.7449 18.6854 17.4106 19.0518 17.0764 19.0518ZM20.3075 13.4343C19.9733 13.4343 19.639 13.0679 19.639 12.7016C19.639 12.3352 19.9733 11.9689 20.3075 11.9689H20.419V11.8467C19.7505 10.6255 18.8591 8.4274 19.7504 6.47349C20.1961 5.49654 20.9761 4.88594 22.0903 4.51958C22.536 4.39746 22.9816 4.27534 23.4273 4.27534V2.93203H23.0931C22.7588 2.93203 22.4245 2.56568 22.4245 2.19932C22.4245 1.83296 22.7588 1.4666 23.0931 1.4666H23.4273V0.856006C23.4273 0.489649 23.7616 0.123291 24.0958 0.123291C24.4301 0.123291 24.7644 0.489649 24.7644 0.856006V1.4666H25.0986C25.4329 1.4666 25.7672 1.83296 25.7672 2.19932C25.7672 2.56568 25.4329 2.93203 25.0986 2.93203H24.7644V4.27534C25.3215 4.39746 25.7672 4.39746 26.1014 4.51958C27.2156 4.88594 27.9956 5.49654 28.4413 6.47349C29.2212 8.30528 28.3298 10.6255 27.7727 11.8467V11.9689H27.8842C28.2184 11.9689 28.5527 12.3352 28.5527 12.7016C28.5527 13.0679 28.2184 13.4343 27.8842 13.4343H26.4357H20.3075ZM21.5332 6.22925C21.1989 6.47349 20.9761 6.71773 20.8647 7.08409C20.3075 8.30528 21.0875 10.5034 21.9789 11.8467H26.1014C27.1042 10.3813 27.7727 8.30528 27.2156 7.08409C27.1042 6.71773 26.8814 6.47349 26.5471 6.22925L26.2128 7.93892C26.1014 8.79376 25.4329 9.28223 24.6529 9.28223H23.4273C22.6474 9.28223 22.0903 8.67164 21.8674 7.93892L21.5332 6.22925ZM24.0958 5.74078C23.7616 5.74078 23.3159 5.74078 23.0931 5.86289L23.3159 7.8168C23.3159 7.93892 23.4273 7.93892 23.5387 7.93892H24.7644C24.8758 7.93892 24.8758 7.8168 24.9872 7.8168L25.3215 5.98501C24.7644 5.74078 24.4301 5.74078 24.0958 5.74078Z" fill="#60CAF2"/>
<path d="M24.0958 0.122119C24.4301 0.122119 24.7644 0.488477 24.7644 0.854835V1.46543V1.58755H24.8758H25.2101C25.5443 1.58755 25.8786 1.95391 25.8786 2.32027C25.8786 2.68662 25.5443 3.05298 25.2101 3.05298H24.8758H24.7644V3.1751V4.39629V4.51841H24.8758C25.3215 4.51841 25.7672 4.64053 26.2129 4.76265C27.3271 5.12901 28.107 5.73961 28.5527 6.71656C29.3326 8.54835 28.4413 10.8686 27.8842 11.9677L27.7727 12.0898H27.9956C28.3298 12.0898 28.6641 12.4562 28.6641 12.8225C28.6641 13.1889 28.3298 13.5552 27.9956 13.5552H26.4357H20.3076C19.9733 13.5552 19.639 13.1889 19.639 12.8225C19.639 12.4562 19.9733 12.0898 20.3076 12.0898H20.5304L20.419 11.9677C19.8619 10.7465 18.8591 8.54835 19.7504 6.71656C20.1961 5.73961 20.9761 5.12901 22.0903 4.76265C22.536 4.64053 22.9817 4.51841 23.4273 4.51841H23.5387V4.15205V2.93086V2.80874H23.4273H23.0931C22.7588 2.80874 22.4245 2.44239 22.4245 2.07603C22.4245 1.70967 22.7588 1.34331 23.0931 1.34331H23.4273H23.5387V0.732716C23.4273 0.366358 23.7616 0.122119 24.0958 0.122119ZM23.4273 7.93775H24.653C24.7644 7.93775 24.8758 7.81563 24.8758 7.69351L25.2101 5.86172V5.7396H25.0986C24.7644 5.7396 24.4301 5.61749 24.0958 5.61749C23.7616 5.61749 23.3159 5.61749 23.0931 5.7396H22.9816V5.86172L23.3159 7.69351C23.2045 7.81563 23.3159 7.93775 23.4273 7.93775ZM23.4273 9.28106C22.7588 9.28106 22.0903 8.67047 21.9789 7.93775L21.756 6.3502V6.22808L21.6446 6.3502C21.3103 6.59444 21.0875 6.83868 20.9761 7.20504C20.419 8.54835 21.1989 10.6244 22.0903 12.0898H22.2017H26.2129H26.3243C27.2156 10.6244 27.9956 8.54835 27.4385 7.20504C27.327 6.83868 27.1042 6.59444 26.77 6.3502L26.4357 6.10596V6.22808L26.2129 7.81563C26.1014 8.54835 25.4329 9.15894 24.7644 9.15894H23.4273V9.28106ZM26.1014 14.4101C26.3243 14.4101 26.4357 14.4101 26.6585 14.5322C27.4385 15.0207 28.8869 15.1428 30.0011 15.1428H32.8981C33.5666 15.1428 34.1237 15.5091 34.458 16.1197L34.5694 16.364C34.6808 16.4861 34.7922 16.6082 34.9037 16.6082L35.795 16.9746C36.7978 17.3409 37.5778 18.3179 37.912 19.5391L38.1349 20.516C38.2463 21.0045 38.1349 21.3709 37.8006 21.7372C37.5778 21.9815 37.3549 21.9815 37.0207 21.9815C36.9092 21.9815 36.7978 21.9815 36.575 21.8593L35.9064 21.6151C35.6836 21.493 35.4608 21.493 35.2379 21.493H33.2324H32.1181C31.6725 21.493 31.2268 21.7372 31.0039 22.2257C30.5583 23.0805 30.224 24.1796 29.8897 25.2787V25.4008H30.0011C30.8925 25.5229 31.4496 26.2556 31.4496 27.2326V30.0413V30.1635H31.561C31.6725 30.1635 31.7839 30.1635 31.8953 30.1635C33.1209 30.1635 34.3465 29.675 35.2379 28.8201C36.4635 27.7211 37.1321 25.8893 37.1321 23.6911C37.1321 23.2027 37.3549 22.7142 37.5778 22.4699C37.912 22.1036 38.2463 21.9815 38.692 21.9815C38.692 21.9815 38.692 21.9815 38.8034 21.9815C39.6948 21.9815 40.4747 22.3478 40.9204 22.7142C41.2546 22.7142 41.7003 22.7142 42.0346 22.7142C43.1488 22.7142 44.1516 22.8363 45.0429 22.9584C47.0485 23.3248 48.0513 23.9354 48.2741 25.0344C48.3856 25.645 48.2741 26.2556 47.8285 26.8662C47.4942 27.2326 47.0485 27.599 46.4914 27.8432L46.2686 27.9653L46.38 28.0874C46.8257 28.4538 47.1599 28.9423 47.1599 29.4307C47.1599 29.7971 47.0485 30.2856 46.4914 30.7741C45.8229 31.3847 44.8201 31.751 43.7059 31.8731H43.4831L43.7059 31.9952C44.4858 32.8501 44.8201 33.5828 44.5973 34.3155C44.4858 34.6819 44.263 34.9261 43.9287 35.1703C43.5945 35.2925 43.2602 35.4146 42.7031 35.4146C41.9232 35.4146 40.9204 35.2925 39.8062 34.9261L39.5833 34.804L39.6947 35.0482C40.1404 35.7809 40.2518 36.3915 40.2518 36.88C40.2518 37.2464 40.1404 37.6127 39.9176 37.857C39.5833 38.2233 39.1376 38.3454 38.692 38.3454C37.5778 38.3454 36.0179 37.4906 34.458 36.1473L34.2351 36.0252V36.2694C34.2351 37.6127 34.1237 38.5897 33.678 39.0782C33.3438 39.4445 33.0095 39.5666 32.7867 39.5666H32.6753C32.341 39.5666 32.0067 39.4445 31.561 39.2003L31.4496 39.0782V39.3224C31.4496 39.4445 31.4496 39.5666 31.4496 39.6888C32.1181 40.6657 32.5638 42.009 32.5638 43.2302V44.5735C32.5638 45.9168 31.7839 47.0159 30.6697 47.3823H30.5583V47.5044V47.6265C30.5583 47.9929 30.8925 48.3592 31.2268 48.3592H32.6753H32.7867V48.2371C32.8981 46.5274 34.1237 45.062 35.6836 44.6956H35.795V44.5735V43.4745V43.3523H35.6836H35.3493C35.0151 43.3523 34.6808 42.986 34.6808 42.6196C34.6808 42.2533 35.0151 41.8869 35.3493 41.8869H35.6836H35.795V41.7648V41.1542C35.795 40.7878 36.1293 40.4215 36.4636 40.4215C36.7978 40.4215 37.1321 40.7878 37.1321 41.1542V41.7648V41.8869H37.2435H37.5778C37.912 41.8869 38.2463 42.2533 38.2463 42.6196C38.2463 42.986 37.912 43.3523 37.5778 43.3523H37.2435H37.1321V43.4745V44.8178V44.9399H37.2435C38.8034 45.3062 40.029 46.7717 40.1404 48.6035C40.1404 48.9698 39.9176 49.3362 39.5833 49.3362C39.2491 49.3362 39.0262 49.0919 38.9148 48.7256C38.8034 47.3823 37.8006 46.2832 36.575 46.2832C35.2379 46.2832 34.2351 47.5044 34.2351 48.8477C34.2351 50.3131 35.3493 51.4122 36.575 51.4122C36.9092 51.4122 37.3549 51.2901 37.6892 51.168C37.8006 51.168 37.912 51.0458 38.0234 51.0458C38.2463 51.0458 38.4691 51.168 38.5805 51.4122C38.692 51.7786 38.5805 52.1449 38.3577 52.3892C37.8006 52.6334 37.2435 52.8776 36.6864 52.8776C35.1265 52.8776 33.678 51.7786 33.2324 50.0689V49.9468H33.1209H31.561C30.4468 49.9468 29.6669 48.9698 29.6669 47.8707V47.7486V47.6265H29.5555C28.4413 47.2602 27.6613 46.1611 27.6613 44.8178V43.4745C27.6613 43.3523 27.6613 43.2302 27.5499 43.2302L26.3243 42.3754C26.2128 42.3754 26.2128 42.4975 26.1014 42.4975L25.5443 43.1081L25.4329 43.2302H25.3215V43.3523C25.4329 43.8408 25.8786 44.3293 26.4357 44.8178C27.4385 45.7947 28.7755 47.138 27.4385 49.9468C27.327 50.191 27.1042 50.3131 26.8814 50.3131C26.7699 50.3131 26.6585 50.3131 26.5471 50.191C26.2129 50.0689 26.1014 49.5804 26.3243 49.2141C27.2156 47.3823 26.5471 46.7717 25.6557 45.7947L25.5443 45.6726L25.3215 45.4284V45.6726V49.8247C25.3215 50.191 24.9872 50.5574 24.653 50.5574C24.3187 50.5574 23.9844 50.191 23.9844 49.8247V45.6726V45.4284L23.7616 45.6726L23.6502 45.7947C22.6474 46.7717 21.9789 47.3823 22.9816 49.2141C23.0931 49.5804 22.9816 49.9468 22.7588 50.191C22.6474 50.191 22.536 50.3131 22.4245 50.3131C22.2017 50.3131 21.9789 50.191 21.8674 49.9468C20.5304 47.138 21.8674 45.7947 22.8702 44.8178C23.4273 44.2072 23.7616 43.8408 23.9844 43.3523V43.2302H23.873L23.7616 43.1081L23.2045 42.4975C23.0931 42.3754 23.0931 42.3754 22.9816 42.3754L21.756 43.2302C21.6446 43.3523 21.6446 43.3523 21.6446 43.4745V44.8178C21.6446 46.1611 20.8647 47.2602 19.7504 47.6265H19.639V47.7486V47.8707C19.639 49.0919 18.7477 49.9468 17.7449 49.9468H15.7393H15.6279V50.0689L16.5193 52.6334C16.7421 53.244 16.4078 53.9767 15.8507 54.2209L14.7365 54.7094C14.6251 54.7094 14.5137 54.8315 14.2908 54.8315C13.8452 54.8315 13.3995 54.4652 13.1766 53.9767L11.0596 47.6265C10.8368 47.0159 11.0596 46.4053 11.6167 46.039H11.7282V45.9168L10.8368 43.2302V43.1081H10.7254C10.6139 43.1081 10.5025 43.1081 10.3911 43.1081C9.83402 43.1081 9.27691 42.8639 8.94265 42.3754L7.93985 40.91C7.71701 40.6657 7.82844 40.1772 8.05128 39.933C8.1627 39.8109 8.27412 39.8109 8.38554 39.8109C8.60839 39.8109 8.7198 39.933 8.83122 40.0551L9.83402 41.5205C9.94544 41.6427 9.94543 41.6427 10.0569 41.7648L10.2797 41.8869L10.1683 41.6427L9.61116 39.933C9.49974 39.5666 9.61117 39.2003 9.94543 39.0782C10.0568 39.0782 10.0568 39.0782 10.1683 39.0782C10.3911 39.0782 10.6139 39.2003 10.7254 39.5666L11.2825 41.2763L11.3939 41.5205L11.5053 41.2763C11.6167 41.1542 11.6167 41.0321 11.6167 40.91L11.5053 39.0782C11.5053 38.7118 11.7282 38.3454 12.0624 38.3454C12.3967 38.3454 12.6195 38.5897 12.7309 38.956L12.8424 40.7878C12.8424 41.5205 12.5081 42.2533 11.951 42.6196H11.8396V42.7417L12.7309 45.4284V45.5505H12.8424C12.9538 45.5505 13.0652 45.5505 13.0652 45.5505C13.5109 45.5505 13.9566 45.9168 14.1794 46.4053L14.9594 48.6035V48.7256H15.0708H17.522C17.8563 48.7256 18.1906 48.3592 18.1906 47.9929V47.8707V47.7486H18.0791C16.9649 47.3823 16.185 46.2832 16.185 44.9399V43.4745C16.185 42.2533 16.5193 40.9099 17.2992 39.933C17.2992 39.8109 17.2992 39.6888 17.2992 39.5666V39.3224L17.1878 39.4445C16.8535 39.6888 16.5192 39.8109 16.0736 39.8109H15.9622C15.7393 39.8109 15.405 39.6888 15.0708 39.3224C14.7365 38.8339 14.5137 37.857 14.5137 36.5137V36.2694L14.2908 36.3915C12.731 37.7349 11.1711 38.5897 10.0569 38.5897C9.61117 38.5897 9.16548 38.4676 8.83122 38.1012C8.60838 37.857 8.49695 37.4906 8.49695 37.1243C8.49695 36.6358 8.7198 36.0252 9.05406 35.2925L9.16549 35.0482L8.94265 35.1703C7.82844 35.5367 6.82565 35.6588 6.0457 35.6588C5.4886 35.6588 5.15435 35.5367 4.82009 35.4146C4.48583 35.2925 4.26298 34.9261 4.15156 34.5598C3.92871 33.827 4.26298 32.9722 5.04292 32.2395L5.26576 32.1174H5.04292C3.8173 31.9952 2.81451 31.6289 2.25741 31.0183C1.7003 30.5298 1.58888 30.0413 1.58888 29.675C1.58888 29.1865 1.81172 28.698 2.36882 28.3317L2.48025 28.2095L2.25741 28.0874C1.7003 27.8432 1.25463 27.4768 0.920364 27.1105C0.586102 26.622 0.36325 26.0114 0.474671 25.2787C0.586092 24.6681 1.03178 24.0575 1.92314 23.6911C2.03456 23.6911 2.03456 23.6911 2.14598 23.6911C2.36882 23.6911 2.59166 23.8133 2.70308 24.1796C2.8145 24.546 2.70308 24.9123 2.36882 25.0344C1.92314 25.2787 1.7003 25.4008 1.7003 25.5229C1.7003 25.7672 1.70029 26.0114 1.81172 26.2556C2.03456 26.4999 2.70309 27.1105 4.82009 27.2326C5.15435 27.2326 5.37719 27.4768 5.37719 27.8432C5.37719 28.2096 5.15434 28.4538 4.9315 28.5759C3.26019 29.0644 2.81451 29.4307 2.81451 29.5529V29.675C2.92593 30.0413 4.04014 30.7741 5.93429 30.7741C6.37998 30.7741 6.93707 30.7741 7.38275 30.6519H7.49418C7.71702 30.6519 8.05128 30.8962 8.05128 31.1404C8.1627 31.5068 8.05128 31.751 7.71701 31.9952C6.15712 32.8501 5.37718 33.827 5.26576 34.3155V34.4376H5.37719C5.48861 34.4376 5.71145 34.5598 5.93429 34.5598C6.93708 34.5598 8.94265 34.0713 10.8368 33.2164C10.9482 33.2164 11.0596 33.2164 11.0596 33.2164C11.2825 33.2164 11.5053 33.3386 11.6167 33.4607C11.8396 33.7049 11.7282 34.0713 11.5053 34.3155C10.2797 35.6588 9.72258 36.7579 9.61116 37.2464V37.3685H9.72259C9.83401 37.3685 9.94543 37.4906 10.0569 37.4906C10.5025 37.4906 11.0596 37.2464 11.7282 36.88C12.731 36.2694 13.9566 35.2925 14.7365 34.3155C14.8479 34.1934 15.0708 34.0713 15.1822 34.0713C15.2936 34.0713 15.405 34.0713 15.5165 34.1934C15.7393 34.3155 15.8507 34.6819 15.8507 34.9261C15.5165 36.88 15.7393 38.3454 15.9622 38.7118V38.8339H16.0736C16.185 38.8339 16.6307 38.7118 17.1878 37.857V32.3616V32.2395H17.0764C16.9649 32.2395 16.8535 32.2395 16.8535 32.2395C15.405 32.2395 13.8452 31.6289 12.7309 30.6519C11.6167 29.675 10.3911 27.8432 10.3911 24.4239C10.3911 24.3017 10.2797 24.1796 10.2797 24.1796C10.2797 24.1796 10.1683 24.0575 10.0569 24.0575C9.38833 24.0575 8.83123 24.3017 8.71981 24.546C8.60839 24.7902 8.38555 24.7902 8.16271 24.7902C7.71702 24.7902 7.27134 24.7902 6.71423 24.7902C6.37997 24.7902 6.0457 24.7902 5.71144 24.7902C5.37718 24.7902 5.15435 24.546 5.04292 24.1796C5.04292 23.8133 5.26577 23.4469 5.60003 23.4469C5.93429 23.4469 6.26855 23.4469 6.60281 23.4469C6.93707 23.4469 7.38275 23.4469 7.71701 23.4469C8.1627 22.9584 8.83123 22.7142 9.83402 22.7142C9.83402 22.7142 9.83401 22.7142 9.94543 22.7142C10.3911 22.7142 10.7254 22.8363 11.0596 23.2027C11.3939 23.569 11.5053 23.9354 11.5053 24.4239C11.5053 26.7441 12.1738 28.4538 13.3995 29.5529C14.2908 30.4077 15.5165 30.8962 16.7421 30.8962C16.8535 30.8962 16.9649 30.8962 17.0764 30.8962H17.1878V30.0413V27.1105C17.1878 26.1335 17.8563 25.4008 18.6362 25.2787H18.7477V25.1566C18.4134 24.0575 17.9677 22.8363 17.6335 22.1036C17.4106 21.6151 16.9649 21.3709 16.5193 21.3709H15.4051H13.3995C13.1766 21.3709 12.9538 21.3709 12.7309 21.493L12.0624 21.7372C11.951 21.7372 11.8396 21.8593 11.6167 21.8593C11.3939 21.8593 11.0596 21.7372 10.8368 21.6151C10.5025 21.3709 10.3911 20.8824 10.5025 20.3939L10.7254 19.417C10.9482 18.1958 11.7282 17.3409 12.8424 16.8525L13.7337 16.4861C13.8452 16.4861 13.9566 16.364 14.068 16.2419L14.1794 15.9976C14.5137 15.387 15.1822 15.0207 15.7393 15.0207H18.6362C19.639 15.0207 21.1989 14.8986 21.9789 14.4101C22.0903 14.288 22.3131 14.288 22.536 14.288C22.6474 14.288 22.7588 14.288 22.9816 14.4101C23.3159 14.5322 23.5387 14.8986 23.5387 15.1428C23.9844 17.0967 23.3159 18.1958 22.6474 18.8064L22.536 18.9285V19.0506C23.0931 20.1497 23.873 21.8593 24.4301 23.8133L24.5415 24.1796L24.653 23.8133C25.2101 21.8593 25.99 20.1497 26.5471 19.0506V18.9285L26.4357 18.8064C25.7672 18.1958 25.0986 17.0967 25.5443 15.1428C25.6557 14.7764 25.8786 14.5322 26.1014 14.4101C25.99 14.4101 25.8786 14.5322 26.1014 14.4101ZM25.0986 25.4008H25.2101H28.3298H28.4413V25.2787C28.7755 23.9354 29.3326 22.4699 29.7783 21.493C30.224 20.6382 31.0039 20.0276 32.0067 20.0276H32.5638H32.6753V19.9054C32.7867 19.0506 33.1209 18.0737 33.5666 17.0967V16.9746L33.4552 16.8525C33.3438 16.6082 33.1209 16.4861 32.8981 16.4861H30.0011C28.8869 16.4861 27.4385 16.364 26.4357 15.8755L26.3243 15.7534V15.8755C26.2128 16.7303 26.4357 17.3409 26.8814 17.7073C27.327 18.0737 27.5499 18.8064 27.2156 19.417C26.5471 20.7603 25.6557 22.7142 25.0986 25.0344V25.4008ZM15.5165 20.0276H16.185C17.0764 20.0276 17.9677 20.6382 18.4134 21.493C18.8591 22.4699 19.4162 23.9354 19.7504 25.2787V25.4008H19.8619H22.9816H23.0931V25.2787C22.536 22.9584 21.6446 21.0045 20.9761 19.6612C20.6418 19.0506 20.8646 18.44 21.3103 17.9515C21.756 17.5852 21.9789 16.9746 21.8674 16.1197V15.9976L21.756 16.1197C20.7532 16.6082 19.3048 16.7303 18.1906 16.7303H15.2936C15.0708 16.7303 14.8479 16.8525 14.7365 17.0967L14.6251 17.2188V17.3409C14.9594 18.0737 15.2936 19.0506 15.5165 20.0276ZM33.9009 20.0276H34.0123H35.2379C35.5722 20.0276 36.0179 20.1497 36.3521 20.2718L36.575 20.3939L36.7978 20.516V20.2718L36.6864 19.7833C36.575 19.0506 36.0179 18.44 35.4608 18.3179L34.6808 18.0737H34.5694V18.1958C34.3466 18.8064 34.1237 19.417 34.0123 20.0276H33.9009ZM11.2825 20.3939L11.5053 20.2718L11.7282 20.1497C12.0624 20.0276 12.5081 19.9054 12.8424 19.9054H14.068H14.1794V19.7833C14.068 19.1727 13.8452 18.5621 13.6223 17.9515V17.8294H13.5109L12.7309 18.0737C12.0624 18.3179 11.6167 18.9285 11.5053 19.5391L11.3939 20.0276L11.2825 20.3939ZM31.7839 31.6289C31.6725 31.6289 31.561 31.6289 31.561 31.6289H31.4496V31.751V37.2464C32.0067 38.1012 32.4524 38.2233 32.5638 38.2233H32.6753V38.1012C32.8981 37.7349 33.1209 36.2694 32.7867 34.3155C32.7867 34.0713 32.8981 33.7049 33.1209 33.5828C33.2323 33.5828 33.3438 33.4607 33.4552 33.4607C33.678 33.4607 33.7894 33.5828 33.9009 33.7049C34.7922 34.6819 35.9064 35.6588 36.9092 36.2694C37.5778 36.6358 38.2463 36.88 38.5805 36.88C38.692 36.88 38.8034 36.88 38.9148 36.7579H39.0262V36.6358C38.9148 36.1473 38.3577 35.0482 37.1321 33.7049C36.9092 33.4607 36.9092 33.0943 37.0207 32.8501C37.1321 32.728 37.3549 32.6058 37.5778 32.6058C37.6892 32.6058 37.8006 32.6058 37.8006 32.6058C39.6947 33.5828 41.7003 33.9492 42.7031 33.9492C42.926 33.9492 43.1488 33.9492 43.2602 33.827H43.3716V33.7049C43.2602 33.2164 42.5917 32.3616 40.9204 31.3847C40.6975 31.2625 40.4747 30.8962 40.5861 30.5298C40.6975 30.2856 40.9204 30.0413 41.1432 30.0413H41.2546C41.8117 30.1635 42.2574 30.1635 42.7031 30.1635C44.5973 30.1635 45.7115 29.4307 45.8229 29.0644V28.9423C45.7115 28.8201 45.3772 28.3317 43.7059 27.9653C43.3716 27.8432 43.1488 27.599 43.2602 27.2326C43.2602 26.8662 43.5945 26.622 43.8173 26.622C45.9343 26.4999 46.6028 25.8893 46.8257 25.645C46.9371 25.4008 47.0485 25.2787 46.9371 24.9123C46.9371 24.6681 46.38 24.3017 44.8201 23.9354C44.0402 23.8133 43.0374 23.6911 42.0346 23.6911C41.5889 23.6911 41.1432 23.6911 40.6975 23.6911C40.4747 23.6911 40.2519 23.569 40.1404 23.4469C39.9176 23.0805 39.4719 22.9584 38.8034 22.9584C38.692 22.9584 38.5805 23.0805 38.5805 23.0805C38.4691 23.2027 38.4691 23.2027 38.4691 23.3248C38.4691 26.7441 37.2435 28.5759 36.1293 29.5529C34.7922 31.0183 33.2324 31.6289 31.7839 31.6289ZM28.8869 26.7441H24.3187H23.873H19.3048H18.5248C18.302 26.7441 18.0791 26.9884 18.0791 27.2326V39.3224C18.0791 40.2994 18.7477 41.0321 19.639 41.0321H22.2017H22.3131C22.7588 41.0321 23.2045 41.1542 23.5387 41.5205L24.0958 42.1311L24.2073 42.2533L24.3187 42.1311L24.8758 41.5205C25.2101 41.1542 25.6557 41.0321 26.1014 41.0321H26.2129H28.7755C29.6669 41.0321 30.3354 40.2994 30.3354 39.3224V27.2326C30.3354 26.9884 30.1126 26.7441 29.8897 26.7441H28.8869ZM29.7783 46.2832C30.5583 46.2832 31.1154 45.5505 31.1154 44.8178V43.4745C31.1154 42.7417 31.0039 42.009 30.6697 41.3984L30.5583 41.2763L30.4468 41.3984C29.8897 42.009 29.2212 42.2533 28.4413 42.2533H27.9956H27.7727L27.8842 42.4975C28.107 42.7417 28.2184 43.1081 28.2184 43.4745V44.8178C28.4413 45.6726 28.9984 46.2832 29.7783 46.2832ZM18.302 46.2832C19.0819 46.2832 19.639 45.5505 19.639 44.8178V43.4745C19.639 43.1081 19.7504 42.7417 19.9733 42.4975L20.0847 42.2533H19.8619H19.4162C18.6362 42.2533 17.9677 41.8869 17.4106 41.3984L17.2992 41.2763L17.1878 41.3984C16.8535 42.009 16.7421 42.7417 16.7421 43.4745V44.8178C16.9649 45.6726 17.6335 46.2832 18.302 46.2832ZM13.7337 53.3661L14.5137 52.9998H14.6251V52.8776L12.6195 47.0159V46.8938H12.5081L11.8396 47.138H11.7282V47.2602L13.7337 53.3661ZM31.1154 17.0967C31.4496 17.0967 31.7839 17.4631 31.7839 17.8294V18.44C31.7839 18.8064 31.4496 19.1727 31.1154 19.1727C30.7811 19.1727 30.4468 18.8064 30.4468 18.44V17.8294C30.4468 17.3409 30.7811 17.0967 31.1154 17.0967ZM17.0764 17.0967C17.4106 17.0967 17.7449 17.4631 17.7449 17.8294V18.44C17.7449 18.8064 17.4106 19.1727 17.0764 19.1727C16.7421 19.1727 16.4078 18.8064 16.4078 18.44V17.8294C16.4078 17.3409 16.7421 17.0967 17.0764 17.0967ZM27.5499 31.9952C27.8842 31.9952 28.2184 32.3616 28.2184 32.728V33.3386C28.2184 33.7049 27.8842 34.0713 27.5499 34.0713C27.2156 34.0713 26.8814 33.7049 26.8814 33.3386V32.728C26.9928 32.2395 27.2156 31.9952 27.5499 31.9952ZM20.5304 31.9952C20.8647 31.9952 21.1989 32.3616 21.1989 32.728V33.3386C21.1989 33.7049 20.8647 34.0713 20.5304 34.0713C20.1961 34.0713 19.8619 33.7049 19.8619 33.3386V32.728C19.9733 32.2395 20.1961 31.9952 20.5304 31.9952ZM23.0931 32.6058C23.3159 32.6058 23.4273 32.728 23.5387 32.8501C23.6502 32.9722 23.7616 33.0943 23.9844 33.0943C24.2073 33.0943 24.3187 32.9722 24.4301 32.8501C24.5415 32.728 24.7644 32.6058 24.8758 32.6058C24.9872 32.6058 25.2101 32.6058 25.3215 32.728C25.4329 32.8501 25.5443 32.9722 25.5443 33.2164C25.5443 33.3386 25.5443 33.5828 25.4329 33.7049C25.0986 34.1934 24.5415 34.4376 24.0958 34.4376C23.5387 34.4376 23.0931 34.1934 22.7588 33.7049C22.6474 33.5828 22.6474 33.3386 22.6474 33.2164C22.6474 33.0943 22.7588 32.8501 22.8702 32.728C22.8702 32.728 22.9816 32.6058 23.0931 32.6058ZM24.0958 0C23.6502 0 23.3159 0.366358 23.3159 0.854835V1.46543H22.9816C22.536 1.46543 22.2017 1.83179 22.2017 2.32027C22.2017 2.80874 22.536 3.1751 22.9816 3.1751H23.3159V4.39629C22.8702 4.39629 22.4245 4.51841 21.9789 4.64053C20.8647 5.00689 20.0847 5.61749 19.639 6.59444C18.8591 8.30411 19.5276 10.5023 20.3076 11.9677C19.8619 11.9677 19.5276 12.334 19.5276 12.8225C19.5276 13.311 19.8619 13.6774 20.3076 13.6774H26.4357H27.8842C28.3298 13.6774 28.6641 13.311 28.6641 12.8225C28.6641 12.334 28.3298 11.9677 27.8842 11.9677C28.6641 10.5023 29.3326 8.30411 28.5527 6.59444C28.107 5.61749 27.3271 5.00689 26.2129 4.64053C25.7672 4.51841 25.3215 4.39629 24.8758 4.39629V3.1751H25.2101C25.6557 3.1751 25.99 2.80874 25.99 2.32027C25.99 1.83179 25.6557 1.46543 25.2101 1.46543H24.8758V0.732716C24.7644 0.244239 24.4301 0 24.0958 0ZM23.4273 7.81563C23.3159 7.81563 23.3159 7.81563 23.3159 7.69351L22.9816 5.86172C23.3159 5.86172 23.6502 5.7396 23.9844 5.7396C24.3187 5.7396 24.653 5.7396 24.9872 5.86172L24.653 7.69351C24.653 7.81563 24.5415 7.81563 24.5415 7.81563H23.4273ZM23.4273 9.40318H24.653C25.4329 9.40318 26.1014 8.79259 26.2129 7.93775L26.4357 6.3502C26.77 6.59444 26.9928 6.83868 27.1042 7.08292C27.6613 8.42623 26.8814 10.5023 25.99 11.8456H21.9789C21.0875 10.5023 20.3076 8.42623 20.8647 7.08292C20.9761 6.71656 21.1989 6.47232 21.5332 6.3502L21.756 7.93775C21.9789 8.79259 22.6474 9.40318 23.4273 9.40318ZM26.1014 14.288C25.99 14.288 25.7672 14.288 25.6557 14.4101C25.3215 14.5322 25.0986 14.8986 24.9872 15.2649C24.5415 17.3409 25.3215 18.44 25.8786 19.0506C25.3215 20.2718 24.5415 21.9815 23.9844 23.8133C23.4273 21.9815 22.7588 20.2718 22.0903 19.0506C22.6474 18.5621 23.4273 17.3409 22.9816 15.2649C22.8702 14.8986 22.6474 14.5322 22.3131 14.4101C22.2017 14.288 21.9789 14.288 21.8674 14.288C21.6446 14.288 21.4218 14.4101 21.3103 14.5322C20.5304 15.0207 19.0819 15.1428 18.0791 15.1428H15.2936C14.6251 15.1428 13.9566 15.5091 13.6223 16.1197L13.5109 16.364C13.3995 16.4861 13.2881 16.6082 13.1766 16.6082L12.2853 16.9746C11.1711 17.3409 10.3911 18.3179 10.1683 19.5391L9.94543 20.516C9.83401 21.0045 10.0569 21.493 10.3911 21.8593C10.614 22.1036 10.9482 22.2257 11.1711 22.2257C11.2825 22.2257 11.5053 22.2257 11.6167 22.1036L12.2853 21.8593C12.5081 21.7372 12.7309 21.7372 12.9538 21.7372H14.9594H16.0736C16.5192 21.7372 16.8535 21.9815 17.0764 22.3478C17.522 23.2027 17.8563 24.3017 18.1906 25.4008C17.2992 25.5229 16.6307 26.3778 16.6307 27.3547V30.0413C16.5192 30.0413 16.4078 30.0413 16.2964 30.0413C15.2936 30.0413 14.068 29.675 13.0652 28.698C11.8396 27.599 11.1711 25.8893 11.1711 23.569C11.1711 23.0805 10.9482 22.5921 10.614 22.2257C10.2797 21.8593 9.83401 21.7372 9.38832 21.7372C9.38832 21.7372 9.38834 21.7372 9.27691 21.7372C8.16271 21.7372 7.49417 22.1036 7.15991 22.5921C6.82565 22.5921 6.49139 22.5921 6.0457 22.5921C5.71144 22.5921 5.37719 22.5921 5.04292 22.5921C4.59724 22.5921 4.37439 22.9584 4.37439 23.4469C4.37439 23.9354 4.70865 24.1796 5.15434 24.1796C5.4886 24.1796 5.82287 24.1796 6.15713 24.1796C6.60281 24.1796 7.04849 24.1796 7.49418 24.1796C7.71702 24.1796 7.93986 24.0575 8.05128 23.8133C8.27412 23.569 8.7198 23.3248 9.38832 23.3248C9.49975 23.3248 9.49974 23.3248 9.61116 23.4469C9.61116 23.4469 9.72259 23.569 9.72259 23.6911C9.72259 27.1105 11.0596 29.0644 12.0624 30.0413C13.3995 31.2625 14.9594 31.751 16.2964 31.751C16.4078 31.751 16.5192 31.751 16.6307 31.751V37.2464C16.185 37.9791 15.7393 38.1012 15.5165 38.2233C15.2936 37.857 15.0708 36.3915 15.4051 34.4376C15.5165 34.0713 15.2936 33.7049 15.0708 33.5828C14.9594 33.5828 14.8479 33.4607 14.7365 33.4607C14.5137 33.4607 14.4023 33.5828 14.1794 33.7049C13.2881 34.6819 12.1738 35.6588 11.1711 36.2694C10.3911 36.7579 9.83401 36.88 9.49975 36.88C9.38833 36.88 9.27691 36.88 9.27691 36.88C9.27691 36.5137 9.94543 35.4146 11.0596 33.9492C11.2825 33.7049 11.2825 33.2164 11.1711 32.9722C11.0596 32.728 10.8368 32.6058 10.614 32.6058C10.5025 32.6058 10.3911 32.6058 10.2797 32.728C8.38554 33.5828 6.37997 34.0713 5.4886 34.0713C5.26576 34.0713 5.15435 34.0713 5.04292 33.9492C5.04292 33.5828 5.82286 32.728 7.38275 31.751C7.71701 31.6289 7.82843 31.1404 7.71701 30.7741C7.60559 30.4077 7.38276 30.1635 7.0485 30.1635H6.93707C6.37997 30.2856 5.93428 30.2856 5.4886 30.2856C3.59445 30.2856 2.59167 29.675 2.48025 29.3086C2.59167 29.1865 2.92592 28.8201 4.59723 28.3317C4.93149 28.2096 5.15434 27.8432 5.15434 27.4768C5.15434 27.1105 4.82008 26.7441 4.48582 26.7441C2.36883 26.622 1.81172 26.0114 1.58888 25.7672C1.47746 25.645 1.36605 25.4008 1.47747 25.1566C1.47747 25.1566 1.58889 24.9123 2.03457 24.6681C2.36883 24.546 2.59167 24.0575 2.48025 23.569C2.36883 23.2027 2.03456 23.0805 1.81172 23.0805C1.70029 23.0805 1.58888 23.0805 1.58888 23.0805C0.697512 23.4469 0.251826 24.0575 0.140405 24.7902C0.0289848 25.5229 0.140416 26.1335 0.586098 26.622C0.92036 27.1105 1.36605 27.4768 2.03457 27.7211C1.58889 28.0874 1.25461 28.5759 1.25461 29.1865C1.25461 29.5529 1.36604 30.0413 1.92314 30.5298C2.48025 31.0183 3.48304 31.5068 4.82009 31.6289C4.04014 32.4837 3.70588 33.3386 3.92872 34.0713C4.04014 34.4376 4.26297 34.804 4.59723 35.0482C4.93149 35.1703 5.37718 35.2925 5.82287 35.2925C6.71423 35.2925 7.71702 35.0482 8.71981 34.804C8.38555 35.4146 8.16271 36.1473 8.16271 36.6358C8.16271 37.0021 8.27412 37.3685 8.60838 37.6127C8.94265 37.9791 9.38832 38.1012 9.94543 38.1012C11.2825 38.1012 12.9538 37.0021 14.2908 35.9031C14.2908 37.0021 14.4023 38.1012 14.8479 38.8339C15.1822 39.3224 15.5165 39.4445 15.7393 39.4445H15.8507C16.185 39.4445 16.6307 39.3224 16.9649 39.0782C16.9649 39.2003 16.9649 39.3224 16.9649 39.5666C16.2964 40.6657 15.8507 41.8869 15.8507 43.2302V44.5735C15.8507 45.9168 16.7421 47.138 17.8563 47.5044V47.6265C17.8563 47.9929 17.6335 48.2371 17.2992 48.2371H14.8479L14.068 46.039C13.8451 45.4284 13.3995 45.1841 12.8424 45.1841C12.731 45.1841 12.6195 45.1841 12.5081 45.1841L11.6167 42.4975C12.2853 42.1311 12.6195 41.3984 12.6195 40.5436L12.5081 38.7118C12.5081 38.2233 12.1738 37.9791 11.7282 37.9791C11.2825 37.9791 11.0596 38.3454 11.0596 38.8339L11.1711 40.6657C11.1711 40.7878 11.1711 40.7878 11.0596 40.91L10.5025 39.2003C10.3911 38.8339 10.0569 38.7118 9.83402 38.7118C9.7226 38.7118 9.61116 38.7118 9.61116 38.7118C9.2769 38.8339 9.05407 39.3224 9.16549 39.6888L9.72259 41.3984C9.61117 41.3984 9.61117 41.2763 9.49975 41.2763L8.49695 39.8109C8.38553 39.5666 8.16269 39.4445 7.93985 39.4445C7.82843 39.4445 7.6056 39.4445 7.49418 39.5666C7.15991 39.8109 7.04849 40.2994 7.38275 40.6657L8.38554 42.1311C8.71981 42.6196 9.27691 42.986 9.83402 42.986C9.94544 42.986 10.0569 42.986 10.2797 42.986L11.1711 45.6726C10.614 46.039 10.2797 46.7717 10.5025 47.3823L12.6195 53.7325C12.8424 54.3431 13.288 54.5873 13.8452 54.5873C13.9566 54.5873 14.1794 54.5873 14.2908 54.4652L15.4051 53.9767C16.0736 53.7325 16.4078 52.8776 16.185 52.1449L15.2936 49.5804H17.2992C18.4134 49.5804 19.3048 48.6035 19.3048 47.3823V47.2602C20.419 46.8938 21.3103 45.7947 21.3103 44.3293V43.4745C21.3103 43.3523 21.3103 43.3523 21.4218 43.3523L22.6474 42.4975C22.7588 42.4975 22.7588 42.4975 22.8702 42.6196L23.4273 43.2302C23.4273 43.2302 23.5388 43.3523 23.6502 43.3523C23.5388 43.8408 23.0931 44.2072 22.6474 44.8178C21.6446 45.7947 20.1961 47.2602 21.6446 50.0689C21.756 50.3131 21.9789 50.4353 22.3131 50.4353C22.4245 50.4353 22.536 50.4352 22.6474 50.3131C22.9817 50.0689 23.0931 49.5804 22.9816 49.2141C22.0903 47.5044 22.7588 46.8938 23.6502 45.9168L23.7616 45.7947V49.9468C23.7616 50.4353 24.0959 50.8016 24.5415 50.8016C24.9872 50.8016 25.3215 50.4353 25.3215 49.9468V45.7947L25.4329 45.9168C26.4357 46.8938 26.9928 47.5044 26.1014 49.2141C25.8786 49.5804 25.99 50.0689 26.4357 50.3131C26.5471 50.4352 26.6585 50.4353 26.77 50.4353C26.9928 50.4353 27.327 50.3131 27.4385 50.0689C28.8869 47.2602 27.4385 45.7947 26.4357 44.8178C25.8786 44.3293 25.5443 43.8408 25.4329 43.3523C25.5443 43.3523 25.5443 43.2302 25.6557 43.2302L26.2129 42.6196C26.2129 42.6196 26.3243 42.4975 26.4357 42.4975L27.6613 43.3523L27.7727 43.4745V44.8178C27.7727 46.1611 28.6641 47.3823 29.7783 47.7486V47.8707C29.7783 49.0919 30.6697 50.0689 31.7839 50.0689H33.3438C33.7894 51.7786 35.2379 52.9998 36.9092 52.9998C37.4663 52.9998 38.1349 52.8776 38.5805 52.5113C38.9148 52.267 39.1376 51.7786 38.9148 51.4122C38.8034 51.168 38.5806 50.9237 38.2463 50.9237C38.1349 50.9237 38.0234 50.9237 37.912 51.0458C37.5778 51.168 37.2435 51.2901 36.9092 51.2901C35.6836 51.2901 34.6808 50.191 34.6808 48.8477C34.6808 47.5044 35.6836 46.4053 36.9092 46.4053C38.1349 46.4053 39.1376 47.3823 39.1376 48.7256C39.1376 49.0919 39.4719 49.4583 39.9176 49.4583C40.3633 49.4583 40.5861 49.0919 40.5861 48.6035C40.4747 46.7717 39.2491 45.1841 37.5778 44.8178V43.4745H37.912C38.3577 43.4745 38.692 43.1081 38.692 42.6196C38.692 42.1311 38.3577 41.7648 37.912 41.7648H37.5778V41.1542C37.5778 40.6657 37.2435 40.2994 36.7978 40.2994C36.3521 40.2994 36.0179 40.6657 36.0179 41.1542V41.7648H35.6836C35.2379 41.7648 34.9037 42.1311 34.9037 42.6196C34.9037 43.1081 35.2379 43.4745 35.6836 43.4745H36.0179V44.8178C34.458 45.1841 33.2323 46.6496 33.0095 48.4813H31.561C31.2268 48.4813 31.0039 48.2371 31.0039 47.8707V47.7486C32.1181 47.3823 33.0095 46.2832 33.0095 44.8178V43.4745C33.0095 42.1311 32.6752 40.91 31.8953 39.8109C31.8953 39.6888 31.8953 39.5666 31.8953 39.3224C32.2296 39.5666 32.6752 39.6888 33.0095 39.6888H33.1209C33.3438 39.6888 33.7895 39.5666 34.0123 39.0782C34.458 38.3454 34.5694 37.2464 34.5694 36.1473C35.9064 37.2464 37.5778 38.3454 38.9148 38.3454C39.3605 38.3454 39.9176 38.2233 40.2518 37.857C40.4747 37.6127 40.6975 37.2464 40.6975 36.88C40.6975 36.2694 40.4747 35.6588 40.1404 35.0482C41.1432 35.4146 42.146 35.5367 43.0374 35.5367C43.483 35.5367 43.9287 35.4146 44.263 35.2925C44.5973 35.0482 44.9315 34.804 44.9315 34.3155C45.1544 33.4607 44.8201 32.728 44.0402 31.8731C45.3772 31.751 46.38 31.2625 46.9371 30.7741C47.4942 30.2856 47.6056 29.675 47.6056 29.4307C47.6056 28.8201 47.3828 28.3317 46.8257 27.9653C47.3828 27.7211 47.9399 27.3547 48.2741 26.8662C48.7198 26.3778 48.8312 25.645 48.7198 25.0344C48.497 23.9354 47.4942 23.2027 45.3772 22.8363C44.3744 22.7142 43.2602 22.5921 42.3689 22.5921C41.9232 22.5921 41.5889 22.5921 41.2546 22.5921C40.809 22.1036 40.029 21.8593 39.1376 21.7372C39.1376 21.7372 39.1376 21.7372 39.0262 21.7372C38.5805 21.7372 38.1349 21.9815 37.8006 22.2257C37.4663 22.5921 37.2435 23.0805 37.2435 23.569C37.2435 25.7672 36.575 27.4768 35.3493 28.698C34.3466 29.675 33.0095 30.0413 32.1181 30.0413C32.0067 30.0413 31.8953 30.0413 31.7839 30.0413V27.1105C31.7839 26.1335 31.1154 25.2787 30.224 25.1566C30.5582 24.0575 31.0039 22.8363 31.3382 22.1036C31.561 21.7372 31.8953 21.493 32.341 21.493H33.4552H35.4608C35.6836 21.493 35.9064 21.493 36.1293 21.6151L36.7978 21.8593C36.9092 21.8593 37.1321 21.9815 37.2435 21.9815C37.5778 21.9815 37.8006 21.8593 38.0234 21.6151C38.3577 21.2488 38.4691 20.7603 38.4691 20.2718L38.2463 19.2948C38.0234 18.0737 37.1321 17.0967 36.1293 16.7303L35.2379 16.364C35.1265 16.364 35.0151 16.2419 34.9037 16.1197L34.7922 15.8755C34.458 15.2649 33.7895 14.8986 33.1209 14.8986H30.224C29.2212 14.8986 27.7727 14.8986 26.9928 14.288C26.5471 14.4101 26.3243 14.288 26.1014 14.288ZM25.2101 25.2787C25.7672 23.0805 26.6585 21.0045 27.3271 19.6612C27.6613 19.0506 27.4385 18.3179 26.9928 17.8294C26.5471 17.4631 26.3243 16.8525 26.4357 16.1197C27.4385 16.6082 28.8869 16.7303 30.1126 16.7303H33.0095C33.2323 16.7303 33.3438 16.8525 33.4552 16.9746L33.5666 17.0967C33.1209 18.0737 32.8981 19.0506 32.6753 19.9054H32.0067C31.0039 19.9054 30.1126 20.516 29.6669 21.3709C29.2212 22.3478 28.6641 23.8133 28.3298 25.1566H25.2101V25.2787ZM15.6279 19.9054C15.5165 19.0506 15.1822 18.0737 14.7365 17.0967L14.8479 16.9746C14.9594 16.8525 15.1822 16.7303 15.2936 16.7303H18.1906C19.3048 16.7303 20.7532 16.6082 21.8674 16.1197C21.9789 16.9746 21.756 17.4631 21.3103 17.8294C20.7532 18.1958 20.6418 19.0506 20.9761 19.6612C21.6446 21.0045 22.536 23.0805 23.0931 25.2787H19.7504C19.4162 23.9354 18.8591 22.4699 18.4134 21.493C17.9677 20.516 17.0764 20.0276 16.0736 20.0276H15.6279V19.9054ZM34.0123 19.9054C34.1237 19.2948 34.3466 18.6842 34.5694 18.0737L35.3493 18.3179C35.9064 18.5621 36.3521 19.0506 36.4636 19.7833L36.575 20.2718L36.3521 20.1497C36.0179 20.0276 35.5722 19.9054 35.2379 19.9054H34.0123ZM11.5053 20.2718L11.6167 19.7833C11.7282 19.1727 12.1738 18.5621 12.7309 18.3179L13.5109 18.0737C13.7337 18.6842 13.9566 19.2948 14.068 19.9054H12.8424C12.3967 19.9054 12.0624 20.0276 11.7282 20.1497L11.5053 20.2718ZM31.7839 31.751C33.1209 31.751 34.6808 31.2625 36.0179 30.0413C37.1321 29.0644 38.3577 27.1105 38.3577 23.6911C38.3577 23.569 38.3577 23.569 38.4691 23.4469C38.4691 23.4469 38.5805 23.3248 38.692 23.3248C39.3605 23.3248 39.8062 23.569 40.029 23.8133C40.1404 24.0575 40.3633 24.1796 40.5861 24.1796C41.0318 24.1796 41.4775 24.1796 41.9232 24.1796C42.9259 24.1796 43.9287 24.3017 44.7087 24.4239C46.38 24.6681 46.7143 25.1566 46.8257 25.2787C46.8257 25.5229 46.8257 25.645 46.7142 25.8893C46.4914 26.1335 45.8229 26.7441 43.8173 26.8662C43.4831 26.8662 43.1488 27.2326 43.1488 27.599C43.1488 27.9653 43.3716 28.3317 43.7059 28.4538C45.3772 28.9423 45.7115 29.3086 45.8229 29.4307C45.7115 29.7971 44.5973 30.4077 42.8145 30.4077C42.3688 30.4077 41.9232 30.4077 41.3661 30.2856H41.2546C40.9204 30.2856 40.6975 30.5298 40.5861 30.8962C40.4747 31.2625 40.5861 31.6289 40.9204 31.8731C42.4803 32.728 43.2602 33.5828 43.2602 34.0713C43.1488 34.0713 43.0374 34.1934 42.8145 34.1934C41.8117 34.1934 39.8062 33.7049 38.0234 32.8501C37.912 32.8501 37.8006 32.728 37.6892 32.728C37.4663 32.728 37.2435 32.8501 37.1321 33.0943C36.9092 33.4607 36.9092 33.827 37.2435 34.0713C38.4691 35.4146 39.0262 36.5137 39.0262 37.0021C38.9148 37.0021 38.9148 37.0021 38.8034 37.0021C38.4691 37.0021 37.912 36.88 37.1321 36.3915C36.1293 35.7809 35.0151 34.804 34.1237 33.827C34.0123 33.7049 33.7894 33.5828 33.5666 33.5828C33.4552 33.5828 33.3438 33.5828 33.2324 33.7049C32.8981 33.827 32.7867 34.1934 32.8981 34.5598C33.2324 36.5137 33.0095 37.9791 32.7867 38.3454C32.5638 38.3454 32.2296 38.1012 31.6725 37.3685V31.8731C31.561 31.751 31.6725 31.751 31.7839 31.751ZM28.8869 26.8662H29.6669C29.7783 26.8662 30.0011 26.9884 30.0011 27.2326V39.3224C30.0011 40.1772 29.3326 40.91 28.5527 40.91H25.99H25.8786C25.4329 40.91 24.9872 41.1542 24.653 41.3984L24.0958 42.009L23.5387 41.3984C23.2045 41.0321 22.7588 40.91 22.3131 40.91H22.2017H19.639C18.8591 40.91 18.1906 40.1772 18.1906 39.3224V27.2326C18.1906 27.1105 18.302 26.8662 18.5248 26.8662H19.3048H23.873H24.3187H28.8869ZM29.7783 46.1611C29.1098 46.1611 28.5527 45.5505 28.5527 44.8178V43.4745C28.5527 43.1081 28.4413 42.7417 28.2184 42.3754H28.6641C29.444 42.3754 30.224 42.009 30.6697 41.3984C30.8925 42.009 31.1154 42.7417 31.1154 43.3523V44.6956C31.0039 45.5505 30.4468 46.1611 29.7783 46.1611ZM18.302 46.1611C17.6335 46.1611 17.0764 45.5505 17.0764 44.8178V43.4745C17.0764 42.7417 17.1878 42.1311 17.522 41.5205C18.0791 42.1311 18.7477 42.4975 19.5276 42.4975H19.9733C19.7504 42.8639 19.639 43.2302 19.639 43.5966V44.9399C19.639 45.5505 19.0819 46.1611 18.302 46.1611ZM13.7337 53.244L11.7282 47.3823L12.3967 47.138L14.4023 52.9998L13.7337 53.244ZM31.1154 16.9746C30.6697 16.9746 30.3354 17.3409 30.3354 17.8294V18.44C30.3354 18.9285 30.6697 19.2948 31.1154 19.2948C31.561 19.2948 31.8953 18.9285 31.8953 18.44V17.8294C31.7839 17.3409 31.4496 16.9746 31.1154 16.9746ZM17.0764 16.9746C16.6307 16.9746 16.2964 17.3409 16.2964 17.8294V18.44C16.2964 18.9285 16.6307 19.2948 17.0764 19.2948C17.522 19.2948 17.8563 18.9285 17.8563 18.44V17.8294C17.7449 17.3409 17.4106 16.9746 17.0764 16.9746ZM27.5499 31.8731C27.1042 31.8731 26.77 32.2395 26.77 32.728V33.3386C26.77 33.827 27.1042 34.1934 27.5499 34.1934C27.9956 34.1934 28.3298 33.827 28.3298 33.3386V32.728C28.3298 32.2395 27.9956 31.8731 27.5499 31.8731ZM20.5304 31.8731C20.0847 31.8731 19.7504 32.2395 19.7504 32.728V33.3386C19.7504 33.827 20.0847 34.1934 20.5304 34.1934C20.9761 34.1934 21.3103 33.827 21.3103 33.3386V32.728C21.3103 32.2395 20.9761 31.8731 20.5304 31.8731ZM23.0931 32.4837C22.8702 32.4837 22.7588 32.6058 22.6474 32.728C22.3131 32.9722 22.3131 33.5828 22.536 33.827C22.8702 34.3155 23.4273 34.5598 23.9844 34.5598C24.5415 34.5598 25.0986 34.3155 25.4329 33.827C25.6558 33.4607 25.6557 32.9722 25.3215 32.728C25.2101 32.6058 24.9872 32.4837 24.8758 32.4837C24.653 32.4837 24.4301 32.6058 24.3187 32.728C24.3187 32.8501 24.0959 32.9722 23.9844 32.9722C23.7616 32.9722 23.6502 32.8501 23.6502 32.728C23.5388 32.6058 23.3159 32.4837 23.0931 32.4837Z" fill="#60CAF2"/>
</svg>
