<?xml version="1.0" encoding="utf-8"?>
<!-- Generator: Adobe Illustrator 23.0.1, SVG Export Plug-In . SVG Version: 6.00 Build 0)  -->
<svg version="1.1" id="Слой_1" xmlns="http://www.w3.org/2000/svg" xmlns:xlink="http://www.w3.org/1999/xlink" x="0px" y="0px"
	 viewBox="0 0 49 51" style="enable-background:new 0 0 49 51;" xml:space="preserve">
<style type="text/css">
	.st0{fill:#60CAF2;}
</style>
<g>
	<path class="st0" d="M38.8,24.4c0-0.5-0.4-0.8-0.8-0.8s-0.8,0.4-0.8,0.8c0,2.8-2.3,5-5,5c-0.5,0-0.8,0.4-0.8,0.8s0.4,0.8,0.8,0.8
		C35.8,31.1,38.8,28.1,38.8,24.4z"/>
	<path class="st0" d="M21.3,32.6c-0.4,0.7-4.3,6.6-4.3,9.1c0,2.9,2.3,5.3,5,5.3c2.7,0,5-2.4,5-5.3c0-2.5-3.9-8.4-4.3-9.1
		c-0.2-0.2-0.4-0.4-0.7-0.4C21.7,32.2,21.4,32.4,21.3,32.6z M25.3,41.7c0,1.9-1.6,3.6-3.4,3.6c-1.8,0-3.4-1.7-3.4-3.6
		c0-1.3,1.8-4.7,3.4-7.1C23.5,37,25.3,40.4,25.3,41.7z"/>
	<path class="st0" d="M12.7,17.9c-0.3,0-0.5,0.1-0.7,0.4c-0.5,0.8-5.2,7.6-5.2,10.6c0,3.2,2.6,5.9,5.9,5.9c3.2,0,5.9-2.6,5.9-5.9
		c0-3-4.7-9.8-5.2-10.6C13.3,18.1,13,17.9,12.7,17.9z M12.7,33.1c-2.3,0-4.2-1.9-4.2-4.2c0-1.6,2.3-5.7,4.2-8.6
		c1.9,2.8,4.2,6.9,4.2,8.6C16.9,31.2,15.1,33.1,12.7,33.1z"/>
	<path class="st0" d="M23.7,23.6c0,0.5-0.4,0.8-0.8,0.8c-0.5,0-0.8-0.4-0.8-0.8c0-0.5,0.4-0.8,0.8-0.8
		C23.3,22.7,23.7,23.1,23.7,23.6z"/>
	<path class="st0" d="M32.8,4.4C32.6,4.1,32.3,4,32.1,4c-0.3,0-0.6,0.1-0.7,0.4c-0.2,0.4-6,9.3-8.3,15.7c-0.2,0.4,0.1,0.9,0.5,1.1
		c0.4,0.2,0.9-0.1,1.1-0.5c1.8-4.9,5.8-11.6,7.5-14.2c2.9,4.6,8.4,14.3,8.4,18c0,4.6-3.8,8.4-8.4,8.4c-3.7,0-7.1-2.5-8.1-6.1
		c-0.1-0.4-0.6-0.7-1-0.6c-0.4,0.1-0.7,0.6-0.6,1c1.2,4.3,5.2,7.3,9.7,7.3c5.6,0,10.1-4.5,10.1-10.1C42.1,19.8,35.2,8.1,32.8,4.4z"
		/>
</g>
</svg>
