<?xml version="1.0" encoding="utf-8"?>
<!-- Generator: Adobe Illustrator 23.0.1, SVG Export Plug-In . SVG Version: 6.00 Build 0)  -->
<svg version="1.1" id="Слой_1" xmlns="http://www.w3.org/2000/svg" xmlns:xlink="http://www.w3.org/1999/xlink" x="0px" y="0px"
	 viewBox="0 0 49 51" style="enable-background:new 0 0 49 51;" xml:space="preserve">
<style type="text/css">
	.st0{fill:#60CAF2;}
</style>
<g>
	<path class="st0" d="M41,43.5c-0.4,0-0.7,0.3-0.7,0.8v2.6c0,0.7-0.5,1.1-1,1.1H5.1c-0.6,0-1-0.5-1-1.1V4.2c0-0.7,0.5-1.1,1-1.1
		h34.2c0.6,0,1,0.5,1,1.1v5c0,0.4,0.3,0.8,0.7,0.8c0.4,0,0.7-0.3,0.7-0.8v-5c0-1.4-1.1-2.6-2.4-2.6H5.1c-1.3,0-2.4,1.2-2.4,2.6v42.5
		c0,1.4,1.1,2.6,2.4,2.6h34.2c1.3,0,2.4-1.2,2.4-2.6v-2.6C41.7,43.8,41.4,43.5,41,43.5z"/>
	<path class="st0" d="M36.2,7.9v1.5c0,0.4,0.3,0.8,0.7,0.8c0.4,0,0.7-0.3,0.7-0.8V6.9c0-0.4-0.3-0.8-0.7-0.8H7.4
		C7,6.1,6.7,6.4,6.7,6.9v19.7c0,0.4,0.3,0.8,0.7,0.8c0.4,0,0.7-0.3,0.7-0.8V7.9V7.6h0.2H36h0.1L36.2,7.9L36.2,7.9z"/>
	<path class="st0" d="M7.4,30.9c0.2,0,0.4-0.1,0.5-0.2c0.1-0.1,0.2-0.3,0.2-0.5S8.1,29.7,8,29.6c-0.1-0.1-0.3-0.2-0.5-0.2
		c-0.2,0-0.4,0.1-0.5,0.2c-0.1,0.1-0.2,0.3-0.2,0.5s0.1,0.4,0.2,0.5C7,30.8,7.2,30.9,7.4,30.9z"/>
	<path class="st0" d="M8.1,43.5v-0.2v-9.5c0-0.4-0.3-0.8-0.7-0.8c-0.4,0-0.7,0.3-0.7,0.8v10.5C6.7,44.7,7,45,7.4,45h29.4
		c0.4,0,0.7-0.3,0.7-0.8v-2.1c0-0.4-0.3-0.8-0.7-0.8c-0.4,0-0.7,0.3-0.7,0.8v1.1v0.1H36H8.2H8.1V43.5z"/>
	<path class="st0" d="M27.9,34.8l-1.7,1.9l-0.1,0.1L26,36.7l-1.1-1.2c-0.3-0.3-0.7-0.5-1.1-0.5c-0.4,0-0.8,0.2-1.1,0.5L22,36.2
		c-0.3,0.3-0.3,0.8,0,1.1c0.1,0.1,0.3,0.2,0.5,0.2c0.2,0,0.4-0.1,0.5-0.2l0.7-0.8l0.1-0.1l0.1,0.1l1.1,1.2c0.3,0.3,0.7,0.5,1.1,0.5
		s0.8-0.2,1.1-0.5l1.7-1.9c0.3-0.3,0.3-0.8,0-1.1c-0.1-0.1-0.3-0.2-0.5-0.2C28.3,34.6,28.1,34.7,27.9,34.8z"/>
	<path class="st0" d="M46,21.1c0.4-0.7,0.5-1.3,0.3-2.1c-0.2-0.7-0.6-1.3-1.2-1.6c-0.3-0.2-0.5-0.5-0.5-1c0-0.8-0.2-1.4-0.7-2
		c-0.4-0.4-1-0.8-1.7-0.8h-0.1c-0.3,0-0.7-0.2-0.8-0.5c-0.3-0.7-0.8-1.1-1.5-1.3c-0.2-0.1-0.4-0.1-0.6-0.1c-0.5,0-0.9,0.1-1.3,0.4
		c-0.1,0.1-0.3,0.1-0.5,0.1s-0.4-0.1-0.5-0.1c-0.4-0.2-0.8-0.4-1.3-0.4c-0.2,0-0.4,0-0.6,0.1c-0.6,0.2-1.2,0.7-1.5,1.3
		c-0.2,0.3-0.5,0.5-0.8,0.5h-0.1c-0.6,0-1.2,0.3-1.7,0.8c-0.5,0.5-0.7,1.2-0.7,2c0,0.4-0.2,0.8-0.5,1c-0.6,0.3-1,0.9-1.2,1.6
		c-0.1,0.3-0.1,0.7-0.1,1v0.2h-0.2h-15c-0.4,0-0.7,0.3-0.7,0.8s0.3,0.8,0.7,0.8h15.4h0.2L28.6,22c0,0.1,0,0.1-0.1,0.2
		c-0.4,0.7-0.5,1.3-0.3,2.1c0,0.1,0.1,0.2,0.1,0.3l0.1,0.2h-0.2H13.2c-0.4,0-0.7,0.3-0.7,0.8s0.3,0.8,0.7,0.8h16.8H30v0.1
		c0,0.1,0.1,0.2,0.1,0.4c0,0.8,0.2,1.4,0.7,2c0.4,0.4,1,0.8,1.7,0.8h0.1c0.3,0,0.7,0.2,0.8,0.5c0.1,0.2,0.2,0.4,0.4,0.5v0.1v8.8
		c0,0.3,0.2,0.5,0.4,0.8c0.1,0,0.2,0.1,0.3,0.1c0.2,0,0.4-0.1,0.5-0.2l2.1-2.3l0.1-0.1l0.1,0.1l2.1,2.3c0.1,0.1,0.3,0.2,0.5,0.2
		c0.1,0,0.2,0,0.3-0.1c0.3-0.1,0.4-0.4,0.4-0.8v-8.8v-0.1c0.1-0.2,0.3-0.3,0.4-0.5c0.2-0.3,0.5-0.5,0.8-0.5H42
		c0.6,0,1.2-0.3,1.7-0.8c0.5-0.5,0.7-1.2,0.7-2c0-0.4,0.2-0.8,0.5-1c0.6-0.3,1-0.9,1.2-1.6c0.2-0.7,0.1-1.4-0.3-2.1
		C45.8,21.9,45.8,21.4,46,21.1z M39.4,37.3v0.4l-0.3-0.3L37.8,36c-0.1-0.1-0.3-0.2-0.5-0.2c-0.2,0-0.4,0.1-0.5,0.2l-1.3,1.4
		l-0.3,0.3v-0.4v-5.7v-0.2h0.2h0.1c0.5,0,0.9-0.1,1.3-0.4c0.1-0.1,0.3-0.1,0.5-0.1c0.2,0,0.4,0.1,0.5,0.1c0.4,0.2,0.8,0.4,1.3,0.4
		h0.1h0.2v0.2V37.3z M44.9,23.9c-0.1,0.3-0.2,0.5-0.5,0.7c-0.8,0.4-1.3,1.4-1.3,2.4c0,0.3-0.1,0.5-0.3,0.8c-0.2,0.2-0.4,0.3-0.7,0.3
		H42c-0.9,0-1.7,0.5-2.1,1.4c-0.1,0.2-0.3,0.4-0.6,0.5c-0.1,0-0.2,0-0.2,0c-0.2,0-0.3-0.1-0.5-0.1c-0.4-0.2-0.8-0.4-1.3-0.4
		s-0.9,0.1-1.3,0.4C35.8,30,35.7,30,35.5,30c-0.1,0-0.2,0-0.2,0c-0.3-0.1-0.5-0.2-0.6-0.5c-0.4-0.9-1.2-1.4-2.1-1.4h-0.1
		c-0.2,0-0.5-0.1-0.7-0.3c-0.2-0.2-0.3-0.4-0.3-0.8c0-0.7-0.2-1.4-0.6-1.9c-0.2-0.2-0.4-0.3-0.6-0.4c-0.2-0.1-0.4-0.3-0.5-0.7
		s0-0.5,0.1-0.8c0.5-0.9,0.5-2,0-2.7c-0.1-0.2-0.2-0.5-0.1-0.8s0.2-0.5,0.5-0.7c0.8-0.4,1.3-1.4,1.3-2.4c0-0.3,0.1-0.5,0.3-0.8
		c0.2-0.2,0.4-0.3,0.7-0.3h0.1c0.9,0,1.7-0.5,2.1-1.4c0.1-0.2,0.3-0.4,0.6-0.5c0.1,0,0.2,0,0.2,0c0.2,0,0.3,0.1,0.5,0.1
		c0.4,0.2,0.8,0.4,1.3,0.4s0.9-0.1,1.3-0.4c0.2-0.1,0.3-0.1,0.5-0.1c0.1,0,0.2,0,0.2,0c0.3,0.1,0.5,0.2,0.6,0.5
		c0.4,0.9,1.2,1.4,2.1,1.4h0.1c0.2,0,0.5,0.1,0.7,0.3s0.3,0.4,0.3,0.8c0,1,0.5,2,1.3,2.4c0.2,0.1,0.4,0.3,0.5,0.7
		c0.1,0.3,0,0.5-0.1,0.8c-0.5,0.9-0.5,2,0,2.7C44.9,23.3,45,23.6,44.9,23.9z"/>
	<path class="st0" d="M40.9,19c-0.2,0-0.4,0.1-0.5,0.2l-2.9,3.2l-0.1,0.1l-0.1-0.1l-1.1-1.2c-0.1-0.1-0.3-0.2-0.5-0.2
		s-0.4,0.1-0.5,0.2c-0.3,0.3-0.3,0.8,0,1.1l1.7,1.9c0.1,0.1,0.3,0.2,0.5,0.2s0.4-0.1,0.5-0.2l3.5-3.8c0.3-0.3,0.3-0.8,0-1.1
		C41.2,19,41.1,19,40.9,19z"/>
	<path class="st0" d="M13.1,13.6c0-0.2-0.1-0.4-0.2-0.5c-0.1-0.1-0.3-0.2-0.5-0.2c-0.2,0-0.4,0.1-0.5,0.2c-0.1,0.1-0.2,0.3-0.2,0.5
		c0,0.2,0.1,0.4,0.2,0.5c0.1,0.1,0.3,0.2,0.5,0.2c0.2,0,0.4-0.1,0.5-0.2C13,13.9,13.1,13.7,13.1,13.6z"/>
	<path class="st0" d="M15.6,12.7c-0.4,0-0.7,0.3-0.7,0.8c0,0.4,0.3,0.8,0.7,0.8h4.2c0.4,0,0.7-0.3,0.7-0.8c0-0.4-0.3-0.8-0.7-0.8
		H15.6z"/>
	<path class="st0" d="M28.4,29.3h-9.8c-0.4,0-0.7,0.3-0.7,0.8c0,0.4,0.3,0.8,0.7,0.8h9.8c0.4,0,0.7-0.3,0.7-0.8
		C29.1,29.7,28.9,29.3,28.4,29.3z"/>
</g>
</svg>
