<?xml version="1.0" encoding="utf-8"?>
<!-- Generator: Adobe Illustrator 24.0.0, SVG Export Plug-In . SVG Version: 6.00 Build 0)  -->
<svg version="1.1" id="Слой_1" xmlns="http://www.w3.org/2000/svg" xmlns:xlink="http://www.w3.org/1999/xlink" x="0px" y="0px"
	 viewBox="0 0 49 49" style="enable-background:new 0 0 49 49;" xml:space="preserve">
<style type="text/css">
	.st0{fill:#60CAF2;}
</style>
<path class="st0" d="M23.3,15.1c0.5,0,0.6-0.2,1.3-0.9c0.3-0.3,0.3-0.8,0-1.1c-0.3-0.3-0.8-0.3-1.1,0c-0.2,0.2-0.6,0.5-0.8,0.7
	C22.2,14.2,22.5,15.1,23.3,15.1z"/>
<path class="st0" d="M35.8,11.5C34.4,10.2,33,9,32.2,8.1c2.2-1,1.8-4.1-0.3-4.8V0.8c0-0.5-0.3-0.8-0.8-0.8s-0.8,0.3-0.8,0.8v2.4
	C28,3.9,27.8,6.9,29.9,8c-0.9,1.3-3,2.8-4.8,4.4c-0.3,0.2-0.3,0.8-0.1,1c0.2,0.3,0.8,0.3,1,0.1c1.9-1.7,3.9-3.2,4.9-4.6
	c0.7,0.9,1.8,1.9,3.2,3.1c-1.5,8.4-10.7,4.6-15,13.8c-0.1-0.7-0.2-1.3-0.2-1.9c0-2,1.1-4.2,3.4-6.7c0.2-0.3,0.2-0.8,0-1
	c-0.3-0.2-0.8-0.2-1,0c-1.5,1.6-2.5,3.2-3.1,4.6l-3.3-1.3c-0.3-0.1-0.2-0.1-4.3,1.3c1.6-1.4,3.1-2.5,4-3.6c0.3,0.5,0.9,0.9,1.5,1.5
	c0.3,0.2,0.8,0.2,1,0c0.2-0.3,0.2-0.8,0-1c-0.5-0.5-1-0.9-1.4-1.4c1.6-0.9,1.4-3.3-0.3-4v-1.9c0-0.5-0.3-0.8-0.8-0.8
	c-0.5,0.1-0.8,0.5-0.8,0.8v1.8c-1.7,0.7-1.9,3.1-0.3,4c-2.3,2.8-9.9,7.3-9.9,12.8c0,1,0.2,2,0.6,3.1C4.5,33,5.4,34,6.5,34.5v1.8
	c0,1.4,1,2.6,2.4,2.8v8.3c0,0.5,0.3,0.8,0.8,0.8l31.9-0.1c0.5,0,0.8-0.3,0.8-0.8c0-3.2-1.6-6.6-4.2-6.5v-2.4c0-0.5-0.3-0.8-0.8-0.8
	c-0.5,0-0.8,0.3-0.8,0.8v2.8c-0.8,0.6-1.5,1.5-1.9,2.6c-0.9-2.2-2.6-3.1-3.5-3.1c-0.9,0-1.6,0.3-2.3,1c-0.3,0.3-0.3,0.8,0,1
	c0.3,0.3,0.8,0.3,1,0c0.3-0.3,0.8-0.6,1.1-0.6c1.1,0,2.5,2.4,2.6,4.3h-5.4c-0.2-2.5-1.1-4.4-2.6-5.4c0,0,0,0.1,0-4.6h12.5
	c1.6,0,2.8-1.3,2.8-2.8v-0.6c0-0.5-0.3-0.8-0.8-0.8c-0.5,0-0.8,0.3-0.8,0.8v0.6c0,0.7-0.6,1.4-1.4,1.4H23.9c-0.7,0-1.4-0.6-1.4-1.4
	v-2.4h16.8c1.6,0,3.1-0.9,3.8-2.3C47.1,21.6,42.3,17.1,35.8,11.5z M31.1,4.6c0.6,0,1,0.5,1,1s-0.5,1-1,1c-0.6,0-1.1-0.3-1.1-0.9
	C29.9,5.1,30.4,4.6,31.1,4.6z M14.5,13.4c0.3,0,0.7,0.3,0.7,0.7c0,0.3-0.3,0.7-0.7,0.7c-0.3,0-0.7-0.3-0.7-0.7
	C13.9,13.8,14.2,13.4,14.5,13.4z M43,25.3c-2.4,1.9-6,2.4-9.1,4.8h-5.8c4-5.6,11.2-3.9,13.5-10.4c0.9,1.4,1.5,2.8,1.5,4.2
	C43.1,24.5,43.1,24.8,43,25.3z M6.2,25.4c2.3,0.8,2.2,0.8,2.4,0.8c0.2,0-0.3,0.1,5.9-1.9l3,1.1c0.1,0.6,0.2,1.3,0.5,1.8
	c-3.4-1.3-3.3-1.3-3.6-1.1L8.6,28l-3.2-1.1C5.7,26.3,5.9,25.8,6.2,25.4z M39.9,17.4l0.7,0.8c-1.7,7.1-9.8,4.4-14.2,11.8h-1.3
	C28.8,21.6,37.3,24.7,39.9,17.4z M5.1,29.8c-0.1-0.7-0.1-1.1,0-1.6c0,0,0,0,3.3,1.3c0.3,0.1,0,0.1,6.1-1.9c4.2,1.6,4.2,1.6,4.2,1.6
	c0.3,0.8,0.9,1.4,1.7,1.8c0,0,0.1,0-0.5,0.1c-5.5-2-5.2-2-5.7-1.9l-5.7,1.9L5.1,29.8z M35.5,13.2c0,0,1.9,1.6,3.2,3
	c-1.9,7.5-11.3,3.9-15.3,13.9h-0.9c-1,0-1.9-0.6-2.4-1.5C20,28.3,20,28.2,19.9,28C23.4,17.6,33.2,22,35.5,13.2z M14.5,21.1
	c3.1,1.1,3.1,1.1,3.1,1.1c-0.2,1-0.2,1.5-0.2,1.5c-2.8-1-2.7-1.1-3.1-1l-5.7,1.9L7.1,24c0,0,0.6-0.7,1-1.1c0,0,0,0,0.1,0
	C8.7,23.1,8.4,23.1,14.5,21.1z M7.9,36.3V35c0.5,0.1,0.3,0,4.2,0c0.5,0,0.8-0.3,0.8-0.8c0-0.5-0.3-0.7-0.7-0.7H8.6
	c-1.3,0-2.5-0.8-3-1.9l2.7,1c0.3,0.1,0.1,0.1,6.1-1.9l5.1,1.9c0.3,0.1,0.5,0,1.5-0.3v1.3h-6.6c-0.5,0-0.8,0.3-0.8,0.8
	c0,0.5,0.3,0.8,0.8,0.8h6.6v1.3c0,0.8-0.7,1.4-1.4,1.4H9.5C8.6,37.7,7.9,37.1,7.9,36.3z M16.7,46.7v-3.9c0-1.3-1-2.2-2.2-2.2
	c-1.3,0-2.2,1-2.2,2.2v1.7c0,0.5,0.3,0.8,0.8,0.8S14,45,14,44.5v-1.7c0-0.3,0.3-0.7,0.7-0.7c0.3,0,0.7,0.3,0.7,0.7v3.9h-5v-7.5h8.3
	v7.5H16.7z M37.4,42.6c0.2-0.1,0.5-0.1,0.6-0.1c1.3,0,2.4,1.9,2.6,4.3c-5.7,0-5.2,0-5.4,0C35.5,44.5,36.5,43,37.4,42.6z M26.6,46.7
	h-5.4c0.2-2.4,1.4-4.3,2.6-4.3C25.4,42.4,26.5,44.3,26.6,46.7z M24.1,36.8v4.1c-1.9,0-3.3,1.8-3.9,3.6v-5.4c1.3-0.2,2.3-1.4,2.4-2.7
	C23.1,36.8,23.5,36.8,24.1,36.8z M41.9,28.6c-0.5,0.9-1.4,1.5-2.4,1.5h-2.8c1.9-1,4-1.6,5.7-2.6C42.2,27.8,42.1,28.2,41.9,28.6z"/>
</svg>
