<?xml version="1.0" encoding="utf-8"?>
<!-- Generator: Adobe Illustrator 23.0.1, SVG Export Plug-In . SVG Version: 6.00 Build 0)  -->
<svg version="1.1" id="Слой_1" xmlns="http://www.w3.org/2000/svg" xmlns:xlink="http://www.w3.org/1999/xlink" x="0px" y="0px"
	 viewBox="0 0 49 51" style="enable-background:new 0 0 49 51;" xml:space="preserve">
<style type="text/css">
	.st0{fill:#60CAF2;}
</style>
<g>
	<path class="st0" d="M39.8,7.4l-0.5-4c0-0.2-0.1-0.4-0.3-0.5c-0.2-0.1-0.3-0.2-0.5-0.1l-4,0.6c-0.4,0.1-0.7,0.4-0.6,0.9
		C34,4.7,34.3,5.1,34.7,5L37,4.5c-3.1,4.3-6.6,7.9-10.1,10.8c-3.1,2.6-6.3,4.5-9.6,5.9c-5.6,2.4-9.3,2.3-9.4,2.3
		c-0.4,0-0.7,0.3-0.7,0.8S7.5,25,7.9,25c0,0,0.1,0,0.3,0c1,0,4.6-0.2,9.6-2.4c3.4-1.5,6.8-3.5,9.9-6.1c3.7-3,7.2-6.8,10.5-11.2
		l0.3,2.1c0,0.4,0.4,0.6,0.7,0.6h0.1C39.6,8.3,39.9,7.9,39.8,7.4z"/>
	<path class="st0" d="M47.7,44.1H42c0.5-0.3,0.9-0.8,1.3-1.2c1.6-1.7,2.4-4.1,2.4-6.6c0-2.5-0.9-4.8-2.4-6.6
		c-0.6-0.6-1.2-1.2-1.9-1.5v-3.1c0-0.4-0.3-0.8-0.7-0.8c-0.4,0-0.7,0.3-0.7,0.8v2.4c-2-0.8-4-0.6-5.9,0.2v-9.5
		c0-0.1,0.1-0.2,0.2-0.2h5.5c0.1,0,0.2,0.1,0.2,0.2v2c0,0.4,0.3,0.8,0.7,0.8c0.4,0,0.7-0.3,0.7-0.8v-1.9c0-1-0.7-1.7-1.6-1.7h-5.5
		c-0.9,0-1.6,0.8-1.6,1.7v10.2c-0.5,0.3-1,0.8-1.4,1.2c-1.6,1.7-2.4,4.1-2.4,6.6c0,2.5,0.9,4.8,2.4,6.6c0.4,0.4,0.9,0.9,1.3,1.2
		h-4.4V25.4c0-1-0.7-1.7-1.6-1.7h-5.5c-0.9,0-1.6,0.8-1.6,1.7v18.7h-4.5V31.7c0-1-0.7-1.7-1.6-1.7H8.1c-0.9,0-1.6,0.8-1.6,1.7v12.5
		H3.7V4.7c0-0.8-0.6-1.4-1.3-1.4H1.3C0.6,3.2,0,3.9,0,4.7v5.5C0,10.6,0.3,11,0.7,11s0.7-0.3,0.7-0.8V4.8h0.9v39.4
		c0,0.8,0.6,1.4,1.3,1.4h44v1.2H1.4V14.9c0-0.4-0.3-0.8-0.7-0.8S0,14.5,0,14.9v31.9c0,0.8,0.6,1.4,1.3,1.4h46.5
		c0.7,0,1.3-0.6,1.3-1.4v-1.4C49,44.7,48.4,44.1,47.7,44.1z M13.8,44.1H7.9V31.7c0-0.1,0.1-0.2,0.2-0.2h5.5c0.1,0,0.2,0.1,0.2,0.2
		V44.1z M21.1,44.1V25.4c0-0.1,0.1-0.2,0.2-0.2h5.5c0.1,0,0.2,0.1,0.2,0.2v18.7H21.1z M40.5,43.3c-0.7,0.4-1.5,0.6-2.3,0.8
		c-0.1,0-0.1,0-0.2,0c-0.1,0-0.2,0-0.3,0h-0.1c-0.1,0-0.2,0-0.3,0c-0.1,0-0.2,0-0.3,0h-0.1c-0.1,0-0.2,0-0.2,0c-0.1,0-0.1,0-0.2,0
		h-0.1c-0.1,0-0.1,0-0.2,0c-0.8-0.1-1.7-0.4-2.4-1c-0.5-0.3-1-0.8-1.5-1.2c-1.4-1.5-2.1-3.4-2.1-5.5c0-2,0.7-4,2.1-5.5
		c0.5-0.5,1.1-1,1.7-1.4c0,0,0,0,0.1,0c1-0.5,2.2-0.9,3.2-0.9c0.9,0,1.8,0.2,2.6,0.5c0.1,0,0.2,0.1,0.3,0.1h0.1
		c0.7,0.3,1.4,0.9,2,1.5c2.7,3,2.7,7.8,0,10.8C41.8,42.4,41.2,42.9,40.5,43.3z"/>
	<path class="st0" d="M40.2,33.1c-0.2-0.4-0.5-0.8-0.9-1c-0.4-0.2-0.8-0.3-1.4-0.3h-2.1h-0.6h-0.6v6.7h-0.3v1h0.3V41h1.2v-1.6H38v-1
		h-2.2v-1h2.1c0.5,0,1-0.1,1.4-0.3c0.4-0.2,0.7-0.5,0.9-1c0.2-0.4,0.3-1,0.3-1.5C40.5,34.1,40.4,33.5,40.2,33.1z M39.1,35.5
		c-0.1,0.2-0.3,0.4-0.5,0.5c-0.2,0.1-0.4,0.2-0.7,0.2h-2.2V33h2.2c0.3,0,0.5,0.1,0.7,0.2c0.2,0.1,0.4,0.3,0.5,0.5
		c0.1,0.2,0.2,0.5,0.2,0.9S39.2,35.2,39.1,35.5z"/>
</g>
</svg>
