<svg width="150" height="25" viewBox="0 0 150 25" fill="none" xmlns="http://www.w3.org/2000/svg">
<path d="M41.331 11.213C42.2484 10.0917 42.7071 8.66463 42.7071 7.08462C42.7071 2.9562 39.7509 0.203918 35.4187 0.203918H26.3463V4.79105H35.4696C38.018 4.79105 38.018 6.52397 38.018 7.08462C38.018 8.97044 36.6419 9.37819 35.4696 9.37819H26.3463V24.3628H36.0303C40.7193 24.3628 43.8794 21.3557 43.8794 16.8705C43.8794 14.526 42.962 12.4872 41.331 11.213ZM36.0812 19.7247H31.0354V13.9653H36.0812C38.069 13.9653 39.1903 15.0357 39.1903 16.8195C39.1903 18.6544 38.069 19.7247 36.0812 19.7247Z" fill="#43B3DD"/>
<path d="M94.1886 11.264C95.208 10.0408 95.8196 8.51176 95.8196 6.8298C95.8196 3.56784 93.3222 6.10352e-05 87.8686 6.10352e-05H80.3763V7.59433H84.9634V4.63817H87.8176C89.2957 4.63817 91.1305 5.04592 91.1305 6.88077C91.1305 8.40982 89.9583 9.32725 87.9195 9.32725H83.4343V13.9144H87.9195C89.8563 13.9144 92.2009 14.3731 92.2009 16.6157C92.2009 18.5525 90.5699 19.7757 87.9195 19.7757C85.7789 19.7757 84.046 19.1131 83.2814 17.9918L82.4659 16.8196L78.4395 19.2151L79.3059 20.5403C80.9369 22.9867 84.1479 24.4648 87.8686 24.4648C93.0673 24.4648 96.839 21.2028 96.839 16.7686C96.89 14.475 95.9725 12.5892 94.1886 11.264Z" fill="#43B3DD"/>
<path d="M141.488 0.203918H132.568V4.79106H141.692C143.985 4.79106 145.361 6.06527 145.361 8.15496C145.361 10.2956 144.036 11.5189 141.692 11.5189H132.568V24.3119H137.156V16.106H141.437C146.534 16.106 149.999 12.895 149.999 8.15496C150.05 3.46589 146.534 0.203918 141.488 0.203918Z" fill="#43B3DD"/>
<path d="M50.5667 24.3119H55.5106L58.161 17.4822H53.2171L50.5667 24.3119Z" fill="#43B3DD"/>
<path d="M61.5142 0.20393L61.4633 0.0510254L61.4123 0.20393H59.7813L55.0413 12.6911H59.9342L61.4633 8.61368L63.0433 12.6911H59.9342L58.1503 17.4822H64.8781L67.4775 24.3119H72.4214L63.2471 0.20393H61.5142Z" fill="#43B3DD"/>
<path d="M102.595 24.3119H107.539L110.139 17.4822H105.195L102.595 24.3119Z" fill="#43B3DD"/>
<path d="M113.564 0.20393L113.462 0.0510254L113.411 0.20393H111.78L107.04 12.6911H111.933L113.513 8.61368L115.042 12.6911H111.933L110.149 17.4822H116.877L119.477 24.3119H124.42L115.246 0.20393H113.564Z" fill="#43B3DD"/>
<path d="M4.58714 17.4822H0V24.3119H4.58714V17.4822Z" fill="#43B3DD"/>
<path d="M10.6014 12.1815L19.3679 0.203918H13.6595L6.47296 9.93885H4.63811V0.203918H0V12.6911H4.84198V14.526H6.57489L14.475 24.3119H20.3363L10.6014 12.1815Z" fill="#43B3DD"/>
</svg>
