<svg width="19" height="22" viewBox="0 0 19 22" fill="none" xmlns="http://www.w3.org/2000/svg">
<path d="M10.942 15.2969C11.3611 15.2969 11.7009 14.9471 11.7009 14.5156C11.7009 14.0842 11.3611 13.7344 10.942 13.7344C10.5228 13.7344 10.183 14.0842 10.183 14.5156C10.183 14.9471 10.5228 15.2969 10.942 15.2969Z" fill="#A3A3A3" stroke="#A3A3A3" stroke-width="0.2"/>
<path d="M11.7009 19.4375H4.03571C3.19877 19.4375 2.51786 18.7366 2.51786 17.875V11.4688C2.51786 10.6072 3.19877 9.90625 4.03571 9.90625H14.9643C15.8012 9.90625 16.4821 10.6072 16.4821 11.4688V13.1875C16.4821 13.619 16.8219 13.9688 17.2411 13.9688C17.6602 13.9688 18 13.619 18 13.1875V11.4688C18 9.74562 16.6382 8.34375 14.9643 8.34375H14.0522V5.58852C14.0522 3.0584 12.0094 1 9.4986 1C6.98776 1 4.94502 3.0584 4.94502 5.58852V8.34375H4.03571C2.36182 8.34375 1 9.74562 1 11.4688V17.875C1 19.5981 2.36182 21 4.03571 21H11.7009C12.12 21 12.4598 20.6502 12.4598 20.2188C12.4598 19.7873 12.12 19.4375 11.7009 19.4375ZM6.46288 5.58852C6.46288 3.91996 7.8247 2.5625 9.4986 2.5625C11.1725 2.5625 12.5343 3.91996 12.5343 5.58852V8.34375H6.46288V5.58852Z" fill="#A3A3A3" stroke="#A3A3A3" stroke-width="0.2"/>
<path d="M8.09598 15.2969C8.51512 15.2969 8.85491 14.9471 8.85491 14.5156C8.85491 14.0842 8.51512 13.7344 8.09598 13.7344C7.67683 13.7344 7.33705 14.0842 7.33705 14.5156C7.33705 14.9471 7.67683 15.2969 8.09598 15.2969Z" fill="#A3A3A3"/>
<path d="M5.25 15.2969C5.66915 15.2969 6.00893 14.9471 6.00893 14.5156C6.00893 14.0842 5.66915 13.7344 5.25 13.7344C4.83086 13.7344 4.49107 14.0842 4.49107 14.5156C4.49107 14.9471 4.83086 15.2969 5.25 15.2969Z" fill="#A3A3A3"/>
</svg>
