<svg width="17" height="20" viewBox="0 0 17 20" fill="none" xmlns="http://www.w3.org/2000/svg">
<path d="M16.84 20.0001H14.8C14.8 16.6001 11.92 13.8001 8.4 13.8001C4.88 13.8001 2 16.6001 2 20.0001H0C0 15.4801 3.76 11.7601 8.44 11.7601C13.08 11.7601 16.84 15.4801 16.84 20.0001Z" fill="#A3A3A3"/>
<path d="M8.44025 11.12C5.36025 11.12 2.88025 8.64 2.88025 5.56C2.88025 2.48 5.36025 0 8.44025 0C11.4802 0 14.0002 2.48 14.0002 5.56C14.0002 8.64 11.4802 11.12 8.44025 11.12ZM8.44025 2.04C6.48025 2.04 4.92025 3.64 4.92025 5.56C4.92025 7.48 6.52025 9.08 8.44025 9.08C10.4002 9.08 11.9602 7.48 11.9602 5.56C11.9602 3.64 10.3602 2.04 8.44025 2.04Z" fill="#A3A3A3"/>
</svg>
